<svg width="64" height="64" viewBox="0 0 64 64" fill="none" xmlns="http://www.w3.org/2000/svg">
<path d="M64 49C64 51.7614 61.7614 54 59 54C56.2386 54 54 56.2386 54 59C54 61.7614 51.7614 64 49 64H12C5.37258 64 0 58.6274 0 52V15C0 12.2386 2.23858 10 5 10C7.76142 10 10 7.76142 10 5C10 2.23858 12.2386 0 15 0H52C58.6274 0 64 5.37258 64 12V49Z" fill="#EBEBEB"/>
<path d="M13.2 39V24.816H15.456V37.416H18.984V39H13.2Z" fill="#1F1F1F"/>
<path d="M24.0684 39.288C23.5244 39.288 23.0204 39.248 22.5564 39.168C22.0924 39.088 21.6924 38.928 21.3564 38.688C21.0204 38.448 20.7564 38.088 20.5644 37.608C20.3724 37.128 20.2764 36.48 20.2764 35.664V24.816H22.5804V36.264C22.5804 36.696 22.6444 37.032 22.7724 37.272C22.9164 37.496 23.1004 37.648 23.3244 37.728C23.5484 37.808 23.7964 37.848 24.0684 37.848C24.3404 37.848 24.5884 37.808 24.8124 37.728C25.0364 37.648 25.2124 37.496 25.3404 37.272C25.4844 37.032 25.5564 36.696 25.5564 36.264V24.816H27.8364V35.64C27.8364 36.456 27.7404 37.112 27.5484 37.608C27.3724 38.088 27.1164 38.448 26.7804 38.688C26.4444 38.928 26.0444 39.088 25.5804 39.168C25.1164 39.248 24.6124 39.288 24.0684 39.288Z" fill="#1F1F1F"/>
<path d="M30.1922 39V24.816H33.0242L35.4002 34.896L37.8002 24.816H40.6082V39H38.5682V28.056L36.1922 39H34.6082L32.2322 28.056V39H30.1922Z" fill="#1F1F1F"/>
<path d="M46.5891 39.288C45.8371 39.288 45.1731 39.2 44.5971 39.024C44.0371 38.848 43.5971 38.488 43.2771 37.944C42.9571 37.384 42.7971 36.552 42.7971 35.448V27.792C42.7971 26.928 42.9571 26.272 43.2771 25.824C43.5971 25.36 44.0451 25.04 44.6211 24.864C45.1971 24.688 45.8611 24.6 46.6131 24.6C47.3651 24.6 48.0211 24.696 48.5811 24.888C49.1571 25.064 49.6131 25.384 49.9491 25.848C50.2851 26.296 50.4531 26.944 50.4531 27.792V35.424C50.4531 36.56 50.2851 37.4 49.9491 37.944C49.6131 38.488 49.1571 38.848 48.5811 39.024C48.0051 39.2 47.3411 39.288 46.5891 39.288ZM46.5891 37.92C46.8931 37.92 47.1651 37.88 47.4051 37.8C47.6451 37.704 47.8291 37.536 47.9571 37.296C48.0851 37.056 48.1491 36.704 48.1491 36.24V27.72C48.1491 27.272 48.0851 26.928 47.9571 26.688C47.8291 26.432 47.6451 26.264 47.4051 26.184C47.1651 26.088 46.8931 26.04 46.5891 26.04C46.2851 26.04 46.0131 26.088 45.7731 26.184C45.5491 26.264 45.3731 26.432 45.2451 26.688C45.1171 26.928 45.0531 27.272 45.0531 27.72V36.24C45.0531 36.704 45.1171 37.056 45.2451 37.296C45.3731 37.536 45.5491 37.704 45.7731 37.8C46.0131 37.88 46.2851 37.92 46.5891 37.92Z" fill="#1F1F1F"/>
</svg>
