<svg width="706" height="184" viewBox="0 0 706 184" fill="none" xmlns="http://www.w3.org/2000/svg">
<path d="M0 180.48V3.12H27.84V154.08H88.32V180.48H0Z" fill="#2B2B2B"/>
<path d="M124.088 3.12H151.928V114.96C151.928 129.04 154.568 139.6 159.848 146.64C165.128 153.52 173.128 156.96 183.848 156.96C194.728 156.96 202.808 153.52 208.088 146.64C213.528 139.6 216.247 129.04 216.247 114.96V3.12H244.088V114.96C244.088 136.72 238.808 153.6 228.248 165.6C217.848 177.6 203.048 183.6 183.848 183.6C174.567 183.6 166.168 182.08 158.648 179.04C151.128 175.84 144.807 171.36 139.688 165.6C134.567 159.68 130.647 152.48 127.927 144C125.367 135.36 124.088 125.68 124.088 114.96V3.12Z" fill="#2B2B2B"/>
<path d="M293.644 180.48V3.12H332.764L386.284 143.04L439.084 3.12H478.444V180.48H450.604V39.12L397.564 180.48H374.524L321.484 39.12V180.48H293.644Z" fill="#2B2B2B"/>
<path d="M519.728 91.92C519.728 78.96 522.127 66.96 526.927 55.92C531.727 44.72 538.368 34.96 546.848 26.64C555.328 18.32 565.248 11.84 576.608 7.19999C588.128 2.4 600.527 0 613.807 0C626.447 0 638.288 2.4 649.328 7.19999C660.528 12 670.288 18.64 678.608 27.12C686.928 35.44 693.408 45.2 698.048 56.4C702.848 67.44 705.247 79.2 705.247 91.68C705.247 104.64 702.848 116.72 698.048 127.92C693.248 138.96 686.687 148.64 678.367 156.96C670.207 165.28 660.528 171.84 649.328 176.64C638.128 181.28 626.048 183.6 613.088 183.6C600.128 183.6 587.968 181.2 576.608 176.4C565.408 171.6 555.488 165.04 546.848 156.72C538.368 148.4 531.727 138.72 526.927 127.68C522.127 116.48 519.728 104.56 519.728 91.92ZM547.807 91.68C547.807 100.8 549.488 109.36 552.848 117.36C556.208 125.2 560.848 132.08 566.768 138C572.688 143.92 579.568 148.56 587.408 151.92C595.408 155.28 603.968 156.96 613.088 156.96C622.208 156.96 630.608 155.28 638.288 151.92C646.128 148.56 652.927 144 658.688 138.24C664.448 132.48 668.928 125.68 672.128 117.84C675.488 109.84 677.168 101.28 677.168 92.16C677.168 82.88 675.488 74.24 672.128 66.24C668.768 58.24 664.208 51.28 658.448 45.36C652.688 39.44 645.728 34.88 637.568 31.68C629.568 28.32 620.928 26.64 611.648 26.64C602.848 26.64 594.527 28.4 586.688 31.92C579.007 35.28 572.288 39.92 566.528 45.84C560.768 51.76 556.208 58.64 552.848 66.48C549.488 74.32 547.807 82.72 547.807 91.68Z" fill="#2B2B2B"/>
</svg>
