<svg width="1435" height="857" viewBox="0 0 1435 857" fill="none" xmlns="http://www.w3.org/2000/svg">
<path d="M97.44 60.4H23.8V91.06L109.2 90.5V106.6H5.6V3H109.2L109.34 19.1H23.8V44.3H97.44V60.4Z" fill="url(#paint0_linear_1943_3919)"/>
<path d="M230.398 54.94C230.398 64.74 228.065 73.56 223.398 81.4C218.732 89.24 212.105 95.4 203.518 99.88C194.932 104.36 184.945 106.6 173.558 106.6H123.998V3H173.418C184.805 3 194.792 5.24 203.378 9.72C212.058 14.2 218.732 20.36 223.398 28.2C228.065 36.04 230.398 44.9533 230.398 54.94ZM176.078 89.52C183.078 89.52 189.285 88.2133 194.698 85.6C200.205 82.8933 204.498 78.9733 207.578 73.84C210.752 68.6133 212.338 62.3133 212.338 54.94C212.338 48.78 210.752 43.04 207.578 37.72C204.498 32.4 200.158 28.1533 194.558 24.98C189.052 21.8067 182.892 20.22 176.078 20.22H142.198V89.52H176.078Z" fill="url(#paint1_linear_1943_3919)"/>
<path d="M126.98 256.6H115.5L112.7 241.48C107.007 247.173 100.053 251.607 91.84 254.78C83.6267 257.86 74.8533 259.4 65.52 259.4C53.6667 259.4 42.98 257.02 33.46 252.26C23.94 247.5 16.4267 241.013 10.92 232.8C5.50667 224.493 2.8 215.207 2.8 204.94C2.8 194.58 5.6 185.293 11.2 177.08C16.8 168.773 24.36 162.287 33.88 157.62C43.4933 152.953 54.04 150.62 65.52 150.62C73.7333 150.62 81.9 152.02 90.02 154.82C98.14 157.62 105.373 161.913 111.72 167.7C118.067 173.487 122.547 180.673 125.16 189.26L105.84 189.4C103.6 184.267 100.24 180.02 95.76 176.66C91.28 173.207 86.3333 170.687 80.92 169.1C75.6 167.42 70.5133 166.58 65.66 166.58C57.1667 166.58 49.5133 168.167 42.7 171.34C35.98 174.42 30.66 178.9 26.74 184.78C22.9133 190.567 21 197.287 21 204.94C21 213.06 23.0067 220.06 27.02 225.94C31.1267 231.727 36.5867 236.113 43.4 239.1C50.2133 242.087 57.6333 243.58 65.66 243.58C74.06 243.58 81.9933 241.667 89.46 237.84C96.9267 234.013 102.573 228.18 106.4 220.34H67.2V206.06H126.42V216.14L126.98 256.6Z" fill="url(#paint2_linear_1943_3919)"/>
<path d="M232.792 210.4H159.152V241.06L244.552 240.5V256.6H140.952V153H244.552L244.692 169.1H159.152V194.3H232.792V210.4Z" fill="url(#paint3_linear_1943_3919)"/>
<path d="M136.36 303V406.6H118.16V332.82L82.18 406.6H62.44L23.8 331.56V406.6H5.6V303H28.84L72.1 386.86L112.98 303H136.36Z" fill="url(#paint4_linear_1943_3919)"/>
<path d="M278.7 406.6H259.1L246.08 382.52H177.34L164.32 406.6H144.72L200.86 303H222.56L278.7 406.6ZM211.78 319.1L186.58 365.44H236.84L211.78 319.1Z" fill="url(#paint5_linear_1943_3919)"/>
<path d="M64.96 497.1C77 497.1 87.08 497.66 95.2 498.78C103.413 499.807 110.227 502.28 115.64 506.2C121.053 510.12 123.76 516.047 123.76 523.98C123.76 538.073 117.647 547.593 105.42 552.54C93.2867 557.393 79.5667 559.82 64.26 559.82C55.9533 559.82 47.2267 558.887 38.08 557.02C28.9333 555.247 20.7667 551.607 13.58 546.1C6.39333 540.5 2.8 532.613 2.8 522.44L21.98 521.88C21.98 528.413 24.5467 533.267 29.68 536.44C34.9067 539.613 40.6 541.573 46.76 542.32C52.92 543.067 59.4533 543.44 66.36 543.44C77 543.44 86.1 541.993 93.66 539.1C101.313 536.207 105.187 531.353 105.28 524.54V524.4C105.28 519.827 101.547 516.933 94.08 515.72C86.6133 514.413 77.4667 513.76 66.64 513.76H63C49.3733 513.667 38.4533 513.06 30.24 511.94C22.12 510.82 15.4933 508.207 10.36 504.1C5.32 499.993 2.8 493.647 2.8 485.06C2.8 470.593 9.19333 461.12 21.98 456.64C34.86 452.16 48.9533 449.92 64.26 449.92C72.1933 449.92 80.5933 450.853 89.46 452.72C98.3267 454.493 106.26 458.18 113.26 463.78C120.26 469.287 123.76 477.127 123.76 487.3H104.58C104.58 480.673 100.707 475.68 92.96 472.32C85.3067 468.867 75.9267 466.907 64.82 466.44C52.6867 466.44 42.3733 467.933 33.88 470.92C25.48 473.813 21.28 478.387 21.28 484.64C21.28 489.867 25.2 493.273 33.04 494.86C40.88 496.353 50.26 497.1 61.18 497.1H64.96Z" fill="url(#paint6_linear_1943_3919)"/>
<path d="M135.707 468.68V453H250.647L135.707 468.68ZM250.647 453V469.1H202.627V556.6H184.427V469.1H135.707V453H250.647Z" fill="url(#paint7_linear_1943_3919)"/>
<path d="M97.44 660.4H23.8V691.06L109.2 690.5V706.6H5.6V603H109.2L109.34 619.1H23.8V644.3H97.44V660.4Z" fill="url(#paint8_linear_1943_3919)"/>
<path d="M215.978 706.32L187.278 672.86H142.338V706.32H123.998V602.72H194.838C203.518 602.72 211.172 604.167 217.798 607.06C224.518 609.953 229.698 614.013 233.338 619.24C237.072 624.373 238.938 630.347 238.938 637.16V637.72C238.938 646.587 236.325 653.913 231.098 659.7C225.965 665.487 218.825 669.36 209.678 671.32L239.778 706.32H215.978ZM219.478 638.42C219.478 632.26 218.312 627.78 215.978 624.98C213.738 622.087 210.892 620.313 207.438 619.66C204.078 619.007 199.365 618.68 193.298 618.68C190.592 618.68 188.258 618.727 186.298 618.82C176.965 619.193 162.312 619.38 142.338 619.38V656.9H193.298C199.365 656.9 204.078 656.62 207.438 656.06C210.892 655.407 213.738 653.773 215.978 651.16C218.312 648.453 219.478 644.207 219.478 638.42Z" fill="url(#paint9_linear_1943_3919)"/>
<path d="M97.86 753H120.96L70.7 812.92V856.6H50.4V813.2L0 753H23.1L60.2 798.08L97.86 753Z" fill="url(#paint10_linear_1943_3919)"/>
<path d="M97.84 60.48H24.2V91.14L109.6 90.58V106.68H6V3.08H109.6L109.74 19.18H24.2V44.38H97.84V60.48Z" fill="url(#paint11_linear_1943_3919)"/>
<path d="M230.798 55.02C230.798 64.82 228.465 73.64 223.798 81.48C219.132 89.32 212.505 95.48 203.918 99.96C195.332 104.44 185.345 106.68 173.958 106.68H124.398V3.08H173.818C185.205 3.08 195.192 5.32 203.778 9.8C212.458 14.28 219.132 20.44 223.798 28.28C228.465 36.12 230.798 45.0333 230.798 55.02ZM176.478 89.6C183.478 89.6 189.685 88.2933 195.098 85.68C200.605 82.9733 204.898 79.0533 207.978 73.92C211.152 68.6933 212.738 62.3933 212.738 55.02C212.738 48.86 211.152 43.12 207.978 37.8C204.898 32.48 200.558 28.2333 194.958 25.06C189.452 21.8867 183.292 20.3 176.478 20.3H142.598V89.6H176.478Z" fill="url(#paint12_linear_1943_3919)"/>
<path d="M366.228 106.68H354.748L351.948 91.56C346.254 97.2533 339.301 101.687 331.088 104.86C322.874 107.94 314.101 109.48 304.768 109.48C292.914 109.48 282.228 107.1 272.708 102.34C263.188 97.58 255.674 91.0933 250.168 82.88C244.754 74.5733 242.048 65.2867 242.048 55.02C242.048 44.66 244.848 35.3733 250.448 27.16C256.048 18.8533 263.608 12.3667 273.128 7.7C282.741 3.03333 293.288 0.699999 304.768 0.699999C312.981 0.699999 321.148 2.1 329.268 4.9C337.388 7.7 344.621 11.9933 350.968 17.78C357.314 23.5667 361.794 30.7533 364.408 39.34L345.088 39.48C342.848 34.3467 339.488 30.1 335.008 26.74C330.528 23.2867 325.581 20.7667 320.168 19.18C314.848 17.5 309.761 16.66 304.908 16.66C296.414 16.66 288.761 18.2467 281.948 21.42C275.228 24.5 269.908 28.98 265.988 34.86C262.161 40.6467 260.248 47.3667 260.248 55.02C260.248 63.14 262.254 70.14 266.268 76.02C270.374 81.8067 275.834 86.1933 282.648 89.18C289.461 92.1667 296.881 93.66 304.908 93.66C313.308 93.66 321.241 91.7467 328.708 87.92C336.174 84.0933 341.821 78.26 345.648 70.42H306.448V56.14H365.668V66.22L366.228 106.68Z" fill="url(#paint13_linear_1943_3919)"/>
<path d="M472.039 60.48H398.399V91.14L483.799 90.58V106.68H380.199V3.08H483.799L483.939 19.18H398.399V44.38H472.039V60.48Z" fill="url(#paint14_linear_1943_3919)"/>
<path d="M678.303 3.08V106.68H660.103V32.9L624.123 106.68H604.383L565.743 31.64V106.68H547.543V3.08H570.783L614.043 86.94L654.923 3.08H678.303Z" fill="url(#paint15_linear_1943_3919)"/>
<path d="M820.643 106.68H801.042L788.023 82.6H719.282L706.263 106.68H686.662L742.802 3.08H764.503L820.643 106.68ZM753.723 19.18L728.523 65.52H778.783L753.723 19.18Z" fill="url(#paint16_linear_1943_3919)"/>
<path d="M882.801 47.18C894.841 47.18 904.921 47.74 913.041 48.86C921.255 49.8867 928.068 52.36 933.481 56.28C938.895 60.2 941.601 66.1267 941.601 74.06C941.601 88.1533 935.488 97.6733 923.261 102.62C911.128 107.473 897.408 109.9 882.101 109.9C873.795 109.9 865.068 108.967 855.921 107.1C846.775 105.327 838.608 101.687 831.421 96.18C824.235 90.58 820.641 82.6933 820.641 72.52L839.821 71.96C839.821 78.4933 842.388 83.3467 847.521 86.52C852.748 89.6933 858.441 91.6533 864.601 92.4C870.761 93.1467 877.295 93.52 884.201 93.52C894.841 93.52 903.941 92.0733 911.501 89.18C919.155 86.2867 923.028 81.4333 923.121 74.62V74.48C923.121 69.9067 919.388 67.0133 911.921 65.8C904.455 64.4933 895.308 63.84 884.481 63.84H880.841C867.215 63.7467 856.295 63.14 848.081 62.02C839.961 60.9 833.335 58.2867 828.201 54.18C823.161 50.0733 820.641 43.7267 820.641 35.14C820.641 20.6733 827.035 11.2 839.821 6.72C852.701 2.24 866.795 0 882.101 0C890.035 0 898.435 0.933332 907.301 2.8C916.168 4.57333 924.101 8.26 931.101 13.86C938.101 19.3667 941.601 27.2067 941.601 37.38H922.421C922.421 30.7533 918.548 25.76 910.801 22.4C903.148 18.9467 893.768 16.9867 882.661 16.52C870.528 16.52 860.215 18.0133 851.721 21C843.321 23.8933 839.121 28.4667 839.121 34.72C839.121 39.9467 843.041 43.3533 850.881 44.94C858.721 46.4333 868.101 47.18 879.021 47.18H882.801Z" fill="url(#paint17_linear_1943_3919)"/>
<path d="M953.548 18.76V3.08H1068.49L953.548 18.76ZM1068.49 3.08V19.18H1020.47V106.68H1002.27V19.18H953.548V3.08H1068.49Z" fill="url(#paint18_linear_1943_3919)"/>
<path d="M1175.05 60.48H1101.41V91.14L1186.81 90.58V106.68H1083.21V3.08H1186.81L1186.95 19.18H1101.41V44.38H1175.05V60.48Z" fill="url(#paint19_linear_1943_3919)"/>
<path d="M1293.59 106.4L1264.89 72.94H1219.95V106.4H1201.61V2.8H1272.45C1281.13 2.8 1288.78 4.24666 1295.41 7.14C1302.13 10.0333 1307.31 14.0933 1310.95 19.32C1314.68 24.4533 1316.55 30.4267 1316.55 37.24V37.8C1316.55 46.6667 1313.93 53.9933 1308.71 59.78C1303.57 65.5667 1296.43 69.44 1287.29 71.4L1317.39 106.4H1293.59ZM1297.09 38.5C1297.09 32.34 1295.92 27.86 1293.59 25.06C1291.35 22.1667 1288.5 20.3933 1285.05 19.74C1281.69 19.0867 1276.97 18.76 1270.91 18.76C1268.2 18.76 1265.87 18.8067 1263.91 18.9C1254.57 19.2733 1239.92 19.46 1219.95 19.46V56.98H1270.91C1276.97 56.98 1281.69 56.7 1285.05 56.14C1288.5 55.4867 1291.35 53.8533 1293.59 51.24C1295.92 48.5333 1297.09 44.2867 1297.09 38.5Z" fill="url(#paint20_linear_1943_3919)"/>
<path d="M1411.72 3.08H1434.82L1384.56 63V106.68H1364.26V63.28L1313.86 3.08H1336.96L1374.06 48.16L1411.72 3.08Z" fill="url(#paint21_linear_1943_3919)"/>
<defs>
<linearGradient id="paint0_linear_1943_3919" x1="253.385" y1="228.309" x2="1045.08" y2="606.049" gradientUnits="userSpaceOnUse">
<stop stop-color="#191919"/>
<stop offset="1" stop-color="#080808" stop-opacity="0.71"/>
</linearGradient>
<linearGradient id="paint1_linear_1943_3919" x1="253.385" y1="228.309" x2="1045.08" y2="606.049" gradientUnits="userSpaceOnUse">
<stop stop-color="#191919"/>
<stop offset="1" stop-color="#080808" stop-opacity="0.71"/>
</linearGradient>
<linearGradient id="paint2_linear_1943_3919" x1="253.385" y1="228.309" x2="1045.08" y2="606.049" gradientUnits="userSpaceOnUse">
<stop stop-color="#191919"/>
<stop offset="1" stop-color="#080808" stop-opacity="0.71"/>
</linearGradient>
<linearGradient id="paint3_linear_1943_3919" x1="253.385" y1="228.309" x2="1045.08" y2="606.049" gradientUnits="userSpaceOnUse">
<stop stop-color="#191919"/>
<stop offset="1" stop-color="#080808" stop-opacity="0.71"/>
</linearGradient>
<linearGradient id="paint4_linear_1943_3919" x1="253.385" y1="228.309" x2="1045.08" y2="606.049" gradientUnits="userSpaceOnUse">
<stop stop-color="#191919"/>
<stop offset="1" stop-color="#080808" stop-opacity="0.71"/>
</linearGradient>
<linearGradient id="paint5_linear_1943_3919" x1="253.385" y1="228.309" x2="1045.08" y2="606.049" gradientUnits="userSpaceOnUse">
<stop stop-color="#191919"/>
<stop offset="1" stop-color="#080808" stop-opacity="0.71"/>
</linearGradient>
<linearGradient id="paint6_linear_1943_3919" x1="253.385" y1="228.309" x2="1045.08" y2="606.049" gradientUnits="userSpaceOnUse">
<stop stop-color="#191919"/>
<stop offset="1" stop-color="#080808" stop-opacity="0.71"/>
</linearGradient>
<linearGradient id="paint7_linear_1943_3919" x1="253.385" y1="228.309" x2="1045.08" y2="606.049" gradientUnits="userSpaceOnUse">
<stop stop-color="#191919"/>
<stop offset="1" stop-color="#080808" stop-opacity="0.71"/>
</linearGradient>
<linearGradient id="paint8_linear_1943_3919" x1="253.385" y1="228.309" x2="1045.08" y2="606.049" gradientUnits="userSpaceOnUse">
<stop stop-color="#191919"/>
<stop offset="1" stop-color="#080808" stop-opacity="0.71"/>
</linearGradient>
<linearGradient id="paint9_linear_1943_3919" x1="253.385" y1="228.309" x2="1045.08" y2="606.049" gradientUnits="userSpaceOnUse">
<stop stop-color="#191919"/>
<stop offset="1" stop-color="#080808" stop-opacity="0.71"/>
</linearGradient>
<linearGradient id="paint10_linear_1943_3919" x1="253.385" y1="228.309" x2="1045.08" y2="606.049" gradientUnits="userSpaceOnUse">
<stop stop-color="#191919"/>
<stop offset="1" stop-color="#080808" stop-opacity="0.71"/>
</linearGradient>
<linearGradient id="paint11_linear_1943_3919" x1="400.13" y1="68.1464" x2="576.153" y2="419.006" gradientUnits="userSpaceOnUse">
<stop offset="0.0816663" stop-color="#9B9B9B"/>
<stop offset="0.501666" stop-color="white" stop-opacity="0.854517"/>
<stop offset="0.841666" stop-color="#8D8C8C" stop-opacity="0.71"/>
</linearGradient>
<linearGradient id="paint12_linear_1943_3919" x1="400.13" y1="68.1464" x2="576.153" y2="419.006" gradientUnits="userSpaceOnUse">
<stop offset="0.0816663" stop-color="#9B9B9B"/>
<stop offset="0.501666" stop-color="white" stop-opacity="0.854517"/>
<stop offset="0.841666" stop-color="#8D8C8C" stop-opacity="0.71"/>
</linearGradient>
<linearGradient id="paint13_linear_1943_3919" x1="400.13" y1="68.1464" x2="576.153" y2="419.006" gradientUnits="userSpaceOnUse">
<stop offset="0.0816663" stop-color="#9B9B9B"/>
<stop offset="0.501666" stop-color="white" stop-opacity="0.854517"/>
<stop offset="0.841666" stop-color="#8D8C8C" stop-opacity="0.71"/>
</linearGradient>
<linearGradient id="paint14_linear_1943_3919" x1="400.13" y1="68.1464" x2="576.153" y2="419.006" gradientUnits="userSpaceOnUse">
<stop offset="0.0816663" stop-color="#9B9B9B"/>
<stop offset="0.501666" stop-color="white" stop-opacity="0.854517"/>
<stop offset="0.841666" stop-color="#8D8C8C" stop-opacity="0.71"/>
</linearGradient>
<linearGradient id="paint15_linear_1943_3919" x1="400.13" y1="68.1464" x2="576.153" y2="419.006" gradientUnits="userSpaceOnUse">
<stop offset="0.0816663" stop-color="#9B9B9B"/>
<stop offset="0.501666" stop-color="white" stop-opacity="0.854517"/>
<stop offset="0.841666" stop-color="#8D8C8C" stop-opacity="0.71"/>
</linearGradient>
<linearGradient id="paint16_linear_1943_3919" x1="400.13" y1="68.1464" x2="576.153" y2="419.006" gradientUnits="userSpaceOnUse">
<stop offset="0.0816663" stop-color="#9B9B9B"/>
<stop offset="0.501666" stop-color="white" stop-opacity="0.854517"/>
<stop offset="0.841666" stop-color="#8D8C8C" stop-opacity="0.71"/>
</linearGradient>
<linearGradient id="paint17_linear_1943_3919" x1="400.13" y1="68.1464" x2="576.153" y2="419.006" gradientUnits="userSpaceOnUse">
<stop offset="0.0816663" stop-color="#9B9B9B"/>
<stop offset="0.501666" stop-color="white" stop-opacity="0.854517"/>
<stop offset="0.841666" stop-color="#8D8C8C" stop-opacity="0.71"/>
</linearGradient>
<linearGradient id="paint18_linear_1943_3919" x1="400.13" y1="68.1464" x2="576.153" y2="419.006" gradientUnits="userSpaceOnUse">
<stop offset="0.0816663" stop-color="#9B9B9B"/>
<stop offset="0.501666" stop-color="white" stop-opacity="0.854517"/>
<stop offset="0.841666" stop-color="#8D8C8C" stop-opacity="0.71"/>
</linearGradient>
<linearGradient id="paint19_linear_1943_3919" x1="400.13" y1="68.1464" x2="576.153" y2="419.006" gradientUnits="userSpaceOnUse">
<stop offset="0.0816663" stop-color="#9B9B9B"/>
<stop offset="0.501666" stop-color="white" stop-opacity="0.854517"/>
<stop offset="0.841666" stop-color="#8D8C8C" stop-opacity="0.71"/>
</linearGradient>
<linearGradient id="paint20_linear_1943_3919" x1="400.13" y1="68.1464" x2="576.153" y2="419.006" gradientUnits="userSpaceOnUse">
<stop offset="0.0816663" stop-color="#9B9B9B"/>
<stop offset="0.501666" stop-color="white" stop-opacity="0.854517"/>
<stop offset="0.841666" stop-color="#8D8C8C" stop-opacity="0.71"/>
</linearGradient>
<linearGradient id="paint21_linear_1943_3919" x1="400.13" y1="68.1464" x2="576.153" y2="419.006" gradientUnits="userSpaceOnUse">
<stop offset="0.0816663" stop-color="#9B9B9B"/>
<stop offset="0.501666" stop-color="white" stop-opacity="0.854517"/>
<stop offset="0.841666" stop-color="#8D8C8C" stop-opacity="0.71"/>
</linearGradient>
</defs>
</svg>
