<svg width="324" height="91" viewBox="0 0 324 91" fill="none" xmlns="http://www.w3.org/2000/svg">
<path d="M33.5165 22.1696H6.69055V33.3386L37.8005 33.1346V38.9996H0.0605469V1.25958H37.8005L37.8516 7.12458H6.69055V16.3046H33.5165V22.1696Z" fill="url(#paint0_linear_1965_4516)"/>
<path d="M81.9514 20.1806C81.9514 23.7506 81.1014 26.9636 79.4014 29.8196C77.7014 32.6756 75.2874 34.9196 72.1594 36.5516C69.0314 38.1836 65.3934 38.9996 61.2454 38.9996H43.1914V1.25958H61.1944C65.3424 1.25958 68.9804 2.07558 72.1084 3.70758C75.2704 5.33958 77.7014 7.58358 79.4014 10.4396C81.1014 13.2956 81.9514 16.5426 81.9514 20.1806ZM62.1634 32.7776C64.7134 32.7776 66.9744 32.3016 68.9464 31.3496C70.9524 30.3636 72.5164 28.9356 73.6384 27.0656C74.7944 25.1616 75.3724 22.8666 75.3724 20.1806C75.3724 17.9366 74.7944 15.8456 73.6384 13.9076C72.5164 11.9696 70.9354 10.4226 68.8954 9.26658C66.8894 8.11058 64.6454 7.53258 62.1634 7.53258H49.8214V32.7776H62.1634Z" fill="url(#paint1_linear_1965_4516)"/>
<path d="M131.286 38.9996H127.104L126.084 33.4916C124.01 35.5656 121.477 37.1806 118.485 38.3366C115.493 39.4586 112.297 40.0196 108.897 40.0196C104.579 40.0196 100.686 39.1526 97.2183 37.4186C93.7503 35.6846 91.0133 33.3216 89.0073 30.3296C87.0353 27.3036 86.0493 23.9206 86.0493 20.1806C86.0493 16.4066 87.0693 13.0236 89.1093 10.0316C91.1493 7.00558 93.9033 4.64258 97.3713 2.94258C100.873 1.24258 104.715 0.392578 108.897 0.392578C111.889 0.392578 114.864 0.902578 117.822 1.92258C120.78 2.94258 123.415 4.50658 125.727 6.61458C128.039 8.72258 129.671 11.3406 130.623 14.4686L123.585 14.5196C122.769 12.6496 121.545 11.1026 119.913 9.87858C118.281 8.62058 116.479 7.70258 114.507 7.12458C112.569 6.51258 110.716 6.20658 108.948 6.20658C105.854 6.20658 103.066 6.78458 100.584 7.94058C98.1363 9.06258 96.1983 10.6946 94.7703 12.8366C93.3763 14.9446 92.6793 17.3926 92.6793 20.1806C92.6793 23.1386 93.4103 25.6886 94.8723 27.8306C96.3683 29.9386 98.3573 31.5366 100.839 32.6246C103.321 33.7126 106.024 34.2566 108.948 34.2566C112.008 34.2566 114.898 33.5596 117.618 32.1656C120.338 30.7716 122.395 28.6466 123.789 25.7906H109.509V20.5886H131.082V24.2606L131.286 38.9996Z" fill="url(#paint2_linear_1965_4516)"/>
<path d="M169.832 22.1696H143.006V33.3386L174.116 33.1346V38.9996H136.376V1.25958H174.116L174.167 7.12458H143.006V16.3046H169.832V22.1696Z" fill="url(#paint3_linear_1965_4516)"/>
<path d="M47.6945 51.2596V88.9996H41.0645V62.1226L27.9576 88.9996H20.7665L6.69055 61.6636V88.9996H0.0605469V51.2596H8.52655L24.2855 81.8086L39.1775 51.2596H47.6945Z" fill="url(#paint4_linear_1965_4516)"/>
<path d="M99.5468 88.9996H92.4068L87.6638 80.2276H62.6228L57.8798 88.9996H50.7398L71.1908 51.2596H79.0958L99.5468 88.9996ZM75.1688 57.1246L65.9888 74.0056H84.2978L75.1688 57.1246Z" fill="url(#paint5_linear_1965_4516)"/>
<path d="M122.19 67.3246C126.576 67.3246 130.248 67.5286 133.206 67.9366C136.198 68.3106 138.68 69.2116 140.652 70.6396C142.624 72.0676 143.61 74.2266 143.61 77.1166C143.61 82.2506 141.383 85.7186 136.929 87.5206C132.509 89.2886 127.511 90.1726 121.935 90.1726C118.909 90.1726 115.73 89.8326 112.398 89.1526C109.066 88.5066 106.091 87.1806 103.473 85.1746C100.855 83.1346 99.5464 80.2616 99.5464 76.5556L106.533 76.3516C106.533 78.7316 107.468 80.4996 109.338 81.6556C111.242 82.8116 113.316 83.5256 115.56 83.7976C117.804 84.0696 120.184 84.2056 122.7 84.2056C126.576 84.2056 129.891 83.6786 132.645 82.6246C135.433 81.5706 136.844 79.8026 136.878 77.3206V77.2696C136.878 75.6036 135.518 74.5496 132.798 74.1076C130.078 73.6316 126.746 73.3936 122.802 73.3936H121.476C116.512 73.3596 112.534 73.1386 109.542 72.7306C106.584 72.3226 104.17 71.3706 102.3 69.8746C100.464 68.3786 99.5464 66.0666 99.5464 62.9386C99.5464 57.6686 101.875 54.2176 106.533 52.5856C111.225 50.9536 116.359 50.1376 121.935 50.1376C124.825 50.1376 127.885 50.4776 131.115 51.1576C134.345 51.8036 137.235 53.1466 139.785 55.1866C142.335 57.1926 143.61 60.0486 143.61 63.7546H136.623C136.623 61.3406 135.212 59.5216 132.39 58.2976C129.602 57.0396 126.185 56.3256 122.139 56.1556C117.719 56.1556 113.962 56.6996 110.868 57.7876C107.808 58.8416 106.278 60.5076 106.278 62.7856C106.278 64.6896 107.706 65.9306 110.562 66.5086C113.418 67.0526 116.835 67.3246 120.813 67.3246H122.19Z" fill="url(#paint6_linear_1965_4516)"/>
<path d="M147.963 56.9716V51.2596H189.834L147.963 56.9716ZM189.834 51.2596V57.1246H172.341V88.9996H165.711V57.1246H147.963V51.2596H189.834Z" fill="url(#paint7_linear_1965_4516)"/>
<path d="M228.651 72.1696H201.825V83.3386L232.935 83.1346V88.9996H195.195V51.2596H232.935L232.986 57.1246H201.825V66.3046H228.651V72.1696Z" fill="url(#paint8_linear_1965_4516)"/>
<path d="M271.833 88.8976L261.378 76.7086H245.007V88.8976H238.326V51.1576H264.132C267.294 51.1576 270.082 51.6846 272.496 52.7386C274.944 53.7926 276.831 55.2716 278.157 57.1756C279.517 59.0456 280.197 61.2216 280.197 63.7036V63.9076C280.197 67.1376 279.245 69.8066 277.341 71.9146C275.471 74.0226 272.87 75.4336 269.538 76.1476L280.503 88.8976H271.833ZM273.108 64.1626C273.108 61.9186 272.683 60.2866 271.833 59.2666C271.017 58.2126 269.98 57.5666 268.722 57.3286C267.498 57.0906 265.781 56.9716 263.571 56.9716C262.585 56.9716 261.735 56.9886 261.021 57.0226C257.621 57.1586 252.283 57.2266 245.007 57.2266V70.8946H263.571C265.781 70.8946 267.498 70.7926 268.722 70.5886C269.98 70.3506 271.017 69.7556 271.833 68.8036C272.683 67.8176 273.108 66.2706 273.108 64.1626Z" fill="url(#paint9_linear_1965_4516)"/>
<path d="M314.867 51.2596H323.282L304.973 73.0876V88.9996H297.578V73.1896L279.218 51.2596H287.633L301.148 67.6816L314.867 51.2596Z" fill="url(#paint10_linear_1965_4516)"/>
<defs>
<linearGradient id="paint0_linear_1965_4516" x1="88.6239" y1="50.3333" x2="230.597" y2="140.513" gradientUnits="userSpaceOnUse">
<stop offset="0.0816663" stop-color="#9B9B9B"/>
<stop offset="0.501666" stop-color="white" stop-opacity="0.854517"/>
<stop offset="0.841666" stop-color="#8D8C8C" stop-opacity="0.71"/>
</linearGradient>
<linearGradient id="paint1_linear_1965_4516" x1="88.6239" y1="50.3333" x2="230.597" y2="140.513" gradientUnits="userSpaceOnUse">
<stop offset="0.0816663" stop-color="#9B9B9B"/>
<stop offset="0.501666" stop-color="white" stop-opacity="0.854517"/>
<stop offset="0.841666" stop-color="#8D8C8C" stop-opacity="0.71"/>
</linearGradient>
<linearGradient id="paint2_linear_1965_4516" x1="88.6239" y1="50.3333" x2="230.597" y2="140.513" gradientUnits="userSpaceOnUse">
<stop offset="0.0816663" stop-color="#9B9B9B"/>
<stop offset="0.501666" stop-color="white" stop-opacity="0.854517"/>
<stop offset="0.841666" stop-color="#8D8C8C" stop-opacity="0.71"/>
</linearGradient>
<linearGradient id="paint3_linear_1965_4516" x1="88.6239" y1="50.3333" x2="230.597" y2="140.513" gradientUnits="userSpaceOnUse">
<stop offset="0.0816663" stop-color="#9B9B9B"/>
<stop offset="0.501666" stop-color="white" stop-opacity="0.854517"/>
<stop offset="0.841666" stop-color="#8D8C8C" stop-opacity="0.71"/>
</linearGradient>
<linearGradient id="paint4_linear_1965_4516" x1="88.6239" y1="50.3333" x2="230.597" y2="140.513" gradientUnits="userSpaceOnUse">
<stop offset="0.0816663" stop-color="#9B9B9B"/>
<stop offset="0.501666" stop-color="white" stop-opacity="0.854517"/>
<stop offset="0.841666" stop-color="#8D8C8C" stop-opacity="0.71"/>
</linearGradient>
<linearGradient id="paint5_linear_1965_4516" x1="88.6239" y1="50.3333" x2="230.597" y2="140.513" gradientUnits="userSpaceOnUse">
<stop offset="0.0816663" stop-color="#9B9B9B"/>
<stop offset="0.501666" stop-color="white" stop-opacity="0.854517"/>
<stop offset="0.841666" stop-color="#8D8C8C" stop-opacity="0.71"/>
</linearGradient>
<linearGradient id="paint6_linear_1965_4516" x1="88.6239" y1="50.3333" x2="230.597" y2="140.513" gradientUnits="userSpaceOnUse">
<stop offset="0.0816663" stop-color="#9B9B9B"/>
<stop offset="0.501666" stop-color="white" stop-opacity="0.854517"/>
<stop offset="0.841666" stop-color="#8D8C8C" stop-opacity="0.71"/>
</linearGradient>
<linearGradient id="paint7_linear_1965_4516" x1="88.6239" y1="50.3333" x2="230.597" y2="140.513" gradientUnits="userSpaceOnUse">
<stop offset="0.0816663" stop-color="#9B9B9B"/>
<stop offset="0.501666" stop-color="white" stop-opacity="0.854517"/>
<stop offset="0.841666" stop-color="#8D8C8C" stop-opacity="0.71"/>
</linearGradient>
<linearGradient id="paint8_linear_1965_4516" x1="88.6239" y1="50.3333" x2="230.597" y2="140.513" gradientUnits="userSpaceOnUse">
<stop offset="0.0816663" stop-color="#9B9B9B"/>
<stop offset="0.501666" stop-color="white" stop-opacity="0.854517"/>
<stop offset="0.841666" stop-color="#8D8C8C" stop-opacity="0.71"/>
</linearGradient>
<linearGradient id="paint9_linear_1965_4516" x1="88.6239" y1="50.3333" x2="230.597" y2="140.513" gradientUnits="userSpaceOnUse">
<stop offset="0.0816663" stop-color="#9B9B9B"/>
<stop offset="0.501666" stop-color="white" stop-opacity="0.854517"/>
<stop offset="0.841666" stop-color="#8D8C8C" stop-opacity="0.71"/>
</linearGradient>
<linearGradient id="paint10_linear_1965_4516" x1="88.6239" y1="50.3333" x2="230.597" y2="140.513" gradientUnits="userSpaceOnUse">
<stop offset="0.0816663" stop-color="#9B9B9B"/>
<stop offset="0.501666" stop-color="white" stop-opacity="0.854517"/>
<stop offset="0.841666" stop-color="#8D8C8C" stop-opacity="0.71"/>
</linearGradient>
</defs>
</svg>
