<svg width="33" height="32" viewBox="0 0 33 32" fill="none" xmlns="http://www.w3.org/2000/svg">
<path d="M16.9854 31C25.2696 31 31.9854 24.2843 31.9854 16C31.9854 7.71573 25.2696 1 16.9854 1C8.70108 1 1.98535 7.71573 1.98535 16C1.98535 24.2843 8.70108 31 16.9854 31Z" stroke="#4A4A4F" stroke-width="2" stroke-miterlimit="10"/>
<path d="M21.4854 11.5C21.4854 10.3065 21.0113 9.16195 20.1674 8.31804C19.3234 7.47413 18.1788 7 16.9854 7C15.7919 7 14.6476 7.47413 13.8037 8.31804C12.9598 9.16195 12.4854 10.3065 12.4854 11.5V11.5V14.5C12.4854 15.6935 12.9598 16.8381 13.8037 17.682C14.6476 18.5259 15.7919 19 16.9854 19C18.1788 19 19.3234 18.5259 20.1674 17.682C21.0113 16.8381 21.4854 15.6935 21.4854 14.5V11.5Z" stroke="#4A4A4F" stroke-width="2" stroke-miterlimit="10"/>
<path d="M7.1748 27.9551C8.40903 26.5663 9.91832 25.4493 11.6071 24.6746C13.2958 23.9 15.1268 23.4847 16.9845 23.4551C18.7606 23.4764 20.5151 23.8508 22.1451 24.5564C23.7752 25.262 25.2485 26.2847 26.4796 27.5651" stroke="#4A4A4F" stroke-width="2" stroke-miterlimit="10"/>
</svg>
