<svg width="118" height="116" viewBox="0 0 118 116" fill="none" xmlns="http://www.w3.org/2000/svg">
<path d="M109.215 112.62C93.9085 89.8379 46.8847 117.807 38.713 88.9643C37.3217 77.129 63.9865 77.3153 57.2831 71.1103C42.1691 72.4208 -0.588048 78.7202 6.5854 52.3731C8.22284 46.34 27.8645 47.0654 22.9636 39.6944C13.9981 32.3106 -7.31979 23.2569 3.7723 6.63547C18.7023 -11.2183 33.5541 12.2573 41.1587 23.0905C47.0242 24.8824 46.7427 13.5285 49.9138 9.4624C70.489 -16.9604 74.3203 40.6077 71.786 56.2096C74.3136 61.1207 76.2968 55.9751 77.5209 51.8471C78.2861 49.2321 79.5546 46.7304 81.2453 44.5425C101.227 18.6532 106.085 68.7108 103.68 88.559C103.359 91.2275 103.69 93.8993 104.741 96.2499C107.544 102.477 112.485 107.461 117.156 112.197C116.181 117.787 111.412 116.529 109.215 112.62Z" fill="#F1F0EF"/>
</svg>
