<svg width="30" height="32" viewBox="0 0 30 32" fill="none" xmlns="http://www.w3.org/2000/svg">
<path d="M6.05765 8.50001H24.9278C25.6883 8.49814 26.4212 8.78524 26.9782 9.3032C27.5351 9.82116 27.8745 10.5314 27.9278 11.2901L28.9927 27.7901C29.0216 28.2013 28.9653 28.6141 28.8275 29.0027C28.6897 29.3913 28.4733 29.7473 28.1918 30.0485C27.9103 30.3497 27.5697 30.5896 27.1913 30.7534C26.8129 30.9171 26.405 31.001 25.9927 31H4.99271C4.58043 31.001 4.17248 30.9171 3.7941 30.7534C3.41573 30.5896 3.07512 30.3497 2.79361 30.0485C2.51211 29.7473 2.29566 29.3913 2.15787 29.0027C2.02008 28.6141 1.96385 28.2013 1.99271 27.7901L3.07267 11.2901C3.12572 10.534 3.463 9.82591 4.01676 9.30833C4.57051 8.79075 5.29967 8.50194 6.05765 8.50001Z" stroke="#4A4A4F" stroke-width="2" stroke-miterlimit="10"/>
<path d="M21.4927 7C21.4927 5.4087 20.8604 3.88257 19.7352 2.75735C18.61 1.63214 17.084 1 15.4927 1C13.9014 1 12.3753 1.63214 11.2501 2.75735C10.1249 3.88257 9.49268 5.4087 9.49268 7" stroke="#4A4A4F" stroke-width="2" stroke-miterlimit="10"/>
<path d="M9.49268 13C9.49268 14.5913 10.1249 16.1174 11.2501 17.2426C12.3753 18.3679 13.9014 19 15.4927 19C17.084 19 18.61 18.3679 19.7352 17.2426C20.8604 16.1174 21.4927 14.5913 21.4927 13" stroke="#4A4A4F" stroke-width="2" stroke-miterlimit="10"/>
</svg>
