<svg width="116" height="140" viewBox="0 0 116 140" fill="none" xmlns="http://www.w3.org/2000/svg">
<g clip-path="url(#clip0_288_1174)">
<path d="M111.555 139.93C76.222 139.939 40.8849 139.93 5.55214 140C3.02032 140 1.16048 139.246 0.276072 136.425C-0.309195 92.8581 0.241384 49.2043 0.0939832 5.60715C-0.595331 0.095923 3.82669 0.0523218 8.04928 0C42.2635 0 76.4778 0 110.692 0.0087203C113.879 0.0087203 115.929 2.45476 115.933 6.29169C115.808 49.0647 116.254 91.8465 115.764 134.62C115.721 137.449 114.204 139.507 111.555 139.93ZM80.7351 5.96032C73.2263 6.60562 65.0889 5.14061 57.8836 6.70155L57.8056 6.57074C41.2707 5.43274 24.2807 6.5315 7.58974 6.09985C4.82381 6.08677 5.36571 7.59538 5.94231 9.39612C5.1793 25.5941 5.9163 42.4896 5.48277 58.9143C5.52179 76.7473 5.65185 94.576 5.59983 112.405C6.29782 116.961 4.11281 132.012 6.91776 134.04C41.2534 133.342 76.3174 135.553 110.302 133.303C110.77 91.0312 110.488 48.7595 110.558 6.4879C100.92 5.73359 90.5936 6.46174 80.7394 5.96468L80.7351 5.96032Z" fill="#765843"/>
<path d="M110.576 5.58105H58.2705V134.223H110.576V5.58105Z" fill="#F7F5F5"/>
<path d="M58.6424 5.58105H5.43945V134.223H58.6424V5.58105Z" fill="#EFCF94"/>
<path d="M110.314 5.58105C110.393 5.65954 110.467 5.73802 110.546 5.8165L110.314 5.58105Z" fill="#BAF2ED"/>
<path d="M62.045 90.3555C53.7689 94.345 52.8585 83.8763 46.4075 85.398C42.4407 86.5011 39.393 84.0943 38.4089 79.7167C38.2181 78.8709 37.6112 78.1819 36.8005 77.8898C35.617 77.4669 34.4681 77.0701 33.445 76.4553C28.9449 73.8828 32.5606 67.9356 29.773 64.6262C29.6949 64.5347 29.6039 64.4518 29.5128 64.369C25.5807 60.9245 24.8871 53.9046 29.4608 50.6127C31.7672 48.9515 31.3077 46.9284 30.8698 44.7178C30.8524 44.6306 30.8394 44.539 30.8308 44.4475C29.89 34.5587 35.8857 37.7503 38.023 33.9744C38.1228 33.7956 38.1921 33.5951 38.2398 33.3945C39.7615 27.1987 42.1806 25.7817 49.1041 27.0766C49.594 27.1682 50.4004 26.8325 50.7125 26.4226C53.344 23.0173 56.1056 19.987 60.8701 21.125C61.2603 21.2166 61.6288 21.4041 61.941 21.657C65.2575 24.3603 67.4208 28.7204 72.1636 26.8717C72.3414 26.802 72.5234 26.7453 72.7099 26.7148C81.71 25.35 77.509 36.839 83.3617 35.9844C84.1247 35.9365 84.9224 36.3986 85.7158 36.8608C86.4008 37.2576 86.8603 37.9465 86.9643 38.7313C87.3892 41.923 87.4889 45.2541 88.2476 48.3454C88.3777 48.8687 88.6551 49.3439 89.0713 49.6884C94.5468 54.2273 95.2838 59.8344 90.1898 64.3428C88.3907 66.0695 87.3849 67.6609 87.9051 70.4296C89.3531 78.2953 82.2129 75.81 79.7894 80.0961C79.6724 80.301 79.603 80.5321 79.5553 80.7632C78.2894 86.645 74.0191 87.1115 69.8399 85.5419C66.2242 84.042 64.6939 88.7291 62.0407 90.3729V90.3598L62.045 90.3555ZM82.1131 44.2818C82.0698 43.8894 82.1045 43.4882 82.2476 43.1176C83.6695 39.4464 75.7272 42.7252 75.0076 36.0978C74.6434 32.8844 73.6766 32.1475 70.7546 32.8495C70.5595 32.8974 70.3731 32.9759 70.1954 33.0631C62.9814 36.6821 60.5103 21.173 54.9915 30.1636C50.1316 37.2532 44.9682 29.2916 43.8627 34.236C42.8829 41.657 39.1676 40.1353 37.5592 42.2543C37.2167 42.7078 37.0779 43.279 37.104 43.8458C37.3294 48.1885 37.3034 52.396 33.575 55.3042C32.6906 55.9932 32.3264 57.1878 32.7513 58.2255C34.0996 61.5175 38.7731 64.2862 37.1213 68.2844C34.3554 73.9831 43.2688 70.7828 43.9711 78.5177C44.2312 79.8824 44.7254 80.4143 46.1864 79.769C46.2818 79.7254 46.3772 79.6731 46.4639 79.6208C53.6475 75.2345 56.292 89.03 60.584 83.6016C67.7026 74.3712 73.0133 83.6583 74.3183 78.6398C75.324 73.4207 79.5857 73.4294 81.4715 71.149C81.9311 70.5909 82.1001 69.8497 81.9874 69.1346C81.4368 65.6814 83.0582 63.1874 85.5077 60.907C89.9731 57.3535 85.5944 55.3086 83.5958 52.5922C83.4224 52.3568 83.2837 52.0908 83.197 51.8074C82.486 49.4137 82.3863 46.8063 82.1045 44.2731L82.1131 44.2818Z" fill="#765843"/>
<path d="M82.1401 44.4823C82.4089 46.8803 82.5086 49.3351 83.1546 51.6067C83.2717 52.021 83.4667 52.409 83.7312 52.7491C85.7601 55.3739 89.922 57.4232 85.5217 60.8982C83.1936 63.0609 81.6156 65.4197 81.9364 68.6157C82.0751 69.9935 81.5028 71.3539 80.3627 72.13C78.2557 73.5644 75.1429 74.3275 74.3322 78.6309C73.075 83.6451 67.6819 74.3711 60.598 83.5928C56.3494 89.0168 53.6572 75.3085 46.5429 79.5684C46.4085 79.6469 46.2698 79.7297 46.1267 79.7907C44.7177 80.3881 44.2365 79.8474 43.9851 78.5089C43.2741 70.7609 34.3824 73.9874 37.1353 68.2756C38.5356 64.9008 35.4055 62.3981 33.589 59.7166C32.5529 58.1862 32.7393 56.089 34.1136 54.8551C37.1179 52.1518 37.3174 48.4674 37.157 44.6218C37.0919 43.0783 37.959 41.6394 39.368 41.0203C41.0891 40.2616 43.183 39.4768 43.8767 34.2228C44.9345 29.2784 50.1672 37.2401 55.0054 30.1505C60.585 21.0552 63.0561 37.0482 70.4738 32.9104C77.2933 30.5952 72.9363 40.9026 80.2283 40.9898C81.8063 40.9898 82.7904 41.3648 82.3266 42.8734C82.1662 43.3966 82.0838 43.9416 82.1445 44.4866L82.1401 44.4823ZM41.0847 45.581C41.0241 45.5985 40.9937 45.6377 40.9981 45.7031C39.6801 49.213 39.9662 54.0702 39.472 58.2211C39.3853 58.9667 39.5284 59.7166 39.8622 60.3924C41.3579 63.4402 41.9085 67.1986 44.3666 69.9324C44.4966 70.0763 44.6397 70.2071 44.7871 70.3292C56.4881 79.8997 67.5692 79.7602 77.2846 67.5344C77.367 67.4297 77.4493 67.3207 77.5187 67.2074C93.3036 43.0434 54.069 18.5437 41.0804 45.581H41.0847Z" fill="#FDDC5C"/>
<path d="M59.635 77.1398C71.5492 77.1398 81.2075 67.4261 81.2075 55.4437C81.2075 43.4612 71.5492 33.7476 59.635 33.7476C47.7208 33.7476 38.0625 43.4612 38.0625 55.4437C38.0625 67.4261 47.7208 77.1398 59.635 77.1398Z" fill="white"/>
<path d="M59.635 74.4406C70.0671 74.4406 78.524 65.9353 78.524 55.4435C78.524 44.9516 70.0671 36.4463 59.635 36.4463C49.203 36.4463 40.7461 44.9516 40.7461 55.4435C40.7461 65.9353 49.203 74.4406 59.635 74.4406Z" fill="#FDDC5C"/>
</g>
<defs>
<clipPath id="clip0_288_1174">
<rect width="116" height="140" fill="white"/>
</clipPath>
</defs>
</svg>
