<svg width="117" height="140" viewBox="0 0 117 140" fill="none" xmlns="http://www.w3.org/2000/svg">
<path d="M1.00684 99.3258C1.05196 77.34 1.20988 55.3465 1.08956 33.3607C1.05196 26.4178 4.32322 21.7968 9.84299 18.4236C11.7381 17.2665 12.836 16.6463 12.0464 13.8177C11.0838 10.3538 11.9787 6.61012 14.0844 3.46389C15.6485 1.11933 17.8971 0.00756307 20.7622 0.0151261C30.9069 0.0453784 41.0516 0 51.1962 0C66.1688 0.0151261 81.1414 0.0453784 96.114 0.0756307C100.626 0.0756307 103.92 2.07984 104.243 5.72524C104.521 8.80341 103.845 11.9648 103.597 15.0883C103.281 15.1564 102.965 15.2169 102.649 15.285C103.484 15.7841 104.379 16.2001 105.131 16.8051C108.236 19.3161 111.598 21.6077 114.283 24.5195C116.501 26.9397 116.245 30.3809 116.253 33.6557C116.275 51.7465 116.516 69.8298 116.576 87.9207C116.599 93.9258 116.2 99.9309 116.193 105.936C116.185 109.763 116.809 113.605 116.636 117.424C116.479 120.82 115.997 124.307 114.99 127.544C112.824 134.524 106.326 139.282 99.1972 139.637C98.8513 139.69 98.5054 139.75 98.1595 139.803C96.6329 139.834 95.1063 139.864 93.5872 139.894C93.4218 139.743 93.2488 139.743 93.0834 139.894C91.5493 139.864 90.0152 139.841 88.481 139.811C86.6311 139.826 84.7887 139.834 82.9387 139.849C77.8325 139.849 72.7264 139.849 67.6202 139.834C66.3267 139.879 65.0333 139.932 63.7398 139.977C60.3106 139.977 56.8814 139.977 53.4523 139.992C53.2943 139.962 53.1364 139.924 52.9785 139.894C41.984 139.924 30.9896 139.97 19.9952 139.985C10.8883 139.985 3.69152 133.639 1.42796 125.426C1.11212 124.276 1.17228 123.021 1.05948 121.818C1.04444 114.323 1.0294 106.828 1.00684 99.3409V99.3258ZM23.5447 17.206C23.9357 17.2589 24.3193 17.3194 24.7103 17.3724L28.7712 17.4556L29.0193 17.5236L29.2675 17.4631C33.9902 17.4707 38.7128 17.4783 43.443 17.4858L49.1432 17.1152C53.0838 16.5858 55.5654 13.5001 55.3097 9.44627C55.1067 6.14121 52.6025 4.06137 48.677 4.05381C40.1341 4.03868 31.5987 4.06893 23.0559 4.0765C22.2512 3.95549 21.4014 3.60002 20.6569 3.76641C17.7316 4.40927 15.062 8.4177 15.8967 11.0648C17.4985 16.185 19.2732 18.8094 23.5296 17.1984H23.5447V17.206ZM58.4306 5.80844C58.5058 6.37567 58.5735 6.9429 58.6487 7.51013C58.4607 10.0664 58.2727 12.6228 58.0696 15.4211H93.0232C93.8279 15.2547 94.6776 14.8161 95.4221 14.9598C98.4903 15.5572 99.3476 13.4925 99.8064 11.2614C100.573 7.57063 99.7011 5.82356 96.9036 4.67398C95.3093 4.63616 93.7151 4.57566 92.1283 4.57566C81.4272 4.56809 70.726 4.55297 60.0249 4.62104C59.4909 4.62104 58.957 5.39247 58.4306 5.80844ZM112.027 31.2279C111.936 30.9708 111.839 30.7061 111.748 30.4489C110.477 23.9522 103.085 19.3312 97.8211 19.2556C86.6537 19.0968 75.4787 19.2783 64.3038 19.3388C63.424 19.3388 62.5441 19.4749 60.7994 19.611C62.5065 21.048 63.5217 22.0993 64.7099 22.8783C68.2143 25.1699 70.899 27.9758 71.1471 32.4456C71.3727 36.5826 71.5607 40.7196 71.7638 44.849V47.1179C71.7487 47.8667 71.7412 48.6154 71.7262 49.3642C71.6811 50.7785 71.5983 52.1927 71.5983 53.607C71.5983 74.4736 71.5758 95.3401 71.6059 116.207C71.6134 123.119 71.1772 129.85 65.2889 135.107C66.0485 135.296 66.3794 135.455 66.7103 135.455C77.4264 135.477 88.1426 135.719 98.8438 135.379C103.529 135.228 107.123 132.475 109.786 128.353C112.425 124.254 112.012 119.67 112.102 115.337C112.433 100.143 112.297 84.9333 112.282 69.7391C112.267 57.8499 112.169 45.9532 112.109 34.0641L112.027 31.243V31.2279ZM67.545 49.3566C67.3946 44.9549 67.0562 40.5456 67.1389 36.1515C67.2216 31.8708 65.3792 28.717 62.2508 26.1607C59.6488 24.0279 56.9491 22.0085 54.5652 20.148C53.0236 20.6169 51.6925 21.3959 50.384 21.3732C39.0888 21.1766 27.7409 22.8783 16.4908 20.5942C16.1373 20.5262 15.6861 20.4657 15.4079 20.6245C11.4598 22.8783 7.24103 25.1245 6.40629 30.0859C5.78964 33.7615 6.06789 37.5885 5.94004 41.3473C5.84228 49.0768 5.6994 56.7987 5.66932 64.5281C5.6618 67.4399 5.90996 70.3441 6.04533 73.2559C5.97764 83.466 5.91748 93.6762 5.8498 103.886C5.78964 107.706 5.63924 111.533 5.68436 115.352C5.71444 118.128 5.99269 120.896 6.15813 123.664C7.09063 130.357 12.3472 135.455 18.7168 135.508C29.5081 135.598 40.2995 135.689 51.0834 135.447C58.5659 135.281 67.9812 129.079 67.718 118.483C67.372 104.733 67.5751 90.9611 67.545 77.2038C67.6127 75.661 67.733 74.1257 67.7255 72.5828C67.6804 64.8458 67.6051 57.1087 67.5375 49.3717V49.3566H67.545Z" fill="#765843"/>
<path d="M1.02853 99.3258C1.04357 106.821 1.05861 114.316 1.08117 121.803C0.938288 119.784 0.652523 117.772 0.667563 115.753C0.720204 110.277 0.900687 104.801 1.02853 99.3182V99.3258Z" fill="#EFCF94"/>
<path d="M63.7539 139.97C65.0474 139.917 66.3408 139.871 67.6343 139.826C66.3408 139.879 65.0474 139.924 63.7539 139.97Z" fill="#EFCF94"/>
<path d="M52.9932 139.887C53.1511 139.917 53.309 139.955 53.4669 139.985L53.2188 140L52.9932 139.887Z" fill="#EFCF94"/>
<path d="M93.0977 139.879C93.2631 139.728 93.4361 139.728 93.6015 139.879H93.0977Z" fill="#EFCF94"/>
<path d="M112.102 34.0489C112.162 45.9381 112.26 57.8348 112.275 69.7239C112.29 84.9257 112.425 100.127 112.094 115.322C111.996 119.655 112.417 124.239 109.778 128.338C107.123 132.46 103.521 135.22 98.8361 135.364C88.1349 135.704 77.4112 135.462 66.7026 135.439C66.3717 135.439 66.0408 135.281 65.2812 135.092C71.162 129.835 71.6057 123.104 71.5982 116.191C71.5681 95.3249 71.5831 74.4584 71.5906 53.5919C71.5906 52.1776 71.6734 50.7633 71.7185 49.349C72.5081 50.0297 73.2827 50.7255 74.0873 51.3759C75.1251 52.223 76.0952 53.539 77.2608 53.7659C80.6674 54.4314 84.1944 55.1802 87.6085 54.9306C91.8198 54.628 96.0085 53.5163 100.122 52.4272C101.446 52.0717 102.528 50.7179 103.672 49.7574C107.77 46.3087 111.35 42.5801 111.139 36.6128C111.109 35.7657 111.763 34.8884 112.102 34.0262V34.0489Z" fill="#EFCF94"/>
<path d="M67.5748 77.1886C67.6049 90.9534 67.4018 104.718 67.7477 118.468C68.0109 129.056 58.5957 135.258 51.1132 135.432C40.3293 135.674 29.5379 135.583 18.7465 135.492C12.3695 135.439 7.11289 130.342 6.18792 123.649C6.08263 117.054 5.97735 110.459 5.87207 103.871C5.93975 93.661 5.99991 83.4509 6.06759 73.2407C8.77484 76.2811 11.2941 79.4122 14.2946 82.271C20.3559 88.0492 27.8233 90.7039 35.3585 92.0274C41.1565 93.0408 47.7066 94.0921 53.6249 90.2198C57.6933 87.5576 62.2656 85.682 65.0781 81.424C65.9805 80.0551 66.7476 78.6029 67.5748 77.1886Z" fill="#F6F0EB"/>
<path d="M67.5748 77.1887C66.7475 78.603 65.9805 80.0626 65.0781 81.424C62.2655 85.682 57.6933 87.5576 53.6249 90.2198C47.699 94.0997 41.1565 93.0484 35.3585 92.0274C27.8233 90.7039 20.3558 88.0492 14.2946 82.2711C11.2941 79.4122 8.77482 76.2735 6.06758 73.2407C5.93973 70.329 5.68405 67.4247 5.69157 64.513C5.72165 56.7835 5.86453 49.0616 5.96229 41.3322C8.60186 43.0036 11.5422 44.3423 13.7983 46.4297C16.0769 48.5398 18.2352 50.8011 21.2883 51.3078C23.9956 51.7541 26.8607 51.6028 29.6056 51.27C32.561 50.9146 35.4412 49.9692 38.3816 49.4625C39.0885 49.3414 40.0586 49.765 40.6677 50.249C43.3298 52.3591 46.2853 53.7356 49.4738 54.9457C53.6475 56.5264 57.5354 56.8818 61.4007 54.5221C62.6491 53.7583 63.6342 51.9431 64.8299 51.8599C66.7626 51.7314 66.9731 50.5213 67.5672 49.349C67.6349 57.086 67.7176 64.8231 67.7552 72.5601C67.7628 74.0954 67.6349 75.6382 67.5748 77.1811V77.1887Z" fill="#EFCF94"/>
<path d="M67.559 49.3566C66.9725 50.5289 66.7619 51.739 64.8217 51.8676C63.6335 51.9508 62.6409 53.7659 61.3925 54.5298C57.5272 56.8895 53.6468 56.534 49.4656 54.9533C46.2771 53.7432 43.3217 52.3743 40.6595 50.2567C40.0504 49.7726 39.0803 49.3491 38.3734 49.4701C35.433 49.9768 32.5528 50.9222 29.5974 51.2777C26.8526 51.6029 23.9799 51.7541 21.2801 51.3155C18.227 50.8163 16.0687 48.5474 13.7901 46.4373C11.534 44.3499 8.59367 43.0112 5.9541 41.3398C6.07442 37.5809 5.79618 33.754 6.42035 30.0784C7.25508 25.1094 11.4814 22.8708 15.422 20.617C15.7002 20.4582 16.1514 20.5187 16.5048 20.5867C27.755 22.8708 39.0953 21.1766 50.3981 21.3657C51.7141 21.3884 53.0377 20.617 54.5793 20.1405C56.9632 22.001 59.6554 24.0204 62.2649 26.1531C65.3932 28.717 67.2357 31.8633 67.153 36.144C67.0702 40.5381 67.4086 44.9474 67.559 49.3491V49.3566Z" fill="#F2FDFC"/>
<path d="M112.123 34.049C111.785 34.9111 111.13 35.7809 111.16 36.6355C111.371 42.6028 107.799 46.3314 103.693 49.7801C102.55 50.7406 101.467 52.102 100.143 52.4499C96.03 53.539 91.8488 54.6508 87.63 54.9533C84.2158 55.1953 80.6889 54.4541 77.2823 53.7886C76.1091 53.5617 75.1466 52.2381 74.1088 51.3986C73.3041 50.7406 72.5296 50.0448 71.7399 49.3717C71.7475 48.623 71.7625 47.8742 71.77 47.1255V44.8566C71.567 40.7196 71.379 36.5826 71.1534 32.4531C70.9127 27.9834 68.228 25.1775 64.7161 22.8859C63.528 22.1069 62.5127 21.0632 60.8057 19.6186C62.5428 19.4749 63.4227 19.3463 64.31 19.3463C75.485 19.2858 86.6599 19.1043 97.8273 19.2631C103.091 19.3388 110.484 23.9674 111.755 30.4641C111.845 30.7288 111.943 30.9859 112.033 31.2431C112.063 32.1809 112.085 33.1263 112.116 34.0641V34.049H112.123Z" fill="#EFCF94"/>
<path d="M28.7929 17.4555C27.4392 17.4253 26.0856 17.4026 24.732 17.3723C24.3635 17.2589 23.995 17.153 23.619 17.0395C23.3032 16.132 23.228 14.9748 22.6188 14.3546C20.4756 12.184 20.2049 10.0891 21.8292 7.36637C22.4233 6.37561 22.6715 5.18064 23.0851 4.084C31.6279 4.07643 40.1633 4.04618 48.7062 4.06131C52.6317 4.06131 55.1359 6.14871 55.3389 9.45378C55.5871 13.5076 53.1054 16.5933 49.1649 17.1227C47.2623 17.2437 45.3597 17.3723 43.4646 17.4933C38.742 17.4858 34.0194 17.4782 29.2892 17.4706H28.7853V17.4555H28.7929Z" fill="#EFCF94"/>
<path d="M96.9249 4.67394C99.7224 5.81597 100.595 7.56304 99.8276 11.2614C99.3614 13.4925 98.5041 15.5572 95.4434 14.9597C94.6989 14.816 93.8491 15.2547 93.0445 15.4211C92.2398 15.0354 91.4352 14.3169 90.623 14.3093C83.148 14.2261 75.673 14.1959 68.198 14.2942C65.3478 14.332 62.4977 14.7328 59.6776 14.9673C59.3016 12.2143 58.9858 9.86221 58.6624 7.5101C58.5872 6.94287 58.5195 6.37564 58.4443 5.80841C59.7228 5.6042 60.9937 5.22605 62.2721 5.21849C72.8454 5.15798 83.4187 5.18067 93.9845 5.13529C94.9621 5.13529 95.9397 4.83277 96.9249 4.66638V4.67394Z" fill="#F6F0EB"/>
<path d="M23.0856 4.08411C22.6795 5.18832 22.4238 6.37572 21.8297 7.36648C20.2053 10.0892 20.4761 12.1842 22.6193 14.3548C23.2284 14.9749 23.3036 16.1321 23.6195 17.0396L23.5593 17.206C19.3029 18.817 17.5282 16.1926 15.9264 11.0724C15.0992 8.42531 17.7613 4.41688 20.6866 3.77402C21.4236 3.60764 22.2809 3.9631 23.0856 4.08411Z" fill="#F2FDFC"/>
<path d="M58.6708 7.51013C58.9942 9.86225 59.3101 12.2144 59.6861 14.9673C62.5061 14.7329 65.3487 14.332 68.2064 14.2942C75.6814 14.1959 83.1564 14.2261 90.6314 14.3093C91.4436 14.3169 92.2407 15.0354 93.0529 15.4211H58.0918C58.2948 12.6228 58.4828 10.0664 58.6708 7.51013Z" fill="#EFCF94"/>
<path d="M96.9249 4.67397C95.9472 4.83279 94.9696 5.13532 93.9845 5.14288C83.4112 5.18826 72.8379 5.16557 62.2721 5.22607C60.9937 5.22607 59.7228 5.61179 58.4443 5.81599C58.9783 5.40003 59.5047 4.62859 60.0386 4.62859C70.7398 4.56052 81.4409 4.57565 92.1421 4.58321C93.7363 4.58321 95.3306 4.64372 96.9173 4.68153H96.9249V4.67397Z" fill="#EFCF94"/>
<path d="M5.87165 103.871C5.97693 110.466 6.08221 117.061 6.18749 123.649C6.02205 120.881 5.7438 118.112 5.71372 115.337C5.6686 111.517 5.81149 107.691 5.87917 103.871H5.87165Z" fill="#EFCF94"/>
<path d="M23.5664 17.2059L23.6266 17.0396C23.9951 17.153 24.3635 17.2589 24.732 17.3723C24.341 17.3118 23.9499 17.2589 23.5664 17.2059Z" fill="#F6F0EB"/>
<path d="M28.793 17.4556H29.2968L29.0411 17.5161L28.793 17.448V17.4556Z" fill="#F6F0EB"/>
</svg>
