<svg width="117" height="140" viewBox="0 0 117 140" fill="none" xmlns="http://www.w3.org/2000/svg">
<path d="M58.0542 52.6457C58.0749 49.7751 58.1311 46.9075 58.0808 44.037C58.0749 43.6652 57.6166 43.1178 57.2441 42.9661C50.5384 40.2086 44.7257 33.111 46.6268 25.3025C47.9129 20.0165 50.5828 15.0845 52.4484 9.92642C53.4359 7.19269 54.0066 4.30429 54.8167 1.50215C54.9793 0.939933 55.4346 -0.0298104 55.6504 -6.37216e-05C56.6261 0.127847 57.933 0.249809 58.4533 0.904237C61.9333 5.2889 65.0348 9.98591 68.6478 14.2486C75.0016 21.7448 75.25 32.9742 68.7957 39.6137C67.6662 40.7738 66.247 41.8357 64.7569 42.4098C62.566 43.2576 61.7677 44.4772 62.0693 46.8243C62.3206 48.7548 62.1196 50.7419 62.1196 52.7587C65.4044 52.7587 68.639 52.848 71.8676 52.7349C75.1317 52.6189 76.5657 54.249 76.5805 57.3457C76.6071 64.3986 76.5864 71.4546 76.5864 78.5045C76.5746 78.5253 76.548 78.5521 76.5509 78.5759C76.5568 78.6265 76.5775 78.6741 76.5953 78.7246C77.1482 78.7246 77.701 78.7247 78.2539 78.7217C78.3426 78.7217 78.4313 78.7187 78.52 78.7187C80.0575 78.7514 81.5949 78.7812 83.1324 78.8139C83.6202 78.8109 84.1081 78.805 84.5959 78.802C85.681 76.0623 86.8164 73.3435 87.8364 70.58C89.3886 66.3738 88.9688 61.2544 92.9159 58.7319C89.4832 53.6125 85.8407 48.5644 82.6475 43.2457C81.1367 40.7262 81.9823 37.924 84.2736 36.0381C86.5798 34.1403 88.9392 34.6668 91.0325 36.6628C91.2306 36.8532 91.4878 36.984 91.9254 37.2845C91.9254 34.9315 91.3016 32.5072 92.1117 30.7551C92.8242 29.2142 95.0358 27.7566 96.7802 27.4681C99.1781 27.0724 100.015 29.3689 100.778 31.4571C102.277 35.5592 104.027 39.572 105.706 43.6057C108.057 49.2605 111.22 54.5644 110.786 61.1711C110.458 66.1775 111.141 71.2493 111.321 76.2943C111.469 80.3607 110.248 83.9303 108.151 87.488C106.833 89.728 106.783 92.7502 106.286 95.4453C105.142 101.668 104.157 107.936 100.426 112.951C101.712 113.74 103.876 114.329 104.054 115.292C105.387 122.488 107.483 129.779 104.802 137.034C104.323 138.331 102.052 139.711 100.568 139.756C92.1501 140.012 83.7208 139.878 75.2973 139.86C72.9113 139.857 70.3893 140.288 68.1777 139.655C65.3541 138.843 64.8811 136.124 64.9372 133.393C64.9461 133.021 64.2454 132.313 63.8581 132.304C60.5289 132.218 57.1968 132.254 53.8528 132.254C54.5535 137.451 52.4662 139.881 47.4014 139.878C37.3518 139.875 27.2993 139.872 17.2497 139.878C13.8495 139.878 11.3009 137.668 11.4014 134.244C11.5729 128.414 12.0016 122.586 12.4629 116.771C12.7142 113.585 15.2332 113.969 16.8209 113.998C15.1623 109.09 13.2937 104.087 11.8095 98.9732C10.9047 95.8588 10.7451 92.5271 9.93199 89.377C9.55945 87.9342 8.49506 86.6373 7.5992 85.376C4.74605 81.3632 5.16293 76.9279 5.78678 72.4392C6.68856 65.9217 7.16753 59.3119 8.61333 52.9194C9.42936 49.3051 11.9277 46.0984 13.4711 42.621C15.3012 38.4922 16.7382 34.1789 18.7339 30.1423C19.3607 28.8751 21.5338 27.2509 22.4918 27.5335C24.0884 28.0035 25.8949 29.6485 26.4773 31.2221C27.1633 33.0694 26.637 35.3718 26.637 37.5879C26.8972 37.4183 27.2401 37.2666 27.4855 37.0168C29.7001 34.7411 32.1186 34.0718 34.821 36.1333C37.337 38.0549 38.0555 41.2527 36.1278 44.0667C32.6685 49.1207 28.9047 53.9605 25.7796 58.1964C26.977 61.537 28.1478 64.7705 29.295 68.0158C30.3505 70.9964 31.2375 74.0514 32.5029 76.9369C32.8696 77.7757 34.2503 78.57 35.226 78.6533C37.9284 78.8853 40.6662 78.7336 43.478 78.7336C43.478 71.4516 43.4632 63.9554 43.4868 56.4592C43.4957 53.9605 44.6015 52.5892 47.298 52.7171C50.4616 52.8688 53.634 52.8807 56.8006 52.9223C57.2116 52.9283 57.6255 52.7468 58.0394 52.6516L58.0512 52.6397V52.6457H58.0542ZM20.1206 38.8849L20.0259 39.0812C18.2313 42.7341 16.4395 46.384 14.8518 49.6175C17.0397 46.9284 19.5233 43.8793 22.0039 40.8303C22.4533 37.7872 22.9028 34.7441 23.3492 31.698C23.1393 31.6564 22.9294 31.6148 22.7165 31.5731C21.8945 33.8696 21.0755 36.166 20.2536 38.4595L20.1176 38.8819H20.1206V38.8849ZM106.939 80.6136C106.989 77.4039 107.037 74.1972 107.087 70.9875C106.942 68.1259 106.951 65.2464 106.587 62.4145C106.377 60.7903 105.561 59.2435 105.017 57.664C103.64 56.1975 102.217 54.7696 100.893 53.2555C97.747 49.6591 94.6455 46.0211 91.5263 42.4009C90.7309 41.4907 90.0539 40.4138 89.0959 39.7326C88.4602 39.2835 87.4254 39.4054 86.568 39.2716C86.4882 40.0509 86.1422 40.9344 86.3876 41.5859C86.843 42.7876 87.6501 43.8555 88.3124 44.98C91.5322 49.3974 94.749 53.8147 97.9688 58.2321C99.6304 59.1959 101.703 60.5286 101.824 62.0219C102.17 66.2578 101.804 70.5681 101.484 74.8308C101.437 75.4525 100.174 76.1902 99.3436 76.4401C99.0066 76.5412 97.9717 75.5507 97.8712 74.9498C97.6376 73.5814 97.7825 72.1476 97.7766 70.7436C97.7914 68.1884 97.9037 65.6272 97.7411 63.0838C97.7057 62.5157 96.7536 61.6946 96.115 61.5757C95.5857 61.4805 94.5332 62.12 94.3469 62.6555C93.6048 64.7913 93.114 67.0134 92.5286 69.2057C89.093 78.7901 87.2214 89.2728 77.6567 95.3293C76.9353 95.7785 76.2079 96.2187 75.4984 96.6827C69.5526 100.565 67.7845 105.098 69.6797 111.863C70.4218 114.507 70.8712 117.8 75.0194 115.539C80.9593 115.031 86.9021 114.519 92.842 114.022C93.6698 113.954 94.9648 114.293 95.2516 113.885C96.4816 112.121 97.4189 110.149 98.4596 108.254C99.5742 104.417 100.97 100.633 101.73 96.7274C102.62 92.1612 102.309 87.3185 105.742 83.5109C106.398 82.7821 106.546 81.5922 106.927 80.6136H106.939ZM69.2658 127.355C69.2421 129.838 69.1712 132.322 69.2392 134.803C69.248 135.166 69.8985 135.821 70.2562 135.823C80.1077 135.877 89.9593 135.883 99.8108 135.809C100.334 135.806 101.304 135.044 101.298 134.646C101.245 130.151 101.041 125.656 100.875 121.161C100.677 119.974 100.704 117.886 100.237 117.767C98.7819 117.395 97.1409 117.773 95.571 117.859C93.2914 117.996 91.0089 118.083 88.7382 118.291C87.4018 118.413 86.0861 118.731 84.7585 118.96C80.4271 119.412 76.1074 120.082 71.7671 120.239C68.8873 120.343 68.7424 121.819 68.9967 123.96C69.1298 125.085 69.18 126.218 69.2687 127.349V127.355H69.2658ZM21.729 118.029C19.9225 117.928 18.1189 117.824 16.3627 117.726C16.0847 120.343 15.6797 122.768 15.6117 125.201C15.5259 128.244 15.7181 131.293 15.792 134.339C16.2148 134.848 16.6347 135.794 17.0604 135.797C27.6068 135.88 38.156 135.868 48.7053 135.847C49.0365 135.847 49.6544 135.583 49.6544 135.443C49.6278 131.799 49.5391 128.158 49.4593 124.514C49.616 123.214 49.7727 121.914 49.9353 120.575C46.4967 120.087 43.3538 119.641 40.2109 119.195C34.0522 118.805 27.8936 118.416 21.7349 118.023L21.729 118.029ZM72.2727 79.0191C72.3732 78.7068 72.5654 78.3915 72.5654 78.0791C72.5801 71.5289 72.5801 64.9817 72.5565 58.4314C72.5565 57.89 72.3407 57.3516 72.2254 56.8102C64.2158 56.7745 56.2033 56.7269 48.1938 56.7567C47.8863 56.7567 47.3157 57.5212 47.3157 57.9287C47.3216 63.3694 47.4369 68.8101 47.4665 74.2507C47.4931 79.0757 47.4635 79.0816 52.3568 79.0727C58.9974 79.0608 65.635 79.037 72.2756 79.0191H72.2727ZM38.7119 94.2792C38.1442 93.8181 37.5204 93.4136 37.0177 92.8871C30.6757 86.2298 28.3075 77.5675 25.2503 69.2563C24.8482 67.4982 24.6531 65.651 23.9612 64.0179C23.5562 63.06 22.3558 62.4413 21.5131 61.6708C20.8124 62.6019 19.6623 63.4616 19.5026 64.4789C19.1774 66.5612 19.3844 68.7238 19.3725 70.8566C19.4257 71.8026 19.7392 72.8378 19.4642 73.6737C19.1478 74.6404 18.3111 75.4376 17.702 76.3062C17.0664 75.634 15.9221 74.9944 15.8778 74.2864C15.6146 70.0802 15.4432 65.8503 15.6294 61.6471C15.6738 60.6565 17.1137 59.6034 18.0982 58.8181C18.8847 58.1935 20.2122 58.1667 20.8538 57.4617C22.888 55.2188 24.7802 52.8361 26.6015 50.4087C28.1833 48.2997 29.5907 46.0568 31.0778 43.8734C31.681 43.094 32.5207 42.389 32.8045 41.5055C32.9938 40.9136 32.5591 39.9022 32.0713 39.4054C31.8229 39.1496 30.6669 39.4143 30.2382 39.8011C29.4842 40.4823 28.9757 41.4342 28.3666 42.273C28.0473 42.4961 27.6836 42.6776 27.4175 42.9512C23.1068 47.4103 18.796 51.8693 14.5148 56.3581C13.616 57.3011 12.3328 58.2589 12.1051 59.3893C11.2832 63.4557 10.5144 67.5875 10.34 71.7193C10.1833 75.4644 8.47732 79.275 10.816 83.0587C12.4067 85.6318 13.4179 88.5619 14.6892 91.3343C15.8748 96.3169 17.0604 101.299 18.249 106.282C18.2934 106.478 18.3377 106.672 18.3821 106.868C19.0029 108.147 19.6238 109.426 20.2447 110.705C21.2529 113.695 23.2487 114.73 26.3768 114.299C28.34 114.028 30.3919 114.337 32.3995 114.474C34.8623 114.641 37.3252 114.873 39.7822 115.132C42.2865 115.393 44.7848 115.721 47.2861 116.021C47.6173 115.28 48.0135 114.561 48.2648 113.796C49.8377 108.995 50.701 104.096 46.7066 100.121C44.3916 97.8191 41.4024 96.2068 38.7148 94.2822H38.7119V94.2792ZM82.9432 83.0706H35.0279C36.3998 85.0875 37.4849 87.2292 39.0815 88.8683C40.7342 90.5609 42.9251 91.715 44.8144 93.1875C51.5112 98.4081 56.3039 101.514 52.3981 113.977C52.0522 115.081 51.4786 116.327 51.7093 117.351C51.9961 118.621 53.4093 119.653 53.6252 120.911C54.0509 123.383 53.9859 125.942 54.113 128.289C57.5072 128.289 60.9251 128.304 64.3459 128.253C64.5588 128.25 64.9372 127.729 64.9461 127.441C65.0289 125.034 64.615 122.512 65.1915 120.242C65.8183 117.782 66.9892 115.89 65.7917 112.936C62.1905 104.045 66.2323 97.8875 73.0621 93.247C77.0447 90.54 81.1751 88.1008 82.9402 83.0706H82.9432ZM57.6344 7.70434C57.4037 8.48668 57.3091 9.04294 57.0844 9.54269C55.2897 13.5763 53.2231 17.5118 51.7181 21.6526C49.8791 26.7065 49.2079 31.82 53.9829 35.9191C54.2638 36.1601 54.6659 36.3058 55.0355 36.3713C55.139 36.3891 55.3932 35.9756 55.4553 35.7258C56.3748 32.0372 57.179 28.3158 58.2937 24.6867C58.4415 24.2048 60.8867 23.8181 61.002 24.0412C62.7582 27.471 64.3045 31.0079 65.8982 34.521C66.0401 34.8334 66.1613 35.1576 66.2914 35.4759C66.6107 35.2825 67.1133 35.1576 67.2227 34.8809C68.0802 32.7124 69.3456 30.5647 69.5762 28.3158C70.1498 22.7175 67.069 18.5173 63.5299 14.6026C61.546 12.4043 59.6744 10.1019 57.6314 7.70434H57.6344ZM96.3101 31.3976C94.8229 37.5641 98.3561 46.3751 102.827 48.7637C100.591 42.8084 98.4507 37.103 96.3101 31.3976ZM59.9701 30.6063V40.7054C63.0893 39.569 62.9031 34.2473 59.9701 30.6063Z" fill="#765843"/>
<path d="M76.5956 78.7246C76.5808 78.6741 76.5599 78.6265 76.551 78.5759C76.548 78.5551 76.5748 78.5283 76.5867 78.5045C76.6046 78.5551 76.6313 78.6027 76.6403 78.6533C76.6432 78.6741 76.6105 78.7008 76.5956 78.7217V78.7246Z" fill="#765843"/>
<path d="M78.52 78.7157C78.4313 78.7157 78.3426 78.7157 78.2539 78.7187C78.3426 78.7187 78.4313 78.7187 78.52 78.7157Z" fill="#765843"/>
<path d="M82.9455 83.0676C81.1804 88.0978 77.05 90.537 73.0674 93.244C66.2375 97.8845 62.1958 104.042 65.797 112.933C66.9915 115.887 65.8236 117.776 65.1968 120.239C64.6173 122.509 65.0342 125.028 64.9514 127.438C64.9425 127.726 64.5641 128.247 64.3512 128.25C60.9333 128.301 57.5125 128.286 54.1183 128.286C53.9912 125.936 54.0562 123.38 53.6304 120.908C53.4146 119.65 52.0013 118.615 51.7145 117.348C51.4839 116.327 52.0546 115.081 52.4034 113.974C56.3121 101.511 51.5165 98.405 44.8197 93.1845C42.9304 91.712 40.7395 90.5578 39.0868 88.8653C37.4902 87.2292 36.408 85.0845 35.0332 83.0676H82.9485H82.9455Z" fill="#F6F0EB"/>
<path d="M72.2754 79.0162C65.6348 79.034 58.9971 79.0578 52.3565 79.0697C47.4633 79.0787 47.4958 79.0727 47.4662 74.2478C47.4367 68.8071 47.3213 63.3664 47.3154 57.9258C47.3154 57.5182 47.8861 56.7567 48.1936 56.7537C56.2031 56.724 64.2156 56.7716 72.2251 56.8073C72.2635 63.4319 72.3404 70.0565 72.296 76.6811C72.2901 77.5229 71.6485 78.3588 71.3943 78.9716C71.0306 78.9537 71.6515 78.9835 72.2724 79.0162H72.2754Z" fill="#F6F0EB"/>
<path d="M57.637 7.70142C59.68 10.099 61.5516 12.4014 63.5355 14.5997C67.0746 18.5144 70.1524 22.7146 69.5818 28.3129C69.3512 30.5618 68.0887 32.7095 67.2283 34.878C67.1189 35.1576 66.6163 35.2796 66.297 35.473C66.1669 35.1547 66.0457 34.8334 65.9037 34.5181C64.3101 31.005 62.7638 27.4681 61.0076 24.0383C60.8922 23.8152 58.4471 24.2049 58.2993 24.6838C57.1846 28.3099 56.3804 32.0342 55.4609 35.7228C55.3988 35.9697 55.1445 36.3862 55.0411 36.3683C54.6744 36.3059 54.2694 36.1571 53.9885 35.9162C49.2135 31.8171 49.8847 26.7036 51.7237 21.6497C53.2286 17.5089 55.2924 13.5734 57.09 9.53976C57.3118 9.04002 57.4093 8.48673 57.6399 7.70142H57.637Z" fill="#EFCF94"/>
<path d="M77.6656 95.3323C77.4675 96.8166 77.2635 98.301 77.0684 99.7854C76.3854 105.039 75.7054 110.289 75.0254 115.542C70.8743 117.806 70.4248 114.51 69.6857 111.866C67.7905 105.098 69.5585 100.568 75.5043 96.6857C76.2169 96.2217 76.9442 95.7815 77.6627 95.3323H77.6656Z" fill="#EFCF94"/>
<path d="M98.4717 108.251C98.8383 105.428 99.1813 102.599 99.5804 99.7794C100.411 93.9074 101.186 88.0235 102.147 82.1753C103.176 75.9166 104.512 69.7055 105.464 63.4378C105.748 61.5787 105.192 59.5916 105.021 57.661C105.565 59.2435 106.381 60.7874 106.591 62.4116C106.954 65.2435 106.942 68.1259 107.09 70.9846C107.04 74.1942 106.993 77.4009 106.942 80.6106C106.561 81.5893 106.413 82.7792 105.757 83.5079C102.321 87.3155 102.632 92.1583 101.745 96.7244C100.985 100.633 99.5893 104.414 98.4746 108.251H98.4717Z" fill="#765843"/>
<path d="M47.2863 116.015C46.0327 112.086 45.0334 108.049 43.4427 104.265C42.1358 101.154 40.1046 98.3546 38.4519 95.3829C38.3159 95.1389 38.6145 94.6481 38.715 94.2733C41.4026 96.1979 44.3947 97.8102 46.7068 100.113C50.7012 104.087 49.8379 108.986 48.265 113.787C48.0136 114.555 47.6175 115.272 47.2863 116.012V116.015Z" fill="#EFCF94"/>
<path d="M21.7317 118.026C20.7796 120.272 19.7182 122.479 18.8992 124.773C17.7698 127.926 16.8207 131.144 15.7918 134.336C15.7179 131.29 15.5257 128.238 15.6114 125.198C15.6795 122.765 16.0875 120.337 16.3624 117.723C18.1187 117.824 19.9252 117.925 21.7287 118.026H21.7317Z" fill="#765843"/>
<path d="M84.7609 118.963C81.7954 120.096 78.7116 120.995 75.9058 122.443C73.8066 123.526 72.074 125.326 70.1699 126.795C69.892 127.009 69.5697 127.17 69.2681 127.358C69.1794 126.227 69.1321 125.094 68.9961 123.966C68.7419 121.825 68.8867 120.349 71.7665 120.245C76.1068 120.087 80.4294 119.418 84.758 118.966H84.7609V118.963Z" fill="#765843"/>
<path d="M25.2561 69.2533C23.2959 69.7857 21.3356 70.3182 19.3783 70.8507C19.3902 68.7208 19.1832 66.5552 19.5084 64.4759C19.6681 63.4586 20.8182 62.5989 21.5189 61.6678C22.3616 62.4383 23.562 63.057 23.967 64.0149C24.6589 65.648 24.854 67.4952 25.2561 69.2533Z" fill="#EFCF94"/>
<path d="M96.3158 31.3947C98.4564 37.1001 100.597 42.8055 102.832 48.7608C98.3617 46.3721 94.8286 37.5611 96.3158 31.3947Z" fill="#EFCF94"/>
<path d="M97.7822 70.7407C96.0348 70.229 94.2845 69.7174 92.5371 69.2057C93.1225 67.0134 93.6133 64.7913 94.3554 62.6555C94.5417 62.1201 95.5943 61.4775 96.1235 61.5757C96.7592 61.6917 97.7112 62.5157 97.7497 63.0839C97.9123 65.6272 97.797 68.1884 97.7851 70.7436H97.7822V70.7407Z" fill="#EFCF94"/>
<path d="M14.6895 91.3313C15.5203 92.5658 16.7177 93.6902 17.1139 95.0526C18.1044 98.4527 18.7548 101.957 19.4467 105.437C19.4851 105.631 18.6661 105.993 18.2463 106.279C17.0607 101.296 15.8751 96.3139 14.6895 91.3313Z" fill="#765843"/>
<path d="M49.4564 124.517C46.3726 122.744 43.2888 120.971 40.2051 119.198C43.348 119.644 46.4909 120.09 49.9295 120.578C49.7668 121.917 49.6101 123.217 49.4534 124.517H49.4564Z" fill="#765843"/>
<path d="M59.9766 30.6003C62.9095 34.2413 63.0958 39.563 59.9766 40.6994V30.6003Z" fill="#EFCF94"/>
<path d="M91.5292 42.398C90.4589 43.2577 89.3857 44.1173 88.3154 44.98C87.656 43.8556 86.8489 42.7906 86.3906 41.5859C86.1422 40.9315 86.4911 40.051 86.5709 39.2716C87.4284 39.4055 88.4632 39.2835 89.0989 39.7327C90.0568 40.4109 90.7339 41.4907 91.5292 42.401V42.398Z" fill="#EFCF94"/>
<path d="M100.878 121.161C98.9416 120.242 97.002 119.323 95.0654 118.401C95.234 118.219 95.4025 118.041 95.571 117.859C97.141 117.773 98.7819 117.395 100.237 117.767C100.704 117.886 100.677 119.974 100.875 121.161H100.878Z" fill="#765843"/>
<path d="M20.257 38.4624C21.0789 36.166 21.8979 33.8695 22.7198 31.576C22.9298 31.6177 23.1397 31.6593 23.3526 31.701C22.9031 34.7441 22.4537 37.7872 22.0073 40.8332C21.348 40.2502 20.6886 39.6672 20.0293 39.0811C20.0618 39.0157 20.0943 38.9503 20.1239 38.8848C20.1683 38.745 20.2156 38.6022 20.2599 38.4624H20.257Z" fill="#EFCF94"/>
<path d="M31.0784 43.8704C30.1737 43.3379 29.2719 42.8025 28.3672 42.27C28.9763 41.4312 29.4848 40.4793 30.2387 39.7981C30.6675 39.4114 31.8235 39.1496 32.0719 39.4024C32.5597 39.8992 32.9943 40.9136 32.8051 41.5026C32.5213 42.386 31.6816 43.091 31.0784 43.8704Z" fill="#EFCF94"/>
<path d="M18.3818 106.865C18.7366 106.832 19.393 106.722 19.4048 106.776C19.7271 108.076 19.9784 109.391 20.2445 110.702C19.6236 109.423 19.0027 108.144 18.3818 106.865Z" fill="#765843"/>
</svg>
