<svg width="116" height="140" viewBox="0 0 116 140" fill="none" xmlns="http://www.w3.org/2000/svg">
<path d="M87.2472 81.7804C90.406 82.1978 93.8874 82.5556 97.3313 83.152C102.351 84.0242 103.799 85.3064 102.606 90.5543C100.79 98.5605 97.5939 105.59 90.9237 110.704C89.363 111.897 87.6523 112.888 85.3414 114.409C90.7361 115.915 93.3322 119.56 94.3376 123.906C94.8103 125.933 93.7298 128.721 92.5068 130.645C89.4906 135.408 81.1172 137.227 77.148 133.604C72.6837 129.519 69.2098 124.562 77.5607 115.773C73.0814 116.615 68.602 117.465 63.6875 118.397C65.0381 122.094 66.4937 126.082 67.9493 130.078C68.7671 132.322 69.81 134.521 70.2752 136.832C70.4628 137.756 69.3523 138.934 68.8346 140C67.9868 139.284 66.7713 138.74 66.3436 137.831C64.2277 133.343 62.532 128.654 60.2886 124.234C58.0152 119.739 57.8126 119.843 52.8831 120.499C52.2453 120.581 51.6001 120.588 50.1145 120.685C51.5851 121.617 52.3879 122.333 53.3333 122.683C57.49 124.241 58.5554 130.883 53.926 133.701C47.3458 137.704 40.3755 140.142 32.2871 138.211C27.1625 136.988 22.7507 134.879 18.9992 131.368C15.5103 128.103 14.955 125.069 20.1021 122.974C22.7732 121.893 25.2718 120.365 27.7703 118.911C28.8507 118.278 30.0737 117.271 28.6331 115.937C21.3477 109.153 19.4494 99.8054 16.4106 90.9867C15.4577 88.2285 14.3998 85.5151 13.4319 82.7644C12.3215 79.626 13.3419 78.1277 16.6132 78.0979C20.7324 78.0606 24.8441 78.0904 29.436 78.0904C29.2859 75.5857 29.3459 73.1108 28.9408 70.7104C28.5656 68.4741 28.7832 66.2825 30.7715 65.4103C32.1371 64.8065 34.2229 65.3432 35.8286 65.8576C38.5147 66.7074 41.0507 68.0343 43.7143 68.9586C44.2921 69.1599 45.365 68.6903 45.8752 68.1908C49.1391 65.0003 52.3204 61.7278 55.4867 58.4553C55.9068 58.0229 56.402 57.3818 56.387 56.86C56.252 53.1477 55.9969 49.4353 55.7718 45.5888C46.5205 43.0617 40.8707 29.748 44.4796 19.7366C46.7981 13.2885 50.8498 8.11503 54.7138 2.7627C57.445 -1.02419 60.7313 -0.837824 63.545 2.82979C66.5537 6.7434 69.6225 10.6347 72.3311 14.7495C76.8629 21.6375 78.311 28.9354 74.2293 36.6285C72.0985 40.639 68.527 43.1288 64.4978 44.6793C60.7838 46.1106 60.1461 48.6899 60.2736 51.9997C60.2961 52.5289 60.2736 53.0582 60.2736 53.5427C65.6233 50.2329 70.7779 46.9306 76.0601 43.8295C79.2789 41.9435 82.7828 43.3152 83.7132 46.871C84.6136 50.3373 85.3264 53.8931 85.634 57.4489C86.3318 65.5221 86.722 73.6177 87.2397 81.7878H87.2472V81.7804ZM53.5809 37.359C55.8093 36.0396 53.4908 34.3325 53.9635 32.864C53.2357 30.1878 53.0632 27.4371 54.8564 25.2082C55.9068 23.9037 57.7226 22.3084 59.1031 22.3904C60.8438 22.4948 63.3499 23.8067 63.9801 25.2529C65.0231 27.6533 65.0606 30.5754 65.0831 33.2814C65.0981 35.309 64.4228 37.3441 64.0177 39.5879C69.2473 37.1279 72.5261 30.8065 71.7758 25.7375C70.4553 16.8219 63.3349 11.477 58.9531 3.76906C57.7976 5.47614 57.0398 6.60177 56.282 7.72739C53.821 11.9615 50.8197 15.987 49.0265 20.4895C46.3104 27.3104 48.1486 33.7585 52.718 40.2663C53.1382 38.8499 53.3558 38.1045 53.5809 37.359ZM37.6894 120.909C36.909 120.447 35.8511 119.403 35.3934 119.619C30.4414 121.968 25.5794 124.517 19.9896 127.372C22.9233 129.236 24.9266 130.51 26.9299 131.785C28.5506 132.292 30.1338 133.03 31.7994 133.276C38.4772 134.26 44.4796 131.092 50.8272 129.996C51.7201 129.84 52.4929 129.027 53.3258 128.513C52.7705 127.708 52.3879 126.478 51.6301 126.164C47.0307 124.293 42.3488 122.631 37.6894 120.902V120.909ZM41.666 81.4524C46.0478 84.3895 50.7147 86.9911 54.7063 90.3754C57.6475 92.8652 59.7109 96.3763 62.1794 99.455C62.9072 97.1366 63.4849 94.5499 64.5504 92.1794C65.2932 90.5171 65.3082 89.302 64.2577 87.8334C57.8126 78.8731 49.6042 72.7083 38.2371 71.4783C36.9841 69.801 35.4084 69.227 33.8478 69.8532C33.8478 72.8126 33.7577 75.541 33.9078 78.2544C33.9453 78.9179 34.6506 79.9391 35.2434 80.1106C37.3292 80.7218 39.5126 81.0275 41.651 81.4524H41.666ZM70.7929 52.8122C63.4774 58.1645 55.7493 63.0249 49.4842 69.6892C52.9806 71.8584 56.297 73.9084 59.6133 75.9659C62.5546 79.298 65.4958 82.6302 67.9118 85.3585C72.4211 84.1882 76.5028 83.0029 80.637 82.1158C82.1151 81.7953 82.7828 81.3555 82.7228 79.8422C82.5052 74.5719 82.7003 69.2568 82.0475 64.0387C81.3272 58.254 79.8641 52.5587 78.6186 46.3193C75.6399 48.7868 73.2164 50.7995 70.7854 52.8122H70.7929ZM35.0033 90.6214C35.9111 91.3594 36.8265 92.09 37.7344 92.8279C39.6026 94.3263 41.4634 95.8246 43.3317 97.323C48.0061 101.87 52.688 106.425 57.595 111.203C58.8931 103.771 57.5425 97.8895 51.8026 93.2528C41.8085 85.1945 30.3288 81.7133 17.8662 81.7431C20.2597 88.8845 22.6532 96.175 25.1592 103.428C27.4327 110.011 32.4072 114.357 38.5672 116.757C44.4796 119.068 50.7522 117.241 56.9648 116.198C56.7997 115.549 56.8222 114.968 56.5521 114.692C53.4308 111.524 50.347 108.303 47.0757 105.292C43.5117 102.012 39.7152 98.9779 36.1062 95.7501C34.5756 94.3785 33.5101 92.731 35.0033 90.6289V90.6214ZM90.3985 93.9759C91.0137 96.2197 89.213 96.6148 87.9074 96.9875C79.5715 99.3804 73.8242 105.202 68.3394 111.382C67.8892 111.897 67.8367 112.754 67.5966 113.447C68.2869 113.507 69.0372 113.783 69.66 113.604C73.7867 112.411 77.9659 111.323 81.9875 109.824C92.1617 106.03 96.9486 98.1952 98.3592 87.7738C97.3838 87.4905 96.596 87.0954 95.7857 87.0582C90.7511 86.8271 85.7165 86.5811 80.682 86.514C74.582 86.4245 69.4799 88.154 67.1539 94.4903C66.066 97.4572 64.5804 100.32 63.8301 103.361C63.1698 106.045 63.2899 108.922 63.0573 111.71L63.8676 111.815C65.0231 110.383 66.0735 108.848 67.3565 107.536C71.7983 103.003 76.4878 98.8363 82.3477 96.0259C84.8987 94.8034 87.1421 93.1858 90.3985 93.9759ZM82.9704 131.137C87.0371 131.137 90.0158 128.475 90.0533 124.815C90.0908 121.751 87.1871 118.568 84.2985 118.777C79.579 119.112 76.983 120.924 77.058 124.36C77.1405 128.155 79.6691 131.137 82.9704 131.137ZM61.3616 31.1792C61.3616 30.3891 61.5041 29.4423 61.3241 28.5553C61.129 27.5787 60.6338 26.6544 60.2736 25.7076C59.2007 26.2891 57.2874 26.7736 57.1974 27.4818C56.8072 30.5083 56.8972 33.6094 57.0248 36.6732C57.0248 36.9043 59.0281 37.523 59.6434 37.1727C61.9393 35.8458 61.2265 33.4156 61.3691 31.1792H61.3616Z" fill="#765843"/>
<path d="M35.011 90.6214C33.5179 92.7161 34.5834 94.371 36.114 95.7427C39.723 98.9705 43.5195 102.004 47.0835 105.284C50.3548 108.296 53.4311 111.516 56.5599 114.685C56.8375 114.968 56.8075 115.542 56.9725 116.19C50.7675 117.234 44.4949 119.06 38.575 116.749C32.415 114.342 27.4404 110.003 25.167 103.421C22.6685 96.1676 20.275 88.8771 17.874 81.7357C30.3366 81.7058 41.8163 85.1871 51.8104 93.2454C57.5578 97.8746 58.9083 103.756 57.6028 111.196C52.6883 106.418 48.0139 101.87 43.3395 97.3156C43.0018 93.3945 40.3682 91.0836 37.352 89.138C35.8439 88.1689 34.846 88.6385 35.011 90.6065V90.6214Z" fill="#EFCF94"/>
<path d="M90.4057 93.9685C87.1493 93.1783 84.9059 94.796 82.3549 96.0185C76.495 98.8288 71.8055 102.996 67.3637 107.528C66.0807 108.84 65.0303 110.376 63.8748 111.807L63.0645 111.703C63.2895 108.915 63.177 106.037 63.8373 103.354C64.5876 100.312 66.0732 97.4498 67.1611 94.4829C69.4871 88.1465 74.5817 86.4171 80.6892 86.5066C85.7237 86.5811 90.7658 86.8196 95.7929 87.0507C96.6032 87.088 97.3985 87.4831 98.3664 87.7664C96.9633 98.1877 92.1764 106.022 81.9947 109.817C77.9731 111.315 73.8014 112.403 69.6672 113.596C69.0444 113.775 68.2941 113.507 67.6038 113.44C67.8439 112.739 67.8964 111.882 68.3466 111.375C73.8239 105.195 79.5712 99.373 87.9146 96.9801C89.2127 96.6074 91.0209 96.2123 90.4057 93.9685Z" fill="#F6F0EB"/>
<path d="M70.8003 52.8122C73.2238 50.7995 75.6548 48.7868 78.6335 46.3193C79.8715 52.5588 81.3421 58.254 82.0624 64.0387C82.7077 69.2568 82.5201 74.5719 82.7377 79.8422C82.7977 81.3555 82.13 81.8027 80.6519 82.1158C76.5102 83.0029 72.436 84.1882 67.9266 85.3585C65.5182 82.6302 62.5769 79.298 59.6357 75.9659C60.7612 74.7657 61.7741 73.4463 63.0196 72.3877C69.1046 67.2068 71.4906 60.6171 70.8153 52.8122H70.8003Z" fill="#F6F0EB"/>
<path d="M56.2814 7.73483C57.0392 6.6092 57.797 5.48357 58.9525 3.77649C63.3343 11.4844 70.4547 16.8293 71.7753 25.7449C72.5256 30.814 69.2392 37.1354 64.0171 39.5954C64.4222 37.3516 65.0975 35.3165 65.0825 33.2888C65.06 30.5829 65.0225 27.6532 63.9796 25.2604C63.3493 23.8067 60.8433 22.5022 59.1026 22.3978C57.722 22.3158 55.9063 23.9111 54.8558 25.2156C53.0626 27.452 53.2352 30.1952 53.963 32.8714C53.2502 32.1259 52.5299 31.3805 51.8096 30.635C51.9146 28.354 51.5845 25.9536 52.2072 23.8216C53.7604 18.5066 56.409 13.4822 56.2739 7.74228H56.2814V7.73483Z" fill="#F6F0EB"/>
<path d="M38.2442 71.4783C49.6114 72.7083 57.8122 78.8731 64.2649 87.8334C65.3153 89.2945 65.3003 90.5171 64.5575 92.1794C63.4921 94.5499 62.9143 97.1367 62.1865 99.455C59.718 96.3763 57.6547 92.8652 54.7135 90.3754C50.7218 86.9911 46.0549 84.3895 41.6731 81.4524C40.3526 78.1873 38.0866 75.2502 38.2517 71.4783H38.2442Z" fill="#F6F0EB"/>
<path d="M70.7999 52.8123C71.4677 60.6246 69.0892 67.2143 63.0043 72.3878C61.7587 73.4463 60.7458 74.7658 59.6204 75.9659C56.304 73.9085 52.9876 71.8585 49.4912 69.6892C55.7563 63.0175 63.4844 58.1646 70.7999 52.8123Z" fill="#EFCF94"/>
<path d="M37.6891 120.909C42.341 122.639 47.0304 124.301 51.6298 126.172C52.3876 126.485 52.7703 127.715 53.3255 128.52C52.4927 129.027 51.7198 129.847 50.827 130.004C44.4794 131.092 38.4769 134.268 31.7992 133.284C30.141 133.038 28.5504 132.3 26.9297 131.793C27.2673 130.503 27.1848 128.714 28.0251 128.006C31.0789 125.449 34.4403 123.25 37.6891 120.917V120.909Z" fill="#F6F0EB"/>
<path d="M82.9775 131.137C79.6686 131.137 77.1476 128.155 77.0651 124.36C76.99 120.924 79.5861 119.113 84.3055 118.777C87.1942 118.568 90.0979 121.751 90.0604 124.815C90.0154 128.475 87.0441 131.129 82.9775 131.137Z" fill="#F6F0EB"/>
<path d="M56.2814 7.73487C56.4165 13.4748 53.7679 18.4992 52.2148 23.8142C51.592 25.9462 51.9221 28.3466 51.8171 30.6276C51.9972 32.9758 51.2544 35.5625 53.5803 37.359C53.3627 38.1045 53.1376 38.8499 52.7175 40.2663C48.1481 33.7585 46.3098 27.3104 49.026 20.4895C50.8192 15.987 53.8204 11.969 56.2814 7.72742V7.73487Z" fill="#F2FDFC"/>
<path d="M37.689 120.909C34.4402 123.242 31.0788 125.441 28.0251 127.998C27.1847 128.699 27.2672 130.496 26.9296 131.785C24.9263 130.51 22.9155 129.236 19.9893 127.372C25.579 124.517 30.441 121.968 35.3931 119.619C35.8433 119.403 36.9087 120.454 37.689 120.909Z" fill="#F2FDFC"/>
<path d="M38.2445 71.4783C38.0795 75.2428 40.3454 78.1873 41.6659 81.4524C39.52 81.0275 37.3442 80.7219 35.2583 80.1106C34.6581 79.9392 33.9603 78.9179 33.9227 78.2544C33.7727 75.541 33.8627 72.8127 33.8627 69.8532C35.4234 69.227 36.999 69.801 38.252 71.4783H38.2445Z" fill="#F2FDFC"/>
<path d="M61.3695 31.1718C61.227 33.4081 61.9473 35.8383 59.6438 37.1652C59.0361 37.5156 57.0402 36.8969 57.0252 36.6658C56.8902 33.602 56.8076 30.5009 57.1978 27.4744C57.2878 26.7662 59.2011 26.2891 60.2741 25.7002C60.6342 26.6469 61.1294 27.5713 61.3245 28.5478C61.5046 29.4349 61.362 30.3891 61.362 31.1718H61.3695Z" fill="#F6F0EB"/>
<path d="M35.011 90.6214C34.8459 88.6534 35.8438 88.1763 37.3519 89.1529C40.3682 91.0985 43.0093 93.4094 43.3394 97.3304C41.4711 95.8321 39.6104 94.3337 37.7421 92.8354C36.8267 92.1048 35.9188 91.3668 35.011 90.6288V90.6214Z" fill="#F2FDFC"/>
<path d="M53.5806 37.359C51.2547 35.5624 51.9975 32.9757 51.8174 30.6276C52.5377 31.373 53.2505 32.1185 53.9708 32.8639C53.4906 34.3324 55.8165 36.0395 53.5881 37.359H53.5806Z" fill="#EFCF94"/>
</svg>
