<svg width="100" height="275" viewBox="0 0 100 275" fill="none" xmlns="http://www.w3.org/2000/svg">
<path d="M34.1439 274.456L33.1839 274.6L32.3679 270.04H2.07986C1.75986 271.672 1.48786 273.192 1.26386 274.6L0.255859 274.456C0.351858 273.08 0.399857 271.016 0.399857 268.264L0.399857 259.288C0.399857 254.904 1.27986 251.496 3.03986 249.064C4.79986 246.6 7.23186 245.368 10.3359 245.368C13.4719 245.368 15.9199 246.616 17.6799 249.112C19.4079 251.576 20.2719 255.032 20.2719 259.48V267.64H18.7359V259.384C18.7359 257.24 18.3359 255.448 17.5359 254.008C16.7039 252.536 15.6479 251.448 14.3679 250.744C13.0879 250.008 11.7439 249.64 10.3359 249.64C8.92786 249.64 7.58386 249.992 6.30386 250.696C5.02386 251.4 3.98386 252.472 3.18386 253.912C2.35186 255.352 1.93586 257.112 1.93586 259.192L1.93586 261.496L2.31986 266.008H32.3199C32.6719 264.504 32.9919 262.872 33.2799 261.112L34.1439 261.208C34.0479 263.8 33.9999 266.2 33.9999 268.408C33.9999 271.064 34.0479 273.08 34.1439 274.456Z" fill="#DEDEDE"/>
<path d="M34.1439 241.896L33.1839 241.992L32.5119 238.44H8.60786C8.38386 239.56 8.17586 240.744 7.98386 241.992L6.97586 241.848C7.07186 240.216 7.11986 238.504 7.11986 236.712L7.11986 228.936C7.11986 225.608 7.82386 223.016 9.23186 221.16C10.6079 219.272 12.5119 218.328 14.9439 218.328C17.3759 218.328 19.2799 219.272 20.6559 221.16C21.9999 223.016 22.6719 225.608 22.6719 228.936V230.76L22.5279 237.432H21.1839V229.224C21.1839 227.816 20.8959 226.6 20.3199 225.576C19.7439 224.52 18.9759 223.72 18.0159 223.176C17.0559 222.632 16.0319 222.36 14.9439 222.36C13.8559 222.36 12.8159 222.632 11.8239 223.176C10.8319 223.72 10.0319 224.52 9.42386 225.576C8.78386 226.6 8.46386 227.816 8.46386 229.224V231.384L8.75186 234.552H32.5599C32.7519 233.528 32.9759 232.248 33.2319 230.712L34.1439 230.856C34.0479 232.392 33.9999 234.248 33.9999 236.424C33.9999 238.344 34.0479 240.168 34.1439 241.896ZM34.2879 220.536C31.5359 222.232 29.0559 223.848 26.8479 225.384L22.2399 228.6L21.6159 226.536L26.6559 222.648C27.4879 222.008 28.6079 221.032 30.0159 219.72C31.3919 218.408 32.6079 217.192 33.6639 216.072L34.4799 216.36L34.2879 220.536Z" fill="#DEDEDE"/>
<path d="M34.5759 197.233C34.5759 200.081 33.9839 202.689 32.7999 205.057C31.6159 207.393 29.9679 209.249 27.8559 210.625C25.7439 212.001 23.3279 212.689 20.6079 212.689C17.8879 212.689 15.4719 212.049 13.3599 210.769C11.2159 209.457 9.55186 207.633 8.36786 205.297C7.15186 202.929 6.54386 200.209 6.54386 197.137C6.54386 194.289 7.13585 191.681 8.31985 189.313C9.50385 186.945 11.1519 185.073 13.2639 183.697C15.3759 182.289 17.7919 181.585 20.5119 181.585C23.2319 181.585 25.6639 182.241 27.8079 183.553C29.9199 184.865 31.5839 186.705 32.7999 189.073C33.9839 191.441 34.5759 194.161 34.5759 197.233ZM33.2319 197.521C33.2319 195.313 32.7039 193.313 31.6479 191.521C30.5599 189.697 29.0239 188.257 27.0399 187.201C25.0239 186.145 22.6719 185.617 19.9839 185.617C17.7119 185.617 15.6639 186.097 13.8399 187.057C11.9839 188.017 10.5279 189.345 9.47185 191.041C8.41585 192.737 7.88785 194.641 7.88786 196.753C7.88786 198.929 8.43186 200.929 9.51985 202.753C10.5759 204.545 12.1119 205.985 14.1279 207.073C16.1119 208.129 18.4479 208.657 21.1359 208.657C23.4079 208.657 25.4719 208.177 27.3279 207.217C29.1519 206.257 30.5919 204.929 31.6479 203.233C32.7039 201.505 33.2319 199.601 33.2319 197.521Z" fill="#DEDEDE"/>
<path d="M34.5759 168.599C34.5759 169.943 34.4479 171.303 34.1919 172.679C33.9679 174.055 33.6319 175.431 33.1839 176.807L32.9919 176.999L29.3919 177.767L29.1999 177.239C30.3199 176.247 31.2799 174.951 32.0799 173.351C32.8479 171.719 33.2319 170.103 33.2319 168.503C33.2319 166.807 32.7999 165.511 31.9359 164.615C31.0719 163.719 29.9039 163.271 28.4319 163.271C27.5679 163.271 26.7679 163.527 26.0319 164.039C25.2639 164.551 24.5759 165.175 23.9679 165.911C23.3279 166.647 22.5279 167.687 21.5679 169.031C20.5119 170.567 19.5839 171.799 18.7839 172.727C17.9839 173.655 17.0559 174.455 15.9999 175.127C14.9439 175.767 13.7759 176.087 12.4959 176.087C10.7679 176.087 9.34385 175.367 8.22386 173.927C7.10385 172.487 6.54385 170.423 6.54385 167.735C6.54385 166.455 6.63985 165.271 6.83185 164.183C7.02385 163.095 7.29585 161.943 7.64785 160.727L7.79185 160.583L11.2959 159.719L11.4879 160.247C10.2079 161.399 9.29585 162.599 8.75185 163.847C8.17585 165.063 7.88785 166.407 7.88785 167.879C7.88785 169.159 8.27185 170.215 9.03985 171.047C9.80785 171.847 10.8159 172.247 12.0639 172.247C13.1839 172.247 14.2079 171.799 15.1359 170.903C16.0319 170.007 17.1519 168.615 18.4959 166.727C19.6479 165.159 20.6399 163.895 21.4719 162.935C22.3039 161.975 23.2799 161.159 24.3999 160.487C25.4879 159.783 26.7039 159.431 28.0479 159.431C30.0639 159.431 31.6639 160.231 32.8479 161.831C33.9999 163.431 34.5759 165.687 34.5759 168.599Z" fill="#DEDEDE"/>
<path d="M34.1439 155.271L33.1839 155.367L32.5119 151.815H8.60785C8.38385 152.935 8.17585 154.119 7.98385 155.367L6.97585 155.223C7.07185 153.591 7.11985 151.879 7.11985 150.087L7.11985 142.887C7.11985 139.207 7.82385 136.327 9.23185 134.247C10.6399 132.135 12.5919 131.079 15.0879 131.079C17.5519 131.079 19.4879 132.135 20.8959 134.247C22.3039 136.359 23.0079 139.303 23.0079 143.079L23.0079 150.183H21.6639V143.031C21.6639 141.303 21.3439 139.847 20.7039 138.663C20.0639 137.447 19.2479 136.551 18.2559 135.975C17.2319 135.367 16.1759 135.063 15.0879 135.063C13.9679 135.063 12.9119 135.367 11.9199 135.975C10.8959 136.551 10.0639 137.431 9.42385 138.615C8.78385 139.767 8.46385 141.191 8.46385 142.887V144.519L8.75185 147.927H32.5599C32.8159 146.679 33.0399 145.399 33.2319 144.087L34.1439 144.231C34.0479 145.767 33.9999 147.623 33.9999 149.799C33.9999 151.719 34.0479 153.543 34.1439 155.271Z" fill="#DEDEDE"/>
<path d="M34.3839 104.419C34.2239 105.571 34.1119 106.643 34.0479 107.635C34.0159 108.627 33.9999 110.147 33.9999 112.195L33.9999 123.187C33.9999 125.203 34.0479 126.835 34.1439 128.083L33.1839 128.179L32.5119 124.627H8.60785C8.38385 125.747 8.17585 126.931 7.98385 128.179L6.97585 128.035C7.07185 126.883 7.11985 125.267 7.11985 123.187L7.11985 114.403C7.11985 111.043 6.99185 108.579 6.73585 107.011L6.83185 106.723L9.66385 106.099L9.90385 106.579C9.48785 107.411 9.15185 108.451 8.89585 109.699C8.60785 110.915 8.46385 112.627 8.46385 114.835V120.739H32.6559V112.387C32.6559 110.147 32.5279 108.419 32.2719 107.203C31.9839 105.987 31.5199 104.899 30.8799 103.939L31.0719 103.411L34.2879 104.083L34.3839 104.419ZM21.9519 110.611C21.5999 112.179 21.3759 113.667 21.2799 115.075C21.1839 116.451 21.1359 118.067 21.1359 119.923V121.747H19.7919V119.923C19.7919 117.843 19.7439 116.131 19.6479 114.787C19.5519 113.411 19.3599 112.019 19.0719 110.611L19.3599 110.323C19.7119 110.355 20.0959 110.371 20.5119 110.371C20.9279 110.371 21.3439 110.355 21.7599 110.323L21.9519 110.611Z" fill="#DEDEDE"/>
<path d="M34.1439 100.427L33.1839 100.523L32.5119 96.9711H8.60785C8.38385 98.0911 8.17585 99.2751 7.98385 100.523L6.97585 100.379C7.07185 98.7471 7.11985 97.0351 7.11985 95.2431L7.11985 87.4671C7.11985 84.1391 7.82385 81.5471 9.23185 79.6911C10.6078 77.8031 12.5119 76.8591 14.9439 76.8591C17.3759 76.8591 19.2798 77.8031 20.6558 79.6911C21.9998 81.5471 22.6719 84.1391 22.6719 87.4671V89.2911L22.5279 95.9631H21.1839V87.7551C21.1839 86.3471 20.8959 85.1311 20.3199 84.1071C19.7439 83.0511 18.9759 82.2511 18.0159 81.7071C17.0559 81.1631 16.0319 80.8911 14.9439 80.8911C13.8559 80.8911 12.8159 81.1631 11.8239 81.7071C10.8319 82.2511 10.0318 83.0511 9.42385 84.1071C8.78385 85.1311 8.46385 86.3471 8.46385 87.7551L8.46385 89.9151L8.75185 93.0831H32.5599C32.7519 92.0591 32.9759 90.7791 33.2319 89.2431L34.1439 89.3871C34.0479 90.9231 33.9999 92.7791 33.9999 94.9551C33.9999 96.8751 34.0479 98.6991 34.1439 100.427ZM34.2878 79.0671C31.5358 80.7631 29.0559 82.3791 26.8479 83.9151L22.2399 87.1311L21.6159 85.0671L26.6559 81.1791C27.4879 80.5391 28.6079 79.5631 30.0159 78.2511C31.3919 76.9391 32.6079 75.7231 33.6639 74.6031L34.4799 74.8911L34.2878 79.0671Z" fill="#DEDEDE"/>
<path d="M34.1439 71.3646L33.1358 71.4606L32.4639 67.9086H8.65585C8.46385 69.0286 8.25585 70.2126 8.03185 71.4606L6.97585 71.3166C7.07185 70.2286 7.11985 68.4366 7.11985 65.9406C7.11985 63.3166 7.07185 61.4446 6.97585 60.3246L7.98385 60.1806L8.70385 64.0206L32.5119 64.0206L33.1838 60.1806L34.1439 60.3246C34.0479 61.8606 33.9999 63.7166 33.9999 65.8926C33.9999 67.8126 34.0479 69.6366 34.1439 71.3646Z" fill="#DEDEDE"/>
<path d="M34.1438 49.6836L33.1838 49.7796L32.5118 46.2276H8.46385V46.6116C8.46385 49.6836 8.60785 52.0196 8.89585 53.6196C9.18385 55.2196 9.56785 56.5316 10.0478 57.5556L9.80785 58.0356L6.83185 57.4116L6.73585 57.1236C6.99185 54.3076 7.11985 50.6756 7.11985 46.2276V42.4356C7.11985 37.9556 6.99185 34.3076 6.73585 31.4916L6.83185 31.2036L9.80785 30.5796L10.0478 31.0596C9.56785 32.1156 9.18385 33.4436 8.89585 35.0436C8.60785 36.6436 8.46385 38.9636 8.46385 42.0036V42.3396H32.5598C32.7838 41.2516 33.0078 39.9716 33.2318 38.4996L34.1438 38.6436C34.0478 40.1796 33.9999 42.0356 33.9999 44.2116C33.9999 46.1316 34.0478 47.9556 34.1438 49.6836Z" fill="#DEDEDE"/>
<path d="M33.2318 20.0773C32.9758 18.6373 32.7358 17.4053 32.5118 16.3813H23.6798L8.65585 26.7973C8.43185 27.8533 8.20785 29.0373 7.98385 30.3493L6.97585 30.2053C7.07185 28.2853 7.11985 26.5093 7.11985 24.8773C7.11985 23.1813 7.07185 21.2613 6.97585 19.1173L7.93585 18.9733L8.55985 22.0933L19.6958 14.4133L21.8558 12.9733L16.6238 9.32531C14.7998 8.07731 13.2158 7.05331 11.8718 6.25331C10.4958 5.45331 8.84785 4.65331 6.92785 3.85331L6.63985 0.733312L7.45585 0.445312C9.34385 2.07731 11.0718 3.48531 12.6398 4.66931C14.2078 5.85331 16.2398 7.30931 18.7358 9.03731L23.5358 12.3973H32.6078L33.2318 8.60531L34.1438 8.74931C34.0478 10.3813 33.9998 12.2533 33.9998 14.3653C33.9998 15.9333 34.0478 17.8053 34.1438 19.9813L33.2318 20.0773Z" fill="#DEDEDE"/>
<path d="M99.7199 253.576C99.7199 257.416 99.0479 260.92 97.7039 264.088C96.3599 267.224 94.3919 269.72 91.7999 271.576C89.1759 273.432 86.0239 274.36 82.3439 274.36C78.8879 274.36 75.8319 273.544 73.1759 271.912C70.4879 270.28 68.4079 268.024 66.9359 265.144C65.4319 262.232 64.6799 258.936 64.6799 255.256C64.6799 252.632 64.8399 250.376 65.1599 248.488C65.4479 246.6 65.8959 244.712 66.5039 242.824L66.6959 242.536L70.7759 241.576L70.9679 242.104C69.4639 243.48 68.2959 245.288 67.4639 247.528C66.6319 249.736 66.2159 252.168 66.2159 254.824C66.2159 257.768 66.9039 260.392 68.2799 262.696C69.6559 265 71.6079 266.808 74.1359 268.12C76.6319 269.432 79.5279 270.088 82.8239 270.088C85.9599 270.088 88.6959 269.4 91.0319 268.024C93.3359 266.648 95.1119 264.728 96.3599 262.264C97.5759 259.768 98.1839 256.92 98.1839 253.72C98.1839 250.712 97.7039 248.04 96.7439 245.704C95.7519 243.368 94.3439 241.544 92.5199 240.232L92.7119 239.704L97.0319 240.664L97.1759 240.76C98.0399 242.744 98.6799 244.808 99.0959 246.952C99.5119 249.096 99.7199 251.304 99.7199 253.576Z" fill="#DEDEDE"/>
<path d="M98.7119 236.806C96.1519 235.334 93.2879 233.75 90.1199 232.054C86.9519 230.326 84.6479 229.126 83.2079 228.454L72.1199 223.318V220.15L97.5599 208.246C97.7839 207.094 97.9919 205.894 98.1839 204.646L99.1439 204.79C99.0479 206.422 98.9999 208.23 98.9999 210.214C98.9999 211.878 99.0479 213.766 99.1439 215.878L98.1359 215.974L97.4639 212.566L81.1919 220.198L74.7119 222.886L84.8879 227.446C87.0319 228.406 89.4479 229.414 92.1359 230.47C94.7919 231.494 97.1439 232.342 99.1919 233.014L99.4799 236.47L98.7119 236.806ZM90.8399 230.71H89.5919L89.3519 225.622V214.39H90.6959L90.8399 218.854V230.71Z" fill="#DEDEDE"/>
<path d="M98.8079 201.301C95.9599 200.917 93.2079 200.629 90.5519 200.437C87.8639 200.245 84.9519 200.149 81.8159 200.149H73.6079C73.4479 200.917 73.2399 202.101 72.9839 203.701L71.9759 203.557C72.0719 201.925 72.1199 200.501 72.1199 199.285C72.1199 197.749 72.0879 196.533 72.0239 195.637L90.1199 180.709L94.1039 177.685C94.2959 177.525 94.3919 177.397 94.3919 177.301C94.3919 177.141 94.2479 177.061 93.9599 177.061H89.3039C86.3279 177.061 83.5279 177.173 80.9039 177.397C78.2799 177.621 75.4159 177.941 72.3119 178.357L72.0719 178.213C72.1039 177.669 72.1199 177.077 72.1199 176.437C72.1199 175.829 72.1039 175.189 72.0719 174.517L72.3119 174.373C75.2559 174.789 78.1519 175.125 80.9999 175.381C83.8159 175.605 86.5839 175.717 89.3039 175.717H98.9999V178.405L78.3599 195.445L74.7599 198.181C74.5679 198.341 74.4719 198.469 74.4719 198.565C74.4719 198.725 74.6159 198.805 74.9039 198.805H81.8159C84.4719 198.805 87.0959 198.677 89.6879 198.421C92.2799 198.165 95.3199 197.797 98.8079 197.317L99.0479 197.461C99.0159 198.133 98.9999 198.773 98.9999 199.381C98.9999 200.021 99.0159 200.613 99.0479 201.157L98.8079 201.301Z" fill="#DEDEDE"/>
<path d="M99.1439 169.708L98.1839 169.804L97.5119 166.252H73.6079C73.3839 167.308 73.1759 168.492 72.9839 169.804L71.9759 169.66C72.0719 168.092 72.1199 166.188 72.1199 163.948V158.188C72.1199 155.052 72.6639 152.252 73.7519 149.788C74.8079 147.324 76.3599 145.404 78.4079 144.028C80.4239 142.62 82.8079 141.916 85.5599 141.916C88.3119 141.916 90.7119 142.62 92.7599 144.028C94.7759 145.404 96.3279 147.324 97.4159 149.788C98.4719 152.252 98.9999 155.052 98.9999 158.188V164.62C98.9999 166.284 99.0479 167.98 99.1439 169.708ZM97.6559 157.948C97.6559 155.58 97.1279 153.484 96.0719 151.66C94.9839 149.836 93.5279 148.428 91.7039 147.436C89.8479 146.444 87.7999 145.948 85.5599 145.948C83.3199 145.948 81.2879 146.444 79.4639 147.436C77.6079 148.428 76.1519 149.836 75.0959 151.66C74.0079 153.484 73.4639 155.58 73.4639 157.948V162.364H97.6559V157.948Z" fill="#DEDEDE"/>
<path d="M99.3839 116.128C99.2239 117.568 99.1119 118.944 99.0479 120.256C99.0159 121.568 98.9999 123.392 98.9999 125.728V133.312C98.9999 135.328 99.0479 136.96 99.1439 138.208L98.1839 138.304L97.5119 134.752H73.6078C73.3198 136.224 73.1118 137.408 72.9838 138.304L71.9759 138.16C72.0719 137.072 72.1199 135.28 72.1199 132.784C72.1199 130.16 72.0719 128.288 71.9759 127.168L72.9359 127.024L73.6559 130.864H97.6559V123.52C97.6559 121.44 97.4799 119.808 97.1279 118.624C96.7759 117.44 96.2799 116.432 95.6399 115.6L95.7839 115.12L99.2878 115.84L99.3839 116.128Z" fill="#DEDEDE"/>
<path d="M99.3839 88.2474C99.2239 89.3994 99.1119 90.4714 99.0479 91.4634C99.0159 92.4554 98.9999 93.9754 98.9999 96.0234V107.015C98.9999 109.031 99.0479 110.663 99.1439 111.911L98.1839 112.007L97.5119 108.455H73.6078C73.3839 109.575 73.1758 110.759 72.9838 112.007L71.9759 111.863C72.0719 110.711 72.1199 109.095 72.1199 107.015V98.2314C72.1199 94.8714 71.9918 92.4074 71.7358 90.8394L71.8318 90.5514L74.6638 89.9274L74.9038 90.4074C74.4878 91.2394 74.1518 92.2794 73.8959 93.5274C73.6079 94.7434 73.4639 96.4554 73.4639 98.6634V104.567H97.6559V96.2154C97.6559 93.9754 97.5279 92.2474 97.2719 91.0314C96.9839 89.8154 96.5199 88.7274 95.8799 87.7674L96.0719 87.2394L99.2878 87.9114L99.3839 88.2474ZM86.9519 94.4394C86.5999 96.0074 86.3759 97.4954 86.2799 98.9034C86.1839 100.279 86.1358 101.895 86.1358 103.751V105.575H84.7919V103.751C84.7919 101.671 84.7439 99.9594 84.6479 98.6154C84.5519 97.2394 84.3599 95.8474 84.0719 94.4394L84.3598 94.1514C84.7118 94.1834 85.0958 94.1994 85.5118 94.1994C85.9278 94.1994 86.3439 94.1834 86.7598 94.1514L86.9519 94.4394Z" fill="#DEDEDE"/>
</svg>
