<svg width="16" height="22" viewBox="0 0 16 22" fill="none" xmlns="http://www.w3.org/2000/svg">
<path d="M1 0V22" stroke="#4A4A4F" stroke-width="2" stroke-linejoin="round"/>
<path d="M14 12.9999H1V2.99988H14C14.1966 3.00069 14.3886 3.05944 14.552 3.16875C14.7154 3.27806 14.8429 3.43309 14.9187 3.61449C14.9945 3.79588 15.0149 3.99558 14.9778 4.18863C14.9407 4.38167 14.8476 4.55951 14.71 4.69989L11.4199 7.99988L14.71 11.2899C14.851 11.4298 14.9473 11.6085 14.9863 11.8032C15.0254 11.998 15.0056 12.1999 14.9294 12.3834C14.8533 12.5668 14.7241 12.7234 14.5586 12.8332C14.3931 12.943 14.1986 13.001 14 12.9999V12.9999Z" stroke="#4A4A4F" stroke-width="2" stroke-linejoin="round"/>
</svg>
