<svg width="18" height="22" viewBox="0 0 18 22" fill="none" xmlns="http://www.w3.org/2000/svg">
<path d="M9 8.32007C9 7.85594 9.18426 7.41082 9.51245 7.08263C9.84064 6.75444 10.2859 6.57007 10.75 6.57007C11.2141 6.57007 11.6591 6.75444 11.9873 7.08263C12.3155 7.41082 12.5 7.85594 12.5 8.32007C12.5 11.1401 9 12.6901 9 12.6901C9 12.6901 5.5 11.1401 5.5 8.32007C5.5 7.85594 5.68426 7.41082 6.01245 7.08263C6.34064 6.75444 6.78587 6.57007 7.25 6.57007C7.71413 6.57007 8.15912 6.75444 8.4873 7.08263C8.81549 7.41082 9 7.85594 9 8.32007" stroke="#4A4A4F" stroke-width="2" stroke-miterlimit="10"/>
<path d="M8.99997 8.32007V8.76007" stroke="#4A4A4F" stroke-width="2" stroke-miterlimit="10"/>
<path d="M9 21C9 21 1 17.07 1 9C1 6.87827 1.84273 4.84345 3.34302 3.34315C4.84331 1.84286 6.87827 1 9 1C11.1217 1 13.1564 1.84286 14.6567 3.34315C16.157 4.84345 17 6.87827 17 9C17 17.07 9 21 9 21Z" stroke="#4A4A4F" stroke-width="2" stroke-linejoin="round"/>
</svg>
