<svg width="58" height="57" viewBox="0 0 58 57" fill="none" xmlns="http://www.w3.org/2000/svg">
<path d="M0 12.9258C0 6.29837 5.37258 0.925781 12 0.925781H57.4269V44.9258C57.4269 51.5532 52.0543 56.9258 45.4269 56.9258H0V12.9258Z" fill="#4A4A4F"/>
<path d="M22.1431 20.9117C22.1431 20.2802 22.1813 19.6433 22.1322 19.0172C22.0832 18.3748 22.4155 17.9883 22.9057 17.6888C23.8316 17.1227 24.872 16.8995 25.9286 16.747C25.9559 16.7416 25.9831 16.747 26.0103 16.7416C26.4352 16.6545 26.4406 16.6545 26.4406 16.1972C26.4406 15.5657 26.6476 15.0049 26.969 14.4714C27.5463 13.4969 28.1291 12.5224 28.4886 11.4391C28.5376 11.2866 28.6084 11.1451 28.6738 10.9981C28.6847 10.9709 28.7065 10.9328 28.7337 10.9273C28.7773 10.9164 28.7773 10.9654 28.7882 10.9927C29.1313 11.9671 29.6106 12.8763 30.1281 13.7691C30.4549 14.3299 30.8089 14.8797 30.956 15.5276C31.0322 15.8596 31.0159 16.1972 31.0159 16.5293C31.0159 16.6599 31.054 16.698 31.1902 16.7144C32.3667 16.8232 33.5105 17.0464 34.5454 17.6562C35.0574 17.961 35.3896 18.3585 35.3678 19.0281C35.3297 20.3346 35.3569 21.6358 35.3515 22.9423C35.3515 23.0784 35.3297 23.2091 35.3733 23.3398C35.4713 23.2635 35.5694 23.1873 35.6729 23.1111C36.6696 22.3707 37.808 21.9679 39.0008 21.6902C39.7851 21.5051 40.5913 21.3908 41.3593 21.1295C41.4137 21.1131 41.49 21.1077 41.5336 21.1349C41.5826 21.1676 41.539 21.2329 41.5118 21.2765C40.9181 22.2564 40.6131 23.3398 40.3788 24.4449C40.1937 25.3214 40.0575 26.2033 39.8777 27.0853C39.8124 27.401 39.7034 27.7113 39.6163 28.0216C39.5891 28.1087 39.5673 28.1523 39.7034 28.1305C40.6403 27.9726 41.5717 27.9672 42.5085 28.1305C42.9279 28.2067 43.3582 28.2176 43.7613 28.3809C43.8157 28.4027 43.8757 28.4245 43.9301 28.4572C43.9628 28.4735 44.0173 28.5062 44.0173 28.5279C44.0118 28.5824 43.9519 28.5824 43.9083 28.5878C43.4127 28.6586 42.9334 28.7947 42.4704 28.9852C42.4432 28.9961 42.4159 29.0179 42.3941 29.0342C42.4268 29.0397 42.4595 29.0506 42.4922 29.0397C42.8081 28.9689 43.124 28.8818 43.4399 28.8328C44.0663 28.7294 44.6981 28.6368 45.2864 29.0016C45.2973 29.007 45.3136 29.0125 45.3245 29.0233C45.4007 29.0887 45.5369 29.1486 45.5369 29.2139C45.5424 29.3064 45.3898 29.3064 45.3081 29.3391C44.8561 29.5296 44.4094 29.7311 44.0064 30.0196C43.9465 30.0632 43.8048 30.1013 43.8811 30.2156C43.9519 30.3136 44.0554 30.3354 44.1807 30.2591C44.8288 29.84 45.5206 29.5133 46.2886 29.3881C46.6208 29.3337 46.9531 29.3445 47.2744 29.4806C47.3561 29.5133 47.4269 29.5514 47.4269 29.644C47.4269 29.7365 47.3343 29.7256 47.2744 29.7474C46.4574 30.1285 45.7384 30.6457 45.063 31.2336C44.9704 31.3153 45.063 31.3316 45.0903 31.3643C45.6349 32.0557 46.0707 32.8124 46.2559 33.6834C46.3158 33.9611 46.3321 34.2496 46.3539 34.5382C46.3594 34.6416 46.2613 34.6307 46.1905 34.6307C45.7711 34.6144 45.3572 34.5273 44.9323 34.5001C44.4421 34.4674 43.9574 34.4728 43.4671 34.5164C42.917 34.5654 42.3723 34.6634 41.844 34.8321C41.8004 34.8485 41.7296 34.843 41.7242 34.892C41.7133 34.9574 41.795 34.9628 41.8386 34.9846C41.9747 35.0445 42.1218 35.088 42.2634 35.137C42.149 35.2241 42.0238 35.2949 41.9203 35.3929C41.697 35.6052 41.3974 35.7141 41.1904 35.9482C41.1359 36.0081 41.1196 36.0298 41.1577 36.1442C41.3538 36.6668 41.5227 37.2057 41.6316 37.761C41.746 38.3817 41.7678 39.0077 41.6697 39.6283C41.637 39.8461 41.5009 39.7372 41.4137 39.6773C40.9943 39.3779 40.5531 39.1166 40.0902 38.8934C39.137 38.4307 38.1293 38.2728 37.0836 38.3599C36.7949 38.3817 36.5008 38.4198 36.2393 38.5668C36.2066 38.5831 36.1522 38.5776 36.1576 38.6321C36.1576 38.6375 36.2175 38.643 36.2502 38.643C36.6914 38.643 37.138 38.6266 37.5792 38.6375C37.9877 38.643 38.3908 38.7029 38.7884 38.8008C38.8211 38.8117 38.8538 38.839 38.8864 38.8607C38.8647 38.8771 38.8483 38.8988 38.8265 38.9152C37.955 39.4759 37.0836 40.0421 36.1413 40.4831C34.7088 41.1472 33.2218 41.6372 31.6586 41.8985C31.0649 41.9965 30.4658 42.0673 29.8721 42.1435C29.7958 42.1544 29.6869 42.1598 29.6488 42.1163C29.5943 42.0564 29.6923 41.9856 29.725 41.9257C30.0137 41.3704 30.444 40.9186 30.8416 40.4395C31.1575 40.0584 31.4244 39.6447 31.6532 39.2091C31.6804 39.1547 31.6967 39.0948 31.7131 39.0349C31.7349 38.9369 31.6858 38.8444 31.6096 38.8117C31.5279 38.7736 31.5115 38.8825 31.4843 38.9369C31.0322 39.7209 30.4494 40.4014 29.883 41.1037C29.4962 41.5882 29.2239 42.138 29.0496 42.7314C29.0224 42.824 29.0006 42.9492 28.8426 42.922C28.6901 42.8948 28.4886 42.9982 28.4287 42.7532C28.1672 41.6971 27.4646 40.9131 26.8056 40.102C26.5169 39.7536 26.2663 39.3834 26.043 38.9914C25.9994 38.9152 25.9613 38.7736 25.8633 38.8226C25.7816 38.8607 25.787 38.9968 25.8197 39.1003C25.9123 39.4051 26.0975 39.6665 26.2663 39.9278C26.5441 40.3524 26.8873 40.7226 27.2086 41.1146C27.4156 41.365 27.6008 41.6318 27.7533 41.9148C27.786 41.9802 27.8078 42.0509 27.835 42.1163C27.7587 42.1217 27.677 42.1489 27.6008 42.138C27.165 42.0891 26.7239 42.0401 26.2881 41.9747C25.3458 41.8277 24.4199 41.6263 23.5157 41.3269C22.0887 40.8533 20.7433 40.2163 19.4851 39.3997C19.24 39.2418 18.9949 39.0785 18.7498 38.9261C18.7062 38.8988 18.6572 38.8825 18.6681 38.8281C18.679 38.7736 18.7335 38.8008 18.7716 38.7954C19.3326 38.6702 19.8991 38.5885 20.471 38.6212C20.7161 38.6375 20.9612 38.7301 21.2063 38.6375C21.2444 38.6212 21.2935 38.6212 21.337 38.6157C21.3261 38.545 21.2717 38.5178 21.2063 38.5069C20.9285 38.4524 20.6507 38.3599 20.3675 38.3435C19.5505 38.3054 18.7444 38.349 17.9655 38.6647C17.35 38.9152 16.7454 39.1819 16.2116 39.5902C16.1517 39.6338 16.0973 39.6991 16.0264 39.7154C15.9175 39.7427 15.8086 39.7917 15.7977 39.5739C15.7813 39.1275 15.7541 38.6865 15.7922 38.2401C15.8522 37.5052 16.0482 36.8083 16.3478 36.1387C16.3914 36.0407 16.4186 35.9972 16.2988 35.9209C15.9611 35.7086 15.6452 35.4691 15.3184 35.2513C15.2694 35.2187 15.2203 35.186 15.2149 35.137C15.2149 35.0608 15.2966 35.088 15.3402 35.0717C15.4872 35.0118 15.6343 34.9574 15.7813 34.9029C15.6452 34.8049 15.4709 34.7995 15.3184 34.7614C14.2889 34.5001 13.2377 34.4238 12.1756 34.5164C11.9087 34.5382 11.6473 34.5926 11.3804 34.6307C11.2224 34.6579 11.1298 34.6525 11.1298 34.4293C11.1462 33.2915 11.6473 32.3551 12.3172 31.4841C12.3935 31.3861 12.4752 31.3153 12.3336 31.1955C11.6418 30.6293 10.9337 30.0795 10.0949 29.742C9.94788 29.6821 9.9969 29.6276 10.0732 29.5677C10.3891 29.3282 10.754 29.3445 11.1135 29.3881C11.9196 29.4861 12.6277 29.8617 13.314 30.27C13.4284 30.3408 13.5209 30.3354 13.5972 30.2374C13.6952 30.1067 13.5427 30.0958 13.4883 30.0577C13.0307 29.7365 12.5296 29.497 12.0068 29.2955C11.9523 29.2738 11.9142 29.252 11.9087 29.1867C11.9033 29.1159 11.9577 29.1104 12.0013 29.0887C12.0721 29.056 12.1484 29.0342 12.2137 28.9961C12.9109 28.5878 13.6353 28.8001 14.3543 28.909C14.643 28.9526 14.9208 29.0397 15.204 29.105C15.2312 29.1104 15.2585 29.1104 15.2857 29.1104C15.2585 29.0941 15.2367 29.0669 15.2094 29.0615C14.6593 28.8872 14.1146 28.6858 13.5373 28.6042C13.4883 28.5987 13.4338 28.5987 13.4175 28.5497C13.412 28.5334 13.4828 28.4953 13.5209 28.4789C14.1364 28.1686 14.7683 28.1033 15.4219 28.3428C15.5417 28.3864 15.6615 28.4191 15.7868 28.3864C15.6833 28.3102 15.5635 28.3102 15.4436 28.283C15.3456 28.2612 15.2476 28.2285 15.1495 28.2067C15.0842 28.1958 15.0079 28.2122 14.9807 28.1305C15.0406 28.1087 15.1059 28.0761 15.1659 28.0761C16.0319 28.0434 16.8979 27.9672 17.7531 28.1523C17.8838 28.1795 17.9165 28.1414 17.8729 28.0271C17.5515 27.1833 17.4535 26.2959 17.2955 25.4139C17.1703 24.7008 16.9905 23.9985 16.7999 23.3016C16.5984 22.5885 16.3424 21.9025 15.9611 21.271C15.9393 21.2384 15.9339 21.2002 15.923 21.1621C15.9665 21.1513 16.0156 21.1295 16.0537 21.1349C16.2225 21.173 16.3914 21.2111 16.5548 21.2601C17.2629 21.4942 18.0091 21.5596 18.7226 21.7447C19.6812 21.9842 20.5963 22.3326 21.4405 22.8552C21.642 22.9805 21.8272 23.1274 22.0179 23.2635C22.0505 23.2853 22.0941 23.3234 22.1214 23.3125C22.1813 23.2962 22.1486 23.2309 22.1486 23.1873C22.1486 22.4306 22.1486 21.6793 22.1486 20.9226C22.1486 20.9117 22.1431 20.9117 22.1431 20.9117ZM35.7219 24.1183C35.9234 23.993 36.1195 23.8569 36.3265 23.7372C36.7677 23.4922 37.1762 23.2037 37.552 22.877C37.5847 22.8498 37.65 22.828 37.6391 22.7627C37.5956 22.7736 37.5465 22.779 37.5084 22.7954C36.7894 23.073 36.2012 23.5194 35.7001 24.0965C35.6783 24.1019 35.6565 24.1128 35.6347 24.1183C35.6674 24.1183 35.6946 24.1183 35.7219 24.1183ZM20.2749 30.0904C20.2858 30.1067 20.3021 30.1176 20.313 30.1339C20.5527 30.4715 20.8686 30.7328 21.1845 30.9941C21.2226 31.0268 21.2499 31.0921 21.3207 31.0485C21.2935 31.0104 21.2662 30.9723 21.239 30.9396C20.5418 30.2591 20.0516 29.4316 19.6322 28.566C19.4089 28.1033 19.2128 27.6242 19.1474 27.1016C19.1311 26.9873 19.0385 26.8076 19.1365 26.7804C19.2618 26.7423 19.24 26.9655 19.3217 27.0472C19.3272 27.0526 19.3217 27.058 19.3272 27.0689C19.4416 27.6188 19.6703 28.1305 19.9045 28.6314C20.2368 29.3445 20.6998 29.9815 21.2009 30.5912C21.4296 30.8689 21.5658 31.2064 21.8327 31.4514C22.1214 31.7127 22.4536 31.9032 22.7968 32.072C23.0909 32.219 23.4068 32.3224 23.7173 32.4368C23.7554 32.4531 23.8098 32.4368 23.8589 32.4368C23.8425 32.4204 23.8262 32.4041 23.8044 32.3932C22.9002 32.0557 22.154 31.5058 21.5712 30.7328C20.9612 29.9216 20.4056 29.0723 20.0461 28.1142C20.0189 28.038 19.9536 27.9345 20.0189 27.8964C20.0679 27.8638 20.1224 27.9781 20.1605 28.038C20.5091 28.6531 20.8958 29.2465 21.2989 29.8291C21.9253 30.7328 22.6933 31.4895 23.6083 32.0992C24.0767 32.415 24.5942 32.6273 25.1116 32.8396C25.1552 32.8559 25.2151 32.8451 25.2696 32.8451C25.2641 32.7797 25.2042 32.7634 25.1606 32.7362C24.9755 32.6164 24.7957 32.4912 24.6051 32.3769C23.6628 31.7998 22.7151 31.2282 22.0451 30.3136C21.7564 29.9162 21.5004 29.497 21.2717 29.056C21.2553 29.0288 21.2118 29.0016 21.2444 28.9743C21.288 28.9362 21.3152 28.9798 21.3425 29.007C21.3697 29.0397 21.3969 29.0669 21.4242 29.0996C21.7673 29.546 22.1159 29.9815 22.4972 30.3898C22.7804 30.7001 23.0854 30.9778 23.4013 31.2445C23.4449 31.2826 23.4994 31.3588 23.5539 31.3098C23.6247 31.2445 23.5157 31.2118 23.4885 31.1737C23.3033 30.9179 23.1072 30.6729 22.922 30.417C22.5026 29.8345 22.1704 29.203 21.898 28.5388C21.7074 28.0706 21.5059 27.6024 21.3207 27.1343C21.2935 27.0689 21.2989 26.9873 21.2935 26.9165C21.3425 26.9764 21.3915 27.0363 21.4405 27.1016C21.446 27.107 21.446 27.1125 21.446 27.1179C21.8054 27.7875 22.1486 28.468 22.5244 29.1268C23.0201 29.9924 23.5212 30.8634 24.2946 31.533C24.3218 31.5548 24.3327 31.6202 24.3818 31.582C24.4526 31.5276 24.3654 31.5113 24.3436 31.4841C23.848 30.8035 23.3741 30.1067 22.971 29.3663C22.7314 28.9254 22.5135 28.4735 22.2957 28.0216C22.2793 27.9944 22.2194 27.94 22.2848 27.9073C22.3392 27.8801 22.3665 27.9454 22.3937 27.9781C22.6824 28.3864 22.9765 28.7892 23.2543 29.2084C23.5157 29.6004 23.7608 30.0087 24.0168 30.4061C24.0441 30.4497 24.0931 30.4769 24.1367 30.5096C24.1258 30.466 24.1149 30.4225 24.1094 30.3789C24.0277 29.976 23.7935 29.644 23.6192 29.2847C23.4449 28.9308 23.2488 28.5878 23.0636 28.2394C23.0364 28.185 22.9874 28.1142 23.0473 28.0761C23.1072 28.038 23.1508 28.1087 23.1889 28.1577C23.4177 28.4626 23.6464 28.7675 23.8752 29.0723C23.9024 29.1104 23.9188 29.1649 23.9732 29.1486C24.0332 29.1268 24.0059 29.0669 24.0059 29.0233C24.0114 28.4789 23.8534 27.989 23.5375 27.548C23.5157 27.5153 23.4449 27.4718 23.4885 27.4337C23.5484 27.3792 23.5811 27.45 23.6138 27.4881C23.7608 27.6569 23.9079 27.8257 24.0495 27.9944C24.0876 28.038 24.104 28.1142 24.1748 28.1142C24.1911 28.1142 24.2075 28.0271 24.2184 27.9781C24.2783 27.6623 24.3872 27.3684 24.4907 27.0635C24.5724 26.96 24.6595 26.8784 24.5288 26.7368C23.739 25.893 22.7968 25.2561 21.7837 24.7171C20.7869 24.189 19.8337 23.5956 18.9949 22.8335C18.5864 22.4633 18.1071 22.2401 17.5624 22.1475C17.4698 22.1312 17.4263 22.1366 17.4698 22.2673C17.5788 22.5721 17.6496 22.8933 17.7476 23.2037C18.1071 24.3524 18.2487 25.5446 18.5102 26.7151C18.8043 27.9944 19.3708 29.1322 20.2749 30.0904ZM19.545 30.7872C19.5559 30.7981 19.5614 30.8144 19.5723 30.8253C19.5777 30.8199 19.5832 30.8144 19.5832 30.809C19.5723 30.8035 19.5559 30.7927 19.545 30.7872C19.3871 30.6239 19.1692 30.6566 18.9731 30.6293C18.4884 30.5531 17.9982 30.4878 17.5134 30.417C17.4916 30.4116 17.4535 30.3898 17.4535 30.3735C17.448 30.3245 17.4971 30.3462 17.5189 30.3408C17.9873 30.2483 18.4611 30.2047 18.9405 30.2156C18.984 30.2156 19.1093 30.2537 19.0712 30.172C19.0276 30.0577 18.9731 29.8998 18.8097 29.8944C18.3195 29.8781 17.8184 29.8944 17.35 30.0305C15.9339 30.4442 14.7519 31.2227 13.8151 32.3714C13.7388 32.464 13.6735 32.5674 13.6026 32.6654C13.717 32.7362 13.8314 32.6709 13.9512 32.66C13.9839 32.6545 14.0166 32.66 14.0547 32.66C14.436 32.6491 14.8173 32.6436 15.1931 32.6327C15.2367 32.6327 15.3402 32.6436 15.3129 32.5783C15.2421 32.415 15.3619 32.4803 15.411 32.4912C15.6724 32.5456 15.9284 32.6055 16.1844 32.66C16.4731 32.7253 16.7618 32.7797 17.0613 32.7906C17.0886 32.7906 17.1158 32.7852 17.1376 32.7797C17.1158 32.7688 17.094 32.7471 17.0722 32.7416C16.6583 32.6654 16.2716 32.5021 15.8739 32.3823C15.5689 32.2898 15.2476 32.219 14.9698 32.0502C14.9317 32.0285 14.8772 31.9958 14.899 31.9414C14.9099 31.925 14.9752 31.925 15.0134 31.925C15.9284 32.0012 16.8108 32.3061 17.7422 32.2462C17.764 32.2462 17.7857 32.2353 17.813 32.2353C17.7912 32.219 17.7749 32.2027 17.7531 32.1918C17.35 32.0502 16.9415 31.9141 16.5384 31.7726C16.3478 31.7073 16.1572 31.6365 15.972 31.5657C15.9284 31.5494 15.8848 31.5113 15.9121 31.4568C15.9339 31.4078 15.9829 31.4296 16.021 31.4351C16.2716 31.4732 16.5275 31.4949 16.7727 31.5548C17.4263 31.7073 18.0744 31.8815 18.728 32.023C18.9568 32.072 19.2019 32.2299 19.447 32.0448C19.4797 32.023 19.5069 31.9958 19.5396 31.9686C19.5015 31.9522 19.4633 31.925 19.4198 31.9196C18.5646 31.7073 17.7476 31.3425 16.887 31.1465C16.8598 31.1411 16.8326 31.1139 16.8053 31.0975C16.838 31.0921 16.8707 31.0812 16.9034 31.0866C17.2738 31.1356 17.6441 31.1846 18.0145 31.2336C18.6954 31.3207 19.3653 31.4623 20.0353 31.5984C20.1714 31.6256 20.2422 31.5222 20.3512 31.5004C20.3076 31.4133 20.215 31.4078 20.1387 31.3752C20.1061 31.3643 20.0734 31.3588 20.0407 31.3479C19.4851 31.1792 18.9296 31.0159 18.374 30.8471C18.325 30.8308 18.2814 30.7981 18.2324 30.7763C18.2814 30.7164 18.3468 30.76 18.3903 30.7709C18.7716 30.8144 19.1583 30.7818 19.545 30.7872ZM28.3252 17.8848C28.445 17.9991 28.5485 18.1734 28.6901 18.206C28.8699 18.2496 28.9298 17.9991 29.066 17.9066C29.0932 17.8903 29.115 17.8685 29.1422 17.8522C29.5235 17.7705 29.7686 17.5037 29.9483 17.188C30.3078 16.5565 30.237 15.8977 29.9919 15.2608C29.8448 14.8688 29.6433 14.4986 29.4145 14.1393C29.1967 13.8072 29.0115 13.4534 28.8209 13.1104C28.7882 13.056 28.7664 13.0124 28.701 13.0451C28.6575 13.0668 28.6193 13.0941 28.5975 13.1594C28.4995 13.5133 28.2544 13.7963 28.091 14.1284C27.8786 14.564 27.5844 14.9614 27.4265 15.4187C27.2685 15.8705 27.2631 16.3278 27.3611 16.8069C27.4374 17.1553 27.933 17.8032 28.3252 17.8848ZM32.6009 29.497C32.6445 29.2683 32.6445 29.0342 32.6063 28.8056C32.5628 28.2448 32.4048 27.7113 32.176 27.1941C31.7948 26.334 31.1521 25.6698 30.5093 25.0111C29.8993 24.385 29.262 23.7753 28.8481 22.9859C28.8154 22.926 28.81 22.8171 28.7391 22.8171C28.6956 22.8171 28.6466 22.9206 28.6139 22.9859C28.2054 23.7698 27.5844 24.3796 26.9799 25.0002C26.6422 25.3432 26.3045 25.6861 25.9994 26.0618C25.4057 26.8022 25.0081 27.6406 24.8829 28.5824C24.8338 28.9635 24.812 29.3609 24.9046 29.7474C24.9101 29.8835 24.8992 30.0142 24.9319 30.1503C25.0626 30.7164 25.3023 31.2282 25.6127 31.7127C26.0158 32.3442 26.5332 32.8451 27.1705 33.2316C27.225 33.2643 27.2849 33.3078 27.3284 33.2534C27.372 33.2044 27.3121 33.1554 27.2794 33.1173C27.0507 32.8451 26.8818 32.5348 26.7293 32.2136C26.3644 31.4623 26.1792 30.6729 26.1628 29.8345C26.1628 29.8018 26.1683 29.7692 26.1737 29.742C26.1846 29.7692 26.201 29.8018 26.2119 29.8291C26.3589 30.2864 26.4896 30.7545 26.6639 31.201C26.9417 31.9032 27.3176 32.5511 27.8568 33.0955C27.9821 33.2207 28.0638 33.3895 28.2381 33.4657C28.2598 33.4766 28.2816 33.4875 28.3034 33.5038C28.3089 33.4711 28.3252 33.433 28.3089 33.4112C28.0692 32.9539 27.9984 32.4313 27.8023 31.9577C27.6934 31.6964 27.5409 31.4405 27.4755 31.1629C27.2631 30.2537 27.3121 29.3391 27.4483 28.4245C27.4537 28.3864 27.4428 28.3265 27.4918 28.3211C27.5681 28.3156 27.5409 28.3864 27.5409 28.4299C27.5409 28.9526 27.579 29.4698 27.628 29.9924C27.6825 30.5749 27.7969 31.1465 27.9385 31.7181C27.9439 31.7399 27.9657 31.7563 27.9821 31.778C27.9875 31.7508 27.9929 31.729 27.9929 31.7018C27.9875 31.0812 28.0855 30.4606 28.0474 29.8345C28.0365 29.6113 28.0256 29.3881 28.0692 29.1649C28.0964 29.0342 28.0855 28.8437 28.2326 28.8328C28.3034 28.8274 28.3143 29.0506 28.3143 29.1758C28.3361 30.074 28.298 30.9723 28.4123 31.8597C28.4559 32.1918 28.5267 32.5184 28.5921 32.8451C28.603 32.8995 28.6302 32.9594 28.7119 32.9594C28.7827 32.9594 28.7991 32.9267 28.8154 32.8614C28.9189 32.3388 29.0496 31.827 29.0496 31.2881C29.0496 30.5749 29.0605 29.8617 29.066 29.1486C29.066 29.0615 29.0442 28.9471 29.1912 28.9417C29.3274 28.9362 29.3655 29.0233 29.3655 29.1377C29.3764 29.7202 29.3982 30.2972 29.4581 30.8798C29.4854 31.1356 29.469 31.3969 29.4745 31.6528C29.4745 31.6909 29.4636 31.7454 29.518 31.7508C29.5344 31.7508 29.5725 31.7018 29.5725 31.6746C29.5943 31.2717 29.7468 30.8906 29.7958 30.4932C29.8775 29.8127 29.8884 29.1322 29.883 28.4463C29.883 28.3973 29.8503 28.3156 29.9211 28.3102C29.9865 28.3047 30.0137 28.3755 30.0246 28.4408C30.188 29.4153 30.1608 30.3844 29.932 31.3479C29.8557 31.6583 29.6379 31.9032 29.5562 32.2081C29.4472 32.6055 29.3819 33.0247 29.1749 33.3895C29.1585 33.4221 29.1422 33.4875 29.1586 33.4983C29.2021 33.531 29.2457 33.4983 29.2784 33.4657C29.4908 33.2479 29.7141 33.0465 29.9048 32.8124C30.6292 31.8924 30.9887 30.8144 31.2664 29.6984C31.2719 29.6712 31.2719 29.644 31.2773 29.6222C31.2828 29.6494 31.2937 29.6766 31.2937 29.7038C31.3209 30.9669 30.9614 32.1047 30.2261 33.1282C30.1989 33.1663 30.0954 33.2044 30.1553 33.2643C30.1934 33.3024 30.2642 33.2588 30.3296 33.2207C30.6564 33.0029 30.956 32.758 31.2338 32.4749C32.029 31.6691 32.5301 30.7328 32.59 29.5895C32.5846 29.5623 32.5954 29.5296 32.6009 29.497ZM22.666 34.843C22.6987 34.6851 22.5789 34.7559 22.5299 34.7668C21.5004 35.0118 20.4764 35.2622 19.4525 35.5126C19.3653 35.5344 19.289 35.578 19.1965 35.5508C19.2509 35.4636 19.349 35.4473 19.4307 35.4092C20.3076 35.0227 21.2444 34.8158 22.1595 34.5273C22.775 34.3367 23.4013 34.1625 24.0168 33.9774C24.0713 33.9611 24.202 33.9992 24.1857 33.8903C24.1748 33.8141 24.0604 33.825 23.9896 33.8359C23.3523 33.9339 22.7042 33.9883 22.0941 34.217C22.0288 34.2442 21.9743 34.2115 21.9198 34.2115C21.898 34.2115 21.8817 34.1843 21.8599 34.168C21.8817 34.1571 21.898 34.1353 21.9198 34.1299C22.4046 34.0155 22.8948 33.8958 23.3959 33.8631C23.7227 33.8413 24.0441 33.776 24.36 33.6726C24.3709 33.6671 24.3818 33.6617 24.3981 33.6562C24.3763 33.6562 24.3491 33.6508 24.3273 33.6508C23.9624 33.6943 23.6029 33.7324 23.2434 33.7869C22.6116 33.8903 21.9797 34.0101 21.3534 34.1244C21.3098 34.1299 21.2608 34.1244 21.2118 34.1244C21.2499 34.1026 21.2826 34.07 21.3261 34.0536C21.7891 33.9012 22.2303 33.6998 22.7042 33.5909C22.8893 33.5473 23.0691 33.4657 23.2543 33.4004C23.2815 33.3895 23.3196 33.3568 23.3196 33.335C23.3142 33.2915 23.2652 33.3078 23.2379 33.3133C23.0146 33.335 22.7913 33.3405 22.5734 33.3786C21.5331 33.5746 20.5364 33.923 19.5559 34.3095C19.5015 34.3313 19.4307 34.4238 19.3816 34.3476C19.3435 34.2823 19.4252 34.217 19.4797 34.1625C19.5287 34.119 19.5886 34.0809 19.6431 34.0373C19.9481 33.8141 20.3021 33.7052 20.6507 33.58C21.3098 33.3459 21.9743 33.1282 22.6769 33.0356C22.7151 33.0302 22.7477 33.0084 22.7804 32.9921C22.7477 32.9703 22.7205 32.9485 22.6824 32.9322C22.3447 32.7634 22.0015 32.7688 21.6257 32.8178C20.9884 32.8941 20.3675 33.0084 19.7684 33.2207C19.7193 33.237 19.6867 33.3187 19.6159 33.2697C19.654 33.2261 19.6867 33.1717 19.7357 33.139C20.1878 32.8233 20.6671 32.5565 21.19 32.366C21.2608 32.3388 21.4024 32.3115 21.3806 32.2734C21.3316 32.1809 21.2281 32.0992 21.0974 32.1319C21.0266 32.1482 20.9612 32.1809 20.8904 32.1972C19.4579 32.5729 18.5211 33.5201 17.911 34.8213C17.6223 35.4364 17.3827 36.0679 17.1321 36.6994C16.9742 37.1023 16.8761 37.5215 16.7944 37.9407C16.7835 37.9951 16.7781 38.055 16.7999 38.0986C16.8217 38.1421 16.8707 38.0931 16.9034 38.0768C17.9546 37.4779 19.1148 37.3745 20.2858 37.3037C20.8141 37.2711 21.3534 37.2602 21.8763 37.1567C22.7096 36.9934 23.5375 36.7866 24.2892 36.351C24.5996 36.1714 24.8992 35.9808 25.1389 35.7086C25.1824 35.6596 25.2369 35.5562 25.2206 35.5399C25.1606 35.48 25.1062 35.5508 25.0517 35.578C24.7957 35.7086 24.5397 35.8393 24.2837 35.9645C23.0201 36.5797 21.6747 36.8628 20.2858 36.9717C19.3054 37.0479 18.3359 37.1513 17.4099 37.5106C17.3718 37.5269 17.3337 37.5324 17.2955 37.5433C17.2955 37.4997 17.2792 37.4507 17.2901 37.4072C17.35 37.135 17.4753 36.8791 17.5842 36.6232C17.6169 36.5416 17.6823 36.5035 17.7694 36.4871C18.0853 36.4218 18.4067 36.351 18.7226 36.2748C19.4851 36.0843 20.2313 35.8393 20.9993 35.676C21.6965 35.529 22.3991 35.382 23.0691 35.1207C23.0909 35.1098 23.1127 35.0989 23.1399 35.0826C23.1127 35.0771 23.0854 35.0717 23.0582 35.0662C23.0201 35.0662 22.9765 35.0717 22.9384 35.0662C22.9057 35.0608 22.8676 35.0499 22.8349 35.039C22.8621 35.0227 22.8893 35.0063 22.922 34.9955C23.2053 34.9084 23.4885 34.8267 23.7663 34.7341C23.8915 34.6906 23.995 34.6198 24.0658 34.5055C24.0822 34.4783 24.0767 34.4293 24.0822 34.3912C24.0495 34.3912 24.0168 34.3857 23.9841 34.3966C23.5266 34.549 23.0963 34.696 22.666 34.843ZM36.321 34.1299C36.2448 34.1625 36.174 34.1353 36.1031 34.119C35.5421 34.0101 34.9866 33.9066 34.4256 33.7978C34.3983 33.7923 34.3493 33.7651 34.3439 33.8087C34.3384 33.8522 34.3929 33.8413 34.4201 33.8468C34.6707 33.8958 34.9267 33.9448 35.1772 34.0046C35.2861 34.0319 35.4114 34.0155 35.4986 34.1135C35.5149 34.1353 35.5312 34.1625 35.5421 34.1897C35.5149 34.1843 35.4877 34.1843 35.4604 34.1789C34.9866 34.1299 34.5563 33.9067 34.0715 33.8849C33.9571 33.8794 33.8046 33.8468 33.6902 33.7651C33.8155 33.7814 33.9462 33.8032 34.0715 33.8195C34.077 33.8195 34.0879 33.825 34.0933 33.825C34.126 33.8195 34.1804 33.8087 34.1804 33.8032C34.1804 33.7488 34.1314 33.776 34.1042 33.7705C33.7393 33.7161 33.3689 33.6562 33.004 33.6072C32.895 33.5909 32.7861 33.6127 32.6771 33.6181C32.7752 33.6344 32.8732 33.6508 32.9713 33.6726C33.0094 33.678 33.0475 33.6943 33.0857 33.7107C33.1238 33.727 33.1891 33.7161 33.1891 33.7814C33.1891 33.7923 33.1183 33.7978 33.0748 33.8032C33.0475 33.8087 33.0203 33.8032 32.9931 33.8087C33.0203 33.825 33.0421 33.8413 33.0693 33.8522C33.3416 33.9556 33.6249 34.0155 33.9136 34.0645C34.333 34.1353 34.7033 34.3803 35.1118 34.4728C35.9942 34.6743 36.8167 35.0336 37.6773 35.3058C37.7099 35.3167 37.7535 35.3112 37.7481 35.3602C37.7426 35.4255 37.6936 35.4038 37.6555 35.3983C37.6065 35.3983 37.5629 35.3874 37.5139 35.3765C36.2938 35.0826 35.0683 34.7831 33.8482 34.4892C33.7393 34.4619 33.6249 34.4293 33.5105 34.4184C33.4506 34.4129 33.3907 34.4565 33.3308 34.4783C33.3798 34.5109 33.4233 34.5545 33.4778 34.5763C34.0279 34.7614 34.5781 34.941 35.1282 35.1207C35.1663 35.1316 35.2262 35.1588 35.2262 35.1751C35.2208 35.2296 35.1663 35.2132 35.1282 35.2187C35.0846 35.2241 35.0192 35.2078 35.0192 35.2731C35.0192 35.3384 35.0846 35.3221 35.1282 35.333C35.711 35.4745 36.2938 35.6215 36.8766 35.7631C37.8243 35.9917 38.7503 36.3129 39.7198 36.449C39.8451 36.4654 39.8886 36.5633 39.9213 36.6504C40.0194 36.9063 40.1011 37.1622 40.1882 37.4181C40.1991 37.4562 40.1991 37.4997 40.1991 37.5378C40.1555 37.5378 40.112 37.5378 40.0629 37.5215C39.747 37.3854 39.4202 37.2928 39.088 37.2112C38.2383 37.0152 37.3668 36.9934 36.5062 36.8954C35.7872 36.8138 35.0901 36.6613 34.3983 36.449C33.7175 36.2421 33.0965 35.9046 32.4647 35.5943C32.3994 35.5616 32.334 35.5181 32.2577 35.5508C32.2959 35.6052 32.3286 35.6651 32.3776 35.7086C33.0693 36.3728 33.9136 36.7321 34.8232 36.9662C35.8907 37.2439 36.991 37.2983 38.0803 37.3691C38.9572 37.4289 39.7797 37.6358 40.5586 38.0441C40.5967 38.0659 40.6403 38.1203 40.6784 38.0768C40.7002 38.0496 40.7002 37.9842 40.6893 37.9407C40.6239 37.6467 40.5858 37.3418 40.4769 37.0588C40.1119 36.0952 39.7688 35.1261 39.2568 34.2224C38.6304 33.1227 37.6609 32.4749 36.4735 32.121C36.4027 32.0992 36.2774 32.0557 36.2448 32.1646C36.2066 32.2789 36.321 32.2952 36.4027 32.3333C36.577 32.4095 36.8711 32.4095 36.8984 32.5674C36.9419 32.8233 37.138 32.7852 37.2633 32.8777C37.3722 32.9594 37.503 33.0084 37.6173 33.0792C37.6555 33.1009 37.7317 33.139 37.6936 33.1989C37.6718 33.237 37.6119 33.2044 37.5629 33.1935C37.2415 33.09 36.9202 32.9757 36.5934 32.8886C35.9833 32.7307 35.3678 32.6219 34.7687 32.9376C34.7469 32.9485 34.7197 32.9539 34.6979 32.9594C34.7197 32.9757 34.7415 32.9921 34.7633 32.9975C34.9321 33.0302 35.1064 33.0574 35.2752 33.0955C35.8417 33.2207 36.3864 33.4058 36.9365 33.6018C37.3178 33.7379 37.6827 33.9012 37.9986 34.1571C38.0422 34.1897 38.1184 34.2387 38.0858 34.3041C38.0422 34.3803 37.9659 34.315 37.9115 34.2986C37.1979 34.0482 36.5008 33.7433 35.7709 33.5582C35.1336 33.3949 34.4909 33.2044 33.8155 33.3024C33.7992 33.3024 33.7774 33.2969 33.761 33.2915C33.761 33.286 33.7665 33.2751 33.7665 33.2751C33.7883 33.2751 33.8155 33.2697 33.8373 33.2751C34.2131 33.335 34.5672 33.4657 34.9212 33.5909C35.3842 33.7705 35.8689 33.9012 36.321 34.1299ZM29.4908 20.3074C29.7141 20.2856 29.9374 20.2693 30.1553 20.2693C30.9614 20.2584 31.7403 20.0679 32.5246 19.9263C33.1565 19.812 33.7556 19.616 34.2513 19.1914C34.4637 19.0117 34.4637 18.7287 34.2676 18.5327C33.9953 18.2605 33.6521 18.1135 33.3035 17.9828C32.6281 17.7215 31.9146 17.5963 31.2011 17.5037C31.0377 17.482 30.8198 17.3568 30.6891 17.5963C30.3296 18.2496 29.774 18.6415 29.0551 18.8049C29.0224 18.8103 28.9679 18.8375 28.9734 18.843C28.9843 18.8974 29.0333 18.8702 29.0714 18.8756C29.3274 18.9137 29.5834 18.9355 29.8339 18.9954C30.0736 19.0499 30.3078 19.1206 30.4658 19.3329C30.5856 19.4854 30.5311 19.5779 30.3568 19.6051C29.8666 19.6814 29.3764 19.7685 28.8808 19.7685C28.3633 19.7739 27.8513 19.763 27.3393 19.6487C27.1923 19.616 26.9907 19.616 26.9635 19.4527C26.9308 19.2622 27.1269 19.1968 27.274 19.1206C27.3176 19.0988 27.3611 19.088 27.4101 19.0716C27.677 18.9954 27.9439 18.9246 28.2217 18.8974C28.2925 18.892 28.3633 18.8702 28.4341 18.8539C28.3906 18.7831 28.3034 18.794 28.2381 18.7722C28.0365 18.696 27.8023 18.6633 27.6444 18.5381C27.2958 18.2659 26.9472 17.9774 26.7511 17.5582C26.713 17.482 26.653 17.4384 26.555 17.4547C26.0212 17.5527 25.482 17.6017 24.9591 17.7433C24.409 17.8957 23.8534 18.0373 23.3687 18.3748C23.0092 18.6252 22.9438 18.9954 23.2434 19.2023C23.4231 19.3275 23.6138 19.4364 23.8044 19.5453C24.2184 19.7848 24.6759 19.8991 25.1334 19.9862C25.836 20.1278 26.555 20.1985 27.2685 20.2802C27.5463 20.3129 27.8241 20.302 28.1073 20.3129C28.5594 20.351 29.0278 20.3455 29.4908 20.3074ZM34.4201 24.3578C34.4147 24.238 34.4147 24.1128 34.4147 23.993C34.4147 23.9005 34.4147 23.8079 34.4147 23.71C34.4147 23.6283 34.4147 23.5466 34.4147 23.465C34.4147 23.3289 34.4201 23.1873 34.4201 23.0512C34.4256 22.1366 34.4256 21.2166 34.4419 20.302C34.4473 20.0733 34.3547 20.0624 34.2077 20.155C33.8319 20.3728 33.4234 20.5143 33.0094 20.6177C32.0235 20.8682 31.0159 21.0043 30.0082 21.0641C29.322 21.1023 28.6357 21.1349 27.9385 21.0859C27.0779 21.026 26.2173 20.9553 25.3676 20.7919C24.6214 20.645 23.8698 20.5361 23.2162 20.1006C23.0854 20.0134 23.0364 20.0516 23.0364 20.2094C23.0473 21.0206 23.0473 21.8263 23.0528 22.6375C23.0582 23.2145 23.0745 23.7916 23.0691 24.3687C23.0691 24.5102 23.1562 24.5157 23.2325 24.5211C23.3414 24.532 23.2761 24.434 23.2761 24.3959C23.287 23.7045 23.287 23.0077 23.3087 22.3163C23.3142 22.2074 23.178 21.9842 23.4068 21.9842C23.5974 21.9842 23.5375 22.2074 23.543 22.3326C23.5593 23.0893 23.5593 23.8406 23.5647 24.5973C23.5647 24.6572 23.5593 24.728 23.5865 24.777C23.6138 24.8314 23.6791 24.8968 23.7227 24.8968C23.7772 24.8913 23.7445 24.8042 23.7445 24.7552C23.7499 24.3088 23.7499 23.8569 23.7554 23.4105C23.7935 23.2309 23.8207 23.0512 23.7499 22.877C23.7608 22.6103 23.7772 22.3381 23.7826 22.0713C23.7881 21.8481 23.7826 21.6249 23.7772 21.4017C23.7772 21.3527 23.7772 21.2928 23.8425 21.2982C23.8915 21.3037 23.8752 21.3636 23.8752 21.4017C23.8861 21.5214 23.897 21.6412 23.9079 21.761C23.8207 22.0876 23.8371 22.4143 23.9133 22.7355C23.9242 22.9532 23.9406 23.171 23.9515 23.3888C23.9624 23.8787 23.9896 24.3632 23.9841 24.8532C23.9787 25.0764 24.0658 25.218 24.2292 25.3377C24.2565 25.3541 24.2674 25.4031 24.3055 25.3758C24.3273 25.3595 24.3436 25.3214 24.3436 25.2942C24.4035 24.4395 24.409 23.5847 24.3926 22.73C24.3926 22.3381 24.3926 21.9461 24.3926 21.5541C24.3926 21.4942 24.36 21.4017 24.4743 21.4071C24.5778 21.4126 24.5561 21.4997 24.5561 21.5596C24.5669 21.9406 24.5561 22.3272 24.6105 22.7082C24.616 23.0349 24.6269 23.3561 24.6323 23.6827C24.6378 24.0801 24.6432 24.4721 24.6486 24.8695C24.6486 25.0056 24.6595 25.1417 24.6378 25.2778C24.5887 25.599 24.6922 25.8712 24.8938 26.1162C24.9373 26.1652 24.9972 26.2251 25.0354 26.1489C25.1334 25.9692 25.2859 25.8114 25.2914 25.5936C25.2914 25.2724 25.2859 24.9566 25.2805 24.6354C25.2696 24.2925 25.2478 23.944 25.2641 23.6065C25.2914 23.0948 25.2696 22.5776 25.2914 22.0659C25.2968 21.8699 25.2532 21.6739 25.324 21.4833C25.3458 21.418 25.3295 21.32 25.4384 21.3255C25.5474 21.3255 25.5637 21.4289 25.5746 21.4997C25.6781 22.3272 25.6781 23.1547 25.6726 23.9876C25.6835 24.336 25.6944 24.6899 25.7053 25.0383C25.7053 25.0873 25.7489 25.1853 25.7816 25.1308C25.8578 25.0111 26.0485 25.0056 26.0594 24.8314C26.1084 24.7498 26.2228 24.7171 26.2391 24.6082C26.3262 24.5647 26.4134 24.5102 26.4733 24.4231C26.5387 24.3524 26.5986 24.2816 26.6639 24.2162C26.9799 23.8842 27.3012 23.5521 27.6171 23.22C27.9058 22.828 28.2381 22.4742 28.4559 22.0332C28.5049 21.9297 28.9352 21.8699 28.9679 21.9679C29.0932 22.3489 29.4091 22.5994 29.6379 22.9097C29.7522 23.0621 29.8339 23.2581 30.0246 23.3561C30.2806 23.6827 30.5584 23.993 30.8797 24.2598C30.9233 24.3142 30.9723 24.3632 31.0159 24.4177C31.1902 24.6082 31.3645 24.7933 31.5333 24.9893C31.5769 25.0383 31.6041 25.0927 31.6749 25.0764C31.7566 25.0546 31.7566 24.9839 31.7566 24.9131C31.7512 24.5157 31.7512 24.1128 31.7458 23.7154C31.7621 23.2527 31.7458 22.7845 31.8002 22.3217C31.8275 22.0441 31.7839 21.7555 31.9037 21.4888C31.9364 21.418 31.9255 21.32 32.0399 21.32C32.1652 21.3255 32.1052 21.4289 32.127 21.4888C32.1706 21.614 32.1706 21.7392 32.1706 21.8644C32.1706 22.2782 32.176 22.6919 32.176 23.1057C32.1706 23.8787 32.1869 24.6518 32.1543 25.4248C32.1434 25.7242 32.3394 25.9039 32.4429 26.138C32.4593 26.1707 32.5246 26.2088 32.541 26.1598C32.6118 25.9801 32.8188 25.8767 32.8242 25.6698C32.8297 25.4629 32.8188 25.2506 32.8133 25.0437C32.8242 24.5266 32.8351 24.0148 32.8514 23.4976C32.8623 23.2145 32.8133 22.9315 32.8678 22.6484C32.8732 22.5123 32.8787 22.3816 32.8787 22.2455C32.8841 22.0114 32.8841 21.7773 32.8896 21.5378C32.8896 21.4725 32.9059 21.4017 32.9767 21.4071C33.053 21.4126 33.0094 21.4942 33.0203 21.5378C33.0366 21.6086 32.9876 21.6848 33.0639 21.7447C33.0148 22.202 33.0421 22.6647 33.0312 23.122C33.0203 23.5956 33.0748 24.0747 33.102 24.5538C33.1129 24.7824 33.1456 25.0111 33.1347 25.2452C33.1347 25.2778 33.151 25.3323 33.1728 25.3486C33.2164 25.3758 33.2327 25.3159 33.2654 25.2996C33.4615 25.1635 33.4996 24.973 33.4996 24.7498C33.5105 24.1346 33.5159 23.514 33.5541 22.8988C33.5813 22.485 33.6793 22.0713 33.5759 21.6521C33.5759 21.6031 33.565 21.5541 33.5813 21.5106C33.6031 21.4452 33.5159 21.32 33.6576 21.3255C33.7665 21.3309 33.7175 21.4398 33.7175 21.5051C33.7338 22.5613 33.7393 23.6174 33.7556 24.6735C33.7556 24.728 33.7066 24.8151 33.7883 24.826C33.87 24.8423 33.919 24.7661 33.9299 24.6899C33.9408 24.63 33.9408 24.5701 33.9408 24.5048C33.9462 23.6882 33.9517 22.877 33.9571 22.0604C34.0225 22.0441 34.0824 22.0277 34.1478 22.0114C34.1641 22.7899 34.1859 23.563 34.2077 24.3415C34.2077 24.3959 34.1696 24.4885 34.2513 24.4939C34.3166 24.4939 34.4201 24.4721 34.4201 24.3578ZM37.6337 29.5677C37.8679 29.2629 38.0912 28.9471 38.2655 28.6042C38.7829 27.6079 39.0335 26.5354 39.2132 25.4412C39.393 24.3524 39.649 23.2853 39.9976 22.2401C40.052 22.0767 39.9322 22.1312 39.8886 22.1421C39.442 22.2128 39.0226 22.3598 38.674 22.6593C37.808 23.3996 36.8875 24.0638 35.8744 24.5864C34.9267 25.0764 34.0388 25.6426 33.2545 26.3666C32.8569 26.7314 32.8242 26.7967 32.9985 27.0744C33.0366 27.4282 33.2382 27.7385 33.2599 28.0924C33.2599 28.1142 33.2872 28.136 33.3035 28.1577C33.3253 28.136 33.358 28.1196 33.3743 28.0924C33.4996 27.8583 33.6848 27.6732 33.8591 27.4772C33.8809 27.4555 33.9081 27.4391 33.9299 27.4173C33.9299 27.45 33.9462 27.4936 33.9299 27.5099C33.8863 27.5535 33.8809 27.6133 33.8482 27.6623C33.5976 28.0761 33.4615 28.5279 33.407 29.007C33.4016 29.0669 33.407 29.1268 33.4615 29.1486C33.5323 29.1758 33.5432 29.105 33.5759 29.0669C33.8373 28.762 34.0225 28.3973 34.3221 28.1251C34.3493 28.0979 34.3711 28.0434 34.4147 28.0761C34.431 28.087 34.431 28.1523 34.4147 28.185C34.2676 28.4953 34.1042 28.8001 33.9462 29.1104C33.7447 29.5079 33.5268 29.8998 33.3362 30.3081C33.309 30.368 33.2545 30.4497 33.3199 30.4878C33.3634 30.515 33.4125 30.4279 33.4506 30.3844C33.6957 30.0632 33.9027 29.7093 34.1096 29.3609C34.382 28.8981 34.687 28.4572 35.0192 28.038C35.0465 27.9999 35.1064 27.989 35.15 27.9672C35.1336 28.0271 35.1227 28.0924 35.0955 28.1523C34.845 28.6368 34.6053 29.1322 34.3439 29.6113C33.9789 30.27 33.5868 30.9124 33.0802 31.4841C33.053 31.5113 32.9985 31.5385 33.0257 31.5766C33.0693 31.631 33.1129 31.5712 33.1401 31.5494C33.5323 31.1846 33.8863 30.7872 34.1968 30.3517C34.5563 29.8508 34.8177 29.2901 35.1391 28.7675C35.3025 28.4953 35.4604 28.2176 35.5966 27.9345C35.7491 27.6188 35.9016 27.303 36.0759 26.9982C36.0923 26.9709 36.1249 26.9546 36.1522 26.9328C36.1522 26.96 36.1467 26.9873 36.1467 27.0199C36.1522 27.1669 36.0541 27.2812 36.016 27.4173C35.76 28.283 35.3297 29.0778 34.9103 29.8672C34.6489 30.3571 34.2621 30.7763 33.9353 31.2282C33.9081 31.2608 33.8319 31.2881 33.8754 31.3371C33.9245 31.3861 33.9735 31.3262 34.0062 31.2881C34.2186 31.0866 34.4473 30.907 34.6543 30.7056C35.0084 30.3517 35.3352 29.9815 35.6565 29.595C35.8417 29.3718 35.967 29.0941 36.2284 28.9308C36.2121 28.9961 36.2012 29.0669 36.174 29.1213C35.8526 29.7093 35.4877 30.27 35.0356 30.7654C34.3003 31.5766 33.3308 32.0666 32.4266 32.6382C32.3667 32.6763 32.285 32.7035 32.3177 32.7797C32.3503 32.8451 32.4538 32.8124 32.5029 32.7906C32.9005 32.5783 33.358 32.4749 33.7284 32.2027C34.3547 31.7454 35.0084 31.3262 35.4986 30.6892C35.8472 30.2374 36.1957 29.7855 36.5171 29.3119C36.8112 28.8764 37.0727 28.4245 37.3559 27.9781C37.3831 27.9345 37.4322 27.9019 37.4703 27.8692C37.4648 27.9182 37.4703 27.9726 37.4485 28.0162C37.247 28.4517 37.0836 28.8981 36.8385 29.3173C36.4953 29.9053 36.1413 30.4932 35.711 31.0104C35.3025 31.5004 34.785 31.8924 34.2077 32.1863C34.1587 32.2136 34.0388 32.2244 34.0661 32.2952C34.0879 32.3388 34.1913 32.2952 34.2621 32.268C34.7741 32.0393 35.2426 31.7454 35.7055 31.4296C36.4626 30.8961 37.0836 30.2755 37.6337 29.5677ZM28.1618 36.4218C28.1618 36.6831 28.1618 37.0206 28.1618 37.3636C28.1618 37.4126 28.1618 37.4725 28.1073 37.4834C28.0529 37.4888 28.042 37.4289 28.0202 37.3854C27.9548 37.2602 27.9821 37.1186 27.9603 36.988C27.8786 36.3946 27.8513 35.7903 27.8731 35.1914C27.8786 35.0771 27.8622 35.0063 27.7261 34.9737C27.6226 34.9465 27.677 35.1316 27.5735 35.0553C27.5681 35.0771 27.5572 35.0989 27.5518 35.1207C27.3884 35.7957 27.4265 36.4817 27.4265 37.1622C27.4265 37.2928 27.4973 37.5161 27.3339 37.5324C27.1977 37.5433 27.1923 37.3092 27.165 37.1676C27.0398 36.4817 27.0997 35.7848 27.165 35.0989C27.1814 34.9084 26.9799 34.8485 27.0016 34.6797C26.9907 34.7015 26.969 34.7233 26.9635 34.745C26.8709 35.0553 26.8273 35.3765 26.811 35.6977C26.7947 36.1278 26.7783 36.5633 26.8491 36.9989C26.86 37.0533 26.909 37.1513 26.811 37.1676C26.7348 37.1785 26.7075 37.0914 26.6857 37.0261C26.5877 36.6722 26.4842 36.3238 26.4951 35.9536C26.5005 35.627 26.506 35.3003 26.506 34.9737C26.506 34.9084 26.5169 34.8376 26.4025 34.8539C26.3262 34.8648 26.2228 34.7886 26.1955 34.9356C26.1411 35.2023 26.0594 35.4691 26.0376 35.7359C25.945 36.8628 26.3426 37.8373 26.9853 38.741C27.5463 39.5304 28.2653 40.2054 28.6629 41.1091C28.701 41.1962 28.7228 41.1799 28.7664 41.1037C28.8971 40.875 29.0387 40.6518 29.1803 40.4341C29.6215 39.7427 30.2043 39.1493 30.651 38.4633C31.3754 37.3582 31.615 36.1877 31.2501 34.9084C31.2065 34.7559 31.1303 34.7831 31.054 34.8267C30.8253 34.9465 30.9233 35.1697 30.9451 35.3384C31.0159 35.9264 30.9669 36.498 30.7653 37.0533C30.7436 37.1132 30.7272 37.2112 30.6455 37.2003C30.542 37.184 30.6074 37.0914 30.6019 37.0315C30.591 36.939 30.5802 36.841 30.5965 36.7484C30.7109 36.155 30.6346 35.5671 30.5529 34.9791C30.5475 34.9301 30.5529 34.8539 30.4658 34.8757C30.4004 34.892 30.3078 34.8866 30.3078 35.0009C30.3078 35.0662 30.3078 35.137 30.3187 35.2023C30.4385 35.9101 30.3677 36.6069 30.237 37.3037C30.2207 37.3854 30.237 37.5269 30.1063 37.5161C29.9756 37.5052 29.981 37.38 29.981 37.2765C29.9647 36.743 29.9592 36.204 29.9265 35.6705C29.9156 35.4854 29.9429 35.284 29.8503 35.1098C29.8122 35.039 29.774 34.9247 29.6433 34.9628C29.5289 35.0009 29.5779 35.1043 29.5779 35.1697C29.6052 35.7141 29.5616 36.253 29.5289 36.792C29.518 36.9716 29.5344 37.1731 29.42 37.3364C29.3982 37.3691 29.4091 37.4235 29.3546 37.4126C29.3056 37.4072 29.2947 37.3636 29.2947 37.3201C29.2784 37.0805 29.213 36.8301 29.2511 36.596C29.3274 36.1115 29.1694 35.6433 29.1967 35.1697C29.2021 35.0499 29.1531 35.0336 29.0551 35.0336C28.957 35.0336 28.9298 35.0608 28.9243 35.1751C28.8699 35.8066 28.9189 36.4381 28.8862 37.0696C28.8644 37.4507 28.8862 37.8373 28.8154 38.2183C28.8045 38.2728 28.8372 38.349 28.7337 38.3435C28.6466 38.3381 28.6193 38.2837 28.6139 38.2074C28.6084 38.0332 28.5975 37.8536 28.5975 37.6794C28.5812 36.8464 28.554 36.0081 28.5485 35.1751C28.5485 34.99 28.4232 35.0608 28.3415 35.0336C28.2217 34.9955 28.2544 35.088 28.2435 35.1479C28.1672 35.5344 28.2272 35.9427 28.1618 36.4218ZM38.8374 30.2101C39.1152 30.2156 39.4692 30.2483 39.8124 30.3408C39.8396 30.3462 39.8614 30.3789 39.8886 30.3952C39.8668 30.4007 39.8451 30.4116 39.8233 30.417C39.4202 30.4715 39.0172 30.5259 38.6141 30.5858C38.3962 30.6184 38.1675 30.6239 37.9605 30.711C37.9333 30.7219 37.9006 30.7545 37.9006 30.7763C37.9006 30.8253 37.9333 30.7927 37.955 30.7872C38.3091 30.7763 38.6631 30.8525 39.0172 30.7818C39.0498 30.7763 39.1043 30.7546 39.1152 30.809C39.1152 30.8253 39.0607 30.858 39.0226 30.8689C38.7775 30.9451 38.5324 31.005 38.2927 31.0866C38.2274 31.1084 38.0694 31.0921 38.1184 31.2064C38.1511 31.2881 38.2056 31.4242 38.3908 31.3915C39.0607 31.2663 39.7307 31.1574 40.4115 31.0921C40.466 31.0866 40.5259 31.1084 40.5858 31.1193C40.5695 31.2064 40.4878 31.2064 40.4279 31.2173C39.6054 31.3588 38.8483 31.7236 38.0367 31.9141C37.9768 31.925 37.9768 31.9414 38.0095 31.9631C38.1184 32.0393 38.2219 32.1264 38.3744 32.1047C38.9028 32.0393 39.4148 31.876 39.9268 31.7454C40.4605 31.6093 40.9834 31.4568 41.539 31.4242C41.5826 31.4187 41.6479 31.3969 41.6643 31.4514C41.6861 31.5222 41.6153 31.5385 41.5662 31.5548C41.5172 31.5712 41.4627 31.5875 41.4137 31.6038C40.8582 31.7944 40.3026 31.9849 39.747 32.1809C39.7198 32.1918 39.6926 32.219 39.6653 32.2353C39.6817 32.2408 39.6926 32.2571 39.7089 32.2517C39.9921 32.1809 40.2754 32.2734 40.5531 32.2517C40.8309 32.2299 41.1087 32.1319 41.3865 32.0829C41.7187 32.0285 42.0564 31.9903 42.3887 31.9468C42.4486 31.9414 42.514 31.9522 42.5249 32.0067C42.5358 32.0666 42.4649 32.0666 42.4214 32.0829C42.2416 32.1537 42.0564 32.2081 41.8767 32.2789C41.1959 32.5402 40.4987 32.7416 39.7906 32.9158C39.7634 32.9213 39.7307 32.9267 39.698 32.9322C39.7307 32.9322 39.7688 32.9322 39.8015 32.9267C40.0466 32.8832 40.3026 32.7961 40.5422 32.8723C40.7601 32.9376 40.9562 32.9104 41.1577 32.8614C42.0074 32.6654 42.868 32.5946 43.7395 32.6654C43.7722 32.6709 43.8266 32.709 43.843 32.6545C43.8484 32.6273 43.8103 32.5837 43.7885 32.5565C43.4889 32.1918 43.1785 31.8325 42.819 31.5222C41.6425 30.4932 40.3026 29.8781 38.7121 29.8781C38.4834 29.8781 38.4561 30.0468 38.3962 30.172C38.3799 30.2101 38.5651 30.1829 38.6522 30.1993C38.6795 30.2156 38.723 30.2101 38.8374 30.2101ZM43.9683 33.2316C43.2438 33.1554 42.4976 33.3677 41.7514 33.531C41.2449 33.6399 40.7492 33.7923 40.2481 33.9175C40.1773 33.9339 40.0902 33.9339 40.1228 34.021C40.1501 34.0863 40.1664 34.2115 40.3026 34.1734C40.4442 34.1353 40.5913 34.1244 40.7274 34.0809C41.844 33.7433 42.9878 33.5365 44.1534 33.5201C44.4748 33.5147 44.8016 33.5419 45.123 33.5637C45.319 33.5746 45.3245 33.4875 45.2591 33.3459C45.1611 33.1554 45.0739 32.9594 44.965 32.7743C44.4421 31.8978 43.7667 31.1629 42.9769 30.5259C41.9366 29.6875 40.7656 29.2139 39.4257 29.154C39.1588 29.1431 38.93 29.1486 38.8592 29.4698C38.8538 29.5079 38.7829 29.5242 38.8211 29.5677C38.8429 29.5895 38.8973 29.595 38.9355 29.5895C39.4039 29.546 39.8396 29.6875 40.2862 29.7855C41.5662 30.0577 42.6665 30.6729 43.6033 31.5766C44.0554 32.0121 44.4585 32.4966 44.7635 33.0519C44.8397 33.188 44.8288 33.2479 44.6545 33.237C44.4421 33.2261 44.2351 33.2316 43.9683 33.2316ZM13.4392 33.2261C13.2159 33.2261 12.9926 33.2207 12.7638 33.2261C12.6331 33.2316 12.6331 33.2044 12.693 33.0955C12.9763 32.5511 13.3739 32.0883 13.7933 31.6419C14.4796 30.9124 15.3075 30.3844 16.228 30.0305C16.9415 29.7528 17.704 29.5895 18.4829 29.5569C18.5211 29.5569 18.63 29.6059 18.5919 29.5079C18.5374 29.3663 18.5374 29.154 18.3032 29.1486C17.4916 29.1268 16.7018 29.252 15.972 29.6004C14.3597 30.368 13.1233 31.5385 12.2954 33.1336C12.0939 33.5256 12.0993 33.531 12.5187 33.5147C12.546 33.5147 12.5732 33.5147 12.6004 33.5147C13.0307 33.531 13.4665 33.5147 13.8968 33.5473C14.6702 33.5963 15.4219 33.7161 16.1681 33.9175C16.4676 33.9992 16.7618 34.0754 17.0613 34.1571C17.2029 34.1952 17.3119 34.1571 17.3446 34.0155C17.3663 33.9175 17.2465 33.9284 17.1866 33.9121C16.7563 33.7869 16.326 33.6671 15.8957 33.5582C15.0896 33.3677 14.278 33.1935 13.4392 33.2261ZM19.0439 36.4327C19.0657 36.4327 19.0821 36.4327 19.093 36.4327C20.215 36.2258 21.3425 36.057 22.4536 35.7794C22.7586 35.7032 23.0582 35.5834 23.3578 35.48C23.3904 35.4691 23.4395 35.4255 23.434 35.4038C23.4231 35.3493 23.385 35.3929 23.3578 35.3983C22.4264 35.6596 21.4895 35.8774 20.5418 36.0679C20.0516 36.1659 19.5668 36.2911 19.0766 36.4109C19.0439 36.4164 19.0167 36.4381 18.9895 36.4545C19.0167 36.4436 19.0331 36.4381 19.0439 36.4327ZM38.0858 36.351C38.113 36.3565 38.1402 36.3565 38.1675 36.3619C38.1293 36.3456 38.0912 36.3238 38.0531 36.3129C37.0236 36.0462 35.967 35.8937 34.943 35.6161C34.7142 35.5508 34.4909 35.4364 34.2404 35.4636C34.2077 35.4691 34.1641 35.4528 34.1587 35.4963C34.1587 35.529 34.1913 35.5399 34.2295 35.5508C34.6598 35.6651 35.0792 35.7957 35.5149 35.8937C36.3591 36.0897 37.2197 36.2258 38.0858 36.351ZM21.751 24.0693C21.7292 24.0366 21.7074 23.9985 21.6747 23.9658C21.5821 23.8787 21.4895 23.7916 21.3969 23.7045C20.9666 23.3289 20.5146 22.9859 19.959 22.8062C19.9209 22.7954 19.8882 22.7845 19.8501 22.8008C19.8719 22.8226 19.8991 22.8443 19.9209 22.8661C20.4438 23.3615 21.0701 23.7045 21.6747 24.0801C21.6911 24.0965 21.7237 24.1727 21.751 24.0693ZM13.0035 29.2847C12.9599 29.2901 12.9109 29.301 12.8673 29.3119C12.9109 29.3663 12.9654 29.3282 13.0144 29.3391C13.1342 29.3609 13.2541 29.3718 13.3739 29.4044C13.6517 29.4806 13.9349 29.5405 14.1854 29.693C14.2072 29.7038 14.2454 29.6821 14.278 29.6766C14.2672 29.6657 14.2617 29.6494 14.2508 29.6494C13.8478 29.4806 13.4447 29.3337 13.0035 29.2847ZM17.9219 32.2462L17.9274 32.2353H17.9165L17.9219 32.2462Z" fill="#ECE8E4"/>
<path d="M32.5791 29.595C32.5192 30.7437 32.0181 31.6746 31.2229 32.4803C30.9451 32.7634 30.651 33.0084 30.3187 33.2262C30.2588 33.2643 30.188 33.3078 30.1444 33.2697C30.0845 33.2098 30.188 33.1717 30.2153 33.1336C30.9506 32.1101 31.3155 30.9723 31.2828 29.7093C31.2828 29.6821 31.2719 29.6549 31.2665 29.6276C31.261 29.6549 31.261 29.6821 31.2556 29.7039C30.9778 30.8199 30.6129 31.8978 29.8939 32.8178C29.7087 33.0519 29.4799 33.2588 29.2675 33.4711C29.2348 33.5038 29.1858 33.5365 29.1477 33.5038C29.1313 33.4929 29.1477 33.4276 29.164 33.3949C29.3765 33.0302 29.4364 32.611 29.5453 32.2136C29.6325 31.9087 29.8449 31.6637 29.9211 31.3534C30.1499 30.3898 30.1826 29.4262 30.0137 28.4463C30.0028 28.381 29.9701 28.3102 29.9102 28.3156C29.8394 28.3211 29.8721 28.4082 29.8721 28.4517C29.8776 29.1377 29.8667 29.8182 29.785 30.4987C29.7359 30.8961 29.5834 31.2772 29.5616 31.68C29.5616 31.7073 29.5181 31.7563 29.5072 31.7563C29.4527 31.7454 29.469 31.6964 29.4636 31.6583C29.4582 31.4024 29.4745 31.1411 29.4473 30.8852C29.3928 30.3081 29.371 29.7256 29.3547 29.1431C29.3547 29.0288 29.3165 28.9417 29.1804 28.9471C29.0333 28.9526 29.0551 29.0669 29.0551 29.154C29.0442 29.8672 29.0388 30.5803 29.0388 31.2935C29.0388 31.8325 28.908 32.3442 28.8045 32.8668C28.7936 32.9322 28.7719 32.9648 28.7011 32.9648C28.6194 32.9648 28.5921 32.905 28.5812 32.8505C28.5159 32.5239 28.4451 32.1972 28.4015 31.8651C28.2817 30.9723 28.3252 30.074 28.3034 29.1812C28.298 29.056 28.2925 28.8328 28.2217 28.8383C28.0747 28.8491 28.0856 29.0397 28.0583 29.1703C28.0148 29.3935 28.0202 29.6167 28.0366 29.84C28.0747 30.466 27.9766 31.0866 27.9821 31.7073C27.9821 31.7345 27.9766 31.7563 27.9712 31.7835C27.9549 31.7617 27.9331 31.7454 27.9276 31.7236C27.786 31.1574 27.6716 30.5858 27.6172 29.9978C27.5681 29.4806 27.53 28.958 27.53 28.4354C27.53 28.3973 27.5518 28.3265 27.481 28.3265C27.432 28.3265 27.4429 28.3918 27.4374 28.4299C27.3012 29.3445 27.2522 30.2591 27.4646 31.1683C27.53 31.4405 27.6771 31.6964 27.7915 31.9631C27.993 32.4368 28.0638 32.9539 28.298 33.4167C28.3089 33.4385 28.2926 33.4766 28.2926 33.5092C28.2708 33.4984 28.249 33.482 28.2272 33.4711C28.0529 33.3949 27.9712 33.2262 27.8459 33.1009C27.3121 32.5565 26.9309 31.9087 26.6531 31.2064C26.4788 30.76 26.3481 30.2918 26.201 29.8345C26.1901 29.8018 26.1792 29.7746 26.1629 29.7474C26.1574 29.7801 26.152 29.8127 26.152 29.84C26.1683 30.6729 26.3535 31.4677 26.7184 32.219C26.871 32.5348 27.0398 32.8505 27.2686 33.1227C27.3012 33.1608 27.3612 33.2153 27.3176 33.2588C27.274 33.3078 27.2141 33.2697 27.1596 33.237C26.5224 32.8505 26.0049 32.3442 25.6019 31.7182C25.2914 31.2336 25.0463 30.7219 24.921 30.1557C24.8883 30.0196 24.9047 29.889 24.8938 29.7528C25.0463 29.6331 25.0626 29.4643 25.0681 29.2901C25.0953 28.4408 25.3132 27.6514 25.7979 26.9437C26.201 26.3503 26.6967 25.8277 27.1215 25.2452C27.1487 25.2071 27.1705 25.1036 27.2413 25.1472C27.3012 25.1853 27.2686 25.2724 27.2359 25.3323C26.9962 25.7515 26.7566 26.1652 26.5169 26.5844C26.4298 26.432 26.4025 26.6171 26.3971 26.6225C26.2119 26.9056 26.0322 27.1887 25.8579 27.4827C25.4984 28.087 25.2859 28.7239 25.3894 29.4371C25.4003 29.5024 25.3513 29.6276 25.5038 29.5678C25.5528 29.9978 25.6509 30.4225 25.8034 30.8308C25.8252 30.8907 25.8415 30.9723 25.9287 30.9886C25.9341 30.9233 25.9559 30.858 25.945 30.7927C25.8306 30.0904 25.9287 29.4044 26.0866 28.7294C26.2391 28.0979 26.5496 27.5262 26.7675 26.9165C26.9254 26.481 27.1433 26.0672 27.3557 25.6535C27.7043 24.9675 28.2 24.3959 28.6194 23.7644C28.6902 23.6555 28.7446 23.6446 28.8263 23.7698C28.9407 23.9495 29.066 24.1237 29.1967 24.2925C29.4037 24.5647 29.6542 24.8205 29.8285 25.1091C30.2316 25.7733 30.5475 26.4864 30.8198 27.2214C31.1085 28.0108 31.4244 28.7838 31.5279 29.6276C31.5715 29.9978 31.5606 30.368 31.5116 30.7437C31.5061 30.7872 31.4843 30.8525 31.5443 30.8689C31.6205 30.8852 31.5933 30.8036 31.6096 30.7654C31.6586 30.6402 31.6968 30.5096 31.7403 30.3844C31.7458 30.368 31.7621 30.3027 31.7785 30.3408C31.8329 30.4932 31.8275 30.3844 31.8493 30.3354C31.9473 30.1067 31.931 29.8563 31.9909 29.6222C31.9963 29.8182 31.9963 30.0142 32.0018 30.2102C32.0018 30.2319 32.0018 30.2591 32.0018 30.2809C32.0072 30.2646 32.0181 30.2483 32.0236 30.2265C32.1543 29.6222 32.2142 29.0125 32.029 28.4082C31.8438 27.7984 31.4952 27.2704 31.163 26.7368C31.1194 26.6715 31.0541 26.6389 30.9778 26.6389C30.9669 26.6062 30.9669 26.5735 30.9451 26.5463C30.6619 26.1489 30.4386 25.7188 30.2207 25.2887C30.1989 25.2452 30.1608 25.1853 30.2044 25.1581C30.2479 25.1309 30.2752 25.2016 30.3078 25.2343C30.7272 25.6644 31.0758 26.1598 31.4462 26.628C31.9146 27.2214 32.236 27.8855 32.3286 28.6477C32.3558 28.8981 32.3885 29.154 32.4266 29.4044C32.4375 29.4806 32.4103 29.6167 32.5791 29.595Z" fill="#ECE8E4"/>
<path d="M36.2393 28.909C35.9779 29.0723 35.8526 29.35 35.6674 29.5732C35.3515 29.9597 35.0247 30.3354 34.6652 30.6838C34.4582 30.8906 34.2295 31.0703 34.017 31.2663C33.9843 31.299 33.9353 31.3643 33.8863 31.3153C33.8427 31.2663 33.919 31.2445 33.9462 31.2064C34.2785 30.7545 34.6597 30.3299 34.9212 29.8454C35.3406 29.056 35.7709 28.2612 36.0269 27.3956C36.065 27.2595 36.163 27.1451 36.1576 26.9982C36.1576 26.9709 36.1576 26.9437 36.163 26.9111C36.1358 26.9328 36.1031 26.9492 36.0868 26.9764C35.9125 27.2812 35.76 27.597 35.6075 27.9128C35.4713 28.1958 35.3134 28.4789 35.1499 28.7457C34.8286 29.2683 34.5671 29.8291 34.2077 30.3299C33.8972 30.7654 33.5377 31.1628 33.151 31.5276C33.1238 31.5494 33.0747 31.6093 33.0366 31.5548C33.0094 31.5167 33.0638 31.4895 33.0911 31.4623C33.5976 30.8961 33.9898 30.2537 34.3547 29.5895C34.6162 29.1104 34.8613 28.6205 35.1064 28.1305C35.1336 28.0761 35.1445 28.0107 35.1608 27.9454C35.1173 27.9672 35.0574 27.9835 35.0301 28.0162C34.6979 28.4354 34.3929 28.8764 34.1205 29.3391C33.9135 29.6875 33.712 30.0414 33.4615 30.3626C33.4233 30.4116 33.3798 30.4932 33.3307 30.466C33.2654 30.4279 33.3198 30.3462 33.3471 30.2864C33.5377 29.8781 33.7556 29.4861 33.9571 29.0887C34.1096 28.7784 34.273 28.4735 34.4255 28.1632C34.4419 28.1305 34.4419 28.0652 34.4255 28.0543C34.382 28.0271 34.3602 28.0815 34.3329 28.1033C34.0388 28.3809 33.8536 28.7457 33.5867 29.0451C33.5541 29.0832 33.5432 29.154 33.4724 29.1268C33.4179 29.105 33.4124 29.0451 33.4179 28.9852C33.4669 28.5062 33.6085 28.0543 33.8591 27.6406C33.8863 27.5916 33.8972 27.5317 33.9408 27.4881C33.9571 27.4718 33.9408 27.4282 33.9408 27.3956C33.919 27.4173 33.8863 27.4282 33.87 27.4555C33.6957 27.6514 33.5105 27.8365 33.3852 28.0706C33.3689 28.0979 33.3416 28.1142 33.3144 28.136C33.2981 28.1142 33.2708 28.0924 33.2708 28.0706C33.249 27.7113 33.0475 27.4065 33.0094 27.0526C33.3906 26.5844 33.8809 26.2469 34.3711 25.9202C35.9887 24.8532 37.6391 23.8461 39.2132 22.7191C39.2731 22.6756 39.3439 22.6266 39.4147 22.6756C39.4801 22.7191 39.4529 22.7954 39.4365 22.8661C39.2949 23.5031 39.1261 24.1346 39.0117 24.777C38.8592 25.6154 38.7176 26.4592 38.5106 27.2867C38.3363 27.9781 38.0258 28.6205 37.6881 29.252C37.6391 29.3445 37.5683 29.4371 37.6391 29.5514C37.0944 30.2591 36.4681 30.8798 35.7219 31.3915C35.2589 31.7073 34.7905 32.0012 34.2785 32.2299C34.2077 32.2625 34.0987 32.3061 34.0824 32.2571C34.0552 32.1863 34.175 32.17 34.224 32.1482C34.8068 31.8542 35.3242 31.4623 35.7273 30.9723C36.1576 30.4551 36.5116 29.8672 36.8548 29.2792C37.0999 28.86 37.2578 28.4136 37.4648 27.9781C37.4866 27.9345 37.4812 27.8801 37.4866 27.8311C37.4485 27.8692 37.3995 27.8964 37.3722 27.94C37.0944 28.3864 36.8275 28.8382 36.5334 29.2738C36.2175 29.7474 35.8635 30.1993 35.5149 30.6511C35.0247 31.2881 34.3711 31.7073 33.7447 32.1646C33.3743 32.4368 32.9168 32.5348 32.5192 32.7525C32.4702 32.7797 32.3667 32.8124 32.334 32.7416C32.2959 32.6654 32.3776 32.6382 32.4429 32.6001C33.3525 32.0285 34.3166 31.5385 35.0519 30.7273C35.504 30.2319 35.8689 29.6712 36.1903 29.0832C36.2121 29.0451 36.2175 28.9743 36.2393 28.909C36.2447 28.8981 36.2502 28.8872 36.2611 28.8818C36.2611 28.8818 36.2611 28.8709 36.2556 28.8709C36.2502 28.8818 36.2447 28.8981 36.2393 28.909ZM38.4017 26.5735C38.3908 26.5354 38.4289 26.4592 38.3581 26.4429C38.2818 26.432 38.2927 26.5136 38.2818 26.5572C38.1783 26.9056 38.0803 27.2595 37.9714 27.6079C37.7372 28.3809 37.3232 29.0669 36.8875 29.7365C36.5988 30.1884 36.2665 30.613 35.9506 31.054C35.9343 31.0757 35.9125 31.1084 35.9234 31.1139C35.9615 31.1628 35.9724 31.1084 35.9942 31.0866C36.1521 30.9396 36.3264 30.809 36.4681 30.6457C37.1053 29.9271 37.5955 29.1104 37.9659 28.2285C38.1947 27.7059 38.369 27.1615 38.4017 26.5735ZM37.5193 24.2326C37.394 24.2162 37.3232 24.0801 37.1816 24.189C36.784 24.4939 36.4081 24.8369 35.9724 25.0982C35.8199 25.1907 35.6783 25.2996 35.6238 25.4847C35.6075 25.5337 35.6075 25.5881 35.5966 25.6426C35.6402 25.6208 35.6946 25.6045 35.7327 25.5718C36.2665 25.1091 36.833 24.6953 37.4212 24.3088C37.4539 24.287 37.4757 24.2652 37.5193 24.2326Z" fill="#ECE8E4"/>
<path d="M24.4907 27.0526C24.3872 27.3521 24.2783 27.6515 24.2184 27.9672C24.2075 28.0162 24.1911 28.1033 24.1748 28.1033C24.1094 28.1033 24.0877 28.0326 24.0495 27.9836C23.9079 27.8148 23.7608 27.646 23.6138 27.4773C23.5811 27.4392 23.543 27.3684 23.4885 27.4228C23.4449 27.4664 23.5103 27.5045 23.5375 27.5372C23.8534 27.9781 24.0114 28.4735 24.0059 29.0125C24.0059 29.056 24.0332 29.1159 23.9733 29.1377C23.9188 29.154 23.9025 29.0996 23.8752 29.0615C23.6519 28.7566 23.4177 28.4518 23.1889 28.1469C23.1508 28.0979 23.1072 28.0271 23.0473 28.0652C22.9874 28.1033 23.0364 28.1741 23.0637 28.2285C23.2489 28.577 23.4449 28.9199 23.6192 29.2738C23.799 29.6331 24.0277 29.9652 24.1094 30.3681C24.1203 30.4116 24.1312 30.4552 24.1367 30.4987C24.0985 30.4661 24.0441 30.4388 24.0168 30.3953C23.7608 29.9979 23.5212 29.5896 23.2543 29.1976C22.9765 28.7838 22.6824 28.3755 22.3937 27.9672C22.3665 27.9346 22.3392 27.8638 22.2848 27.8965C22.2249 27.9291 22.2848 27.9836 22.2957 28.0108C22.519 28.4626 22.7314 28.9145 22.9711 29.3555C23.3741 30.0959 23.848 30.7927 24.3436 31.4732C24.3654 31.5059 24.4471 31.5168 24.3818 31.5712C24.3328 31.6093 24.3219 31.544 24.2946 31.5222C23.5212 30.8526 23.0201 29.9815 22.5244 29.1159C22.1486 28.4572 21.8055 27.7767 21.446 27.1071C21.4405 27.1016 21.4405 27.0907 21.4405 27.0907C21.3915 27.0309 21.3425 26.971 21.2935 26.9056C21.3044 26.9819 21.2935 27.0581 21.3207 27.1234C21.5113 27.5916 21.7074 28.0598 21.8981 28.528C22.1704 29.1921 22.5026 29.8237 22.922 30.4062C23.1072 30.662 23.3033 30.907 23.4885 31.1629C23.5157 31.201 23.6247 31.2337 23.5539 31.299C23.5049 31.348 23.4504 31.2718 23.4014 31.2337C23.08 30.9669 22.7804 30.6838 22.4972 30.3789C22.1159 29.9652 21.7619 29.5297 21.4242 29.0887C21.397 29.056 21.3697 29.0288 21.3425 28.9962C21.3153 28.9635 21.2826 28.9254 21.2444 28.9635C21.2063 28.9962 21.2553 29.0179 21.2717 29.0452C21.495 29.4861 21.751 29.9053 22.0451 30.3027C22.7151 31.2173 23.6628 31.789 24.6051 32.366C24.7903 32.4803 24.9755 32.6001 25.1607 32.7253C25.2042 32.7526 25.2587 32.7689 25.2696 32.8342C25.2151 32.8342 25.1607 32.8451 25.1116 32.8288C24.5942 32.6165 24.0768 32.4041 23.6083 32.0884C22.6987 31.4732 21.9253 30.7219 21.2989 29.8182C20.8959 29.2357 20.5091 28.6423 20.1605 28.0271C20.1224 27.9672 20.0734 27.8529 20.0189 27.8856C19.9536 27.9291 20.0189 28.0326 20.0462 28.1033C20.4057 29.0669 20.9612 29.9108 21.5713 30.7219C22.1541 31.495 22.9003 32.0448 23.8044 32.3824C23.8262 32.3878 23.8425 32.4096 23.8589 32.4259C23.8099 32.4259 23.7608 32.4422 23.7173 32.4259C23.4068 32.3116 23.0909 32.2081 22.7968 32.0612C22.4536 31.8924 22.1159 31.7019 21.8327 31.4405C21.5658 31.1956 21.4296 30.858 21.2009 30.5804C20.7052 29.9706 20.2423 29.3391 19.9046 28.6205C19.6703 28.1142 19.4416 27.6079 19.3272 27.0581C19.3272 27.0526 19.3272 27.0417 19.3217 27.0363C19.24 26.9546 19.2618 26.7314 19.1366 26.7695C19.0385 26.7968 19.1311 26.9764 19.1475 27.0907C19.2128 27.6134 19.4035 28.0924 19.6322 28.5552C20.0516 29.4208 20.5418 30.2428 21.239 30.9288C21.2717 30.9615 21.2935 30.9996 21.3207 31.0377C21.2499 31.0758 21.2227 31.0105 21.1845 30.9832C20.8686 30.7219 20.5527 30.4552 20.3131 30.1231C20.3022 30.1067 20.2858 30.0959 20.2749 30.0795L20.2804 30.085C20.2695 30.0523 20.2695 30.0196 20.2477 29.987C20.0298 29.6222 19.7793 29.2738 19.5995 28.8927C19.1801 28.0108 18.8533 27.0907 18.7008 26.1163C18.5374 25.0329 18.3468 23.9495 18.02 22.8988C17.9927 22.8117 18.0145 22.7573 18.0799 22.7028C18.1507 22.6484 18.2052 22.6811 18.2596 22.7246C18.6137 22.975 18.9677 23.22 19.3272 23.465C19.3708 23.4977 19.4361 23.5195 19.398 23.5848C19.3653 23.6447 19.3054 23.6283 19.2564 23.5848C19.2183 23.5521 19.1583 23.5195 19.1311 23.563C19.0821 23.6338 19.1801 23.6392 19.2128 23.6664C19.861 24.151 20.52 24.63 21.1682 25.12C21.5386 25.4031 21.8926 25.7025 22.2575 25.9965C22.2793 26.0128 22.3011 26.0673 22.3338 26.0292C22.3501 26.0128 22.3447 25.9584 22.3338 25.9366C22.165 25.708 22.0451 25.4412 21.7891 25.2724C21.3861 25.0111 21.0048 24.7171 20.6126 24.4395C20.5582 24.4014 20.4928 24.3687 20.5146 24.2816L20.52 24.2762C21.0102 24.4885 21.4024 24.8532 21.8545 25.1254C22.3066 25.3976 22.726 25.7134 23.178 25.9856C23.6628 26.3014 24.0985 26.6552 24.4907 27.0526Z" fill="#ECE8E4"/>
<path d="M28.3252 17.8848C27.933 17.8032 27.4374 17.1553 27.3666 16.8014C27.2685 16.3224 27.274 15.8596 27.4319 15.4132C27.5899 14.9559 27.8895 14.5585 28.0964 14.123C28.2544 13.7963 28.4995 13.5132 28.603 13.1539C28.6193 13.0886 28.6574 13.0668 28.7065 13.0396C28.7718 13.007 28.7936 13.0559 28.8263 13.1049C29.0224 13.4534 29.2076 13.8018 29.42 14.1339C29.6488 14.4877 29.8503 14.8634 29.9973 15.2553C30.237 15.8923 30.3133 16.551 29.9538 17.1825C29.774 17.4983 29.5289 17.765 29.1477 17.8467C29.2402 17.3023 29.1422 16.7797 28.9243 16.2788C28.8808 16.1754 28.8481 16.023 28.7283 16.023C28.6193 16.023 28.5649 16.1591 28.5322 16.257C28.3361 16.7851 28.1945 17.3186 28.3252 17.8848Z" fill="#ECE8E4"/>
<path d="M33.0584 21.7447C33.2164 21.7392 33.2545 21.8209 33.2599 21.9733C33.2654 22.4197 33.2872 22.8661 33.309 23.318C33.309 23.3724 33.2817 23.465 33.3634 23.4704C33.4451 23.4704 33.4506 23.3779 33.456 23.3125C33.4669 22.8661 33.4778 22.4197 33.4778 21.9679C33.4778 21.8481 33.4941 21.7392 33.5758 21.6467C33.6793 22.0658 33.5813 22.4796 33.5541 22.8933C33.5159 23.5085 33.505 24.1291 33.4996 24.7443C33.4941 24.9675 33.456 25.1581 33.2654 25.2942C33.2327 25.3159 33.2164 25.3704 33.1728 25.3432C33.1456 25.3268 33.1292 25.2778 33.1347 25.2397C33.151 25.0056 33.1183 24.7824 33.102 24.5483C33.0747 24.0693 33.0203 23.5902 33.0312 23.1166C33.0366 22.6647 33.0094 22.202 33.0584 21.7447Z" fill="#ECE8E4"/>
<path d="M30.0137 23.3506C29.7305 22.9696 29.9647 22.5776 30.0028 22.1965C30.0192 22.0495 29.9919 21.8807 30.1009 21.7501C30.139 21.7065 30.1281 21.6085 30.2043 21.6303C30.2425 21.6412 30.2643 21.7283 30.2752 21.7828C30.3732 22.2999 30.5203 22.8062 30.6946 23.3016C30.7763 23.5357 30.9288 23.7426 30.9233 24.0039C30.9179 24.091 30.9288 24.1836 30.8689 24.2544C30.5529 23.9876 30.2752 23.6773 30.0137 23.3506Z" fill="#ECE8E4"/>
<path d="M32.1706 23.1057C32.1815 23.6936 32.1924 24.2816 32.2033 24.875C32.2033 24.9131 32.2087 24.9458 32.2142 24.9839C32.2196 24.9512 32.2196 24.9186 32.2305 24.8859C32.4647 24.1237 32.383 23.3343 32.4102 22.5558C32.4102 22.5123 32.3993 22.4415 32.4593 22.4361C32.541 22.4306 32.5192 22.5123 32.5192 22.5613C32.541 23.1601 32.5791 23.7535 32.5682 24.3524C32.5627 24.5865 32.688 24.7716 32.7044 24.9948C32.7044 25.0165 32.7697 25.0274 32.8078 25.0438C32.8133 25.2506 32.8242 25.463 32.8187 25.6698C32.8133 25.8767 32.6009 25.9801 32.5355 26.1598C32.5192 26.2034 32.4538 26.1707 32.4375 26.138C32.334 25.9039 32.1379 25.7243 32.1488 25.4249C32.1815 24.6518 32.1651 23.8787 32.1706 23.1057Z" fill="#ECE8E4"/>
<path d="M26.6585 24.2108C26.5714 24.1183 26.555 24.0257 26.5931 23.9005C26.7565 23.3289 27.0125 22.7899 27.1051 22.1965C27.1269 22.055 27.1596 21.9189 27.1923 21.7828C27.2086 21.7283 27.2304 21.6521 27.3067 21.663C27.372 21.6684 27.3884 21.7338 27.3993 21.7828C27.4428 22.0332 27.53 22.2782 27.5463 22.5395C27.5572 22.7681 27.5899 22.9913 27.6171 23.22C27.2958 23.5466 26.9799 23.8787 26.6585 24.2108Z" fill="#ECE8E4"/>
<path d="M24.6541 24.8695C24.7304 24.9512 24.6595 25.0655 24.7086 25.1526C24.7195 25.0546 24.7467 24.9566 24.8012 24.8695C24.8665 24.7715 24.8774 24.6572 24.8829 24.5429C24.8992 23.8896 24.8883 23.2309 24.97 22.5776C24.9755 22.5286 24.9482 22.4415 25.0136 22.4415C25.0953 22.4469 25.0572 22.5395 25.0626 22.5885C25.0898 23.2146 25.0354 23.8515 25.1443 24.4721C25.1552 24.532 25.1552 24.5919 25.2042 24.6409C25.226 24.6627 25.2369 24.7008 25.2478 24.7334C25.2641 24.6953 25.275 24.6627 25.2914 24.6246C25.2968 24.9458 25.3023 25.2615 25.3023 25.5827C25.3023 25.8059 25.1443 25.9584 25.0463 26.138C25.0027 26.2142 24.9428 26.1543 24.9047 26.1053C24.7031 25.8604 24.5996 25.5936 24.6487 25.267C24.665 25.1417 24.6541 25.0002 24.6541 24.8695Z" fill="#ECE8E4"/>
<path d="M31.0104 24.4122C30.9941 23.7861 31.0758 23.171 31.103 22.5449C31.103 22.5068 31.0921 22.4524 31.1412 22.4469C31.1521 22.4469 31.1902 22.5068 31.1956 22.5395C31.2446 22.8171 31.31 23.0893 31.3209 23.367C31.3263 23.5684 31.408 23.7426 31.4189 23.9386C31.4189 23.9549 31.4516 23.993 31.4625 23.9876C31.5115 23.9712 31.4952 23.9222 31.4952 23.8841C31.5006 23.5248 31.5006 23.1655 31.5061 22.8062C31.5061 22.7736 31.5224 22.7409 31.5279 22.7082C31.5333 22.7409 31.5442 22.7681 31.5497 22.8008C31.6259 23.073 31.5333 23.3724 31.6586 23.6392C31.6749 23.6773 31.6804 23.7208 31.7349 23.7045C31.7403 24.1019 31.7403 24.5048 31.7457 24.9022C31.7457 24.9729 31.7457 25.0437 31.664 25.0655C31.5932 25.0818 31.5606 25.0274 31.5224 24.9784C31.3536 24.7933 31.1793 24.6028 31.0104 24.4122Z" fill="#ECE8E4"/>
<path d="M23.9569 23.3833C24.1094 23.4541 24.1693 23.3942 24.1693 23.2363C24.1693 22.8171 24.1693 22.3979 24.1693 21.9787C24.1693 21.9406 24.1475 21.8807 24.202 21.8753C24.2565 21.8699 24.2292 21.9352 24.2456 21.9678C24.3763 22.2019 24.3545 22.4687 24.4035 22.7191C24.4199 23.5738 24.4144 24.4286 24.3545 25.2833C24.3545 25.3105 24.3382 25.354 24.3164 25.3649C24.2783 25.3867 24.2674 25.3432 24.2401 25.3268C24.0713 25.2071 23.9896 25.0601 23.995 24.8423C23.995 24.3578 23.9678 23.8733 23.9569 23.3833Z" fill="#ECE8E4"/>
<path d="M25.6726 23.9821C25.8742 23.9277 25.8415 23.7481 25.8578 23.612C25.885 23.3615 25.8796 23.1111 25.8905 22.8607C25.8905 22.8171 25.8796 22.73 25.9613 22.7409C26.0103 22.7464 25.994 22.8226 25.994 22.8661C25.9994 23.3887 26.0103 23.9114 26.0103 24.434C26.0103 24.5701 26.0158 24.7008 26.0594 24.8314C26.0485 25.0002 25.8578 25.0056 25.7816 25.1308C25.7489 25.1798 25.7108 25.0873 25.7053 25.0383C25.6944 24.679 25.6835 24.3306 25.6726 23.9821Z" fill="#ECE8E4"/>
<path d="M26.2337 24.6028C26.2173 24.5756 26.1901 24.5429 26.1901 24.5157C26.1792 23.8679 26.1411 23.2146 26.2664 22.5722C26.2772 22.5286 26.25 22.4524 26.3263 22.4524C26.3372 22.4524 26.3535 22.5341 26.3589 22.5776C26.3971 23.1928 26.4352 23.8025 26.4679 24.4177C26.408 24.5048 26.3263 24.5592 26.2337 24.6028Z" fill="#ECE8E4"/>
<path d="M33.9571 22.055C33.9408 21.81 33.9571 21.565 34.0279 21.3309C34.0334 21.3091 34.0497 21.2656 34.0606 21.2656C34.1096 21.2656 34.1042 21.3037 34.1042 21.3364C34.1151 21.5596 34.1314 21.7828 34.1423 22.006C34.0878 22.0223 34.0225 22.0386 33.9571 22.055Z" fill="#ECE8E4"/>
<path d="M31.9909 29.6113C31.98 28.7076 31.6532 27.8964 31.2338 27.1179C31.1466 26.9546 31.0595 26.7913 30.9778 26.6334C31.0595 26.6334 31.1248 26.666 31.163 26.7314C31.4952 27.2649 31.8438 27.793 32.029 28.4027C32.2142 29.007 32.1543 29.6167 32.0236 30.221C32.0181 30.2373 32.0127 30.2591 32.0018 30.2754C32.0018 30.2537 32.0018 30.2265 32.0018 30.2047C31.9963 30.0032 31.9909 29.8073 31.9909 29.6113Z" fill="#ECE8E4"/>
<path d="M26.5223 26.579C26.25 27.0744 25.9668 27.5698 25.7652 28.1033C25.5855 28.577 25.4711 29.056 25.5038 29.5623C25.3513 29.6222 25.3948 29.497 25.3894 29.4317C25.2914 28.7185 25.4983 28.0761 25.8578 27.4773C26.0321 27.1887 26.2119 26.9002 26.397 26.6171C26.4079 26.6062 26.4352 26.4266 26.5223 26.579Z" fill="#ECE8E4"/>
<path d="M38.4017 26.5735C38.369 27.1615 38.1947 27.7059 37.9714 28.2339C37.601 29.1159 37.1054 29.9325 36.4735 30.6511C36.3319 30.8144 36.1576 30.9451 35.9997 31.0921C35.9779 31.1084 35.967 31.1628 35.9289 31.1193C35.9234 31.1138 35.9452 31.0757 35.9561 31.0594C36.2666 30.6239 36.5988 30.1938 36.8929 29.7419C37.3232 29.0723 37.7372 28.3918 37.9768 27.6133C38.0858 27.2649 38.1838 26.9165 38.2873 26.5626C38.3036 26.5136 38.2927 26.432 38.3636 26.4483C38.4289 26.4592 38.3908 26.5354 38.4017 26.5735Z" fill="#ECE8E4"/>
<path d="M36.2393 28.909C36.2447 28.8927 36.2502 28.8818 36.2557 28.8655C36.2557 28.8709 36.2611 28.8764 36.2611 28.8764C36.2502 28.8927 36.2447 28.8981 36.2393 28.909Z" fill="#4A4A4F"/>
</svg>
