<svg width="45" height="38" viewBox="0 0 45 38" fill="none" xmlns="http://www.w3.org/2000/svg">
<path d="M14.8859 11.9296C14.8859 11.1872 14.9307 10.4384 14.8731 9.70239C14.8154 8.94717 15.206 8.49276 15.7823 8.14075C16.8709 7.47514 18.0939 7.21273 19.3362 7.03353C19.3682 7.02713 19.4002 7.03353 19.4322 7.02713C19.9317 6.92473 19.9381 6.92473 19.9381 6.38711C19.9381 5.6447 20.1814 4.98548 20.5592 4.35827C21.238 3.21264 21.9231 2.06701 22.3458 0.793381C22.4034 0.614176 22.4866 0.447773 22.5635 0.274969C22.5763 0.242968 22.6019 0.198167 22.6339 0.191767C22.6851 0.178966 22.6851 0.236568 22.6979 0.268568C23.1013 1.4142 23.6648 2.48302 24.2732 3.53265C24.6574 4.19186 25.0736 4.83828 25.2465 5.59989C25.3361 5.9903 25.3169 6.38711 25.3169 6.77752C25.3169 6.93113 25.3617 6.97593 25.5218 6.99513C26.9049 7.12313 28.2496 7.38554 29.4662 8.10235C30.0682 8.46076 30.4588 8.92797 30.4331 9.71519C30.3883 11.2512 30.4203 12.7809 30.4139 14.3169C30.4139 14.4769 30.3883 14.6305 30.4396 14.7841C30.5548 14.6945 30.6701 14.6049 30.7917 14.5153C31.9635 13.6449 33.3018 13.1713 34.7042 12.8449C35.6262 12.6273 36.5739 12.4929 37.4768 12.1856C37.5408 12.1664 37.6305 12.1601 37.6817 12.1921C37.7393 12.2305 37.6881 12.3073 37.6561 12.3585C36.9581 13.5105 36.5996 14.7841 36.3242 16.0833C36.1065 17.1138 35.9464 18.1506 35.7351 19.1874C35.6583 19.5586 35.5302 19.9234 35.4277 20.2882C35.3957 20.3906 35.3701 20.4418 35.5302 20.4162C36.6316 20.2306 37.7265 20.2242 38.8279 20.4162C39.321 20.5058 39.8268 20.5186 40.3007 20.7107C40.3647 20.7363 40.4351 20.7619 40.4992 20.8003C40.5376 20.8195 40.6016 20.8579 40.6016 20.8835C40.5952 20.9475 40.5248 20.9475 40.4736 20.9539C39.8909 21.0371 39.3274 21.1971 38.7831 21.4211C38.7511 21.4339 38.719 21.4595 38.6934 21.4787C38.7319 21.4851 38.7703 21.4979 38.8087 21.4851C39.1801 21.4019 39.5515 21.2995 39.9229 21.2419C40.6593 21.1203 41.402 21.0115 42.0936 21.4403C42.1064 21.4467 42.1256 21.4531 42.1384 21.4659C42.2281 21.5427 42.3882 21.6131 42.3882 21.6899C42.3946 21.7987 42.2153 21.7987 42.1192 21.8371C41.5877 22.0611 41.0627 22.2979 40.5888 22.6371C40.5184 22.6883 40.3519 22.7331 40.4415 22.8675C40.5248 22.9827 40.6464 23.0083 40.7937 22.9187C41.5557 22.4259 42.3689 22.0419 43.2718 21.8947C43.6624 21.8307 44.053 21.8435 44.4308 22.0035C44.5269 22.0419 44.6101 22.0867 44.6101 22.1955C44.6101 22.3043 44.5013 22.2915 44.4308 22.3171C43.4703 22.7651 42.6251 23.3731 41.8311 24.0643C41.7222 24.1603 41.8311 24.1795 41.8631 24.2179C42.5034 25.0308 43.0157 25.9204 43.2334 26.9444C43.3038 27.2708 43.323 27.61 43.3487 27.9492C43.3551 28.0708 43.2398 28.058 43.1566 28.058C42.6635 28.0388 42.1768 27.9364 41.6774 27.9044C41.1011 27.866 40.5312 27.8724 39.9549 27.9236C39.3082 27.9812 38.6678 28.0964 38.0467 28.2948C37.9955 28.314 37.9122 28.3076 37.9058 28.3652C37.893 28.442 37.9891 28.4484 38.0403 28.474C38.2004 28.5444 38.3733 28.5956 38.5398 28.6532C38.4053 28.7556 38.258 28.8388 38.1363 28.9541C37.8738 29.2037 37.5216 29.3317 37.2783 29.6069C37.2143 29.6773 37.1951 29.7029 37.2399 29.8373C37.4704 30.4517 37.6689 31.0853 37.797 31.7381C37.9314 32.4677 37.9571 33.2037 37.8418 33.9334C37.8034 34.1894 37.6433 34.0614 37.5408 33.991C37.0478 33.639 36.5291 33.3317 35.9848 33.0693C34.8642 32.5253 33.6796 32.3397 32.4502 32.4421C32.1108 32.4677 31.765 32.5125 31.4577 32.6853C31.4193 32.7045 31.3552 32.6981 31.3616 32.7621C31.3616 32.7685 31.4321 32.7749 31.4705 32.7749C31.9892 32.7749 32.5142 32.7557 33.0329 32.7685C33.5132 32.7749 33.987 32.8453 34.4544 32.9605C34.4929 32.9733 34.5313 33.0053 34.5697 33.0309C34.5441 33.0501 34.5249 33.0757 34.4993 33.0949C33.4747 33.7542 32.4502 34.4198 31.3424 34.9382C29.6583 35.719 27.9102 36.295 26.0725 36.6022C25.3745 36.7174 24.6702 36.8006 23.9722 36.8902C23.8826 36.903 23.7545 36.9094 23.7097 36.8582C23.6456 36.7878 23.7609 36.7046 23.7993 36.6342C24.1387 35.9814 24.6445 35.4502 25.112 34.887C25.4834 34.439 25.7971 33.9526 26.0661 33.4406C26.0981 33.3766 26.1173 33.3061 26.1365 33.2357C26.1621 33.1205 26.1045 33.0117 26.0149 32.9733C25.9188 32.9285 25.8996 33.0565 25.8676 33.1205C25.3361 34.0422 24.6509 34.8422 23.985 35.6678C23.5304 36.2374 23.2102 36.8838 23.0053 37.5815C22.9733 37.6903 22.9477 37.8375 22.762 37.8055C22.5827 37.7735 22.3458 37.8951 22.2753 37.6071C21.968 36.3654 21.1419 35.4438 20.3671 34.4902C20.0277 34.0806 19.7332 33.6454 19.4707 33.1845C19.4194 33.0949 19.3746 32.9285 19.2593 32.9861C19.1633 33.0309 19.1697 33.1909 19.2081 33.3125C19.317 33.671 19.5347 33.9782 19.7332 34.2854C20.0598 34.7846 20.4632 35.2198 20.841 35.6806C21.0843 35.975 21.302 36.2886 21.4813 36.6214C21.5197 36.6982 21.5453 36.7814 21.5774 36.8582C21.4877 36.8646 21.3917 36.8966 21.302 36.8838C20.7897 36.8262 20.2711 36.7686 19.7588 36.6918C18.651 36.519 17.5625 36.2822 16.4995 35.9302C14.8218 35.3734 13.2402 34.6246 11.7611 33.6646C11.4729 33.479 11.1848 33.287 10.8966 33.1077C10.8454 33.0757 10.7878 33.0565 10.8006 32.9925C10.8134 32.9285 10.8774 32.9605 10.9222 32.9541C11.5818 32.8069 12.2477 32.7109 12.9201 32.7493C13.2082 32.7685 13.4964 32.8773 13.7845 32.7685C13.8293 32.7493 13.887 32.7493 13.9382 32.7429C13.9254 32.6597 13.8613 32.6277 13.7845 32.6149C13.4579 32.5509 13.1314 32.4421 12.7984 32.4229C11.8379 32.3781 10.8902 32.4293 9.97453 32.8005C9.25095 33.0949 8.54019 33.4086 7.91266 33.8886C7.84222 33.9398 7.77819 34.0166 7.69495 34.0358C7.56688 34.0678 7.43881 34.1254 7.42601 33.8694C7.4068 33.3446 7.37478 32.8261 7.4196 32.3013C7.49004 31.4373 7.72056 30.6181 8.07274 29.8309C8.12397 29.7157 8.15599 29.6645 8.01511 29.5749C7.61811 29.3253 7.24671 29.0436 6.86251 28.7876C6.80488 28.7492 6.74725 28.7108 6.74085 28.6532C6.74085 28.5636 6.8369 28.5956 6.88813 28.5764C7.06102 28.506 7.23391 28.442 7.4068 28.378C7.24671 28.2628 7.04181 28.2564 6.86251 28.2116C5.65229 27.9044 4.41644 27.8148 3.1678 27.9236C2.85403 27.9492 2.54667 28.0132 2.23291 28.058C2.04721 28.09 1.93836 28.0836 1.93836 27.8212C1.95757 26.4836 2.54667 25.3828 3.33428 24.3587C3.42393 24.2435 3.51998 24.1603 3.35349 24.0195C2.54027 23.3539 1.70784 22.7075 0.721726 22.3107C0.548836 22.2403 0.606466 22.1763 0.696113 22.1059C1.06751 21.8243 1.49653 21.8435 1.91915 21.8947C2.86684 22.0099 3.69927 22.4515 4.50609 22.9315C4.64056 23.0147 4.74942 23.0083 4.83906 22.8931C4.95432 22.7395 4.77503 22.7267 4.711 22.6819C4.17312 22.3043 3.58401 22.0227 2.96929 21.7859C2.90526 21.7603 2.86044 21.7347 2.85403 21.6579C2.84763 21.5747 2.91166 21.5683 2.96289 21.5427C3.04613 21.5043 3.13578 21.4787 3.21262 21.4339C4.03225 20.9539 4.88389 21.2035 5.72913 21.3315C6.0685 21.3827 6.39507 21.4851 6.72804 21.5619C6.76006 21.5683 6.79208 21.5683 6.82409 21.5683C6.79208 21.5491 6.76647 21.5171 6.73445 21.5107C6.08771 21.3059 5.44738 21.0691 4.76863 20.9731C4.711 20.9667 4.64696 20.9667 4.62775 20.9091C4.62135 20.8899 4.70459 20.8451 4.74942 20.8259C5.47299 20.461 6.21578 20.3842 6.98418 20.6659C7.12505 20.7171 7.26592 20.7555 7.4132 20.7171C7.29154 20.6275 7.15066 20.6275 7.00979 20.5954C6.89453 20.5698 6.77927 20.5314 6.66401 20.5058C6.58717 20.493 6.49752 20.5122 6.46551 20.4162C6.53594 20.3906 6.61278 20.3522 6.68322 20.3522C7.70135 20.3138 8.71948 20.2242 9.7248 20.4418C9.87848 20.4738 9.9169 20.429 9.86567 20.2946C9.48788 19.3026 9.37262 18.2594 9.18692 17.2226C9.03964 16.3842 8.82833 15.5585 8.60422 14.7393C8.36729 13.9009 8.06634 13.0945 7.61811 12.3521C7.59249 12.3137 7.58609 12.2689 7.57328 12.2241C7.62451 12.2113 7.68214 12.1857 7.72696 12.1921C7.92547 12.2369 8.12397 12.2817 8.31607 12.3393C9.1485 12.6145 10.0258 12.6913 10.8646 12.9089C11.9916 13.1905 13.0673 13.6001 14.0598 14.2145C14.2968 14.3617 14.5145 14.5345 14.7386 14.6945C14.777 14.7201 14.8282 14.7649 14.8603 14.7521C14.9307 14.7329 14.8923 14.6561 14.8923 14.6049C14.8923 13.7153 14.8923 12.8321 14.8923 11.9424C14.8923 11.9296 14.8859 11.9296 14.8859 11.9296ZM30.8494 15.6993C31.0863 15.5521 31.3168 15.3921 31.5601 15.2513C32.0788 14.9633 32.5591 14.6241 33.0009 14.2401C33.0393 14.2081 33.1161 14.1825 33.1033 14.1057C33.0521 14.1185 32.9945 14.1249 32.9497 14.1441C32.1044 14.4705 31.4129 14.9953 30.8238 15.6737C30.7981 15.6801 30.7725 15.6929 30.7469 15.6993C30.7853 15.6993 30.8173 15.6993 30.8494 15.6993ZM12.6895 22.7203C12.7023 22.7395 12.7216 22.7523 12.7344 22.7715C13.0161 23.1683 13.3875 23.4755 13.7589 23.7827C13.8037 23.8211 13.8357 23.8979 13.919 23.8467C13.887 23.8019 13.8549 23.7571 13.8229 23.7187C13.0033 22.9187 12.427 21.9459 11.9339 20.9283C11.6714 20.3842 11.4409 19.821 11.3641 19.2066C11.3448 19.0722 11.236 18.861 11.3512 18.829C11.4985 18.7842 11.4729 19.0466 11.569 19.1426C11.5754 19.149 11.569 19.1554 11.5754 19.1682C11.7098 19.8146 11.9788 20.4162 12.2541 21.0051C12.6447 21.8435 13.189 22.5923 13.7781 23.3091C14.047 23.6355 14.2071 24.0323 14.5209 24.3203C14.8603 24.6275 15.2509 24.8516 15.6543 25.05C16.0001 25.2228 16.3715 25.3444 16.7364 25.4788C16.7813 25.498 16.8453 25.4788 16.9029 25.4788C16.8837 25.4596 16.8645 25.4404 16.8389 25.4276C15.7759 25.0308 14.8987 24.3843 14.2135 23.4755C13.4964 22.5219 12.8432 21.5235 12.4206 20.397C12.3886 20.3074 12.3117 20.1858 12.3886 20.141C12.4462 20.1026 12.5102 20.237 12.5551 20.3074C12.9649 21.0307 13.4195 21.7283 13.8934 22.4131C14.6297 23.4755 15.5326 24.3651 16.6084 25.082C17.1591 25.4532 17.7674 25.7028 18.3757 25.9524C18.4269 25.9716 18.4974 25.9588 18.5614 25.9588C18.555 25.882 18.4845 25.8628 18.4333 25.8308C18.2156 25.69 18.0043 25.5428 17.7802 25.4084C16.6724 24.7299 15.5582 24.0579 14.7706 22.9827C14.4312 22.5155 14.1303 22.0227 13.8613 21.5043C13.8421 21.4723 13.7909 21.4403 13.8293 21.4083C13.8806 21.3635 13.9126 21.4147 13.9446 21.4467C13.9766 21.4851 14.0086 21.5171 14.0406 21.5555C14.444 22.0803 14.8539 22.5923 15.3021 23.0723C15.6351 23.4371 15.9937 23.7635 16.365 24.0771C16.4163 24.1219 16.4803 24.2115 16.5443 24.1539C16.6276 24.0771 16.4995 24.0387 16.4675 23.9939C16.2498 23.6931 16.0193 23.4051 15.8016 23.1043C15.3085 22.4195 14.9179 21.6771 14.5977 20.8963C14.3736 20.3458 14.1367 19.7954 13.919 19.245C13.887 19.1682 13.8934 19.0722 13.887 18.989C13.9446 19.0594 14.0022 19.1298 14.0598 19.2066C14.0663 19.213 14.0663 19.2194 14.0663 19.2258C14.4889 20.013 14.8923 20.8131 15.3341 21.5875C15.9168 22.6051 16.5059 23.6291 17.4152 24.4163C17.4472 24.4419 17.46 24.5187 17.5176 24.4739C17.6009 24.4099 17.4984 24.3907 17.4728 24.3587C16.8901 23.5587 16.333 22.7395 15.8592 21.8691C15.5774 21.3507 15.3213 20.8195 15.0652 20.2882C15.046 20.2562 14.9755 20.1922 15.0524 20.1538C15.1164 20.1218 15.1484 20.1986 15.1804 20.237C15.5198 20.7171 15.8656 21.1907 16.1922 21.6835C16.4995 22.1443 16.7877 22.6243 17.0886 23.0915C17.1206 23.1427 17.1783 23.1747 17.2295 23.2131C17.2167 23.1619 17.2039 23.1107 17.1975 23.0595C17.1014 22.5859 16.8261 22.1955 16.6212 21.7731C16.4163 21.3571 16.1858 20.9539 15.968 20.5443C15.936 20.4802 15.8784 20.397 15.9488 20.3522C16.0193 20.3074 16.0705 20.3906 16.1153 20.4482C16.3843 20.8067 16.6532 21.1651 16.9221 21.5235C16.9542 21.5683 16.9734 21.6323 17.0374 21.6131C17.1078 21.5875 17.0758 21.5171 17.0758 21.4659C17.0822 20.8259 16.8965 20.2498 16.5251 19.7314C16.4995 19.693 16.4163 19.6418 16.4675 19.597C16.5379 19.533 16.5764 19.6162 16.6148 19.661C16.7877 19.8594 16.9606 20.0578 17.127 20.2562C17.1719 20.3074 17.1911 20.397 17.2743 20.397C17.2935 20.397 17.3127 20.2946 17.3255 20.237C17.396 19.8658 17.524 19.5202 17.6457 19.1618C17.7418 19.0402 17.8442 18.9442 17.6905 18.7778C16.7621 17.7858 15.6543 17.037 14.4633 16.4033C13.2915 15.7825 12.1709 15.0849 11.1848 14.1889C10.7045 13.7537 10.141 13.4913 9.50068 13.3825C9.39183 13.3633 9.3406 13.3697 9.39183 13.5233C9.5199 13.8817 9.60314 14.2593 9.7184 14.6241C10.141 15.9745 10.3075 17.3762 10.6149 18.7522C10.9606 20.2562 11.6266 21.5939 12.6895 22.7203ZM11.8315 23.5395C11.8443 23.5523 11.8507 23.5715 11.8635 23.5843C11.8699 23.5779 11.8763 23.5715 11.8763 23.5651C11.8635 23.5587 11.8443 23.5459 11.8315 23.5395C11.6458 23.3475 11.3897 23.3859 11.1591 23.3539C10.5892 23.2643 10.013 23.1875 9.44305 23.1043C9.41744 23.0979 9.37262 23.0723 9.37262 23.0531C9.36621 22.9955 9.42384 23.0211 9.44946 23.0147C10.0001 22.9059 10.5572 22.8547 11.1207 22.8675C11.172 22.8675 11.3192 22.9123 11.2744 22.8163C11.2232 22.6819 11.1591 22.4963 10.967 22.4899C10.3907 22.4707 9.80164 22.4899 9.25095 22.6499C7.58609 23.1363 6.19657 24.0515 5.0952 25.402C5.00555 25.5108 4.92871 25.6324 4.84547 25.7476C4.97994 25.8308 5.11441 25.754 5.25528 25.7412C5.2937 25.7348 5.33212 25.7412 5.37694 25.7412C5.82518 25.7284 6.27341 25.722 6.71524 25.7092C6.76646 25.7092 6.88813 25.722 6.85611 25.6452C6.77287 25.4532 6.91374 25.53 6.97137 25.5428C7.27873 25.6068 7.57969 25.6772 7.88064 25.7412C8.22002 25.818 8.5594 25.882 8.91158 25.8948C8.9436 25.8948 8.97561 25.8884 9.00123 25.882C8.97561 25.8692 8.95 25.8436 8.92438 25.8372C8.43773 25.7476 7.9831 25.5556 7.51565 25.4148C7.15707 25.306 6.77927 25.2228 6.4527 25.0244C6.40788 24.9988 6.34384 24.9604 6.36946 24.8964C6.38226 24.8772 6.4591 24.8772 6.50393 24.8772C7.57969 24.9668 8.61703 25.3252 9.71199 25.2548C9.73761 25.2548 9.76322 25.242 9.79524 25.242C9.76962 25.2228 9.75041 25.2036 9.7248 25.1908C9.25095 25.0244 8.7707 24.8644 8.29686 24.6979C8.07274 24.6211 7.84863 24.5379 7.63091 24.4547C7.57969 24.4355 7.52846 24.3907 7.56048 24.3267C7.58609 24.2691 7.64372 24.2947 7.68854 24.3011C7.9831 24.3459 8.28405 24.3715 8.5722 24.4419C9.3406 24.6211 10.1026 24.826 10.871 24.9924C11.1399 25.05 11.4281 25.2356 11.7162 25.018C11.7547 24.9924 11.7867 24.9604 11.8251 24.9284C11.7803 24.9092 11.7354 24.8772 11.6842 24.8708C10.6789 24.6211 9.7184 24.1923 8.70667 23.9619C8.67466 23.9555 8.64264 23.9235 8.61062 23.9043C8.64904 23.8979 8.68746 23.8851 8.72588 23.8915C9.16131 23.9491 9.59673 24.0067 10.0322 24.0643C10.8326 24.1667 11.6202 24.3331 12.4078 24.4931C12.5679 24.5251 12.6511 24.4035 12.7792 24.3779C12.728 24.2755 12.6191 24.2691 12.5295 24.2307C12.491 24.2179 12.4526 24.2115 12.4142 24.1987C11.7611 24.0003 11.1079 23.8083 10.4548 23.6099C10.3971 23.5907 10.3459 23.5523 10.2883 23.5267C10.3459 23.4563 10.4228 23.5075 10.474 23.5203C10.9222 23.5715 11.3769 23.5331 11.8315 23.5395ZM22.1537 8.37116C22.2945 8.50556 22.4162 8.71037 22.5827 8.74877C22.794 8.79997 22.8644 8.50556 23.0245 8.39676C23.0565 8.37756 23.0821 8.35196 23.1142 8.33276C23.5624 8.23676 23.8505 7.92315 24.0618 7.55194C24.4845 6.80952 24.4012 6.03511 24.1131 5.28629C23.9402 4.82548 23.7033 4.39027 23.4343 3.96786C23.1782 3.57745 22.9605 3.16144 22.7364 2.75823C22.6979 2.69423 22.6723 2.64302 22.5955 2.68143C22.5443 2.70703 22.4994 2.73903 22.4738 2.81583C22.3586 3.23184 22.0704 3.56465 21.8783 3.95506C21.6286 4.46707 21.2828 4.93428 21.0971 5.47189C20.9114 6.0031 20.905 6.54072 21.0203 7.10393C21.1099 7.51354 21.6926 8.27516 22.1537 8.37116ZM27.1803 22.0227C27.2315 21.7539 27.2315 21.4787 27.1867 21.2099C27.1354 20.5506 26.9497 19.9234 26.6808 19.3154C26.2326 18.3042 25.477 17.5234 24.7214 16.749C24.0042 16.0129 23.255 15.2961 22.7684 14.3681C22.7299 14.2977 22.7235 14.1697 22.6403 14.1697C22.5891 14.1697 22.5314 14.2913 22.493 14.3681C22.0128 15.2897 21.2828 16.0065 20.572 16.7362C20.175 17.1394 19.778 17.5426 19.4194 17.9842C18.7215 18.8546 18.254 19.8402 18.1068 20.9475C18.0491 21.3955 18.0235 21.8627 18.1324 22.3171C18.1388 22.4771 18.126 22.6307 18.1644 22.7907C18.3181 23.4563 18.5998 24.0579 18.9648 24.6275C19.4386 25.37 20.047 25.9588 20.7961 26.4132C20.8602 26.4516 20.9306 26.5028 20.9818 26.4388C21.0331 26.3812 20.9626 26.3236 20.9242 26.2788C20.6553 25.9588 20.4568 25.594 20.2775 25.2164C19.8485 24.3331 19.6307 23.4051 19.6115 22.4195C19.6115 22.3811 19.6179 22.3427 19.6243 22.3107C19.6371 22.3427 19.6564 22.3811 19.6692 22.4131C19.8421 22.9507 19.9957 23.5011 20.2006 24.0259C20.5272 24.8516 20.969 25.6132 21.603 26.2532C21.7502 26.4004 21.8463 26.5988 22.0512 26.6884C22.0768 26.7012 22.1024 26.714 22.128 26.7332C22.1344 26.6948 22.1537 26.65 22.1344 26.6244C21.8527 26.0868 21.7695 25.4724 21.5389 24.9156C21.4109 24.6083 21.2316 24.3075 21.1547 23.9811C20.905 22.9123 20.9626 21.8371 21.1227 20.7619C21.1291 20.7171 21.1163 20.6467 21.1739 20.6403C21.2636 20.6339 21.2316 20.7171 21.2316 20.7683C21.2316 21.3827 21.2764 21.9907 21.334 22.6051C21.3981 23.2899 21.5325 23.9619 21.699 24.6339C21.7054 24.6595 21.731 24.6787 21.7502 24.7043C21.7566 24.6723 21.7631 24.6467 21.7631 24.6147C21.7566 23.8851 21.8719 23.1555 21.8271 22.4195C21.8143 22.1571 21.8015 21.8947 21.8527 21.6323C21.8847 21.4787 21.8719 21.2547 22.0448 21.2419C22.128 21.2355 22.1408 21.4979 22.1408 21.6451C22.1665 22.7011 22.1216 23.7571 22.2561 24.8004C22.3073 25.1908 22.3906 25.5748 22.4674 25.9588C22.4802 26.0228 22.5122 26.0932 22.6083 26.0932C22.6915 26.0932 22.7107 26.0548 22.73 25.978C22.8516 25.3636 23.0053 24.7619 23.0053 24.1283C23.0053 23.2899 23.0181 22.4515 23.0245 21.6131C23.0245 21.5107 22.9989 21.3763 23.1718 21.3699C23.3319 21.3635 23.3767 21.4659 23.3767 21.6003C23.3895 22.2851 23.4151 22.9635 23.4855 23.6483C23.5176 23.9491 23.4983 24.2563 23.5048 24.5571C23.5048 24.6019 23.4919 24.6659 23.556 24.6723C23.5752 24.6723 23.62 24.6147 23.62 24.5827C23.6456 24.1091 23.8249 23.6611 23.8825 23.1939C23.9786 22.3939 23.9914 21.5939 23.985 20.7875C23.985 20.7299 23.9466 20.6339 24.0298 20.6275C24.1067 20.6211 24.1387 20.7043 24.1515 20.7811C24.3436 21.9267 24.3116 23.0659 24.0426 24.1987C23.953 24.5635 23.6969 24.8516 23.6008 25.21C23.4727 25.6772 23.3959 26.17 23.1526 26.5988C23.1334 26.6372 23.1141 26.714 23.1334 26.7268C23.1846 26.7652 23.2358 26.7268 23.2742 26.6884C23.524 26.4324 23.7865 26.1956 24.0106 25.9204C24.8623 24.8388 25.2849 23.5715 25.6114 22.2595C25.6178 22.2275 25.6179 22.1955 25.6243 22.1699C25.6307 22.2019 25.6435 22.2339 25.6435 22.2659C25.6755 23.7507 25.2529 25.0884 24.3884 26.2916C24.3564 26.3364 24.2347 26.3812 24.3052 26.4516C24.35 26.4964 24.4332 26.4452 24.5101 26.4004C24.8943 26.1444 25.2465 25.8564 25.573 25.5236C26.5079 24.5763 27.097 23.4755 27.1675 22.1315C27.1611 22.0995 27.1739 22.0611 27.1803 22.0227ZM15.5006 28.3076C15.539 28.122 15.3981 28.2052 15.3405 28.218C14.1303 28.506 12.9265 28.8004 11.7226 29.0949C11.6202 29.1205 11.5305 29.1717 11.4217 29.1397C11.4857 29.0372 11.601 29.0181 11.697 28.9732C12.728 28.5188 13.8293 28.2756 14.9051 27.9364C15.6287 27.7124 16.365 27.5076 17.0886 27.29C17.1527 27.2708 17.3063 27.3156 17.2871 27.1876C17.2743 27.098 17.1399 27.1108 17.0566 27.1236C16.3074 27.2388 15.5454 27.3028 14.8282 27.5716C14.7514 27.6036 14.6874 27.5652 14.6233 27.5652C14.5977 27.5652 14.5785 27.5332 14.5529 27.514C14.5785 27.5012 14.5977 27.4756 14.6233 27.4692C15.1932 27.3348 15.7695 27.194 16.3586 27.1556C16.7428 27.13 17.1206 27.0532 17.492 26.9316C17.5048 26.9252 17.5176 26.9188 17.5369 26.9124C17.5112 26.9124 17.4792 26.906 17.4536 26.906C17.0246 26.9572 16.602 27.002 16.1794 27.066C15.4366 27.1876 14.6938 27.3284 13.9574 27.4628C13.9062 27.4692 13.8485 27.4628 13.7909 27.4628C13.8357 27.4372 13.8742 27.3988 13.9254 27.3796C14.4697 27.2004 14.9883 26.9636 15.5454 26.8356C15.7631 26.7844 15.9744 26.6884 16.1922 26.6116C16.2242 26.5988 16.269 26.5604 16.269 26.5348C16.2626 26.4836 16.205 26.5028 16.1729 26.5092C15.9104 26.5348 15.6479 26.5412 15.3917 26.586C14.1687 26.8164 12.9969 27.226 11.8443 27.6804C11.7803 27.706 11.697 27.8148 11.6394 27.7252C11.5946 27.6484 11.6906 27.5716 11.7547 27.5076C11.8123 27.4564 11.8827 27.4116 11.9468 27.3604C12.3053 27.098 12.7216 26.97 13.1314 26.8228C13.9062 26.5476 14.6874 26.2916 15.5134 26.1828C15.5582 26.1764 15.5966 26.1508 15.6351 26.1316C15.5966 26.106 15.5646 26.0804 15.5198 26.0612C15.1228 25.8628 14.7194 25.8692 14.2776 25.9268C13.5284 26.0164 12.7984 26.1508 12.094 26.4004C12.0364 26.4196 11.998 26.5156 11.9147 26.458C11.9596 26.4068 11.998 26.3428 12.0556 26.3044C12.5871 25.9332 13.1506 25.6196 13.7653 25.3956C13.8485 25.3636 14.015 25.3316 13.9894 25.2868C13.9318 25.178 13.8101 25.082 13.6564 25.1204C13.5732 25.1396 13.4964 25.178 13.4131 25.1972C11.729 25.6388 10.6277 26.7524 9.9105 28.282C9.57112 29.0053 9.28937 29.7477 8.99482 30.4901C8.80913 30.9637 8.69386 31.4565 8.59781 31.9493C8.58501 32.0133 8.5786 32.0837 8.60422 32.1349C8.62983 32.1861 8.68746 32.1285 8.72588 32.1093C9.96172 31.4053 11.3256 31.2837 12.7023 31.2005C13.3235 31.1621 13.9574 31.1493 14.5721 31.0277C15.5518 30.8357 16.5251 30.5925 17.4088 30.0805C17.7738 29.8693 18.126 29.6453 18.4077 29.3253C18.4589 29.2677 18.523 29.1461 18.5038 29.1269C18.4333 29.0565 18.3693 29.1397 18.3053 29.1717C18.0043 29.3253 17.7033 29.4789 17.4024 29.6261C15.9168 30.3493 14.3352 30.6821 12.7023 30.8101C11.5497 30.8997 10.41 31.0213 9.32139 31.4437C9.27657 31.4629 9.23174 31.4693 9.18692 31.4821C9.18692 31.4309 9.16771 31.3733 9.18052 31.3221C9.25095 31.0021 9.39823 30.7013 9.5263 30.4005C9.56472 30.3045 9.64156 30.2597 9.74401 30.2405C10.1154 30.1637 10.4932 30.0805 10.8646 29.9909C11.7611 29.7669 12.6383 29.4789 13.5412 29.2869C14.3608 29.1141 15.1868 28.9413 15.9744 28.634C16.0001 28.6212 16.0257 28.6084 16.0577 28.5892C16.0257 28.5828 15.9937 28.5764 15.9616 28.57C15.9168 28.57 15.8656 28.5764 15.8208 28.57C15.7823 28.5636 15.7375 28.5508 15.6991 28.538C15.7311 28.5188 15.7631 28.4996 15.8016 28.4868C16.1345 28.3844 16.4675 28.2884 16.7941 28.1796C16.9413 28.1284 17.063 28.0452 17.1463 27.9108C17.1655 27.8788 17.1591 27.8212 17.1655 27.7764C17.127 27.7764 17.0886 27.77 17.0502 27.7828C16.5123 27.962 16.0065 28.1348 15.5006 28.3076ZM31.5537 27.4692C31.4641 27.5076 31.3808 27.4756 31.2976 27.4564C30.6381 27.3284 29.9849 27.2068 29.3254 27.0788C29.2934 27.0724 29.2357 27.0404 29.2293 27.0916C29.2229 27.1428 29.287 27.13 29.319 27.1364C29.6135 27.194 29.9145 27.2516 30.209 27.322C30.3371 27.354 30.4844 27.3348 30.5868 27.45C30.606 27.4756 30.6252 27.5076 30.6381 27.5396C30.606 27.5332 30.574 27.5332 30.542 27.5268C29.9849 27.4692 29.4791 27.2068 28.9092 27.1812C28.7747 27.1748 28.5954 27.1364 28.4609 27.0404C28.6082 27.0596 28.7619 27.0852 28.9092 27.1044C28.9156 27.1044 28.9284 27.1108 28.9348 27.1108C28.9732 27.1044 29.0372 27.0916 29.0372 27.0852C29.0372 27.0212 28.9796 27.0532 28.9476 27.0468C28.5186 26.9828 28.0831 26.9124 27.6541 26.8548C27.526 26.8356 27.398 26.8612 27.2699 26.8676C27.3852 26.8868 27.5004 26.906 27.6157 26.9316C27.6605 26.938 27.7053 26.9572 27.7502 26.9764C27.795 26.9956 27.8718 26.9828 27.8718 27.0596C27.8718 27.0724 27.7886 27.0788 27.7374 27.0852C27.7053 27.0916 27.6733 27.0852 27.6413 27.0916C27.6733 27.1108 27.6989 27.13 27.7309 27.1428C28.0511 27.2644 28.3841 27.3348 28.7235 27.3924C29.2165 27.4756 29.6519 27.7636 30.1322 27.8724C31.1695 28.1092 32.1364 28.5316 33.1482 28.8516C33.1866 28.8644 33.2378 28.858 33.2314 28.9156C33.225 28.9924 33.1674 28.9668 33.1225 28.9604C33.0649 28.9604 33.0137 28.9476 32.9561 28.9348C31.5217 28.5892 30.081 28.2372 28.6466 27.8916C28.5186 27.8596 28.3841 27.8212 28.2496 27.8084C28.1792 27.802 28.1087 27.8532 28.0383 27.8788C28.0959 27.9172 28.1472 27.9684 28.2112 27.994C28.8579 28.2116 29.5047 28.4228 30.1514 28.634C30.1962 28.6468 30.2667 28.6788 30.2667 28.698C30.2603 28.762 30.1962 28.7428 30.1514 28.7492C30.1002 28.7556 30.0233 28.7364 30.0233 28.8132C30.0233 28.89 30.1002 28.8708 30.1514 28.8836C30.8366 29.05 31.5217 29.2229 32.2069 29.3893C33.321 29.6581 34.4096 30.0357 35.5494 30.1957C35.6967 30.2149 35.7479 30.3301 35.7863 30.4325C35.9016 30.7333 35.9976 31.0341 36.1001 31.3349C36.1129 31.3797 36.1129 31.4309 36.1129 31.4757C36.0617 31.4757 36.0104 31.4757 35.9528 31.4565C35.5814 31.2965 35.1972 31.1877 34.8066 31.0917C33.8077 30.8613 32.7832 30.8357 31.7714 30.7205C30.9262 30.6245 30.1066 30.4453 29.2934 30.1957C28.4929 29.9525 27.763 29.5557 27.0202 29.1909C26.9433 29.1525 26.8665 29.1013 26.7769 29.1397C26.8217 29.2037 26.8601 29.2741 26.9177 29.3253C27.7309 30.1061 28.7235 30.5285 29.7928 30.8037C31.0479 31.1301 32.3413 31.1941 33.622 31.2773C34.6529 31.3477 35.6198 31.5909 36.5355 32.0709C36.5803 32.0965 36.6316 32.1605 36.6764 32.1093C36.702 32.0773 36.702 32.0005 36.6892 31.9493C36.6124 31.6037 36.5675 31.2453 36.4395 30.9125C36.0104 29.7797 35.607 28.6404 35.0051 27.578C34.2687 26.2852 33.1289 25.5236 31.733 25.1076C31.6498 25.082 31.5025 25.0308 31.4641 25.1588C31.4193 25.2932 31.5537 25.3124 31.6498 25.3572C31.8547 25.4468 32.2005 25.4468 32.2325 25.6324C32.2837 25.9332 32.5142 25.8884 32.6615 25.9972C32.7896 26.0932 32.9433 26.1508 33.0777 26.234C33.1225 26.2596 33.2122 26.3044 33.1674 26.3748C33.1418 26.4196 33.0713 26.3812 33.0137 26.3684C32.6359 26.2468 32.2581 26.1124 31.8739 26.01C31.1567 25.8244 30.4332 25.6964 29.7288 26.0676C29.7032 26.0804 29.6712 26.0868 29.6455 26.0932C29.6712 26.1124 29.6968 26.1316 29.7224 26.138C29.9209 26.1764 30.1258 26.2084 30.3243 26.2532C30.9902 26.4004 31.6306 26.618 32.2773 26.8484C32.7255 27.0084 33.1546 27.2004 33.526 27.5012C33.5772 27.5396 33.6668 27.5972 33.6284 27.674C33.5772 27.7636 33.4875 27.6868 33.4235 27.6676C32.5847 27.3732 31.765 27.0148 30.907 26.7972C30.1578 26.6052 29.4022 26.3812 28.6082 26.4964C28.589 26.4964 28.5634 26.49 28.5442 26.4836C28.5442 26.4772 28.5506 26.4644 28.5506 26.4644C28.5762 26.4644 28.6082 26.458 28.6338 26.4644C29.0756 26.5348 29.4919 26.6884 29.9081 26.8356C30.4524 27.0468 31.0223 27.2004 31.5537 27.4692ZM23.524 11.2192C23.7865 11.1936 24.049 11.1744 24.3052 11.1744C25.2529 11.1616 26.1685 10.9376 27.0906 10.7712C27.8334 10.6368 28.5378 10.4064 29.1205 9.9072C29.3702 9.69599 29.3702 9.36318 29.1397 9.13278C28.8195 8.81277 28.4161 8.63997 28.0063 8.48636C27.2123 8.17916 26.3734 8.03195 25.5346 7.92315C25.3425 7.89755 25.0864 7.75035 24.9327 8.03195C24.5101 8.79997 23.8569 9.26078 23.0117 9.45279C22.9733 9.45919 22.9092 9.49119 22.9156 9.49759C22.9285 9.56159 22.9861 9.52959 23.0309 9.53599C23.3319 9.58079 23.6328 9.60639 23.9274 9.67679C24.2091 9.74079 24.4845 9.82399 24.6702 10.0736C24.811 10.2528 24.747 10.3616 24.5421 10.3936C23.9658 10.4832 23.3895 10.5856 22.8068 10.5856C22.1985 10.592 21.5966 10.5792 20.9947 10.4448C20.8218 10.4064 20.5848 10.4064 20.5528 10.2144C20.5144 9.9904 20.7449 9.9136 20.9178 9.82399C20.969 9.79839 21.0203 9.78559 21.0779 9.76639C21.3917 9.67679 21.7054 9.59359 22.032 9.56159C22.1152 9.55519 22.1985 9.52959 22.2817 9.51039C22.2305 9.42719 22.128 9.43999 22.0512 9.41439C21.8143 9.32478 21.5389 9.28638 21.3532 9.13918C20.9434 8.81917 20.5336 8.47996 20.3031 7.98715C20.2583 7.89755 20.1878 7.84635 20.0726 7.86555C19.445 7.98075 18.8111 8.03835 18.1964 8.20476C17.5497 8.38396 16.8965 8.55036 16.3266 8.94717C15.904 9.24158 15.8272 9.67679 16.1794 9.92C16.3907 10.0672 16.6148 10.1952 16.8389 10.3232C17.3255 10.6048 17.8634 10.7392 18.4013 10.8416C19.2273 11.008 20.0726 11.0912 20.9114 11.1872C21.238 11.2256 21.5645 11.2128 21.8975 11.2256C22.429 11.2704 22.9797 11.264 23.524 11.2192ZM29.319 15.9809C29.3126 15.8401 29.3126 15.6929 29.3126 15.5521C29.3126 15.4433 29.3126 15.3345 29.3126 15.2193C29.3126 15.1233 29.3126 15.0273 29.3126 14.9313C29.3126 14.7713 29.319 14.6049 29.319 14.4449C29.3254 13.3697 29.3254 12.2881 29.3446 11.2128C29.351 10.944 29.2421 10.9312 29.0692 11.04C28.6274 11.296 28.1472 11.4624 27.6605 11.584C26.5015 11.8784 25.3169 12.0384 24.1323 12.1088C23.3255 12.1537 22.5186 12.1921 21.699 12.1344C20.6873 12.064 19.6756 11.9808 18.6766 11.7888C17.7994 11.616 16.9157 11.488 16.1473 10.976C15.9937 10.8736 15.936 10.9184 15.936 11.104C15.9488 12.0576 15.9488 13.0049 15.9552 13.9585C15.9616 14.6369 15.9808 15.3153 15.9744 15.9937C15.9744 16.1601 16.0769 16.1665 16.1665 16.1729C16.2946 16.1857 16.2178 16.0705 16.2178 16.0257C16.2306 15.2129 16.2306 14.3937 16.2562 13.5809C16.2626 13.4529 16.1025 13.1905 16.3715 13.1905C16.5956 13.1905 16.5251 13.4529 16.5315 13.6001C16.5507 14.4897 16.5507 15.3729 16.5571 16.2625C16.5571 16.333 16.5507 16.4161 16.5828 16.4738C16.6148 16.5378 16.6916 16.6146 16.7428 16.6146C16.8069 16.6082 16.7685 16.5058 16.7685 16.4482C16.7749 15.9233 16.7749 15.3921 16.7813 14.8673C16.8261 14.6561 16.8581 14.4449 16.7749 14.2401C16.7877 13.9265 16.8069 13.6065 16.8133 13.2929C16.8197 13.0305 16.8133 12.7681 16.8069 12.5057C16.8069 12.4481 16.8069 12.3777 16.8837 12.3841C16.9413 12.3905 16.9221 12.4609 16.9221 12.5057C16.9349 12.6465 16.9478 12.7873 16.9606 12.9281C16.8581 13.3121 16.8773 13.6961 16.967 14.0737C16.9798 14.3297 16.999 14.5857 17.0118 14.8417C17.0246 15.4177 17.0566 15.9873 17.0502 16.5634C17.0438 16.8258 17.1463 16.9922 17.3384 17.133C17.3704 17.1522 17.3832 17.2098 17.428 17.1778C17.4536 17.1586 17.4728 17.1138 17.4728 17.0818C17.5433 16.0769 17.5497 15.0721 17.5305 14.0673C17.5305 13.6065 17.5305 13.1457 17.5305 12.6849C17.5305 12.6145 17.492 12.5057 17.6265 12.5121C17.7482 12.5185 17.7226 12.6209 17.7226 12.6913C17.7354 13.1393 17.7226 13.5937 17.7866 14.0417C17.793 14.4257 17.8058 14.8033 17.8122 15.1873C17.8186 15.6545 17.825 16.1153 17.8314 16.5826C17.8314 16.7426 17.8442 16.9026 17.8186 17.0626C17.761 17.4402 17.8826 17.7602 18.1196 18.0482C18.1708 18.1058 18.2412 18.1762 18.286 18.0866C18.4013 17.8754 18.5806 17.6898 18.587 17.4338C18.587 17.0562 18.5806 16.685 18.5742 16.3073C18.5614 15.9041 18.5358 15.4945 18.555 15.0977C18.587 14.4961 18.5614 13.8881 18.587 13.2865C18.5934 13.0561 18.5422 12.8257 18.6254 12.6017C18.651 12.5249 18.6318 12.4097 18.7599 12.4161C18.888 12.4161 18.9072 12.5377 18.92 12.6209C19.0416 13.5937 19.0416 14.5665 19.0352 15.5457C19.048 15.9553 19.0608 16.3714 19.0737 16.781C19.0737 16.8386 19.1249 16.9538 19.1633 16.8898C19.2529 16.749 19.4771 16.7426 19.4899 16.5378C19.5475 16.4418 19.682 16.4033 19.7012 16.2753C19.8036 16.2241 19.9061 16.1601 19.9765 16.0577C20.0534 15.9745 20.1238 15.8913 20.2006 15.8145C20.572 15.4241 20.9498 15.0337 21.3212 14.6433C21.6606 14.1825 22.0512 13.7665 22.3073 13.2481C22.365 13.1265 22.8708 13.0561 22.9092 13.1713C23.0565 13.6193 23.4279 13.9137 23.6969 14.2785C23.8313 14.4577 23.9274 14.6881 24.1515 14.8033C24.4524 15.1873 24.779 15.5521 25.1568 15.8657C25.208 15.9297 25.2657 15.9873 25.3169 16.0513C25.5218 16.2753 25.7267 16.493 25.9252 16.7234C25.9764 16.781 26.0085 16.845 26.0917 16.8258C26.1877 16.8002 26.1877 16.717 26.1877 16.6338C26.1813 16.1665 26.1813 15.6929 26.1749 15.2257C26.1941 14.6817 26.1749 14.1313 26.239 13.5873C26.271 13.2609 26.2198 12.9217 26.3606 12.6081C26.3991 12.5249 26.3862 12.4097 26.5207 12.4097C26.668 12.4161 26.5976 12.5377 26.6232 12.6081C26.6744 12.7553 26.6744 12.9025 26.6744 13.0497C26.6744 13.5361 26.6808 14.0225 26.6808 14.5089C26.6744 15.4177 26.6936 16.3265 26.6552 17.2354C26.6424 17.5874 26.8729 17.7986 26.9946 18.0738C27.0138 18.1122 27.0906 18.157 27.1098 18.0994C27.1931 17.8882 27.4364 17.7666 27.4428 17.5234C27.4492 17.2802 27.4364 17.0306 27.43 16.7874C27.4428 16.1793 27.4556 15.5777 27.4748 14.9697C27.4876 14.6369 27.43 14.3041 27.494 13.9713C27.5004 13.8113 27.5068 13.6577 27.5068 13.4977C27.5132 13.2225 27.5132 12.9473 27.5196 12.6657C27.5196 12.5889 27.5388 12.5057 27.6221 12.5121C27.7117 12.5185 27.6605 12.6145 27.6733 12.6657C27.6925 12.7489 27.6349 12.8385 27.7245 12.9089C27.6669 13.4465 27.6989 13.9905 27.6861 14.5281C27.6733 15.0849 27.7374 15.6481 27.7694 16.2113C27.7822 16.4802 27.8206 16.749 27.8078 17.0242C27.8078 17.0626 27.827 17.1266 27.8526 17.1458C27.9038 17.1778 27.923 17.1074 27.9615 17.0882C28.192 16.9282 28.2368 16.7042 28.2368 16.4418C28.2496 15.7185 28.256 14.9889 28.3008 14.2657C28.3329 13.7793 28.4481 13.2929 28.3265 12.8001C28.3265 12.7425 28.3136 12.6849 28.3329 12.6337C28.3585 12.5569 28.256 12.4097 28.4225 12.4161C28.5506 12.4225 28.4929 12.5505 28.4929 12.6273C28.5122 13.8689 28.5186 15.1105 28.5378 16.3521C28.5378 16.4162 28.4801 16.5186 28.5762 16.5314C28.6722 16.5506 28.7299 16.461 28.7427 16.3713C28.7555 16.3009 28.7555 16.2305 28.7555 16.1537C28.7619 15.1937 28.7683 14.2401 28.7747 13.2801C28.8515 13.2609 28.922 13.2417 28.9988 13.2225C29.018 14.1377 29.0436 15.0465 29.0692 15.9617C29.0692 16.0257 29.0244 16.1345 29.1205 16.1409C29.1973 16.1409 29.319 16.1153 29.319 15.9809ZM33.0969 22.1059C33.3723 21.7475 33.6348 21.3763 33.8397 20.9731C34.448 19.8018 34.7426 18.541 34.9539 17.2546C35.1652 15.9745 35.4662 14.7201 35.876 13.4913C35.94 13.2993 35.7991 13.3633 35.7479 13.3761C35.2228 13.4593 34.7298 13.6321 34.32 13.9841C33.3018 14.8545 32.2197 15.6353 31.0287 16.2497C29.9145 16.8258 28.8707 17.4914 27.9487 18.3426C27.4812 18.7714 27.4428 18.8482 27.6477 19.1746C27.6925 19.5906 27.9294 19.9554 27.9551 20.3714C27.9551 20.397 27.9871 20.4226 28.0063 20.4482C28.0319 20.4226 28.0703 20.4034 28.0895 20.3714C28.2368 20.0962 28.4545 19.8786 28.6594 19.6482C28.685 19.6226 28.7171 19.6034 28.7427 19.5778C28.7427 19.6162 28.7619 19.6674 28.7427 19.6866C28.6914 19.7378 28.685 19.8082 28.6466 19.8658C28.3521 20.3522 28.192 20.8835 28.128 21.4467C28.1215 21.5171 28.128 21.5875 28.192 21.6131C28.2752 21.6451 28.288 21.5619 28.3265 21.5171C28.6338 21.1587 28.8515 20.7299 29.2037 20.4098C29.2357 20.3778 29.2613 20.3138 29.3126 20.3522C29.3318 20.365 29.3318 20.4418 29.3126 20.4802C29.1397 20.8451 28.9476 21.2035 28.7619 21.5683C28.525 22.0355 28.2688 22.4963 28.0447 22.9763C28.0127 23.0467 27.9487 23.1427 28.0255 23.1875C28.0767 23.2195 28.1344 23.1171 28.1792 23.0659C28.4673 22.6883 28.7107 22.2723 28.954 21.8627C29.2741 21.3187 29.6327 20.8003 30.0233 20.3074C30.0554 20.2626 30.1258 20.2498 30.177 20.2242C30.1578 20.2946 30.145 20.3714 30.113 20.4418C29.8184 21.0115 29.5367 21.5939 29.2293 22.1571C28.8003 22.9315 28.3393 23.6867 27.7438 24.3587C27.7117 24.3907 27.6477 24.4227 27.6797 24.4675C27.7309 24.5315 27.7822 24.4611 27.8142 24.4355C28.2752 24.0067 28.6914 23.5395 29.0564 23.0275C29.4791 22.4387 29.7864 21.7795 30.1642 21.1651C30.3563 20.8451 30.542 20.5186 30.7021 20.1858C30.8814 19.8146 31.0607 19.4434 31.2656 19.085C31.2848 19.053 31.3232 19.0338 31.3552 19.0082C31.3552 19.0402 31.3488 19.0722 31.3488 19.1106C31.3552 19.2834 31.24 19.4178 31.1951 19.5778C30.8942 20.5954 30.3883 21.5299 29.8953 22.4579C29.5879 23.0339 29.1333 23.5267 28.7491 24.0579C28.7171 24.0963 28.6274 24.1283 28.6786 24.1859C28.7363 24.2435 28.7939 24.1731 28.8323 24.1283C29.082 23.8915 29.351 23.6803 29.5943 23.4435C30.0105 23.0275 30.3947 22.5923 30.7725 22.1379C30.9902 21.8755 31.1375 21.5491 31.4449 21.3571C31.4257 21.4339 31.4129 21.5171 31.3808 21.5811C31.003 22.2723 30.574 22.9315 30.0425 23.5139C29.1781 24.4675 28.0383 25.0436 26.9754 25.7156C26.9049 25.7604 26.8089 25.7924 26.8473 25.882C26.8857 25.9588 27.0074 25.9204 27.065 25.8948C27.5324 25.6452 28.0703 25.5236 28.5058 25.2036C29.2421 24.6659 30.0105 24.1731 30.5868 23.4243C30.9966 22.8931 31.4065 22.3619 31.7843 21.8051C32.13 21.2931 32.4374 20.7619 32.7704 20.237C32.8024 20.1858 32.86 20.1474 32.9048 20.109C32.8984 20.1666 32.9048 20.2306 32.8792 20.2818C32.6423 20.7939 32.4502 21.3187 32.162 21.8115C31.7586 22.5027 31.3424 23.1939 30.8366 23.8019C30.3563 24.3779 29.748 24.8388 29.0692 25.1844C29.0116 25.2164 28.8707 25.2292 28.9028 25.3124C28.9284 25.3636 29.05 25.3124 29.1333 25.2804C29.7352 25.0116 30.2859 24.6659 30.8302 24.2947C31.7202 23.6675 32.4502 22.9379 33.0969 22.1059ZM21.9616 30.1637C21.9616 30.4709 21.9616 30.8677 21.9616 31.2709C21.9616 31.3285 21.9616 31.3989 21.8975 31.4117C21.8335 31.4181 21.8207 31.3477 21.7951 31.2965C21.7182 31.1493 21.7502 30.9829 21.7246 30.8293C21.6286 30.1317 21.5966 29.4213 21.6222 28.7172C21.6286 28.5828 21.6094 28.4996 21.4493 28.4612C21.3276 28.4292 21.3917 28.6468 21.27 28.5572C21.2636 28.5828 21.2508 28.6084 21.2444 28.634C21.0523 29.4277 21.0971 30.2341 21.0971 31.0341C21.0971 31.1877 21.1803 31.4501 20.9882 31.4693C20.8282 31.4821 20.8218 31.2069 20.7897 31.0405C20.6425 30.2341 20.7129 29.4149 20.7897 28.6084C20.809 28.3844 20.572 28.314 20.5976 28.1156C20.5848 28.1412 20.5592 28.1668 20.5528 28.1924C20.444 28.5572 20.3927 28.9348 20.3735 29.3125C20.3543 29.8181 20.3351 30.3301 20.4184 30.8421C20.4312 30.9061 20.4888 31.0213 20.3735 31.0405C20.2839 31.0533 20.2519 30.9509 20.2263 30.8741C20.111 30.4581 19.9893 30.0485 20.0021 29.6133C20.0085 29.2293 20.0149 28.8452 20.0149 28.4612C20.0149 28.3844 20.0277 28.3012 19.8933 28.3204C19.8036 28.3332 19.682 28.2436 19.65 28.4164C19.5859 28.73 19.4899 29.0437 19.4643 29.3573C19.3554 30.6821 19.8228 31.8277 20.5784 32.8901C21.238 33.8182 22.0832 34.6118 22.5507 35.6742C22.5955 35.7766 22.6211 35.7574 22.6723 35.6678C22.826 35.399 22.9925 35.1366 23.159 34.8806C23.6776 34.0678 24.3628 33.3702 24.8879 32.5637C25.7395 31.2645 26.0213 29.8885 25.5922 28.3844C25.541 28.2052 25.4514 28.2372 25.3617 28.2884C25.0928 28.4292 25.208 28.6916 25.2337 28.89C25.3169 29.5813 25.2593 30.2533 25.0223 30.9061C24.9967 30.9765 24.9775 31.0917 24.8815 31.0789C24.7598 31.0597 24.8366 30.9509 24.8302 30.8805C24.8174 30.7717 24.8046 30.6565 24.8238 30.5477C24.9583 29.8501 24.8687 29.1589 24.7726 28.4676C24.7662 28.41 24.7726 28.3204 24.6702 28.346C24.5933 28.3652 24.4845 28.3588 24.4845 28.4932C24.4845 28.57 24.4845 28.6532 24.4973 28.73C24.6381 29.5621 24.5549 30.3813 24.4012 31.2005C24.382 31.2965 24.4012 31.4629 24.2475 31.4501C24.0939 31.4373 24.1003 31.2901 24.1003 31.1685C24.0811 30.5413 24.0747 29.9077 24.0362 29.2805C24.0234 29.0629 24.0554 28.826 23.9466 28.6212C23.9018 28.538 23.8569 28.4036 23.7033 28.4484C23.5688 28.4932 23.6264 28.6148 23.6264 28.6916C23.6584 29.3317 23.6072 29.9653 23.5688 30.5989C23.556 30.8101 23.5752 31.0469 23.4407 31.2389C23.4151 31.2773 23.4279 31.3413 23.3639 31.3285C23.3063 31.3221 23.2934 31.2709 23.2934 31.2197C23.2742 30.9381 23.1974 30.6437 23.2422 30.3685C23.3319 29.7989 23.1462 29.2485 23.1782 28.6916C23.1846 28.5508 23.127 28.5316 23.0117 28.5316C22.8964 28.5316 22.8644 28.5636 22.858 28.698C22.794 29.4405 22.8516 30.1829 22.8132 30.9253C22.7876 31.3733 22.8132 31.8277 22.73 32.2757C22.7171 32.3397 22.7556 32.4293 22.6339 32.4229C22.5314 32.4165 22.4994 32.3525 22.493 32.2629C22.4866 32.0581 22.4738 31.8469 22.4738 31.6421C22.4546 30.6629 22.4226 29.6773 22.4162 28.698C22.4162 28.4804 22.2689 28.5636 22.1729 28.5316C22.032 28.4868 22.0704 28.5956 22.0576 28.666C21.968 29.1205 22.0384 29.6005 21.9616 30.1637ZM34.5121 22.8611C34.8386 22.8675 35.2549 22.9059 35.6583 23.0147C35.6903 23.0211 35.7159 23.0595 35.7479 23.0787C35.7223 23.0851 35.6967 23.0979 35.6711 23.1043C35.1972 23.1683 34.7234 23.2323 34.2495 23.3027C33.9934 23.3411 33.7245 23.3475 33.4811 23.4499C33.4491 23.4627 33.4107 23.5011 33.4107 23.5267C33.4107 23.5843 33.4491 23.5459 33.4747 23.5395C33.8909 23.5267 34.3072 23.6163 34.7234 23.5331C34.7618 23.5267 34.8258 23.5011 34.8386 23.5651C34.8386 23.5843 34.7746 23.6227 34.7298 23.6355C34.4416 23.7251 34.1535 23.7955 33.8717 23.8915C33.7949 23.9171 33.6092 23.8979 33.6668 24.0323C33.7052 24.1283 33.7693 24.2883 33.987 24.2499C34.7746 24.1027 35.5622 23.9747 36.3626 23.8979C36.4267 23.8915 36.4971 23.9171 36.5675 23.9299C36.5483 24.0323 36.4523 24.0323 36.3818 24.0451C35.4149 24.2115 34.5249 24.6403 33.5708 24.8644C33.5003 24.8772 33.5003 24.8964 33.5388 24.922C33.6668 25.0116 33.7885 25.114 33.9678 25.0884C34.5889 25.0116 35.1908 24.8196 35.7927 24.6659C36.4203 24.5059 37.035 24.3267 37.6881 24.2883C37.7393 24.2819 37.8162 24.2563 37.8354 24.3203C37.861 24.4035 37.7778 24.4227 37.7201 24.4419C37.6625 24.4611 37.5985 24.4803 37.5408 24.4995C36.8877 24.7235 36.2346 24.9476 35.5814 25.178C35.5494 25.1908 35.5174 25.2228 35.4854 25.242C35.5046 25.2484 35.5174 25.2676 35.5366 25.2612C35.8696 25.178 36.2025 25.2868 36.5291 25.2612C36.8557 25.2356 37.1823 25.1204 37.5088 25.0628C37.8994 24.9988 38.2964 24.954 38.687 24.9028C38.7575 24.8964 38.8343 24.9092 38.8471 24.9732C38.8599 25.0436 38.7767 25.0436 38.7255 25.0628C38.5141 25.146 38.2964 25.21 38.0851 25.2932C37.2847 25.6004 36.4651 25.8372 35.6326 26.042C35.6006 26.0484 35.5622 26.0548 35.5238 26.0612C35.5622 26.0612 35.607 26.0612 35.6455 26.0548C35.9336 26.0036 36.2346 25.9012 36.5163 25.9908C36.7724 26.0676 37.003 26.0356 37.2399 25.978C38.2388 25.7476 39.2505 25.6644 40.2751 25.7476C40.3135 25.754 40.3775 25.7988 40.3967 25.7348C40.4031 25.7028 40.3583 25.6516 40.3327 25.6196C39.9805 25.1908 39.6155 24.7683 39.1929 24.4035C37.8098 23.1939 36.2346 22.4707 34.3648 22.4707C34.0958 22.4707 34.0638 22.6691 33.9934 22.8163C33.9742 22.8611 34.1919 22.8291 34.2943 22.8483C34.3264 22.8675 34.3776 22.8611 34.5121 22.8611ZM40.544 26.4132C39.6924 26.3236 38.8151 26.5732 37.9378 26.7652C37.3423 26.8932 36.7596 27.0724 36.1705 27.2196C36.0873 27.2388 35.9848 27.2388 36.0232 27.3412C36.0553 27.418 36.0745 27.5652 36.2346 27.5204C36.401 27.4756 36.5739 27.4628 36.734 27.4116C38.0467 27.0148 39.3914 26.7716 40.7617 26.7524C41.1395 26.746 41.5237 26.778 41.9015 26.8036C42.132 26.8164 42.1384 26.714 42.0616 26.5476C41.9463 26.3236 41.8439 26.0932 41.7158 25.8756C41.1011 24.8451 40.3071 23.9811 39.3786 23.2323C38.1556 22.2467 36.7788 21.6899 35.2036 21.6195C34.8899 21.6067 34.6209 21.6131 34.5377 21.9907C34.5313 22.0355 34.448 22.0547 34.4929 22.1059C34.5185 22.1315 34.5825 22.1379 34.6273 22.1315C35.178 22.0803 35.6903 22.2467 36.2153 22.3619C37.7201 22.6819 39.0136 23.4051 40.115 24.4675C40.6465 24.9796 41.1203 25.5492 41.4789 26.202C41.5685 26.362 41.5557 26.4324 41.3508 26.4196C41.1011 26.4068 40.8578 26.4132 40.544 26.4132ZM4.65337 26.4068C4.39083 26.4068 4.12829 26.4004 3.85935 26.4068C3.70567 26.4132 3.70568 26.3812 3.77611 26.2532C4.10908 25.6132 4.57653 25.0692 5.06958 24.5443C5.8764 23.6867 6.84971 23.0659 7.93187 22.6499C8.7707 22.3235 9.66717 22.1315 10.5828 22.0931C10.6277 22.0931 10.7557 22.1507 10.7109 22.0355C10.6469 21.8691 10.6469 21.6195 10.3715 21.6131C9.41744 21.5875 8.48896 21.7347 7.63091 22.1443C5.73553 23.0467 4.28198 24.4227 3.30867 26.298C3.07175 26.7588 3.07815 26.7652 3.5712 26.746C3.60322 26.746 3.63524 26.746 3.66725 26.746C4.17312 26.7652 4.68538 26.746 5.19125 26.7844C6.10052 26.842 6.98418 26.9828 7.86143 27.2196C8.21361 27.3156 8.5594 27.4052 8.91158 27.5012C9.07807 27.546 9.20613 27.5012 9.24455 27.3348C9.27016 27.2196 9.12929 27.2324 9.05885 27.2132C8.55299 27.066 8.04713 26.9252 7.54127 26.7972C6.59357 26.5732 5.63948 26.3684 4.65337 26.4068ZM11.2424 30.1765C11.268 30.1765 11.2872 30.1765 11.3 30.1765C12.6191 29.9333 13.9446 29.7349 15.2509 29.4085C15.6095 29.3189 15.9616 29.1781 16.3138 29.0565C16.3522 29.0437 16.4099 28.9924 16.4035 28.9668C16.3907 28.9028 16.3458 28.954 16.3138 28.9604C15.2189 29.2677 14.1175 29.5237 13.0033 29.7477C12.427 29.8629 11.8571 30.0101 11.2808 30.1509C11.2424 30.1573 11.2104 30.1829 11.1784 30.2021C11.2104 30.1893 11.2296 30.1829 11.2424 30.1765ZM33.6284 30.0805C33.6604 30.0869 33.6924 30.0869 33.7245 30.0933C33.6796 30.0741 33.6348 30.0485 33.59 30.0357C32.3798 29.7221 31.1375 29.5429 29.9337 29.2165C29.6648 29.1397 29.4022 29.0052 29.1077 29.0373C29.0692 29.0437 29.018 29.0244 29.0116 29.0757C29.0116 29.1141 29.05 29.1269 29.0949 29.1397C29.6007 29.2741 30.0938 29.4277 30.606 29.5429C31.5986 29.7733 32.6103 29.9333 33.6284 30.0805ZM14.4248 15.6417C14.3992 15.6033 14.3736 15.5585 14.3352 15.5201C14.2263 15.4177 14.1175 15.3153 14.0086 15.2129C13.5028 14.7713 12.9713 14.3681 12.3181 14.1569C12.2733 14.1441 12.2349 14.1313 12.1901 14.1505C12.2157 14.1761 12.2477 14.2017 12.2733 14.2273C12.888 14.8097 13.6244 15.2129 14.3352 15.6545C14.3544 15.6737 14.3928 15.7633 14.4248 15.6417ZM4.1411 21.7731C4.08988 21.7795 4.03225 21.7923 3.98102 21.8051C4.03225 21.8691 4.09628 21.8243 4.15391 21.8371C4.29478 21.8627 4.43565 21.8755 4.57653 21.9139C4.9031 22.0035 5.23607 22.0739 5.53062 22.2531C5.55624 22.2659 5.60106 22.2403 5.63948 22.2339C5.62667 22.2211 5.62027 22.2019 5.60746 22.2019C5.13362 22.0035 4.65977 21.8307 4.1411 21.7731ZM9.9233 25.2548L9.92971 25.242H9.9169L9.9233 25.2548Z" fill="#4A4A4F"/>
<path d="M27.1547 22.1379C27.0842 23.4883 26.4951 24.5828 25.5603 25.53C25.2337 25.8628 24.8879 26.1508 24.4973 26.4068C24.4269 26.4516 24.3436 26.5028 24.2924 26.458C24.222 26.3876 24.3436 26.3428 24.3756 26.298C25.2401 25.0948 25.6691 23.7571 25.6307 22.2723C25.6307 22.2403 25.6179 22.2083 25.6115 22.1763C25.6051 22.2083 25.6051 22.2403 25.5987 22.2659C25.2721 23.5779 24.8431 24.8452 23.9978 25.9268C23.7801 26.202 23.5112 26.4452 23.2615 26.6948C23.223 26.7332 23.1654 26.7716 23.1206 26.7332C23.1014 26.7204 23.1206 26.6436 23.1398 26.6052C23.3895 26.1764 23.46 25.6836 23.588 25.2164C23.6905 24.858 23.9402 24.57 24.0299 24.2051C24.2988 23.0723 24.3372 21.9395 24.1387 20.7875C24.1259 20.7107 24.0875 20.6275 24.0171 20.6339C23.9338 20.6403 23.9722 20.7427 23.9722 20.7939C23.9786 21.6003 23.9658 22.4003 23.8698 23.2003C23.8122 23.6675 23.6329 24.1155 23.6072 24.5892C23.6072 24.6212 23.556 24.6788 23.5432 24.6788C23.4792 24.666 23.4984 24.6084 23.492 24.5636C23.4856 24.2627 23.5048 23.9555 23.4728 23.6547C23.4087 22.9763 23.3831 22.2915 23.3639 21.6067C23.3639 21.4723 23.3191 21.3699 23.159 21.3763C22.9861 21.3827 23.0117 21.5171 23.0117 21.6195C22.9989 22.4579 22.9925 23.2963 22.9925 24.1347C22.9925 24.7684 22.8388 25.37 22.7172 25.9844C22.7044 26.0612 22.6788 26.0996 22.5955 26.0996C22.4995 26.0996 22.4675 26.0292 22.4546 25.9652C22.3778 25.5812 22.2946 25.1972 22.2433 24.8068C22.1025 23.7571 22.1537 22.7011 22.1281 21.6515C22.1217 21.5043 22.1153 21.2419 22.032 21.2483C21.8591 21.2611 21.8719 21.4851 21.8399 21.6387C21.7887 21.9011 21.7951 22.1635 21.8143 22.4259C21.8591 23.1619 21.7439 23.8915 21.7503 24.6212C21.7503 24.6532 21.7439 24.6788 21.7375 24.7108C21.7183 24.6852 21.6927 24.666 21.6862 24.6404C21.5198 23.9747 21.3853 23.3027 21.3213 22.6115C21.2636 22.0035 21.2188 21.3891 21.2188 20.7747C21.2188 20.7299 21.2444 20.6467 21.1612 20.6467C21.1035 20.6467 21.1164 20.7235 21.1099 20.7683C20.9499 21.8435 20.8922 22.9187 21.142 23.9875C21.2188 24.3075 21.3917 24.6084 21.5262 24.922C21.7631 25.4788 21.8463 26.0868 22.1217 26.6308C22.1345 26.6564 22.1153 26.7012 22.1153 26.7396C22.0897 26.7268 22.064 26.7076 22.0384 26.6948C21.8335 26.6052 21.7375 26.4068 21.5902 26.2596C20.9627 25.6196 20.5144 24.858 20.1879 24.0323C19.983 23.5075 19.8293 22.9571 19.6564 22.4195C19.6436 22.3811 19.6308 22.3491 19.6116 22.3171C19.6052 22.3555 19.5988 22.3939 19.5988 22.4259C19.618 23.4051 19.8357 24.3395 20.2647 25.2228C20.444 25.594 20.6425 25.9652 20.9114 26.2852C20.9499 26.33 21.0203 26.394 20.9691 26.4452C20.9178 26.5028 20.8474 26.458 20.7834 26.4196C20.0342 25.9652 19.4259 25.37 18.952 24.634C18.587 24.0643 18.2989 23.4627 18.1516 22.7971C18.1132 22.6371 18.1324 22.4835 18.1196 22.3235C18.2989 22.1827 18.3181 21.9843 18.3245 21.7795C18.3565 20.7811 18.6127 19.853 19.1825 19.021C19.6564 18.3234 20.2391 17.709 20.7386 17.0242C20.7706 16.9794 20.7962 16.8578 20.8794 16.909C20.9499 16.9538 20.9114 17.0562 20.873 17.1266C20.5913 17.6194 20.3095 18.1058 20.0278 18.5986C19.9253 18.4194 19.8933 18.637 19.8869 18.6434C19.6692 18.9762 19.4579 19.309 19.253 19.6546C18.8304 20.3651 18.5806 21.1139 18.7023 21.9523C18.7151 22.0291 18.6575 22.1763 18.8368 22.1059C18.8944 22.6115 19.0097 23.1107 19.189 23.5907C19.2146 23.6611 19.2338 23.7571 19.3362 23.7763C19.3426 23.6995 19.3682 23.6227 19.3554 23.5459C19.221 22.7203 19.3362 21.9139 19.5219 21.1203C19.7012 20.3779 20.0662 19.7058 20.3223 18.989C20.508 18.477 20.7642 17.9906 21.0139 17.5042C21.4237 16.6978 22.0064 16.0257 22.4995 15.2833C22.5827 15.1553 22.6467 15.1425 22.7428 15.2897C22.8773 15.5009 23.0245 15.7057 23.1782 15.9041C23.4215 16.2242 23.7161 16.525 23.921 16.8642C24.3949 17.645 24.7662 18.4834 25.0864 19.3474C25.4258 20.2754 25.7972 21.1843 25.9188 22.1763C25.9701 22.6115 25.9573 23.0467 25.8996 23.4883C25.8932 23.5395 25.8676 23.6163 25.9381 23.6355C26.0277 23.6547 25.9957 23.5587 26.0149 23.5139C26.0725 23.3667 26.1173 23.2131 26.1686 23.0659C26.175 23.0467 26.1942 22.9699 26.2134 23.0147C26.2774 23.1939 26.271 23.0659 26.2966 23.0083C26.4119 22.7395 26.3927 22.4451 26.4631 22.1699C26.4695 22.4003 26.4695 22.6307 26.4759 22.8611C26.4759 22.8867 26.4759 22.9187 26.4759 22.9443C26.4823 22.9251 26.4951 22.9059 26.5015 22.8803C26.6552 22.1699 26.7257 21.4531 26.508 20.7427C26.2902 20.0258 25.8804 19.405 25.4898 18.7778C25.4386 18.701 25.3618 18.6626 25.2721 18.6626C25.2593 18.6242 25.2593 18.5858 25.2337 18.5538C24.9007 18.0866 24.6382 17.581 24.382 17.0754C24.3564 17.0242 24.3116 16.9538 24.3628 16.9218C24.4141 16.8898 24.4461 16.973 24.4845 17.0114C24.9776 17.517 25.3874 18.0994 25.8228 18.6498C26.3735 19.3474 26.7513 20.1282 26.8601 21.0243C26.8922 21.3187 26.9306 21.6195 26.9754 21.9139C26.9882 22.0035 26.9562 22.1635 27.1547 22.1379Z" fill="#EFCF94"/>
<path d="M31.4577 21.3315C31.1503 21.5235 31.003 21.8499 30.7853 22.1123C30.4139 22.5667 30.0297 23.0083 29.6071 23.4179C29.3638 23.6611 29.0948 23.8723 28.8451 24.1027C28.8067 24.1411 28.749 24.2179 28.6914 24.1603C28.6402 24.1027 28.7298 24.0771 28.7619 24.0323C29.1525 23.5011 29.6007 23.0019 29.9081 22.4323C30.4011 21.5043 30.907 20.5698 31.2079 19.5522C31.2528 19.3922 31.368 19.2578 31.3616 19.085C31.3616 19.053 31.3616 19.021 31.368 18.9826C31.336 19.0082 31.2976 19.0274 31.2784 19.0594C31.0735 19.4178 30.8942 19.789 30.7149 20.1602C30.5548 20.493 30.3691 20.8259 30.177 21.1395C29.7992 21.7539 29.4918 22.4131 29.0692 23.0019C28.7042 23.5139 28.2816 23.9811 27.827 24.4099C27.795 24.4355 27.7373 24.5059 27.6925 24.4419C27.6605 24.3971 27.7245 24.3651 27.7565 24.3331C28.352 23.6675 28.8131 22.9123 29.2421 22.1315C29.5495 21.5683 29.8376 20.9923 30.1258 20.4162C30.1578 20.3522 30.1706 20.2754 30.1898 20.1986C30.1386 20.2242 30.0681 20.2434 30.0361 20.2818C29.6455 20.7747 29.2869 21.2931 28.9668 21.8371C28.7234 22.2467 28.4865 22.6627 28.192 23.0403C28.1471 23.0979 28.0959 23.1939 28.0383 23.1619C27.9614 23.1171 28.0255 23.0211 28.0575 22.9507C28.2816 22.4707 28.5377 22.0099 28.7747 21.5427C28.954 21.1779 29.1461 20.8195 29.3254 20.4546C29.3446 20.4162 29.3446 20.3394 29.3254 20.3266C29.2741 20.2946 29.2485 20.3586 29.2165 20.3842C28.8707 20.7107 28.653 21.1395 28.3392 21.4915C28.3008 21.5363 28.288 21.6195 28.2048 21.5875C28.1407 21.5619 28.1343 21.4915 28.1407 21.4211C28.1984 20.8579 28.3648 20.3266 28.6594 19.8402C28.6914 19.7826 28.7042 19.7122 28.7555 19.661C28.7747 19.6418 28.7555 19.5906 28.7555 19.5522C28.7298 19.5778 28.6914 19.5906 28.6722 19.6226C28.4673 19.853 28.2496 20.0706 28.1023 20.3458C28.0831 20.3778 28.0511 20.397 28.0191 20.4226C27.9999 20.397 27.9678 20.3714 27.9678 20.3458C27.9422 19.9234 27.7053 19.565 27.6605 19.149C28.1087 18.5986 28.685 18.2018 29.2613 17.8178C31.1631 16.5634 33.1033 15.3793 34.9539 14.0545C35.0243 14.0033 35.1075 13.9457 35.1908 14.0033C35.2676 14.0545 35.2356 14.1441 35.2164 14.2273C35.0499 14.9761 34.8514 15.7185 34.7169 16.4738C34.5377 17.4594 34.3712 18.4514 34.1278 19.4242C33.9229 20.237 33.5579 20.9923 33.1609 21.7347C33.1033 21.8435 33.0201 21.9523 33.1033 22.0867C32.463 22.9187 31.7266 23.6483 30.8493 24.2499C30.3051 24.6211 29.7544 24.9668 29.1525 25.2356C29.0692 25.274 28.9412 25.3252 28.9219 25.2676C28.8899 25.1844 29.0308 25.1652 29.0884 25.1396C29.7736 24.7939 30.3819 24.3331 30.8557 23.7571C31.3616 23.1491 31.7778 22.4579 32.1812 21.7667C32.4694 21.2739 32.6551 20.7491 32.8984 20.237C32.924 20.1858 32.9176 20.1218 32.924 20.0642C32.8792 20.109 32.8216 20.141 32.7895 20.1922C32.463 20.7171 32.1492 21.2483 31.8034 21.7603C31.432 22.3171 31.0158 22.8483 30.606 23.3795C30.0297 24.1283 29.2613 24.6211 28.5249 25.1588C28.0895 25.4788 27.5516 25.594 27.0842 25.85C27.0266 25.882 26.9049 25.9204 26.8665 25.8372C26.8216 25.7476 26.9177 25.7156 26.9945 25.6708C28.0639 24.9988 29.1973 24.4227 30.0617 23.4691C30.5932 22.8867 31.0222 22.2275 31.4 21.5363C31.4256 21.4915 31.432 21.4083 31.4577 21.3315C31.4641 21.3187 31.4705 21.3059 31.4833 21.2995C31.4833 21.2995 31.4833 21.2867 31.4769 21.2867C31.4705 21.2995 31.4641 21.3187 31.4577 21.3315ZM33.9998 18.5858C33.987 18.541 34.0318 18.4514 33.9486 18.4322C33.8589 18.4194 33.8717 18.5154 33.8589 18.5666C33.7372 18.9762 33.622 19.3922 33.4939 19.8018C33.2186 20.7106 32.7319 21.5171 32.2197 22.3043C31.8803 22.8355 31.4897 23.3347 31.1183 23.8531C31.0991 23.8787 31.0735 23.9171 31.0863 23.9235C31.1311 23.9811 31.1439 23.9171 31.1695 23.8915C31.3552 23.7187 31.5601 23.5651 31.7266 23.3731C32.4758 22.5283 33.0521 21.5683 33.4875 20.5314C33.7565 19.917 33.9614 19.277 33.9998 18.5858ZM32.9624 15.8337C32.8152 15.8145 32.7319 15.6545 32.5654 15.7825C32.098 16.1409 31.6562 16.5442 31.1439 16.8514C30.9646 16.9602 30.7981 17.0882 30.7341 17.3058C30.7149 17.3634 30.7149 17.4274 30.7021 17.4914C30.7533 17.4658 30.8173 17.4466 30.8621 17.4082C31.4897 16.8642 32.1556 16.3777 32.8472 15.9233C32.8856 15.8977 32.9112 15.8721 32.9624 15.8337Z" fill="#EFCF94"/>
<path d="M17.6457 19.1491C17.5241 19.5011 17.396 19.8531 17.3256 20.2243C17.3128 20.2819 17.2936 20.3843 17.2743 20.3843C17.1975 20.3843 17.1719 20.3011 17.1271 20.2435C16.9606 20.0451 16.7877 19.8467 16.6148 19.6483C16.5764 19.6035 16.5316 19.5203 16.4675 19.5843C16.4163 19.6355 16.4931 19.6803 16.5252 19.7187C16.8965 20.2371 17.0822 20.8195 17.0758 21.4531C17.0758 21.5043 17.1079 21.5747 17.0374 21.6003C16.9734 21.6195 16.9542 21.5555 16.9222 21.5107C16.6596 21.1523 16.3843 20.7939 16.1153 20.4355C16.0705 20.3779 16.0193 20.2947 15.9489 20.3395C15.8784 20.3843 15.936 20.4675 15.9681 20.5315C16.1858 20.9411 16.4163 21.3443 16.6212 21.7603C16.8325 22.1827 17.1015 22.5731 17.1975 23.0468C17.2103 23.098 17.2231 23.1492 17.2295 23.2004C17.1847 23.162 17.1207 23.13 17.0886 23.0788C16.7877 22.6115 16.5059 22.1315 16.1922 21.6707C15.8656 21.1843 15.5198 20.7043 15.1805 20.2243C15.1484 20.1859 15.1164 20.1027 15.0524 20.1411C14.982 20.1795 15.0524 20.2435 15.0652 20.2755C15.3277 20.8067 15.5775 21.3379 15.8592 21.8563C16.3331 22.7267 16.8901 23.546 17.4728 24.346C17.4985 24.3844 17.5945 24.3972 17.5177 24.4612C17.46 24.506 17.4472 24.4292 17.4152 24.4036C16.5059 23.6164 15.9168 22.5923 15.3341 21.5747C14.8923 20.8003 14.4889 20.0003 14.0663 19.2131C14.0599 19.2067 14.0599 19.1939 14.0599 19.1939C14.0022 19.1235 13.9446 19.0531 13.887 18.9763C13.8998 19.0659 13.887 19.1555 13.919 19.2323C14.1431 19.7827 14.3736 20.3331 14.5978 20.8835C14.9179 21.6643 15.3085 22.4067 15.8016 23.0916C16.0193 23.3924 16.2498 23.6804 16.4675 23.9812C16.4995 24.026 16.6276 24.0644 16.5444 24.1412C16.4867 24.1988 16.4227 24.1092 16.3651 24.0644C15.9873 23.7508 15.6351 23.418 15.3021 23.0596C14.8539 22.5731 14.4377 22.0611 14.0407 21.5427C14.0086 21.5043 13.9766 21.4723 13.9446 21.4339C13.9126 21.3955 13.8742 21.3507 13.8294 21.3955C13.7845 21.4339 13.8422 21.4595 13.8614 21.4915C14.1239 22.0099 14.4249 22.5027 14.7706 22.97C15.5583 24.0452 16.6724 24.7172 17.7802 25.3956C17.9979 25.53 18.2156 25.6708 18.4333 25.818C18.4846 25.85 18.5486 25.8692 18.5614 25.946C18.4974 25.946 18.4333 25.9588 18.3757 25.9396C17.7674 25.69 17.1591 25.4404 16.6084 25.0692C15.539 24.346 14.6298 23.4628 13.8934 22.4003C13.4195 21.7155 12.9649 21.0179 12.5551 20.2947C12.5103 20.2243 12.4526 20.0899 12.3886 20.1283C12.3118 20.1795 12.3886 20.3011 12.4206 20.3843C12.8432 21.5171 13.4964 22.5091 14.2136 23.4628C14.8987 24.3716 15.776 25.018 16.8389 25.4148C16.8645 25.4212 16.8837 25.4468 16.9029 25.466C16.8453 25.466 16.7877 25.4852 16.7365 25.466C16.3715 25.3316 16.0001 25.21 15.6543 25.0372C15.2509 24.8388 14.8539 24.6148 14.5209 24.3076C14.2071 24.0196 14.0471 23.6228 13.7781 23.2964C13.1954 22.5795 12.6511 21.8371 12.2541 20.9923C11.9788 20.3971 11.7099 19.8019 11.5754 19.1555C11.5754 19.1491 11.5754 19.1363 11.569 19.1299C11.4729 19.0339 11.4985 18.7715 11.3513 18.8163C11.236 18.8483 11.3449 19.0595 11.3641 19.1939C11.4409 19.8083 11.665 20.3715 11.934 20.9155C12.427 21.9331 13.0033 22.8995 13.823 23.706C13.8614 23.7444 13.887 23.7892 13.919 23.834C13.8358 23.8788 13.8037 23.802 13.7589 23.77C13.3875 23.4628 13.0161 23.1492 12.7344 22.7587C12.7216 22.7395 12.7024 22.7267 12.6896 22.7075L12.696 22.7139C12.6832 22.6755 12.6832 22.6371 12.6575 22.5987C12.4014 22.1699 12.1069 21.7603 11.8955 21.3123C11.4025 20.2755 11.0183 19.1939 10.839 18.0482C10.6469 16.7746 10.4228 15.501 10.0386 14.2657C10.0066 14.1633 10.0322 14.0993 10.109 14.0353C10.1923 13.9713 10.2563 14.0097 10.3203 14.0609C10.7365 14.3553 11.1528 14.6434 11.5754 14.9314C11.6266 14.9698 11.7035 14.9954 11.6586 15.0722C11.6202 15.1426 11.5498 15.1234 11.4921 15.0722C11.4473 15.0338 11.3769 14.9954 11.3449 15.0466C11.2872 15.1298 11.4025 15.1362 11.4409 15.1682C12.2029 15.7378 12.9777 16.301 13.7397 16.877C14.1751 17.2098 14.5913 17.5618 15.0204 17.9074C15.046 17.9266 15.0716 17.9906 15.11 17.9458C15.1292 17.9266 15.1228 17.8626 15.11 17.837C14.9115 17.5682 14.7706 17.2546 14.4697 17.0562C13.9958 16.749 13.5476 16.4034 13.0866 16.077C13.0225 16.0322 12.9457 15.9938 12.9713 15.8914L12.9777 15.885C13.554 16.1346 14.0151 16.5634 14.5465 16.8834C15.078 17.2034 15.5711 17.5746 16.1025 17.8946C16.6724 18.2658 17.1847 18.6819 17.6457 19.1491Z" fill="#EFCF94"/>
<path d="M22.1537 8.37116C21.6926 8.27516 21.1099 7.51353 21.0267 7.09752C20.9114 6.53431 20.9178 5.99029 21.1035 5.46548C21.2892 4.92787 21.6414 4.46066 21.8847 3.94864C22.0704 3.56464 22.3586 3.23183 22.4802 2.80942C22.4994 2.73262 22.5443 2.70702 22.6019 2.67501C22.6787 2.63661 22.7043 2.69422 22.7428 2.75182C22.9733 3.16143 23.191 3.57104 23.4407 3.96144C23.7097 4.37745 23.9466 4.81907 24.1195 5.27988C24.4012 6.02869 24.4909 6.80311 24.0682 7.54553C23.8569 7.91674 23.5688 8.23035 23.1206 8.32635C23.2294 7.68633 23.1141 7.07192 22.858 6.48311C22.8068 6.3615 22.7684 6.1823 22.6275 6.1823C22.4994 6.1823 22.4354 6.3423 22.397 6.4575C22.1665 7.07832 22 7.70554 22.1537 8.37116Z" fill="#EFCF94"/>
<path d="M27.7181 12.9089C27.9038 12.9025 27.9486 12.9985 27.955 13.1777C27.9615 13.7025 27.9871 14.2273 28.0127 14.7585C28.0127 14.8225 27.9807 14.9313 28.0767 14.9377C28.1728 14.9377 28.1792 14.8289 28.1856 14.7521C28.1984 14.2273 28.2112 13.7025 28.2112 13.1713C28.2112 13.0305 28.2304 12.9025 28.3264 12.7937C28.4481 13.2865 28.3328 13.7729 28.3008 14.2593C28.256 14.9825 28.2432 15.7121 28.2368 16.4353C28.2304 16.6978 28.1856 16.9218 27.9615 17.0818C27.923 17.1074 27.9038 17.1714 27.8526 17.1394C27.8206 17.1202 27.8014 17.0626 27.8078 17.0178C27.827 16.7426 27.7886 16.4802 27.7694 16.2049C27.7373 15.6417 27.6733 15.0785 27.6861 14.5217C27.6925 13.9905 27.6605 13.4465 27.7181 12.9089Z" fill="#EFCF94"/>
<path d="M24.1387 14.7969C23.8057 14.3489 24.0811 13.8881 24.1259 13.4401C24.1451 13.2673 24.1131 13.0689 24.2412 12.9153C24.286 12.8641 24.2732 12.7489 24.3628 12.7745C24.4076 12.7873 24.4333 12.8897 24.4461 12.9537C24.5613 13.5617 24.7342 14.1569 24.9391 14.7393C25.0352 15.0145 25.2145 15.2577 25.2081 15.5649C25.2017 15.6673 25.2145 15.7761 25.144 15.8593C24.7726 15.5457 24.4461 15.1809 24.1387 14.7969Z" fill="#EFCF94"/>
<path d="M26.6744 14.5089C26.6872 15.2002 26.7 15.8914 26.7128 16.589C26.7128 16.6338 26.7192 16.6722 26.7256 16.717C26.732 16.6786 26.732 16.6402 26.7448 16.6018C27.0202 15.7058 26.9241 14.7777 26.9561 13.8625C26.9561 13.8113 26.9433 13.7281 27.0138 13.7217C27.1098 13.7153 27.0842 13.8113 27.0842 13.8689C27.1098 14.5729 27.1546 15.2706 27.1418 15.9746C27.1354 16.2498 27.2827 16.4674 27.3019 16.7298C27.3019 16.7554 27.3787 16.7682 27.4236 16.7874C27.43 17.0306 27.4428 17.2802 27.4364 17.5234C27.43 17.7666 27.1802 17.8882 27.1034 18.0994C27.0842 18.1506 27.0073 18.1122 26.9881 18.0738C26.8665 17.7986 26.636 17.5874 26.6488 17.2354C26.6872 16.3266 26.668 15.4178 26.6744 14.5089Z" fill="#EFCF94"/>
<path d="M20.1942 15.8081C20.0918 15.6993 20.0726 15.5905 20.1174 15.4433C20.3095 14.7713 20.6105 14.1377 20.7193 13.4401C20.7449 13.2737 20.7833 13.1137 20.8218 12.9537C20.841 12.8897 20.8666 12.8001 20.9562 12.8129C21.0331 12.8193 21.0523 12.8961 21.0651 12.9537C21.1163 13.2481 21.2188 13.5361 21.238 13.8433C21.2508 14.1121 21.2892 14.3745 21.3212 14.6433C20.9434 15.0273 20.572 15.4177 20.1942 15.8081Z" fill="#EFCF94"/>
<path d="M17.8378 16.5826C17.9275 16.6786 17.8442 16.813 17.9019 16.9154C17.9147 16.8002 17.9467 16.685 18.0107 16.5826C18.0875 16.4674 18.1004 16.333 18.1068 16.1986C18.126 15.4305 18.1132 14.6561 18.2092 13.8881C18.2156 13.8305 18.1836 13.7281 18.2604 13.7281C18.3565 13.7345 18.3117 13.8433 18.3181 13.9009C18.3501 14.6369 18.2861 15.3857 18.4141 16.1154C18.4269 16.1858 18.4269 16.2562 18.4846 16.3138C18.5102 16.3394 18.523 16.3842 18.5358 16.4226C18.555 16.3778 18.5678 16.3394 18.587 16.2946C18.5934 16.6722 18.5998 17.0434 18.5998 17.421C18.5998 17.6834 18.4141 17.8626 18.2989 18.0738C18.2476 18.1634 18.1772 18.093 18.1324 18.0354C17.8955 17.7474 17.7738 17.4338 17.8314 17.0498C17.8506 16.9026 17.8378 16.7362 17.8378 16.5826Z" fill="#EFCF94"/>
<path d="M25.3105 16.0449C25.2913 15.3089 25.3873 14.5857 25.4193 13.8497C25.4193 13.8049 25.4065 13.7409 25.4642 13.7345C25.477 13.7345 25.5218 13.8049 25.5282 13.8433C25.5858 14.1697 25.6627 14.4897 25.6755 14.8161C25.6819 15.0529 25.7779 15.2577 25.7907 15.4881C25.7907 15.5073 25.8291 15.5521 25.842 15.5457C25.8996 15.5265 25.8804 15.4689 25.8804 15.4241C25.8868 15.0017 25.8868 14.5793 25.8932 14.1569C25.8932 14.1185 25.9124 14.0801 25.9188 14.0417C25.9252 14.0801 25.938 14.1121 25.9444 14.1505C26.0341 14.4705 25.9252 14.8225 26.0725 15.1361C26.0917 15.1809 26.0981 15.2321 26.1621 15.2129C26.1685 15.6801 26.1685 16.1537 26.1749 16.6209C26.1749 16.7041 26.1749 16.7873 26.0789 16.8129C25.9956 16.8321 25.9572 16.7681 25.9124 16.7105C25.7139 16.4929 25.509 16.2689 25.3105 16.0449Z" fill="#EFCF94"/>
<path d="M17.0182 14.8353C17.1975 14.9185 17.2679 14.8481 17.2679 14.6625C17.2679 14.1697 17.2679 13.6769 17.2679 13.1841C17.2679 13.1393 17.2423 13.0689 17.3063 13.0625C17.3704 13.0561 17.3383 13.1329 17.3576 13.1713C17.5112 13.4465 17.4856 13.7601 17.5433 14.0545C17.5625 15.0593 17.5561 16.0641 17.4856 17.069C17.4856 17.101 17.4664 17.1522 17.4408 17.165C17.396 17.1906 17.3832 17.1394 17.3512 17.1202C17.1526 16.9793 17.0566 16.8065 17.063 16.5505C17.063 15.9809 17.031 15.4113 17.0182 14.8353Z" fill="#EFCF94"/>
<path d="M19.0352 15.5393C19.2721 15.4753 19.2337 15.2641 19.2529 15.1041C19.2849 14.8097 19.2785 14.5153 19.2913 14.2209C19.2913 14.1697 19.2785 14.0673 19.3746 14.0801C19.4322 14.0865 19.413 14.1761 19.413 14.2273C19.4194 14.8417 19.4322 15.4561 19.4322 16.0705C19.4322 16.2305 19.4386 16.3842 19.4899 16.5378C19.4771 16.7362 19.2529 16.7426 19.1633 16.8898C19.1249 16.9474 19.0801 16.8386 19.0737 16.781C19.0608 16.3586 19.048 15.9489 19.0352 15.5393Z" fill="#EFCF94"/>
<path d="M19.6948 16.269C19.6756 16.237 19.6436 16.1986 19.6436 16.1666C19.6308 15.405 19.5859 14.6369 19.7332 13.8817C19.746 13.8305 19.714 13.7409 19.8037 13.7409C19.8165 13.7409 19.8357 13.8369 19.8421 13.8881C19.8869 14.6113 19.9317 15.3281 19.9701 16.0514C19.8997 16.1538 19.8037 16.2178 19.6948 16.269Z" fill="#EFCF94"/>
<path d="M28.7747 13.2737C28.7555 12.9857 28.7747 12.6977 28.8579 12.4225C28.8643 12.3969 28.8835 12.3457 28.8963 12.3457C28.954 12.3457 28.9476 12.3905 28.9476 12.4289C28.9604 12.6913 28.9796 12.9537 28.9924 13.2161C28.9283 13.2353 28.8515 13.2545 28.7747 13.2737Z" fill="#EFCF94"/>
<path d="M26.4631 22.1571C26.4503 21.0946 26.0661 20.141 25.5731 19.2258C25.4706 19.0338 25.3681 18.8418 25.2721 18.6562C25.3681 18.6562 25.445 18.6946 25.4898 18.7714C25.8804 19.3986 26.2902 20.0194 26.5079 20.7362C26.7256 21.4466 26.6552 22.1635 26.5015 22.8739C26.4951 22.8931 26.4887 22.9187 26.4759 22.9379C26.4759 22.9123 26.4759 22.8803 26.4759 22.8547C26.4695 22.6179 26.4631 22.3875 26.4631 22.1571Z" fill="#4A4A4F"/>
<path d="M20.0341 18.5922C19.714 19.1746 19.381 19.7571 19.1441 20.3843C18.9328 20.9411 18.7983 21.5043 18.8367 22.0995C18.6574 22.1699 18.7087 22.0227 18.7023 21.9459C18.587 21.1075 18.8303 20.3523 19.2529 19.6483C19.4578 19.3091 19.6692 18.9698 19.8869 18.637C19.8997 18.6242 19.9317 18.413 20.0341 18.5922Z" fill="#4A4A4F"/>
<path d="M33.9998 18.5858C33.9614 19.277 33.7565 19.917 33.4939 20.5378C33.0585 21.5746 32.4758 22.5347 31.733 23.3795C31.5665 23.5715 31.3616 23.7251 31.1759 23.8979C31.1503 23.9171 31.1375 23.9811 31.0927 23.9299C31.0863 23.9235 31.1119 23.8787 31.1247 23.8595C31.4897 23.3475 31.8803 22.8419 32.2261 22.3107C32.7319 21.5234 33.2186 20.7234 33.5004 19.8082C33.6284 19.3986 33.7437 18.989 33.8653 18.573C33.8846 18.5154 33.8717 18.4194 33.955 18.4386C34.0318 18.4514 33.987 18.541 33.9998 18.5858Z" fill="#4A4A4F"/>
<path d="M31.4577 21.3315C31.4641 21.3123 31.4705 21.2995 31.4769 21.2803C31.4769 21.2867 31.4833 21.2931 31.4833 21.2931C31.4705 21.3123 31.4641 21.3187 31.4577 21.3315Z" fill="#042A45"/>
</svg>
