<?xml version="1.0" encoding="utf-8"?>
<!-- Generator: Adobe Illustrator 27.3.1, SVG Export Plug-In . SVG Version: 6.00 Build 0)  -->
<svg version="1.1" id="Слой_1" xmlns="http://www.w3.org/2000/svg" xmlns:xlink="http://www.w3.org/1999/xlink" x="0px" y="0px"
	 viewBox="0 0 1366 768" style="enable-background:new 0 0 1366 768;" xml:space="preserve">
<style type="text/css">
	.st0{fill:#4A4A4F;}
	.st1{display:none;fill:#042A45;}
	.st2{fill:#EFCF94;}
	.st3{fill:#042A45;}
</style>
<g>
	<path class="st0" d="M558.5,302.4c0-11.6,0.7-23.3-0.2-34.8c-0.9-11.8,5.2-18.9,14.2-24.4c17-10.4,36.1-14.5,55.5-17.3
		c0.5-0.1,1,0,1.5-0.1c7.8-1.6,7.9-1.6,7.9-10c0-11.6,3.8-21.9,9.7-31.7c10.6-17.9,21.3-35.8,27.9-55.7c0.9-2.8,2.2-5.4,3.4-8.1
		c0.2-0.5,0.6-1.2,1.1-1.3c0.8-0.2,0.8,0.7,1,1.2c6.3,17.9,15.1,34.6,24.6,51c6,10.3,12.5,20.4,15.2,32.3c1.4,6.1,1.1,12.3,1.1,18.4
		c0,2.4,0.7,3.1,3.2,3.4c21.6,2,42.6,6.1,61.6,17.3c9.4,5.6,15.5,12.9,15.1,25.2c-0.7,24-0.2,47.9-0.3,71.9c0,2.5-0.4,4.9,0.4,7.3
		c1.8-1.4,3.6-2.8,5.5-4.2c18.3-13.6,39.2-21,61.1-26.1c14.4-3.4,29.2-5.5,43.3-10.3c1-0.3,2.4-0.4,3.2,0.1c0.9,0.6,0.1,1.8-0.4,2.6
		c-10.9,18-16.5,37.9-20.8,58.2c-3.4,16.1-5.9,32.3-9.2,48.5c-1.2,5.8-3.2,11.5-4.8,17.2c-0.5,1.6-0.9,2.4,1.6,2
		c17.2-2.9,34.3-3,51.5,0c7.7,1.4,15.6,1.6,23,4.6c1,0.4,2.1,0.8,3.1,1.4c0.6,0.3,1.6,0.9,1.6,1.3c-0.1,1-1.2,1-2,1.1
		c-9.1,1.3-17.9,3.8-26.4,7.3c-0.5,0.2-1,0.6-1.4,0.9c0.6,0.1,1.2,0.3,1.8,0.1c5.8-1.3,11.6-2.9,17.4-3.8
		c11.5-1.9,23.1-3.6,33.9,3.1c0.2,0.1,0.5,0.2,0.7,0.4c1.4,1.2,3.9,2.3,3.9,3.5c0.1,1.7-2.7,1.7-4.2,2.3
		c-8.3,3.5-16.5,7.2-23.9,12.5c-1.1,0.8-3.7,1.5-2.3,3.6c1.3,1.8,3.2,2.2,5.5,0.8c11.9-7.7,24.6-13.7,38.7-16
		c6.1-1,12.2-0.8,18.1,1.7c1.5,0.6,2.8,1.3,2.8,3c0,1.7-1.7,1.5-2.8,1.9c-15,7-28.2,16.5-40.6,27.3c-1.7,1.5,0,1.8,0.5,2.4
		c10,12.7,18,26.6,21.4,42.6c1.1,5.1,1.4,10.4,1.8,15.7c0.1,1.9-1.7,1.7-3,1.7c-7.7-0.3-15.3-1.9-23.1-2.4c-9-0.6-17.9-0.5-26.9,0.3
		c-10.1,0.9-20.1,2.7-29.8,5.8c-0.8,0.3-2.1,0.2-2.2,1.1c-0.2,1.2,1.3,1.3,2.1,1.7c2.5,1.1,5.2,1.9,7.8,2.8
		c-2.1,1.6-4.4,2.9-6.3,4.7c-4.1,3.9-9.6,5.9-13.4,10.2c-1,1.1-1.3,1.5-0.6,3.6c3.6,9.6,6.7,19.5,8.7,29.7
		c2.1,11.4,2.5,22.9,0.7,34.3c-0.6,4-3.1,2-4.7,0.9c-7.7-5.5-15.8-10.3-24.3-14.4c-17.5-8.5-36-11.4-55.2-9.8
		c-5.3,0.4-10.7,1.1-15.5,3.8c-0.6,0.3-1.6,0.2-1.5,1.2c0,0.1,1.1,0.2,1.7,0.2c8.1,0,16.3-0.3,24.4-0.1c7.5,0.1,14.9,1.2,22.2,3
		c0.6,0.2,1.2,0.7,1.8,1.1c-0.4,0.3-0.7,0.7-1.1,1c-16,10.3-32,20.7-49.3,28.8c-26.3,12.2-53.6,21.2-82.3,26
		c-10.9,1.8-21.9,3.1-32.8,4.5c-1.4,0.2-3.4,0.3-4.1-0.5c-1-1.1,0.8-2.4,1.4-3.5c5.3-10.2,13.2-18.5,20.5-27.3
		c5.8-7,10.7-14.6,14.9-22.6c0.5-1,0.8-2.1,1.1-3.2c0.4-1.8-0.5-3.5-1.9-4.1c-1.5-0.7-1.8,1.3-2.3,2.3c-8.3,14.4-19,26.9-29.4,39.8
		c-7.1,8.9-12.1,19-15.3,29.9c-0.5,1.7-0.9,4-3.8,3.5c-2.8-0.5-6.5,1.4-7.6-3.1c-4.8-19.4-17.7-33.8-29.8-48.7
		c-5.3-6.4-9.9-13.2-14-20.4c-0.8-1.4-1.5-4-3.3-3.1c-1.5,0.7-1.4,3.2-0.8,5.1c1.7,5.6,5.1,10.4,8.2,15.2
		c5.1,7.8,11.4,14.6,17.3,21.8c3.8,4.6,7.2,9.5,10,14.7c0.6,1.2,1,2.5,1.5,3.7c-1.4,0.1-2.9,0.6-4.3,0.4c-8-0.9-16.1-1.8-24.1-3
		c-17.3-2.7-34.3-6.4-50.9-11.9c-26.2-8.7-50.9-20.4-74-35.4c-4.5-2.9-9-5.9-13.5-8.7c-0.8-0.5-1.7-0.8-1.5-1.8
		c0.2-1,1.2-0.5,1.9-0.6c10.3-2.3,20.7-3.8,31.2-3.2c4.5,0.3,9,2,13.5,0.3c0.7-0.3,1.6-0.3,2.4-0.4c-0.2-1.3-1.2-1.8-2.4-2
		c-5.1-1-10.2-2.7-15.4-3c-15-0.7-29.8,0.1-44.1,5.9c-11.3,4.6-22.4,9.5-32.2,17c-1.1,0.8-2.1,2-3.4,2.3c-2,0.5-4,1.4-4.2-2.6
		c-0.3-8.2-0.8-16.3-0.1-24.5c1.1-13.5,4.7-26.3,10.2-38.6c0.8-1.8,1.3-2.6-0.9-4c-6.2-3.9-12-8.3-18-12.3c-0.9-0.6-1.8-1.2-1.9-2.1
		c0-1.4,1.5-0.9,2.3-1.2c2.7-1.1,5.4-2.1,8.1-3.1c-2.5-1.8-5.7-1.9-8.5-2.6c-18.9-4.8-38.2-6.2-57.7-4.5c-4.9,0.4-9.7,1.4-14.6,2.1
		c-2.9,0.5-4.6,0.4-4.6-3.7c0.3-20.9,9.5-38.1,21.8-54.1c1.4-1.8,2.9-3.1,0.3-5.3c-12.7-10.4-25.7-20.5-41.1-26.7
		c-2.7-1.1-1.8-2.1-0.4-3.2c5.8-4.4,12.5-4.1,19.1-3.3c14.8,1.8,27.8,8.7,40.4,16.2c2.1,1.3,3.8,1.2,5.2-0.6c1.8-2.4-1-2.6-2-3.3
		c-8.4-5.9-17.6-10.3-27.2-14c-1-0.4-1.7-0.8-1.8-2c-0.1-1.3,0.9-1.4,1.7-1.8c1.3-0.6,2.7-1,3.9-1.7c12.8-7.5,26.1-3.6,39.3-1.6
		c5.3,0.8,10.4,2.4,15.6,3.6c0.5,0.1,1,0.1,1.5,0.1c-0.5-0.3-0.9-0.8-1.4-0.9c-10.1-3.2-20.1-6.9-30.7-8.4c-0.9-0.1-1.9-0.1-2.2-1
		c-0.1-0.3,1.2-1,1.9-1.3c11.3-5.7,22.9-6.9,34.9-2.5c2.2,0.8,4.4,1.4,6.7,0.8c-1.9-1.4-4.1-1.4-6.3-1.9c-1.8-0.4-3.6-1-5.4-1.4
		c-1.2-0.2-2.6,0.1-3.1-1.4c1.1-0.4,2.3-1,3.4-1c15.9-0.6,31.8-2,47.5,1.4c2.4,0.5,3-0.2,2.2-2.3c-5.9-15.5-7.7-31.8-10.6-48
		c-2.3-13.1-5.6-26-9.1-38.8c-3.7-13.1-8.4-25.7-15.4-37.3c-0.4-0.6-0.5-1.3-0.7-2c0.8-0.2,1.7-0.6,2.4-0.5c3.1,0.7,6.2,1.4,9.2,2.3
		c13,4.3,26.7,5.5,39.8,8.9c17.6,4.4,34.4,10.8,49.9,20.4c3.7,2.3,7.1,5,10.6,7.5c0.6,0.4,1.4,1.1,1.9,0.9c1.1-0.3,0.5-1.5,0.5-2.3
		c0-13.9,0-27.7,0-41.6C558.6,302.4,558.5,302.4,558.5,302.4z M807.8,361.3c3.7-2.3,7.3-4.8,11.1-7c8.1-4.5,15.6-9.8,22.5-15.8
		c0.6-0.5,1.8-0.9,1.6-2.1c-0.8,0.2-1.7,0.3-2.4,0.6c-13.2,5.1-24,13.3-33.2,23.9c-0.4,0.1-0.8,0.3-1.2,0.4
		C806.8,361.3,807.3,361.3,807.8,361.3z M524.2,471c0.2,0.3,0.5,0.5,0.7,0.8c4.4,6.2,10.2,11,16,15.8c0.7,0.6,1.2,1.8,2.5,1
		c-0.5-0.7-1-1.4-1.5-2c-12.8-12.5-21.8-27.7-29.5-43.6c-4.1-8.5-7.7-17.3-8.9-26.9c-0.3-2.1-2-5.4-0.2-5.9c2.3-0.7,1.9,3.4,3.4,4.9
		c0.1,0.1,0,0.2,0.1,0.4c2.1,10.1,6.3,19.5,10.6,28.7c6.1,13.1,14.6,24.8,23.8,36c4.2,5.1,6.7,11.3,11.6,15.8
		c5.3,4.8,11.4,8.3,17.7,11.4c5.4,2.7,11.2,4.6,16.9,6.7c0.7,0.3,1.7,0,2.6,0c-0.3-0.3-0.6-0.6-1-0.8c-16.6-6.2-30.3-16.3-41-30.5
		c-11.2-14.9-21.4-30.5-28-48.1c-0.5-1.4-1.7-3.3-0.5-4c0.9-0.6,1.9,1.5,2.6,2.6c6.4,11.3,13.5,22.2,20.9,32.9
		c11.5,16.6,25.6,30.5,42.4,41.7c8.6,5.8,18.1,9.7,27.6,13.6c0.8,0.3,1.9,0.1,2.9,0.1c-0.1-1.2-1.2-1.5-2-2
		c-3.4-2.2-6.7-4.5-10.2-6.6c-17.3-10.6-34.7-21.1-47-37.9c-5.3-7.3-10-15-14.2-23.1c-0.3-0.5-1.1-1-0.5-1.5
		c0.8-0.7,1.3,0.1,1.8,0.6c0.5,0.6,1,1.1,1.5,1.7c6.3,8.2,12.7,16.2,19.7,23.7c5.2,5.7,10.8,10.8,16.6,15.7c0.8,0.7,1.8,2.1,2.8,1.2
		c1.3-1.2-0.7-1.8-1.2-2.5c-3.4-4.7-7-9.2-10.4-13.9c-7.7-10.7-13.8-22.3-18.8-34.5c-3.5-8.6-7.2-17.2-10.6-25.8
		c-0.5-1.2-0.4-2.7-0.5-4c0.9,1.1,1.8,2.2,2.7,3.4c0.1,0.1,0.1,0.2,0.1,0.3c6.6,12.3,12.9,24.8,19.8,36.9
		c9.1,15.9,18.3,31.9,32.5,44.2c0.5,0.4,0.7,1.6,1.6,0.9c1.3-1-0.3-1.3-0.7-1.8c-9.1-12.5-17.8-25.3-25.2-38.9
		c-4.4-8.1-8.4-16.4-12.4-24.7c-0.3-0.5-1.4-1.5-0.2-2.1c1-0.5,1.5,0.7,2,1.3c5.3,7.5,10.7,14.9,15.8,22.6c4.8,7.2,9.3,14.7,14,22
		c0.5,0.8,1.4,1.3,2.2,1.9c-0.2-0.8-0.4-1.6-0.5-2.4c-1.5-7.4-5.8-13.5-9-20.1c-3.2-6.5-6.8-12.8-10.2-19.2c-0.5-1-1.4-2.3-0.3-3
		c1.1-0.7,1.9,0.6,2.6,1.5c4.2,5.6,8.4,11.2,12.6,16.8c0.5,0.7,0.8,1.7,1.8,1.4c1.1-0.4,0.6-1.5,0.6-2.3c0.1-10-2.8-19-8.6-27.1
		c-0.4-0.6-1.7-1.4-0.9-2.1c1.1-1,1.7,0.3,2.3,1c2.7,3.1,5.4,6.2,8,9.3c0.7,0.8,1,2.2,2.3,2.2c0.3,0,0.6-1.6,0.8-2.5
		c1.1-5.8,3.1-11.2,5-16.8c1.5-1.9,3.1-3.4,0.7-6c-14.5-15.5-31.8-27.2-50.4-37.1c-18.3-9.7-35.8-20.6-51.2-34.6
		c-7.5-6.8-16.3-10.9-26.3-12.6c-1.7-0.3-2.5-0.2-1.7,2.2c2,5.6,3.3,11.5,5.1,17.2c6.6,21.1,9.2,43,14,64.5
		C497.2,432.5,507.6,453.4,524.2,471L524.2,471z M510.8,483.8c0.2,0.2,0.3,0.5,0.5,0.7c0.1-0.1,0.2-0.2,0.2-0.3
		C511.3,484.1,511,483.9,510.8,483.8c-2.9-3-6.9-2.4-10.5-2.9c-8.9-1.4-17.9-2.6-26.8-3.9c-0.4-0.1-1.1-0.5-1.1-0.8
		c-0.1-0.9,0.8-0.5,1.2-0.6c8.6-1.7,17.3-2.5,26.1-2.3c0.8,0,3.1,0.7,2.4-0.8c-0.8-2.1-1.8-5-4.8-5.1c-9-0.3-18.2,0-26.8,2.5
		c-26,7.6-47.7,21.9-64.9,43c-1.4,1.7-2.6,3.6-3.9,5.4c2.1,1.3,4.2,0.1,6.4-0.1c0.6-0.1,1.2,0,1.9,0c7-0.2,14-0.3,20.9-0.5
		c0.8,0,2.7,0.2,2.2-1c-1.3-3,0.9-1.8,1.8-1.6c4.8,1,9.5,2.1,14.2,3.1c5.3,1.2,10.6,2.2,16.1,2.4c0.5,0,1-0.1,1.4-0.2
		c-0.4-0.2-0.8-0.6-1.2-0.7c-7.6-1.4-14.7-4.4-22-6.6c-5.6-1.7-11.5-3-16.6-6.1c-0.7-0.4-1.7-1-1.3-2c0.2-0.3,1.4-0.3,2.1-0.3
		c16.8,1.4,33,7,50.1,5.9c0.4,0,0.8-0.2,1.3-0.2c-0.4-0.3-0.7-0.6-1.1-0.8c-7.4-2.6-14.9-5.1-22.3-7.7c-3.5-1.2-7-2.5-10.4-3.8
		c-0.8-0.3-1.6-1-1.1-2c0.4-0.9,1.3-0.5,2-0.4c4.6,0.7,9.3,1.1,13.8,2.2c12,2.8,23.9,6,35.9,8.6c4.2,0.9,8.7,3.8,13.2,0.4
		c0.6-0.4,1.1-0.9,1.7-1.4c-0.7-0.3-1.4-0.8-2.2-0.9c-15.7-3.9-30.7-10.6-46.5-14.2c-0.5-0.1-1-0.6-1.5-0.9c0.6-0.1,1.2-0.3,1.8-0.2
		c6.8,0.9,13.6,1.8,20.4,2.7c12.5,1.6,24.8,4.2,37.1,6.7c2.5,0.5,3.8-1.4,5.8-1.8c-0.8-1.6-2.5-1.7-3.9-2.3
		c-0.6-0.2-1.2-0.3-1.8-0.5c-10.2-3.1-20.4-6.1-30.6-9.2c-0.9-0.3-1.7-0.9-2.6-1.3c0.9-1.1,2.1-0.3,2.9-0.1
		C496.6,484.3,503.7,483.7,510.8,483.8z M672,246.8c2.2,2.1,4.1,5.3,6.7,5.9c3.3,0.8,4.4-3.8,6.9-5.5c0.5-0.3,0.9-0.7,1.4-1
		c7-1.5,11.5-6.4,14.8-12.2c6.6-11.6,5.3-23.7,0.8-35.4c-2.7-7.2-6.4-14-10.6-20.6c-4-6.1-7.4-12.6-10.9-18.9c-0.6-1-1-1.8-2.2-1.2
		c-0.8,0.4-1.5,0.9-1.9,2.1c-1.8,6.5-6.3,11.7-9.3,17.8c-3.9,8-9.3,15.3-12.2,23.7c-2.9,8.3-3,16.7-1.2,25.5
		C655.7,233.4,664.8,245.3,672,246.8z M750.5,460.1c0.8-4.2,0.8-8.5,0.1-12.7c-0.8-10.3-3.7-20.1-7.9-29.6
		c-7-15.8-18.8-28-30.6-40.1c-11.2-11.5-22.9-22.7-30.5-37.2c-0.6-1.1-0.7-3.1-2-3.1c-0.8,0-1.7,1.9-2.3,3.1
		c-7.5,14.4-18.9,25.6-30,37c-6.2,6.3-12.4,12.6-18,19.5c-10.9,13.6-18.2,29-20.5,46.3c-0.9,7-1.3,14.3,0.4,21.4
		c0.1,2.5-0.1,4.9,0.5,7.4c2.4,10.4,6.8,19.8,12.5,28.7c7.4,11.6,16.9,20.8,28.6,27.9c1,0.6,2.1,1.4,2.9,0.4
		c0.8-0.9-0.3-1.8-0.9-2.5c-4.2-5-7.3-10.7-10.1-16.6c-6.7-13.8-10.1-28.3-10.4-43.7c0-0.6,0.1-1.2,0.2-1.7c0.2,0.5,0.5,1.1,0.7,1.6
		c2.7,8.4,5.1,17,8.3,25.2c5.1,12.9,12,24.8,21.9,34.8c2.3,2.3,3.8,5.4,7,6.8c0.4,0.2,0.8,0.4,1.2,0.7c0.1-0.6,0.4-1.3,0.1-1.7
		c-4.4-8.4-5.7-18-9.3-26.7c-2-4.8-4.8-9.5-6-14.6c-3.9-16.7-3-33.5-0.5-50.3c0.1-0.7-0.1-1.8,0.8-1.9c1.4-0.1,0.9,1.2,0.9,2
		c0,9.6,0.7,19.1,1.6,28.7c1,10.7,3.1,21.2,5.7,31.7c0.1,0.4,0.5,0.7,0.8,1.1c0.1-0.5,0.2-0.9,0.2-1.4c-0.1-11.4,1.7-22.8,1-34.3
		c-0.2-4.1-0.4-8.2,0.4-12.3c0.5-2.4,0.3-5.9,3-6.1c1.3-0.1,1.5,4,1.5,6.3c0.4,16.5-0.3,33,1.8,49.3c0.8,6.1,2.1,12.1,3.3,18.1
		c0.2,1,0.7,2.1,2.2,2.1c1.3,0,1.6-0.6,1.9-1.8c1.9-9.6,4.3-19,4.3-28.9c0-13.1,0.2-26.2,0.3-39.3c0-1.6-0.4-3.7,2.3-3.8
		c2.5-0.1,3.2,1.5,3.2,3.6c0.2,10.7,0.6,21.3,1.7,32c0.5,4.7,0.2,9.5,0.3,14.2c0,0.7-0.2,1.7,0.8,1.8c0.3,0,1-0.9,1-1.4
		c0.4-7.4,3.2-14.4,4.1-21.7c1.5-12.5,1.7-25,1.6-37.6c0-0.9-0.6-2.4,0.7-2.5c1.2-0.1,1.7,1.2,1.9,2.4c3,17.9,2.5,35.7-1.7,53.4
		c-1.4,5.7-5.4,10.2-6.9,15.8c-2,7.3-3.2,15-7,21.7c-0.3,0.6-0.6,1.8-0.3,2c0.8,0.6,1.6,0,2.2-0.6c3.9-4,8-7.7,11.5-12
		c13.3-16.9,19.9-36.7,25-57.2c0.1-0.5,0.1-1,0.2-1.4c0.1,0.5,0.3,1,0.3,1.5c0.5,23.2-6.1,44.1-19.6,62.9c-0.5,0.7-2.4,1.4-1.3,2.5
		c0.7,0.7,2-0.1,3.2-0.8c6-4,11.5-8.5,16.6-13.7c14.6-14.8,23.8-32,24.9-53C750.2,461.3,750.4,460.7,750.5,460.1z M568.1,558.3
		L568.1,558.3c0.6-2.9-1.6-1.6-2.5-1.4c-18.9,4.5-37.7,9.1-56.5,13.7c-1.6,0.4-3,1.2-4.7,0.7c1-1.6,2.8-1.9,4.3-2.6
		c16.1-7.1,33.3-10.9,50.1-16.2c11.3-3.5,22.8-6.7,34.1-10.1c1-0.3,3.4,0.4,3.1-1.6c-0.2-1.4-2.3-1.2-3.6-1
		c-11.7,1.8-23.6,2.8-34.8,7c-1.2,0.5-2.2-0.1-3.2-0.1c-0.4,0-0.7-0.5-1.1-0.8c0.4-0.2,0.7-0.6,1.1-0.7c8.9-2.1,17.9-4.3,27.1-4.9
		c6-0.4,11.9-1.6,17.7-3.5c0.2-0.1,0.4-0.2,0.7-0.3c-0.4,0-0.9-0.1-1.3-0.1c-6.7,0.8-13.3,1.5-19.9,2.5c-11.6,1.9-23.2,4.1-34.7,6.2
		c-0.8,0.1-1.7,0-2.6,0c0.7-0.4,1.3-1,2.1-1.3c8.5-2.8,16.6-6.5,25.3-8.5c3.4-0.8,6.7-2.3,10.1-3.5c0.5-0.2,1.2-0.8,1.2-1.2
		c-0.1-0.8-1-0.5-1.5-0.4c-4.1,0.4-8.2,0.5-12.2,1.2c-19.1,3.6-37.4,10-55.4,17.1c-1,0.4-2.3,2.1-3.2,0.7c-0.7-1.2,0.8-2.4,1.8-3.4
		c0.9-0.8,2-1.5,3-2.3c5.6-4.1,12.1-6.1,18.5-8.4c12.1-4.3,24.3-8.3,37.2-10c0.7-0.1,1.3-0.5,1.9-0.8c-0.6-0.4-1.1-0.8-1.8-1.1
		c-6.2-3.1-12.5-3-19.4-2.1c-11.7,1.4-23.1,3.5-34.1,7.4c-0.9,0.3-1.5,1.8-2.8,0.9c0.7-0.8,1.3-1.8,2.2-2.4
		c8.3-5.8,17.1-10.7,26.7-14.2c1.3-0.5,3.9-1,3.5-1.7c-0.9-1.7-2.8-3.2-5.2-2.6c-1.3,0.3-2.5,0.9-3.8,1.2
		c-26.3,6.9-43.5,24.3-54.7,48.2c-5.3,11.3-9.7,22.9-14.3,34.5c-2.9,7.4-4.7,15.1-6.2,22.8c-0.2,1-0.3,2.1,0.1,2.9
		c0.4,0.8,1.3-0.1,1.9-0.4c19.3-11,40.6-12.9,62.1-14.2c9.7-0.6,19.6-0.8,29.2-2.7c15.3-3,30.5-6.8,44.3-14.8
		c5.7-3.3,11.2-6.8,15.6-11.8c0.8-0.9,1.8-2.8,1.5-3.1c-1.1-1.1-2.1,0.2-3.1,0.7c-4.7,2.4-9.4,4.8-14.1,7.1
		c-23.2,11.3-47.9,16.5-73.4,18.5c-18,1.4-35.8,3.3-52.8,9.9c-0.7,0.3-1.4,0.4-2.1,0.6c0-0.8-0.3-1.7-0.1-2.5
		c1.1-5,3.4-9.7,5.4-14.4c0.6-1.5,1.8-2.2,3.4-2.5c5.8-1.2,11.7-2.5,17.5-3.9c14-3.5,27.7-8,41.8-11c12.8-2.7,25.7-5.4,38-10.2
		c0.4-0.2,0.8-0.4,1.3-0.7c-0.5-0.1-1-0.2-1.5-0.3c-0.7,0-1.5,0.1-2.2,0c-0.6-0.1-1.3-0.3-1.9-0.5c0.5-0.3,1-0.6,1.6-0.8
		c5.2-1.6,10.4-3.1,15.5-4.8c2.3-0.8,4.2-2.1,5.5-4.2c0.3-0.5,0.2-1.4,0.3-2.1c-0.6,0-1.2-0.1-1.8,0.1
		C583.9,552.9,576,555.6,568.1,558.3z M818.8,545.2c-1.4,0.6-2.7,0.1-4-0.2c-10.3-2-20.5-3.9-30.8-5.9c-0.5-0.1-1.4-0.6-1.5,0.2
		c-0.1,0.8,0.9,0.6,1.4,0.7c4.6,0.9,9.3,1.8,13.9,2.9c2,0.5,4.3,0.2,5.9,2c0.3,0.4,0.6,0.9,0.8,1.4c-0.5-0.1-1-0.1-1.5-0.2
		c-8.7-0.9-16.6-5-25.5-5.4c-2.1-0.1-4.9-0.7-7-2.2c2.3,0.3,4.7,0.7,7,1c0.1,0,0.3,0.1,0.4,0.1c0.6-0.1,1.6-0.3,1.6-0.4
		c0-1-0.9-0.5-1.4-0.6c-6.7-1-13.5-2.1-20.2-3c-2-0.3-4,0.1-6,0.2c1.8,0.3,3.6,0.6,5.4,1c0.7,0.1,1.4,0.4,2.1,0.7
		c0.7,0.3,1.9,0.1,1.9,1.3c0,0.2-1.3,0.3-2.1,0.4c-0.5,0.1-1,0-1.5,0.1c0.5,0.3,0.9,0.6,1.4,0.8c5,1.9,10.2,3,15.5,3.9
		c7.7,1.3,14.5,5.8,22,7.5c16.2,3.7,31.3,10.3,47.1,15.3c0.6,0.2,1.4,0.1,1.3,1c-0.1,1.2-1,0.8-1.7,0.7c-0.9,0-1.7-0.2-2.6-0.4
		c-22.4-5.4-44.9-10.9-67.3-16.3c-2-0.5-4.1-1.1-6.2-1.3c-1.1-0.1-2.2,0.7-3.3,1.1c0.9,0.6,1.7,1.4,2.7,1.8
		c10.1,3.4,20.2,6.7,30.3,10c0.7,0.2,1.8,0.7,1.8,1c-0.1,1-1.1,0.7-1.8,0.8c-0.8,0.1-2-0.2-2,1c0,1.2,1.2,0.9,2,1.1
		c10.7,2.6,21.4,5.3,32.1,7.9c17.4,4.2,34.4,10.1,52.2,12.6c2.3,0.3,3.1,2.1,3.7,3.7c1.8,4.7,3.3,9.4,4.9,14.1
		c0.2,0.7,0.2,1.5,0.2,2.2c-0.8,0-1.6,0-2.5-0.3c-5.8-2.5-11.8-4.2-17.9-5.7c-15.6-3.6-31.6-4-47.4-5.8c-13.2-1.5-26-4.3-38.7-8.2
		c-12.5-3.8-23.9-10-35.5-15.7c-1.2-0.6-2.4-1.4-3.8-0.8c0.7,1,1.3,2.1,2.2,2.9c12.7,12.2,28.2,18.8,44.9,23.1
		c19.6,5.1,39.8,6.1,59.8,7.4c16.1,1.1,31.2,4.9,45.5,12.4c0.7,0.4,1.5,1.4,2.2,0.6c0.4-0.5,0.4-1.7,0.2-2.5
		c-1.2-5.4-1.9-11-3.9-16.2c-6.7-17.7-13-35.5-22.4-52.1c-11.5-20.2-29.3-32.1-51.1-38.6c-1.3-0.4-3.6-1.2-4.2,0.8
		c-0.7,2.1,1.4,2.4,2.9,3.1c3.2,1.4,8.6,1.4,9.1,4.3c0.8,4.7,4.4,4,6.7,5.7c2,1.5,4.4,2.4,6.5,3.7c0.7,0.4,2.1,1.1,1.4,2.2
		c-0.4,0.7-1.5,0.1-2.4-0.1c-5.9-1.9-11.8-4-17.8-5.6c-11.2-2.9-22.5-4.9-33.5,0.9c-0.4,0.2-0.9,0.3-1.3,0.4
		c0.4,0.3,0.8,0.6,1.2,0.7c3.1,0.6,6.3,1.1,9.4,1.8c10.4,2.3,20.4,5.7,30.5,9.3c7,2.5,13.7,5.5,19.5,10.2c0.8,0.6,2.2,1.5,1.6,2.7
		c-0.8,1.4-2.2,0.2-3.2-0.1c-13.1-4.6-25.9-10.2-39.3-13.6c-11.7-3-23.5-6.5-35.9-4.7c-0.3,0-0.7-0.1-1-0.2c0-0.1,0.1-0.3,0.1-0.3
		c0.4,0,0.9-0.1,1.3,0c6.9,1.1,13.4,3.5,19.9,5.8C801.6,538.6,810.5,541,818.8,545.2L818.8,545.2z M693.4,291.3
		c4.1-0.4,8.2-0.7,12.2-0.7c14.8-0.2,29.1-3.7,43.5-6.3c11.6-2.1,22.6-5.7,31.7-13.5c3.9-3.3,3.9-8.5,0.3-12.1
		c-5-5-11.3-7.7-17.7-10.1c-12.4-4.8-25.5-7.1-38.6-8.8c-3-0.4-7-2.7-9.4,1.7c-6.6,12-16.8,19.2-30,22.2c-0.6,0.1-1.6,0.6-1.5,0.7
		c0.2,1,1.1,0.5,1.8,0.6c4.7,0.7,9.4,1.1,14,2.2c4.4,1,8.7,2.3,11.6,6.2c2.2,2.8,1.2,4.5-2,5c-9,1.4-18,3-27.1,3
		c-9.5,0.1-18.9-0.1-28.3-2.2c-2.7-0.6-6.4-0.6-6.9-3.6c-0.6-3.5,3-4.7,5.7-6.1c0.8-0.4,1.6-0.6,2.5-0.9c4.9-1.4,9.8-2.7,14.9-3.2
		c1.3-0.1,2.6-0.5,3.9-0.8c-0.8-1.3-2.4-1.1-3.6-1.5c-3.7-1.4-8-2-10.9-4.3c-6.4-5-12.8-10.3-16.4-18c-0.7-1.4-1.8-2.2-3.6-1.9
		c-9.8,1.8-19.7,2.7-29.3,5.3c-10.1,2.8-20.3,5.4-29.2,11.6c-6.6,4.6-7.8,11.4-2.3,15.2c3.3,2.3,6.8,4.3,10.3,6.3
		c7.6,4.4,16,6.5,24.4,8.1c12.9,2.6,26.1,3.9,39.2,5.4c5.1,0.6,10.2,0.4,15.4,0.6C676.3,292.1,684.9,292,693.4,291.3z M783.9,365.7
		L783.9,365.7c-0.1-2.2-0.1-4.5-0.1-6.7l0,0c0-1.7,0-3.4,0-5.2c0-1.5,0-3,0-4.5c0-2.5,0.1-5.1,0.1-7.6l0,0
		c0.1-16.8,0.1-33.7,0.4-50.5c0.1-4.2-1.6-4.4-4.3-2.7c-6.9,4-14.4,6.6-22,8.5c-18.1,4.6-36.6,7.1-55.1,8.2
		c-12.6,0.7-25.2,1.3-38,0.4c-15.8-1.1-31.6-2.4-47.2-5.4c-13.7-2.7-27.5-4.7-39.5-12.7c-2.4-1.6-3.3-0.9-3.3,2
		c0.2,14.9,0.2,29.7,0.3,44.6c0.1,10.6,0.4,21.2,0.3,31.8c0,2.6,1.6,2.7,3,2.8c2,0.2,0.8-1.6,0.8-2.3c0.2-12.7,0.2-25.5,0.6-38.2
		c0.1-2-2.4-6.1,1.8-6.1c3.5,0,2.4,4.1,2.5,6.4c0.3,13.9,0.3,27.7,0.4,41.6c0,1.1-0.1,2.4,0.4,3.3c0.5,1,1.7,2.2,2.5,2.2
		c1-0.1,0.4-1.7,0.4-2.6c0.1-8.2,0.1-16.5,0.2-24.7c0.7-3.3,1.2-6.6-0.1-9.8c0.2-4.9,0.5-9.9,0.6-14.8c0.1-4.1,0-8.2-0.1-12.3
		c0-0.9,0-2,1.2-1.9c0.9,0.1,0.6,1.2,0.6,1.9c0.2,2.2,0.4,4.4,0.6,6.6c-1.6,6-1.3,12,0.1,17.9c0.2,4,0.5,8,0.7,12
		c0.2,9,0.7,17.9,0.6,26.9c-0.1,4.1,1.5,6.7,4.5,8.9c0.5,0.3,0.7,1.2,1.4,0.7c0.4-0.3,0.7-1,0.7-1.5c1.1-15.7,1.2-31.4,0.9-47.1
		c0-7.2,0-14.4,0-21.6c0-1.1-0.6-2.8,1.5-2.7c1.9,0.1,1.5,1.7,1.5,2.8c0.2,7,0,14.1,1,21.1c0.1,6,0.3,11.9,0.4,17.9
		c0.1,7.3,0.2,14.5,0.3,21.8c0,2.5,0.2,5-0.2,7.5c-0.9,5.9,1,10.9,4.7,15.4c0.8,0.9,1.9,2,2.6,0.6c1.8-3.3,4.6-6.2,4.7-10.2
		c0-5.9-0.1-11.7-0.2-17.6c-0.2-6.3-0.6-12.7-0.3-18.9c0.5-9.4,0.1-18.9,0.5-28.3c0.1-3.6-0.7-7.2,0.6-10.7c0.4-1.2,0.1-3,2.1-2.9
		c2,0,2.3,1.9,2.5,3.2c1.9,15.2,1.9,30.4,1.8,45.7c0.2,6.4,0.4,12.9,0.6,19.3c0,0.9,0.8,2.7,1.4,1.7c1.4-2.2,4.9-2.3,5.1-5.5
		c0.9-1.5,3-2.1,3.3-4.1c1.6-0.8,3.2-1.8,4.3-3.4c1.2-1.3,2.3-2.6,3.5-3.8c5.8-6.1,11.7-12.2,17.5-18.3c5.3-7.2,11.4-13.7,15.4-21.8
		c0.9-1.9,8.8-3,9.4-1.2c2.3,7,8.1,11.6,12.3,17.3c2.1,2.8,3.6,6.4,7.1,8.2c4.7,6,9.8,11.7,15.7,16.6c0.8,1,1.7,1.9,2.5,2.9
		c3.2,3.5,6.4,6.9,9.5,10.5c0.8,0.9,1.3,1.9,2.6,1.6c1.5-0.4,1.5-1.7,1.5-3c-0.1-7.3-0.1-14.7-0.2-22c0.3-8.5,0-17.1,1-25.6
		c0.5-5.1-0.3-10.4,1.9-15.3c0.6-1.3,0.4-3.1,2.5-3.1c2.3,0.1,1.2,2,1.6,3.1c0.8,2.3,0.8,4.6,0.8,6.9c0,7.6,0.1,15.2,0.1,22.8
		c-0.1,14.2,0.2,28.4-0.4,42.6c-0.2,5.5,3.4,8.8,5.3,13.1c0.3,0.6,1.5,1.3,1.8,0.4c1.3-3.3,5.1-5.2,5.2-9c0.1-3.8-0.1-7.7-0.2-11.5
		c0.2-9.5,0.4-18.9,0.7-28.4c0.2-5.2-0.7-10.4,0.3-15.6c0.1-2.5,0.2-4.9,0.2-7.4c0.1-4.3,0.1-8.6,0.2-13c0-1.2,0.3-2.5,1.6-2.4
		c1.4,0.1,0.6,1.6,0.8,2.4c0.3,1.3-0.6,2.7,0.8,3.8c-0.9,8.4-0.4,16.9-0.6,25.3c-0.2,8.7,0.8,17.5,1.3,26.3
		c0.2,4.2,0.8,8.4,0.6,12.7c0,0.6,0.3,1.6,0.7,1.9c0.8,0.5,1.1-0.6,1.7-0.9c3.6-2.5,4.3-6,4.3-10.1c0.2-11.3,0.3-22.7,1-34
		c0.5-7.6,2.3-15.2,0.4-22.9c0-0.9-0.2-1.8,0.1-2.6c0.4-1.2-1.2-3.5,1.4-3.4c2,0.1,1.1,2.1,1.1,3.3c0.3,19.4,0.4,38.8,0.7,58.2
		c0,1-0.9,2.6,0.6,2.8c1.5,0.3,2.4-1.1,2.6-2.5c0.2-1.1,0.2-2.2,0.2-3.4c0.1-15,0.2-29.9,0.3-44.9c1.2-0.3,2.3-0.6,3.5-0.9
		c0.3,14.3,0.7,28.5,1.1,42.8c0,1-0.7,2.7,0.8,2.8C782,368.2,783.9,367.8,783.9,365.7z M842.9,461.4c4.3-5.6,8.4-11.4,11.6-17.7
		c9.5-18.3,14.1-38,17.4-58.1c3.3-20,8-39.6,14.4-58.8c1-3-1.2-2-2-1.8c-8.2,1.3-15.9,4-22.3,9.5c-15.9,13.6-32.8,25.8-51.4,35.4
		c-17.4,9-33.7,19.4-48.1,32.7c-7.3,6.7-7.9,7.9-4.7,13c0.7,6.5,4.4,12.2,4.8,18.7c0,0.4,0.5,0.8,0.8,1.2c0.4-0.4,1-0.7,1.3-1.2
		c2.3-4.3,5.7-7.7,8.9-11.3c0.4-0.4,0.9-0.7,1.3-1.1c0,0.6,0.3,1.4,0,1.7c-0.8,0.8-0.9,1.9-1.5,2.8c-4.6,7.6-7.1,15.9-8.1,24.7
		c-0.1,1.1,0,2.2,1,2.6c1.3,0.5,1.5-0.8,2.1-1.5c4.8-5.6,8.2-12.3,13.7-17.3c0.5-0.5,0.9-1.5,1.7-0.9c0.3,0.2,0.3,1.4,0,2
		c-2.7,5.7-5.7,11.3-8.6,17c-3.7,7.3-7.7,14.5-11.2,22c-0.5,1.1-1.5,2.6-0.3,3.3c0.8,0.5,1.7-1.1,2.4-1.9
		c4.5-5.9,8.3-12.4,12.1-18.8c5-8.5,10.6-16.6,16.7-24.3c0.5-0.7,1.6-0.9,2.4-1.3c-0.3,1.1-0.5,2.3-1,3.4c-4.6,8.9-9,18-13.8,26.8
		c-6.7,12.1-13.9,23.9-23.2,34.4c-0.5,0.5-1.5,1-1,1.7c0.8,1,1.6-0.1,2.1-0.5c7.2-6.7,13.7-14,19.4-22c6.6-9.2,11.4-19.5,17.3-29.1
		c3-5,5.9-10.1,8.4-15.3c2.8-5.8,5.6-11.6,8.8-17.2c0.3-0.5,0.9-0.8,1.4-1.2c0,0.5-0.1,1-0.1,1.6c0.1,2.7-1.7,4.8-2.4,7.3
		c-4.7,15.9-12.6,30.5-20.3,45c-4.8,9-11.9,16.7-17.9,25c-0.5,0.6-1.9,1.1-1.1,2c0.9,0.9,1.8-0.2,2.4-0.9c3.9-3.7,8.1-7,11.9-10.7
		c6.5-6.5,12.5-13.3,18.4-20.4c3.4-4.1,5.7-9.2,10.5-12.2c0,0,0,0,0,0c-0.3,1.2-0.5,2.5-1,3.5c-5.9,10.8-12.6,21.1-20.9,30.2
		c-13.5,14.9-31.3,23.9-47.9,34.4c-1.1,0.7-2.6,1.2-2,2.6c0.6,1.2,2.5,0.6,3.4,0.2c7.3-3.9,15.7-5.8,22.5-10.8
		c11.5-8.4,23.5-16.1,32.5-27.8c6.4-8.3,12.8-16.6,18.7-25.3c5.4-8,10.2-16.3,15.4-24.5c0.5-0.8,1.4-1.4,2.1-2
		c-0.1,0.9,0,1.9-0.4,2.7c-3.7,8-6.7,16.2-11.2,23.9c-6.3,10.8-12.8,21.6-20.7,31.1c-7.5,9-17,16.2-27.6,21.6
		c-0.9,0.5-3.1,0.7-2.6,2c0.4,0.8,2.3,0,3.6-0.5c9.4-4.2,18-9.6,26.5-15.4C821.4,485.8,832.8,474.4,842.9,461.4z M669,587.3
		c0,4.8,0,11,0,17.3c0,0.9,0,2-1,2.2c-1,0.1-1.2-1-1.6-1.8c-1.2-2.3-0.7-4.9-1.1-7.3c-1.5-10.9-2-22-1.6-33c0.1-2.1-0.2-3.4-2.7-4
		c-1.9-0.5-0.9,2.9-2.8,1.5c-0.1,0.4-0.3,0.8-0.4,1.2c-3,12.4-2.3,25-2.3,37.5c0,2.4,1.3,6.5-1.7,6.8c-2.5,0.2-2.6-4.1-3.1-6.7
		c-2.3-12.6-1.2-25.4,0-38c0.3-3.5-3.4-4.6-3-7.7c-0.2,0.4-0.6,0.8-0.7,1.2c-1.7,5.7-2.5,11.6-2.8,17.5c-0.3,7.9-0.6,15.9,0.7,23.9
		c0.2,1,1.1,2.8-0.7,3.1c-1.4,0.2-1.9-1.4-2.3-2.6c-1.8-6.5-3.7-12.9-3.5-19.7c0.1-6,0.2-12,0.2-18c0-1.2,0.2-2.5-1.9-2.2
		c-1.4,0.2-3.3-1.2-3.8,1.5c-1,4.9-2.5,9.8-2.9,14.7c-1.7,20.7,5.6,38.6,17.4,55.2c10.3,14.5,23.5,26.9,30.8,43.5
		c0.7,1.6,1.1,1.3,1.9-0.1c2.4-4.2,5-8.3,7.6-12.3c8.1-12.7,18.8-23.6,27-36.2c13.3-20.3,17.7-41.8,11-65.3
		c-0.8-2.8-2.2-2.3-3.6-1.5c-4.2,2.2-2.4,6.3-2,9.4c1.3,10.8,0.4,21.3-3.3,31.5c-0.4,1.1-0.7,2.9-2.2,2.7c-1.9-0.3-0.7-2-0.8-3.1
		c-0.2-1.7-0.4-3.5-0.1-5.2c2.1-10.9,0.7-21.7-0.8-32.5c-0.1-0.9,0-2.3-1.6-1.9c-1.2,0.3-2.9,0.2-2.9,2.3c0,1.2,0,2.5,0.2,3.7
		c2.2,13,0.9,25.8-1.5,38.6c-0.3,1.5,0,4.1-2.4,3.9c-2.4-0.2-2.3-2.5-2.3-4.4c-0.3-9.8-0.4-19.7-1-29.5c-0.2-3.4,0.3-7.1-1.4-10.3
		c-0.7-1.3-1.4-3.4-3.8-2.7c-2.1,0.7-1.2,2.6-1.2,3.8c0.5,10-0.3,19.9-0.9,29.8c-0.2,3.3,0.1,7-2,10c-0.4,0.6-0.2,1.6-1.2,1.4
		c-0.9-0.1-1.1-0.9-1.1-1.7c-0.3-4.4-1.5-9-0.8-13.3c1.4-8.9-1.5-17.5-1-26.2c0.1-2.2-0.8-2.5-2.6-2.5c-1.8,0-2.3,0.5-2.4,2.6
		c-1,11.6-0.1,23.2-0.7,34.8c-0.4,7,0,14.1-1.3,21.1c-0.2,1,0.4,2.4-1.5,2.3c-1.6-0.1-2.1-1.1-2.2-2.5c-0.1-3.2-0.3-6.5-0.3-9.7
		c-0.3-15.3-0.8-30.7-0.9-46c0-3.4-2.3-2.1-3.8-2.6c-2.2-0.7-1.6,1-1.8,2.1C669.1,571,670.2,578.5,669,587.3z M865,473.2
		c5.1,0.1,11.6,0.7,17.9,2.4c0.5,0.1,0.9,0.7,1.4,1c-0.4,0.1-0.8,0.3-1.2,0.4c-7.4,1-14.8,2-22.2,3.1c-4,0.6-8.2,0.7-12,2.3
		c-0.5,0.2-1.1,0.8-1.1,1.2c0,0.9,0.6,0.3,1,0.2c6.5-0.2,13,1.2,19.5-0.1c0.6-0.1,1.6-0.5,1.8,0.5c0,0.3-1,0.9-1.7,1.1
		c-4.5,1.4-9,2.5-13.4,4c-1.2,0.4-4.1,0.1-3.2,2.2c0.6,1.5,1.6,4,5,3.4c12.3-2.3,24.6-4.3,37.1-5.5c1-0.1,2.1,0.3,3.2,0.5
		c-0.3,1.6-1.8,1.6-2.9,1.8c-15.1,2.6-29,9.3-43.9,12.8c-1.1,0.2-1.1,0.5-0.5,0.9c2,1.4,3.9,3,6.7,2.6c9.7-1.2,19.1-4.2,28.5-6.6
		c9.8-2.5,19.4-5.3,29.6-5.9c0.8-0.1,2-0.5,2.3,0.5c0.4,1.3-0.9,1.6-1.8,1.9c-0.9,0.3-1.9,0.6-2.8,0.9c-10.2,3.5-20.4,7-30.6,10.6
		c-0.5,0.2-1,0.7-1.5,1c0.3,0.1,0.5,0.4,0.8,0.3c5.2-1.3,10.4,0.4,15.5,0c5.1-0.4,10.2-2.2,15.3-3.1c6.1-1,12.3-1.7,18.4-2.5
		c1.1-0.1,2.3,0.1,2.5,1.1c0.2,1.1-1.1,1.1-1.9,1.4c-3.3,1.3-6.7,2.3-10,3.6c-12.5,4.8-25.3,8.5-38.3,11.7c-0.5,0.1-1.1,0.2-1.7,0.3
		c0.6,0,1.3,0,1.9-0.1c4.5-0.8,9.2-2.4,13.6-1c4,1.2,7.6,0.7,11.3-0.2c15.6-3.6,31.4-4.9,47.4-3.6c0.6,0.1,1.6,0.8,1.9-0.2
		c0.1-0.5-0.6-1.3-1-1.8c-5.5-6.7-11.2-13.3-17.8-19c-21.6-18.9-46.2-30.2-75.4-30.2c-4.2,0-4.7,3.1-5.8,5.4
		c-0.3,0.7,3.1,0.2,4.7,0.5C862.1,473.3,862.9,473.2,865,473.2z M959.2,528.7c-13.3-1.4-27,2.5-40.7,5.5c-9.3,2-18.4,4.8-27.6,7.1
		c-1.3,0.3-2.9,0.3-2.3,1.9c0.5,1.2,0.8,3.5,3.3,2.8c2.6-0.7,5.3-0.9,7.8-1.7c20.5-6.2,41.5-10,62.9-10.3c5.9-0.1,11.9,0.4,17.8,0.8
		c3.6,0.2,3.7-1.4,2.5-4c-1.8-3.5-3.4-7.1-5.4-10.5c-9.6-16.1-22-29.6-36.5-41.3c-19.1-15.4-40.6-24.1-65.2-25.2
		c-4.9-0.2-9.1-0.1-10.4,5.8c-0.1,0.7-1.4,1-0.7,1.8c0.4,0.4,1.4,0.5,2.1,0.4c8.6-0.8,16.6,1.8,24.8,3.6c23.5,5,43.7,16.3,60.9,32.9
		c8.3,8,15.7,16.9,21.3,27.1c1.4,2.5,1.2,3.6-2,3.4C967.9,528.6,964.1,528.7,959.2,528.7z M398.7,528.6c-4.1,0-8.2-0.1-12.4,0
		c-2.4,0.1-2.4-0.4-1.3-2.4c5.2-10,12.5-18.5,20.2-26.7c12.6-13.4,27.8-23.1,44.7-29.6c13.1-5.1,27.1-8.1,41.4-8.7
		c0.7,0,2.7,0.9,2-0.9c-1-2.6-1-6.5-5.3-6.6c-14.9-0.4-29.4,1.9-42.8,8.3c-29.6,14.1-52.3,35.6-67.5,64.9c-3.7,7.2-3.6,7.3,4.1,7
		c0.5,0,1,0,1.5,0c7.9,0.3,15.9,0,23.8,0.6c14.2,0.9,28,3.1,41.7,6.8c5.5,1.5,10.9,2.9,16.4,4.4c2.6,0.7,4.6,0,5.2-2.6
		c0.4-1.8-1.8-1.6-2.9-1.9c-7.9-2.3-15.8-4.5-23.7-6.5C429,531.2,414.1,528,398.7,528.6z M501.6,587.5c0.4,0,0.7,0,0.9,0
		c20.6-3.8,41.3-6.9,61.7-12c5.6-1.4,11.1-3.6,16.6-5.5c0.6-0.2,1.5-1,1.4-1.4c-0.2-1-0.9-0.2-1.4-0.1c-17.1,4.8-34.3,8.8-51.7,12.3
		c-9,1.8-17.9,4.1-26.9,6.3c-0.6,0.1-1.1,0.5-1.6,0.8C501.1,587.7,501.4,587.6,501.6,587.5z M851.2,586c0.5,0.1,1,0.1,1.5,0.2
		c-0.7-0.3-1.4-0.7-2.1-0.9c-18.9-4.9-38.3-7.7-57.1-12.8c-4.2-1.2-8.3-3.3-12.9-2.8c-0.6,0.1-1.4-0.2-1.5,0.6c0,0.6,0.6,0.8,1.3,1
		c7.9,2.1,15.6,4.5,23.6,6.3C819.5,581.2,835.3,583.7,851.2,586z M551.3,360.4c-0.4-0.6-0.8-1.3-1.4-1.9c-1.7-1.6-3.4-3.2-5.1-4.8
		c-7.9-6.9-16.2-13.2-26.4-16.5c-0.7-0.2-1.3-0.4-2-0.1c0.4,0.4,0.9,0.8,1.3,1.2c9.6,9.1,21.1,15.4,32.2,22.3
		C550.2,360.9,550.8,362.3,551.3,360.4z M390.7,456.2c-0.8,0.1-1.7,0.3-2.5,0.5c0.8,1,1.8,0.3,2.7,0.5c2.2,0.4,4.4,0.6,6.6,1.2
		c5.1,1.4,10.3,2.5,14.9,5.3c0.4,0.2,1.1-0.2,1.7-0.3c-0.2-0.2-0.3-0.5-0.5-0.5C406.2,459.8,398.8,457.1,390.7,456.2z M481,510.6
		l0.1-0.2l-0.2,0L481,510.6z"/>
	<path class="st1" d="M778.1,188.3c-0.1-2.8,1.5-4.8,2.8-7c8-13.4,15.9-26.9,23.9-40.3c4.5-7.7,9.1-15.4,13.6-23.1
		c1.5-2.5,2.1-5.3-0.8-7.2c-3.3-2.1-5,0.5-6.5,2.8c-12.8,20.8-25.3,41.7-39.6,61.5c-2.3,3.2-5.1,5.9-7.7,8.9
		c-2.3-0.3-1.8-3.3-3.7-3.9c0.2-0.7,0.4-1.5,0.5-2.2c0,0,0.2,0.1,0.2,0.1l-0.1-0.1c1.5-6,4.8-11.3,7-16.9c3.4-8.4,7.3-16.6,10.8-25
		c4.5-10.6,9.2-21,13.9-31.5c1-2.2,1.7-4.6-0.8-5.9c-2.4-1.3-4.8-0.7-6.2,2.2c-7.1,14.4-14,28.9-21.4,43.1
		c-6.2,11.9-11.9,24.1-19.5,35.3c-0.6,0.8-1.3,2.7-2.7,1.8c-1.4-0.8-2-2.5-1.8-4.2c1.7-11.5,5.3-22.5,9.1-33.5
		c3-9,5.9-18.1,8.8-27.1c2.4-7.5,4.7-15,7.1-22.5c0.7-2.4,1.4-4.8-1.7-5.9c-3-1.1-4.8,0.6-5.7,3.2c-2.9,8.3-5.5,16.6-8.5,24.8
		c-3,8.2-6.6,16.2-9.5,24.5c-2.3,6.7-5.4,13-7.3,19.9c-1.3,4.8-4.5,9.1-6.9,13.6c-0.7,1.4-2,1.9-3.5,1.5c-1.5-0.4-1.5-1.8-1.4-3.1
		c1.1-10.3,2.3-20.7,4.2-30.9c3.2-17.2,7.8-34.2,10-51.7c0.2-1.3,0.6-2.6,0.9-3.9c0.6-2.7-0.6-4.4-3.2-4.8c-2.4-0.3-3.7,0.4-4.4,3.4
		c-4.9,21.5-10.3,42.9-15.4,64.3c-0.9,3.8-1.6,7.6-2.5,11.4c-0.1,0.6-0.6,1-0.9,1.5c-0.3-0.3-0.6-0.6-0.8-1c-2.2-4.2-4.7-8.4-6-13
		c0,0,0-0.1,0-0.1c-0.1-1.1-0.1-2.2-0.2-3.2c0.1-3,0.1-5.9,0.2-8.9c0.3-10.2,0.1-20.4,1.1-30.5c0.8-8,1.9-15.9,2-23.9
		c0-2.4-0.5-3.8-3.3-3.8c-2.4,0-4.5,0-4.8,3.2c-1.4,14.3-3,28.5-4.5,42.8c-0.1,0.7,0.3,1.7-0.6,1.9c-1.5,0.3-0.9-1.1-1.2-1.8
		c-4.3-10-7.3-20.4-10.4-30.9c-0.2-0.8-1-1.6-1.5-2.3c-0.4,0.7-0.9,1.4-1.1,2.1c-2.7,9.2-5.6,18.4-9.2,27.3
		c-0.3,0.6,0.2,1.8-0.8,1.8c-1.4,0-0.8-1.3-0.8-2c-1-13.1-2.1-26.3-3-39.4c-0.2-2.9-2.2-2.6-4-2.6c-2,0-4.3,0-4.1,2.9
		c0.2,3.7,0.6,7.4,0.9,11.1c0.1,3.7,0.3,7.4,0.4,11.1c0.2,13.2,0.5,26.4,0.7,39.6c0.1,5.7-4.3,9.8-5.9,14.9c-0.3,1-0.9,0.9-1.4-1
		c-2.1-8.7-4-17.3-6-26c-2.2-9.4-4.5-18.8-6.6-28.2c-1.2-5.6-2.1-11.3-3.2-16.9c-0.5-3-1.7-5.3-5.3-4.4c-3.2,0.8-2.8,2.9-2.2,5.7
		c3.2,17.3,6,34.6,9.1,51.9c2,11.3,4.2,22.5,3.6,34.1c-0.1,1.1,1.1,2.8-1.1,3.3c-2.1,0.4-3.1-0.7-3.9-2.5
		c-4.4-8.9-7.1-18.4-10.5-27.6c-6.8-18.3-13.2-36.8-19.9-55.2c-0.8-2.3-2.3-3.9-5.1-3c-2.7,0.8-2.9,2.5-2.1,5.1
		c3.5,10,6.9,20,10,30.2c3.9,12.9,7.3,25.9,11.2,38.8c1.7,5.8,2.7,11.6,2.8,17.5c0,1.2,0.8,3-1.2,3.4c-1.9,0.4-2.5-1.2-3.2-2.5
		c-8.1-15.8-16.2-31.7-24.4-47.5c-5.2-10-10.6-19.9-15-30.4c-0.8-1.9-1.4-4.3-4.4-4.3c-3.8,0-5.1,2-3.5,5.5
		c10.2,21.4,19.4,43.1,28.6,64.9c2.2,5.1,3.6,10.2,4.9,15.5c0.3,1.4,1.1,3.5-0.8,4.4c-2.1,1.1-3.1-1-4.1-2.3
		c-10.1-13.8-18.9-28.5-28.8-42.4c-6.8-9.6-12.4-20-18.8-29.9c-1.8-2.8-4.1-4.1-7.1-2.1c-1.5,1-2.1,2.2-0.8,4.3
		c13.6,21.6,26.5,43.7,39,66c2.7,4.7,4.2,10,4.9,15.4c0.2,1.1,0.5,2.5-0.8,3c-1.1,0.4-1.5-1.1-2.1-1.8c-19.1-22.7-37.5-45.9-56-69.1
		c-1.7-2.2-3.3-6.3-7.8-4.1c-2,1-2.7,2.3-1.2,4.3c8.9,12.1,17.8,24.1,26.7,36.2c4.6,6.3,8.7,12.9,13.3,19.1
		c4.8,6.4,9.3,12.9,12.6,20.2c1.1,2.6,0.7,4.7-1.3,6.1c-2.1,1.5-3.3-0.9-4.4-2.1c-11.3-11.8-22.3-23.9-33-36.3
		c-8.8-10.3-17.9-20.4-27-30.5c-1.4-1.5-2.7-3.3-5.3-3c-1.8,0.2-2.7,1.4-3.3,2.7c-0.7,1.4,0.4,2.5,1.3,3.6
		c11.5,14.1,22.8,28.4,34.5,42.4c7.7,9.2,15.3,18.4,22.4,28.1c-2.3,1.3-4.5,2.7-5.3,5.4c-11.2-10.9-22.4-21.9-33.6-32.8
		c-9.5-9.3-18.9-18.7-28.5-27.8c-2.6-2.5-6.3-6.7-9.7-3.3c-3.1,3.2,1.2,6.3,3.6,8.8c18.6,19.6,37.2,39.2,55.8,58.8
		c2.1,2.3,4.3,4.6,5.5,7.5c0.3,0.7,1.5,1.5,0.6,2.3c-1,0.8-1.8-0.3-2.5-0.8c-6.4-4.8-12.8-9.5-19-14.6
		c-15.1-12.4-30.1-24.9-45.1-37.4c-3.4-2.9-6.8-5.8-10.2-8.7c-1.4-1.2-2.9-1.9-4.2-0.4c-1.2,1.5-0.2,3,1.2,4.1
		c11.1,9,22.2,18.1,33.3,27.1c13.4,10.8,26.7,21.6,40.2,32.1c3.4,2.6,1.8,5.3,1,7.8c-0.6,1.9-2.5,0.6-3.7-0.2
		c-10.8-7-21.2-14.4-31.6-22c-15.5-11.4-31-22.6-46.6-33.9c-2.2-1.6-4.8-3.3-7.1-0.8c-2.3,2.5-1.4,5.3,1.2,7.4
		c11.5,9.2,22.9,18.5,34.6,27.5c12.2,9.4,24.6,18.5,37,27.7c2.7,2,5.2,4.1,7,7c1,1.7,0.7,3-1.4,3.1c-2.8,0.1-5.5,0.2-8.2-1.3
		c-25.8-14-51.1-28.8-75.3-45.4c-2.1-1.5-4.2-2.9-6.4-4.2c-1.7-1-3.8-1.6-5.3,0.2c-1.6,2-1.4,4.3,0.7,5.9c3.3,2.5,6.6,5.2,10.2,7.3
		c17.1,10.3,33.1,22.2,49.9,32.8c8.4,5.3,17.1,10.2,24.5,16.9c1.5,1.3,4.2,3.1,2.9,4.9c-1.4,1.8-4.3,1.9-7.1,0.9
		c-19.8-7.1-38.3-17.1-57.3-26.1c-11.2-5.3-21.9-11.7-32.8-17.5c-2.5-1.3-5-3.2-7.5,0.3c-1.9,2.8-0.2,4.2,1.7,5.4
		c8.8,5,17.7,9.9,26.5,14.9c19.7,11.3,40.1,21.5,60.5,31.5c0.7,0.3,1.4,0.6,2,1c2.4,1.7,7,2.6,5.5,6.3c-1.1,2.9-5.4,2.3-8.3,1.8
		c-11.3-1.8-22-5.9-32.6-10c-12.1-4.7-24.1-9.6-36-14.6c-7-2.9-13.8-6.3-20.6-9.6c-2.6-1.2-5-2.6-8.1-2.4c-1.5,0.1-2.7,0.4-3.2,1.9
		c-0.5,1.4-0.4,2.8,0.8,3.8c1.4,1.1,2.9,2,4.4,2.7c13,6.2,26.1,12,38.9,18.5c7.4,3.7,15.1,6.6,22.5,10.1c6.3,3,13.7,3.8,20.7,5.6
		c19.6,5,38.7,11.2,56.6,20.9c1.1,0.6,3.1,7.9,2.3,8.8c-1.1,1.2-2.2,0-3-0.4c-6.5-3.1-12.8-6.8-19.5-9.5
		c-16.3-6.7-33.1-11.5-50.5-14.6c-7.7-1.4-15.3-3.6-22.8-6c-10.3-3.2-21.3-3.6-31.5-7.3c-7.8-2.8-15.7-5.1-23.5-7.8
		c-2.8-0.9-4.8-0.9-5.9,2.3c-1.1,3.3,1.2,4.2,3.4,5c11.3,4.1,22.5,8.2,33.9,11.9c3.6,1.1,5,3.7,6.7,6.4c2.1,3.4,3.9,6.9,5.9,10.3
		c1.3,2.2,0.5,3-1.7,2.5c-9.9-2.3-19.8-4.2-29.8-5.5c-7.7-1-15.3-3.2-23.2-3.4c-1.6,0-3.4-0.5-3.7,2c-0.2,2.1,0.2,3.9,2.5,4.4
		c5.9,1.4,11.9,2.7,17.9,3.9c13.9,2.8,27.9,5.5,41.8,8.2c1,0.2,1.6,0.7,1.9,1.5c1.3,3.7,2.7,7.4,3.9,11.1c0.6,1.7,0.1,2.7-1.9,2.5
		c-20.4-2.4-40.8-3.7-61.3-4.8c-2.9-0.1-5.8-0.1-8.8-0.2c-2.3,0.5-2.9,2.2-2.7,4.2c0.2,2.4,2.2,2.6,3.8,2.8
		c10.9,1.1,21.8,2.2,32.8,3.1c12.4,1.1,24.9,2.1,37.3,3c1.3,0.1,2.9,0.5,3.1,1.5c0.6,4,3.2,7.4,3.2,11.5c0,2.3-1.3,1.9-2.7,2
		c-24.6,1-49.3,2-73.9,1.6c-2.6,0-5.1-0.3-5.1,3.4c0,3.5,2.5,3.3,5,3.3c24.8,0,49.7,0.1,74.5,0c4,0,5.5,1.2,5.9,5.3
		c1.1,9,1.3,9.1-7.9,9.7c-12.2,0.8-24.4,1-36.5,2.4c-12.5,1.5-25,2.3-37.5,3.6c-2,0.2-2.7,1.9-2.5,3c0.2,1.8,1.7,3.6,3.7,3.6
		c8.6-0.2,17.2-0.1,25.6-1.1c4.3-0.5,8.7-0.8,12.8-0.8c14-0.1,27.9-2.2,41.9-2.5c2.7-0.1,3.7,0.8,4.3,3.6c0.9,4.6,1.9,9.2,3,13.7
		c0.7,3-0.5,2.6-2.1,2.2c-10-2.9-20.4-2.9-30.5-2.6c-14.2,0.3-27.9,3.8-41.3,8.6c-8.7,3.1-17.3,6.7-25.4,11.1c-2.1,1.1-3,0-3.4-1.8
		c-2.4-11.5-4.3-23-5.4-34.7c-1-10.4-1.5-20.8-1.3-31.3c0.4-20,3.2-39.7,7.6-59.3c4-17.2,9-34,15.7-50.3
		c4.4-10.9,9.7-21.5,15.1-31.9c8.4-16,18.1-31.3,29.1-45.7c13.9-18.3,29.8-34.7,47.2-49.7c14.1-12,28.9-22.9,44.8-32.3
		c18-10.7,36.8-19.6,56.4-26.8c21-7.8,42.6-13,64.8-15.7c13.7-1.7,27.4-3.6,41.3-3c16.9,0.7,33.7,2.3,50.4,5.1
		c20.5,3.4,40.3,8.9,59.6,16.3c22.2,8.4,43,19.5,62.7,32.6c18.1,12,34.7,25.9,49.9,41.3c16.4,16.5,30.6,34.7,43.1,54.3
		c12.8,20.1,23.9,41.2,31.9,63.7c6.8,18.9,12.1,38.1,15.5,57.9c3,16.9,4.7,34,4.4,51.1c-0.4,19.5-3.1,38.7-6.8,57.8
		c-0.5,2.6-1.7,3.6-4.4,2c-13.3-7.7-27.9-12.5-42.8-16c-12.3-2.9-24.9-4.6-37.7-3c-5.4,0.7-10.8,1-16,2.3c-1.8,0.5-2.2,0.1-1.7-1.9
		c1-3.9,1.6-7.9,2.4-11.8c1.2-5.6,3.6-6.6,9.6-5.8c11,1.5,22.1,1.7,33.2,2.5c13.7,1.1,27.4,0.6,41.1,1.9c1.8,0.2,4,0.1,4.3-2.8
		c0.2-2.6-1-3.6-3.4-3.8c-15.3-0.9-30.4-3-45.7-4c-11.4-0.8-22.9-1.4-34.2-2.8c-1.3-0.2-2.7,0.2-1.6-2c0.6-1.2,0.3-2.7,0.6-4
		c1.8-8.1,1.8-8.2,10.1-8.2c23.5,0,46.9,0.1,70.4,0.2c2.5,0,5.1,0.2,5.2-3.1c0.1-3.2-2.2-3.9-5.1-3.8c-15.2,0.1-30.5,0.2-45.7,0
		c-9.6-0.2-19.3-1-28.9-1.4c-2-0.1-1.9-1.1-1.8-2.4c0-0.3,0.4-0.6,0.5-1c3.4-12.3,3.4-11.7,16.1-12.6c17-1.2,34.1-1.8,51-5.1
		c3.5-0.7,7.1,0.4,10.7-0.7c2.1-0.6,2.9-1.6,2.3-3.4c-0.5-1.6-0.6-3.2-3.6-2.8c-7,0.9-14.1,0.1-21.2,0.8
		c-15.7,1.4-31.5,2.1-47.2,3.1c-2.3,0.2-2.8,0.1-2.4-2.9c1.3-10.4,8.1-12.4,16.8-13.8c15.8-2.6,31.4-6.3,47.1-9.5
		c2.3-0.5,4.2-1.2,3.9-4c-0.3-2.9-2.5-3.1-4.8-2.8c-8.4,1.2-16.8,2.4-25.2,3.8c-9.3,1.6-18.5,3.4-27.7,5.1c-0.6,0.1-1.4,0.1-1.8-0.2
		c-0.8-0.7,0.2-1.4,0.5-1.9c2.5-4.4,4.9-8.9,7.7-13.1c2.9-4.4,8.3-4.7,12.7-6.4c8.9-3.5,17.9-6.6,27-9.6c3.4-1.1,3.2-3.2,2.5-5.5
		c-0.7-2.3-2.7-2.6-4.9-1.9c-11.7,3.6-23.1,8.2-35.1,10.6c-17.1,3.4-33.7,9-50.9,12.3c-20.5,3.9-40.2,10.5-58.5,20.7
		c-0.5,0.3-1.1,0.7-1.6,0.9c-1.7,0.5-4.2,3.1-5,0.9c-0.8-2.2-2-5.9,1.6-8c10.7-6.2,22-11.1,33.7-14.5c27-7.9,54.2-15.3,79.3-28.7
		c9.3-4.9,19.1-9,28.6-13.5c2-0.9,3.8-2.1,3.2-4.7c-0.6-2.7-2.6-3-4.9-2.6c-3.7,0.6-6.8,2.4-10.1,3.9c-12.5,5.6-25.1,11-37.8,16.2
		c-9.5,3.9-19,7.7-28.6,11.2c-7.4,2.7-15,4.9-22.9,6.1c-2.4,0.3-3.9-0.8-4.8-2.7c-1-2,0.7-2.9,2.1-3.7c11-5.8,21.9-11.9,33.1-17.4
		c19.9-9.9,38.9-21.4,58.4-32c2.5-1.3,4-3,2.3-6c-1.8-3.1-4.2-2.1-6.4-0.9c-11.8,6.2-23.6,12.6-35.5,18.7
		c-18.4,9.4-37,18.4-56.4,25.6c-2.2,0.8-5.3,1.4-6.6-0.6c-0.8-1.3,1.2-3.8,2.9-5.2c9.4-7.7,20.2-13.4,30.2-20.3
		c7.7-5.2,15.4-10.6,23.1-15.7c9.8-6.4,19.1-13.6,29.1-19.7c0.5-0.3,1-0.7,1.5-1.1c2.5-1.5,2.9-3.8,1.5-6.1
		c-1.6-2.6-4.2-1.7-5.9-0.3c-7.5,5.6-15.4,10.5-23.3,15.6c-18.9,12.2-38,24.1-58.2,34.1c-2.9,1.4-7.1,4.1-9.4,0.4
		c-2.4-4,2.5-5.5,4.9-7.2c25.3-18.3,49.6-37.7,73.5-57.7c2.2-1.9,3.9-4,1.6-6.6c-2.1-2.4-4.6-2.2-7.3-0.2
		c-23.1,17.4-45.9,35.1-69.7,51.4c-3.5,2.4-7.2,4.7-10.9,6.8c-2.2,1.2-5.3,1.7-6.8-0.5c-1.4-2.1,1.3-3.7,2.8-5
		c7.3-6,14.8-11.8,22.1-17.7c18.1-14.7,36.2-29.3,54.3-44c0.3-0.2,0.6-0.5,0.9-0.7c1.5-1.3,2.5-2.7,1-4.6c-1.8-2.2-3.3-0.3-4.4,0.6
		c-8.2,7-16.5,14-24.4,21.3c-12.2,11.3-25.4,21.4-38.3,31.8c-2.3,1.8-4.6,3.7-6.8,5.5c-0.7,0.6-1.7,0.8-2.4,0.2
		c-0.2-0.2,0.1-1.4,0.5-1.9c2.6-3.1,5.1-6.3,7.8-9.2c17.7-18.8,35.5-37.5,53.2-56.3c1.7-1.8,4.8-3.8,1.5-6.8c-2.9-2.7-5-0.3-6.9,1.6
		c-12.7,12.8-25.3,25.8-38.3,38.2c-9.5,9.2-18.6,18.8-28.9,27.2c-1.7,1.4-3.4,2.5-5.6,1c-2.7-1.9-0.3-3.6,0.6-5
		c5.8-9.4,13.4-17.5,20.5-26c13-15.6,26-31.2,38.9-46.8c1.7-2,4.4-4.5,1.3-7c-2.8-2.3-5.3-0.3-7.3,2c-18.4,20.7-36,42.1-56,61.4
		c-2.1,2-4,4.2-6.3,5.9c-1.5,1.1-2.7,1.6-4.2-0.1c-1.3-1.4-1.8-2.5-0.7-4.5c6.6-11.9,15.8-22,23.6-33.1
		c9.4-13.4,19.3-26.4,28.9-39.6c1.8-2.4,4.1-4.9,0.5-7.6c-3.4-2.6-5.3,0.2-7,2.4c-10.8,13.8-21.5,27.7-32.3,41.5
		c-6.6,8.4-13.6,16.4-21,24C780.8,191.5,779.5,189.9,778.1,188.3z"/>
	<path class="st2" d="M750.1,461.9c-1.1,21.1-10.3,38.2-24.9,53c-5.1,5.2-10.5,9.7-16.6,13.7c-1.1,0.7-2.4,1.5-3.2,0.8
		c-1.1-1.1,0.8-1.8,1.3-2.5c13.5-18.8,20.2-39.7,19.6-62.9c0-0.5-0.2-1-0.3-1.5c-0.1,0.5-0.1,1-0.2,1.4c-5.1,20.5-11.8,40.3-25,57.2
		c-3.4,4.3-7.6,8.1-11.5,12c-0.6,0.6-1.5,1.2-2.2,0.6c-0.3-0.2,0-1.4,0.3-2c3.9-6.7,5-14.4,7-21.7c1.6-5.6,5.5-10.1,6.9-15.8
		c4.2-17.7,4.8-35.4,1.7-53.4c-0.2-1.2-0.8-2.5-1.9-2.4c-1.3,0.1-0.7,1.7-0.7,2.5c0.1,12.6-0.1,25.1-1.6,37.6
		c-0.9,7.3-3.7,14.3-4.1,21.7c0,0.5-0.8,1.4-1,1.4c-1-0.2-0.7-1.1-0.8-1.8c-0.1-4.7,0.2-9.5-0.3-14.2c-1-10.6-1.4-21.3-1.7-32
		c0-2.1-0.7-3.7-3.2-3.6c-2.7,0.1-2.3,2.2-2.3,3.8c-0.2,13.1-0.3,26.2-0.3,39.3c0,9.9-2.4,19.3-4.3,28.9c-0.2,1.2-0.6,1.8-1.9,1.8
		c-1.5,0-2-1.1-2.2-2.1c-1.2-6-2.5-12-3.3-18.1c-2.2-16.4-1.4-32.9-1.8-49.3c-0.1-2.3-0.2-6.4-1.5-6.3c-2.7,0.2-2.5,3.7-3,6.1
		c-0.8,4.1-0.7,8.2-0.4,12.3c0.7,11.5-1.1,22.9-1,34.3c0,0.5-0.1,0.9-0.2,1.4c-0.3-0.4-0.7-0.7-0.8-1.1c-2.6-10.4-4.7-20.9-5.7-31.7
		c-0.9-9.5-1.6-19.1-1.6-28.7c0-0.7,0.4-2-0.9-2c-0.9,0-0.7,1.2-0.8,1.9c-2.5,16.8-3.4,33.6,0.5,50.3c1.2,5,3.9,9.7,6,14.6
		c3.7,8.7,5,18.2,9.3,26.7c0.2,0.4-0.1,1.1-0.1,1.7c-0.4-0.2-0.8-0.5-1.2-0.7c-3.2-1.4-4.7-4.5-7-6.8c-9.8-10-16.8-21.9-21.9-34.8
		c-3.2-8.2-5.6-16.8-8.3-25.2c-0.2-0.6-0.4-1.1-0.7-1.6c-0.1,0.6-0.2,1.2-0.2,1.7c0.3,15.3,3.7,29.9,10.4,43.7
		c2.8,5.8,5.9,11.6,10.1,16.6c0.6,0.7,1.7,1.7,0.9,2.5c-0.8,0.9-1.9,0.2-2.9-0.4c-11.7-7.1-21.2-16.4-28.6-27.9
		c-5.7-8.9-10.2-18.3-12.5-28.7c-0.6-2.5-0.3-4.9-0.5-7.4c2.8-2.2,3.1-5.3,3.2-8.5c0.5-15.6,4.5-30.1,13.4-43.1
		c7.4-10.9,16.5-20.5,24.3-31.2c0.5-0.7,0.9-2.6,2.2-1.8c1.1,0.7,0.5,2.3-0.1,3.4c-4.4,7.7-8.8,15.3-13.2,23
		c-1.6-2.8-2.1,0.6-2.2,0.7c-3.4,5.2-6.7,10.4-9.9,15.8c-6.6,11.1-10.5,22.8-8.6,35.9c0.2,1.2-0.7,3.5,2.1,2.4
		c0.9,7.9,2.7,15.7,5.5,23.2c0.4,1.1,0.7,2.6,2.3,2.9c0.1-1.2,0.5-2.4,0.3-3.6c-2.1-12.9-0.3-25.5,2.6-37.9
		c2.8-11.6,8.5-22.1,12.5-33.3c2.9-8,6.9-15.6,10.8-23.2c6.4-12.6,15.5-23.1,23.2-34.7c1.3-2,2.3-2.2,3.8,0.1
		c2.1,3.3,4.4,6.5,6.8,9.6c3.8,5,8.4,9.7,11.6,15c7.4,12.2,13.2,25.3,18.2,38.8c5.3,14.5,11.1,28.7,13,44.2
		c0.8,6.8,0.6,13.6-0.3,20.5c-0.1,0.8-0.5,2,0.6,2.3c1.4,0.3,0.9-1.2,1.2-1.9c0.9-2.3,1.6-4.7,2.4-7c0.1-0.3,0.4-1.5,0.7-0.8
		c1,2.8,0.9,0.8,1.3-0.1c1.8-4.2,1.5-8.8,2.6-13.1c0.1,3.6,0.1,7.2,0.2,10.8c0,0.4,0,0.9,0,1.3c0.1-0.3,0.3-0.6,0.4-1
		c2.4-11.1,3.5-22.3,0.1-33.4c-3.4-11.2-9.8-20.9-15.9-30.7c-0.8-1.2-2-1.8-3.4-1.8c-0.2-0.6-0.2-1.2-0.6-1.7
		c-5.2-7.3-9.3-15.2-13.3-23.1c-0.4-0.8-1.1-1.9-0.3-2.4c0.8-0.5,1.3,0.8,1.9,1.4c7.7,7.9,14.1,17,20.9,25.6
		c8.6,10.9,14.5,23.1,16.2,37.1c0.5,4.6,1.1,9.3,1.8,13.9C747.5,459.8,747,462.3,750.1,461.9z"/>
	<path class="st2" d="M817.3,449.3c-4.8,3-7.1,8.1-10.5,12.2c-5.8,7.1-11.8,14-18.4,20.4c-3.8,3.8-8,7.1-11.9,10.7
		c-0.6,0.6-1.5,1.8-2.4,0.9c-0.8-0.9,0.6-1.3,1.1-2c6.1-8.3,13.1-16.1,17.9-25c7.7-14.5,15.6-29.1,20.3-45c0.7-2.5,2.5-4.6,2.4-7.3
		c0-0.5,0-1,0.1-1.6c-0.5,0.4-1.1,0.7-1.4,1.2c-3.2,5.6-6,11.4-8.8,17.2c-2.5,5.2-5.4,10.4-8.4,15.3c-5.9,9.6-10.7,19.9-17.3,29.1
		c-5.7,8-12.3,15.3-19.4,22c-0.5,0.4-1.4,1.5-2.1,0.5c-0.5-0.7,0.5-1.2,1-1.7c9.3-10.4,16.5-22.2,23.2-34.4
		c4.8-8.8,9.3-17.8,13.8-26.8c0.5-1,0.7-2.2,1-3.4c-0.8,0.4-1.9,0.7-2.4,1.3c-6.1,7.7-11.7,15.8-16.7,24.3
		c-3.8,6.4-7.5,12.9-12.1,18.8c-0.7,0.9-1.5,2.4-2.4,1.9c-1.2-0.7-0.2-2.2,0.3-3.3c3.5-7.5,7.5-14.7,11.2-22
		c2.8-5.7,5.8-11.3,8.6-17c0.3-0.6,0.3-1.8,0-2c-0.8-0.5-1.2,0.5-1.7,0.9c-5.4,5.1-8.8,11.8-13.7,17.3c-0.6,0.7-0.8,2-2.1,1.5
		c-1-0.4-1.1-1.5-1-2.6c0.9-8.8,3.5-17.1,8.1-24.7c0.5-0.9,0.7-2,1.5-2.8c0.3-0.3,0-1.1,0-1.7c-0.4,0.4-1,0.6-1.3,1.1
		c-3.2,3.6-6.6,7-8.9,11.3c-0.3,0.5-0.8,0.8-1.3,1.2c-0.3-0.4-0.8-0.8-0.8-1.2c-0.4-6.6-4.1-12.2-4.8-18.7c7-8.6,16-14.8,25-20.8
		c29.7-19.6,60-38.1,88.9-58.8c1.1-0.8,2.4-1.7,3.7-0.8c1.2,0.8,0.7,2.2,0.4,3.5c-2.6,11.7-5.7,23.3-7.8,35.1
		c-2.8,15.4-5.4,30.9-9.2,46.1c-3.2,12.7-8.9,24.5-15.1,36.1c-0.9,1.7-2.2,3.4-0.9,5.5c-10,13-21.5,24.4-35.2,33.8
		c-8.5,5.8-17.1,11.2-26.5,15.4c-1.3,0.6-3.3,1.4-3.6,0.5c-0.5-1.3,1.7-1.6,2.6-2c10.7-5.4,20.2-12.6,27.6-21.6
		c7.9-9.5,14.4-20.3,20.7-31.1c4.5-7.7,7.4-15.9,11.2-23.9c0.4-0.8,0.3-1.8,0.4-2.7c-0.7,0.7-1.6,1.2-2.1,2
		c-5.1,8.2-10,16.5-15.4,24.5c-5.8,8.7-12.3,17-18.7,25.3c-9,11.7-21,19.4-32.5,27.8c-6.8,5-15.2,6.8-22.5,10.8
		c-0.9,0.5-2.8,1.1-3.4-0.2c-0.7-1.4,0.8-1.9,2-2.6c16.7-10.5,34.4-19.5,47.9-34.4c8.3-9.1,15-19.4,20.9-30.2
		C816.8,451.8,816.9,450.5,817.3,449.3c0.1-0.2,0.2-0.4,0.4-0.5c0,0,0-0.2-0.1-0.2C817.5,448.8,817.4,449.1,817.3,449.3z M857,406.4
		c-0.2-0.7,0.5-2.1-0.8-2.4c-1.4-0.2-1.2,1.3-1.4,2.1c-1.9,6.4-3.7,12.9-5.7,19.3c-4.3,14.2-11.9,26.8-19.9,39.1
		c-5.3,8.3-11.4,16.1-17.2,24.2c-0.3,0.4-0.7,1-0.5,1.1c0.7,0.9,0.9-0.1,1.3-0.5c2.9-2.7,6.1-5.1,8.7-8.1
		c11.7-13.2,20.7-28.2,27.5-44.4C853.2,427.2,856.4,417.2,857,406.4z M840.8,363.4c-2.3-0.3-3.6-2.8-6.2-0.8
		c-7.3,5.6-14.2,11.9-22.2,16.7c-2.8,1.7-5.4,3.7-6.4,7.1c-0.3,0.9-0.3,1.9-0.5,2.9c0.8-0.4,1.8-0.7,2.5-1.3
		c9.8-8.5,20.2-16.1,31-23.2C839.6,364.4,840,364,840.8,363.4z"/>
	<path class="st2" d="M601.6,415.2c-1.9,5.5-3.9,11-5,16.8c-0.2,0.9-0.5,2.5-0.8,2.5c-1.2,0-1.6-1.3-2.3-2.2c-2.6-3.1-5.3-6.2-8-9.3
		c-0.6-0.7-1.3-2-2.3-1c-0.8,0.8,0.4,1.5,0.9,2.1c5.8,8.1,8.7,17.2,8.6,27.1c0,0.8,0.5,1.9-0.6,2.3c-1,0.3-1.3-0.7-1.8-1.4
		c-4.1-5.6-8.4-11.2-12.6-16.8c-0.7-0.9-1.5-2.2-2.6-1.5c-1.1,0.7-0.2,2,0.3,3c3.4,6.4,7,12.7,10.2,19.2c3.3,6.6,7.5,12.7,9,20.1
		c0.2,0.8,0.4,1.6,0.5,2.4c-0.7-0.6-1.7-1.1-2.2-1.9c-4.7-7.3-9.1-14.8-14-22c-5.1-7.6-10.5-15.1-15.8-22.6c-0.5-0.6-1-1.9-2-1.3
		c-1.1,0.6,0,1.6,0.2,2.1c4.1,8.3,8,16.6,12.4,24.7c7.4,13.6,16.1,26.4,25.2,38.9c0.4,0.6,1.9,0.8,0.7,1.8c-0.9,0.7-1.1-0.5-1.6-0.9
		c-14.2-12.3-23.4-28.3-32.5-44.2c-6.9-12.1-13.2-24.6-19.8-36.9c-0.1-0.1-0.1-0.3-0.1-0.3c-0.9-1.1-1.8-2.2-2.7-3.4
		c0.2,1.4,0,2.8,0.5,4c3.5,8.6,7.1,17.2,10.6,25.8c5,12.2,11.1,23.8,18.8,34.5c3.4,4.7,7,9.2,10.4,13.9c0.5,0.7,2.5,1.3,1.2,2.5
		c-0.9,0.9-1.9-0.5-2.8-1.2c-5.9-4.9-11.4-10.1-16.6-15.7c-7-7.6-13.5-15.6-19.7-23.7c-0.5-0.6-1-1.1-1.5-1.7
		c-0.5-0.6-1.1-1.3-1.8-0.6c-0.7,0.6,0.2,1,0.5,1.5c4.1,8.1,8.8,15.8,14.2,23.1c12.3,16.8,29.7,27.3,47,37.9
		c3.4,2.1,6.8,4.3,10.2,6.6c0.8,0.5,1.8,0.8,2,2c-1,0-2,0.2-2.9-0.1c-9.5-3.9-19-7.8-27.6-13.6c-16.7-11.3-30.9-25.1-42.4-41.7
		c-7.4-10.7-14.5-21.6-20.9-32.9c-0.7-1.1-1.6-3.2-2.6-2.6c-1.2,0.8,0,2.7,0.5,4c6.6,17.7,16.8,33.2,28,48.1
		c10.7,14.2,24.4,24.3,41,30.5c0.4,0.1,0.7,0.5,1,0.8c-0.9,0-1.8,0.3-2.6,0c-5.7-2.1-11.5-4-16.9-6.7c-6.3-3.1-12.5-6.6-17.7-11.4
		c-4.9-4.5-7.4-10.7-11.6-15.8c-9.1-11.2-17.6-22.8-23.8-36c-4.3-9.3-8.5-18.6-10.6-28.7c0-0.1,0-0.3-0.1-0.4
		c-1.5-1.5-1.1-5.6-3.4-4.9c-1.8,0.5-0.1,3.8,0.2,5.9c1.2,9.6,4.7,18.4,8.9,26.9c7.7,15.9,16.7,31,29.5,43.6c0.6,0.6,1,1.3,1.5,2
		c-1.3,0.7-1.8-0.5-2.5-1c-5.8-4.8-11.6-9.7-16-15.8c-0.2-0.3-0.5-0.5-0.7-0.8c0,0,0.1,0.1,0.1,0.1c-0.2-0.6-0.2-1.2-0.6-1.8
		c-4-6.7-8.6-13.1-11.9-20.1c-7.7-16.2-13.7-33.1-16.5-51c-3-19.9-6.5-39.8-12.5-59.1c-0.5-1.6-0.1-2.6,1.1-3.6
		c1.3-1,2.3-0.4,3.3,0.4c6.5,4.6,13,9.1,19.6,13.6c0.8,0.6,2,1,1.3,2.2c-0.6,1.1-1.7,0.8-2.6,0c-0.7-0.6-1.8-1.2-2.3-0.4
		c-0.9,1.3,0.9,1.4,1.5,1.9c11.9,8.9,24,17.7,35.9,26.7c6.8,5.2,13.3,10.7,20,16.1c0.4,0.3,0.8,1.3,1.4,0.6c0.3-0.3,0.2-1.3,0-1.7
		c-3.1-4.2-5.3-9.1-10-12.2c-7.4-4.8-14.4-10.2-21.6-15.3c-1-0.7-2.2-1.3-1.8-2.9c0,0,0.1-0.1,0.1-0.1c9,3.9,16.2,10.6,24.5,15.6
		c8.3,5,16,10.8,24.3,15.8C586.4,401.4,594.4,407.9,601.6,415.2z"/>
	<path class="st2" d="M672,246.8c-7.2-1.5-16.3-13.4-17.6-19.9c-1.8-8.8-1.7-17.3,1.2-25.5c2.9-8.4,8.4-15.7,12.2-23.7
		c2.9-6,7.4-11.2,9.3-17.8c0.3-1.2,1-1.6,1.9-2.1c1.2-0.6,1.6,0.3,2.2,1.2c3.6,6.4,7,12.8,10.9,18.9c4.2,6.5,7.9,13.4,10.6,20.6
		c4.4,11.7,5.8,23.8-0.8,35.4c-3.3,5.8-7.8,10.7-14.8,12.2c1.7-10-0.1-19.6-4.1-28.8c-0.8-1.9-1.4-4.7-3.6-4.7c-2,0-3,2.5-3.6,4.3
		C672.2,226.6,669.6,236.4,672,246.8z"/>
	<path class="st2" d="M758.9,317.7c2.9-0.1,3.6,1.4,3.7,4.2c0.1,8.2,0.5,16.4,0.9,24.7c0,1-0.5,2.7,1,2.8c1.5,0,1.6-1.7,1.7-2.9
		c0.2-8.2,0.4-16.4,0.4-24.7c0-2.2,0.3-4.2,1.8-5.9c1.9,7.7,0.1,15.3-0.4,22.9c-0.7,11.3-0.9,22.7-1,34c-0.1,4.1-0.8,7.6-4.3,10.1
		c-0.6,0.4-0.9,1.4-1.7,0.9c-0.5-0.3-0.8-1.2-0.7-1.9c0.3-4.3-0.3-8.4-0.6-12.7c-0.5-8.8-1.5-17.6-1.3-26.3
		C758.5,334.6,758,326.1,758.9,317.7z"/>
	<path class="st2" d="M703,347.2c-5.2-7-0.9-14.2-0.2-21.2c0.3-2.7-0.2-5.8,1.8-8.2c0.7-0.8,0.5-2.6,1.9-2.2
		c0.7,0.2,1.1,1.8,1.3,2.8c1.8,9.5,4.5,18.8,7.7,27.9c1.5,4.3,4.3,8.1,4.2,12.9c-0.1,1.6,0.1,3.3-1,4.6
		C712.9,358.9,707.8,353.2,703,347.2z"/>
	<path class="st2" d="M742.6,342.7c0.2,10.8,0.4,21.6,0.6,32.5c0,0.7,0.1,1.3,0.2,2c0.1-0.6,0.1-1.2,0.3-1.8
		c4.3-14,2.8-28.5,3.3-42.8c0-0.8-0.2-2.1,0.9-2.2c1.5-0.1,1.1,1.4,1.1,2.3c0.4,11,1.1,21.9,0.9,32.9c-0.1,4.3,2.2,7.7,2.5,11.8
		c0,0.4,1.2,0.6,1.9,0.9c0.1,3.8,0.3,7.7,0.2,11.5c-0.1,3.8-4,5.7-5.2,9c-0.3,0.8-1.5,0.2-1.8-0.4c-1.9-4.3-5.5-7.6-5.3-13.1
		C742.8,371.1,742.5,356.9,742.6,342.7z"/>
	<path class="st2" d="M641.4,363c-1.6-1.7-1.9-3.4-1.2-5.7c3-10.5,7.7-20.4,9.4-31.3c0.4-2.6,1-5.1,1.6-7.6c0.3-1,0.7-2.4,2.1-2.2
		c1.2,0.1,1.5,1.3,1.7,2.2c0.8,4.6,2.4,9.1,2.7,13.9c0.2,4.2,0.8,8.3,1.3,12.5C653.1,350.8,647.3,356.9,641.4,363z"/>
	<path class="st2" d="M604.6,375.1c1.4,1.5,0.1,3.6,1,5.2c0.2-1.8,0.7-3.6,1.7-5.2c1.2-1.8,1.4-3.9,1.5-6c0.3-12,0.1-24.1,1.6-36.1
		c0.1-0.9-0.4-2.5,0.8-2.5c1.5,0.1,0.8,1.8,0.9,2.7c0.5,11.5-0.5,23.2,1.5,34.6c0.2,1.1,0.2,2.2,1.1,3.1c0.4,0.4,0.6,1.1,0.8,1.7
		c0.3-0.7,0.5-1.3,0.8-2c0.1,5.9,0.2,11.7,0.2,17.6c0,4.1-2.9,6.9-4.7,10.2c-0.8,1.4-1.9,0.3-2.6-0.6c-3.7-4.5-5.6-9.4-4.7-15.4
		C604.8,380.1,604.6,377.5,604.6,375.1z"/>
	<path class="st2" d="M721.3,366.7c-0.3-11.5,1.2-22.8,1.7-34.3c0-0.7-0.2-1.7,0.7-1.8c0.2,0,0.9,1.1,1,1.7
		c0.9,5.1,2.1,10.1,2.3,15.2c0.1,3.7,1.6,6.9,1.8,10.5c0,0.3,0.6,1,0.8,0.9c0.9-0.3,0.6-1.2,0.6-1.9c0.1-6.6,0.1-13.2,0.2-19.8
		c0-0.6,0.3-1.2,0.4-1.8c0.1,0.6,0.3,1.1,0.4,1.7c1.4,5-0.3,10.5,2,15.4c0.3,0.7,0.4,1.5,1.4,1.2c0.1,7.3,0.1,14.7,0.2,22
		c0,1.3,0,2.6-1.5,3c-1.3,0.3-1.9-0.7-2.6-1.6C727.6,373.7,724.4,370.2,721.3,366.7z"/>
	<path class="st2" d="M591.8,347.8c2.8,1.3,3.9,0.2,3.9-2.7c0-7.7,0-15.4,0-23.1c0-0.7-0.4-1.8,0.6-1.9c1-0.1,0.5,1.1,0.8,1.7
		c2.4,4.3,2,9.2,2.9,13.8c0.3,15.7,0.2,31.4-0.9,47.1c0,0.5-0.3,1.3-0.7,1.5c-0.7,0.4-0.9-0.4-1.4-0.7c-3.1-2.2-4.6-4.9-4.5-8.9
		C592.5,365.7,592,356.8,591.8,347.8z"/>
	<path class="st2" d="M623.3,358.8c3.7-1,3.1-4.3,3.4-6.8c0.5-4.6,0.4-9.2,0.6-13.8c0-0.8-0.2-2.4,1.3-2.2c0.9,0.1,0.6,1.5,0.6,2.3
		c0.1,9.6,0.3,19.2,0.3,28.8c0,2.5,0.1,4.9,0.9,7.3c-0.2,3.1-3.7,3.2-5.1,5.5c-0.6,0.9-1.3-0.8-1.4-1.7
		C623.7,371.6,623.5,365.2,623.3,358.8z"/>
	<path class="st2" d="M633.6,370.2c-0.3-0.5-0.8-1.1-0.8-1.6c-0.2-11.9-0.9-23.9,1.4-35.7c0.2-0.8-0.3-2.2,1.1-2.2
		c0.2,0,0.5,1.5,0.6,2.3c0.7,11.3,1.4,22.5,2,33.8C636.8,368.4,635.3,369.4,633.6,370.2z"/>
	<path class="st2" d="M775.4,323.4c-0.3-4.5,0-9,1.3-13.3c0.1-0.4,0.4-1.2,0.6-1.2c0.9,0,0.8,0.7,0.8,1.3c0.2,4.1,0.5,8.2,0.7,12.3
		C777.8,322.8,776.6,323.1,775.4,323.4z"/>
	<path class="st0" d="M739.3,462.2c-0.2-16.6-6.2-31.5-13.9-45.8c-1.6-3-3.2-6-4.7-8.9c1.5,0,2.7,0.6,3.4,1.8
		c6.1,9.8,12.5,19.5,15.9,30.7c3.4,11.1,2.3,22.3-0.1,33.4c-0.1,0.3-0.2,0.7-0.4,1c0-0.4,0-0.9,0-1.3
		C739.4,469.4,739.3,465.8,739.3,462.2z"/>
	<path class="st0" d="M638.9,406.5c-5,9.1-10.2,18.2-13.9,28c-3.3,8.7-5.4,17.5-4.8,26.8c-2.8,1.1-2-1.2-2.1-2.4
		c-1.8-13.1,2-24.9,8.6-35.9c3.2-5.3,6.5-10.6,9.9-15.8C636.8,407,637.3,403.7,638.9,406.5z"/>
	<path class="st0" d="M857,406.4c-0.6,10.8-3.8,20.8-7.9,30.5c-6.8,16.2-15.9,31.2-27.5,44.4c-2.6,3-5.8,5.4-8.7,8.1
		c-0.4,0.3-0.6,1.3-1.3,0.5c-0.1-0.1,0.3-0.8,0.5-1.1c5.7-8,11.8-15.9,17.2-24.2c7.9-12.3,15.5-24.8,19.9-39.1
		c2-6.4,3.8-12.8,5.7-19.3c0.3-0.9,0.1-2.4,1.4-2.1C857.5,404.3,856.8,405.7,857,406.4z"/>
	<path class="st3" d="M817.3,449.3c0.1-0.3,0.2-0.5,0.3-0.8c0,0.1,0.1,0.2,0.1,0.2C817.5,449,817.4,449.1,817.3,449.3
		C817.2,449.3,817.3,449.3,817.3,449.3z"/>
	<path class="st1" d="M818.7,545.2c0.4,0.1,0.8,0.3,1.2,0.4c-0.1,0.1-0.2,0.2-0.3,0.2C819.1,545.9,818.7,545.9,818.7,545.2
		C818.8,545.2,818.7,545.2,818.7,545.2z"/>
	<path class="st1" d="M568.1,558.3c-0.5,0-1.1,0-1.6,0.1c0-0.1,0-0.2,0-0.3C567,558.1,567.5,558.2,568.1,558.3
		C568.1,558.3,568.1,558.3,568.1,558.3z"/>
</g>
</svg>
