<svg width="215" height="215" viewBox="0 0 215 215" fill="none" xmlns="http://www.w3.org/2000/svg">
<circle cx="107" cy="107" r="74.5" stroke="#4A4A4F"/>
<path d="M197.801 131.031L197.557 132.949L209.523 136.832L210.433 135.13L210.814 135.317C210.59 135.875 210.295 136.719 209.929 137.847L209.046 140.568C208.334 142.762 207.834 144.52 207.545 145.842L207.445 145.956L205.995 145.822L205.962 145.601C206.347 145.193 206.724 144.615 207.093 143.866C207.475 143.12 207.907 142.006 208.388 140.522L209.061 138.449L197.019 134.541C196.666 135.197 196.301 135.913 195.923 136.687L195.58 136.513C195.882 135.713 196.222 134.73 196.601 133.564C196.913 132.6 197.176 131.725 197.389 130.939L197.801 131.031Z" fill="#4A4A4F"/>
<path d="M188.274 155.097C187.883 155.588 187.497 156.096 187.118 156.622L186.759 156.4C187.15 155.701 187.567 154.903 188.011 154.007C188.419 153.182 188.815 152.337 189.199 151.471L189.602 151.604L189.073 153.439L193.071 153.566L193.807 151.945L196.327 146.854C195.088 145.512 194.019 144.41 193.121 143.549L193.715 142.035L194.099 142.069C194.897 143.223 195.832 144.519 196.905 145.958C197.984 147.414 198.847 148.541 199.495 149.337L203.503 154.268L202.864 155.558L188.274 155.097ZM195.979 149.181L193.796 153.59L198.85 153.749L202.411 153.995L198.52 149.368C197.819 148.53 197.235 147.861 196.768 147.362L195.979 149.181Z" fill="#4A4A4F"/>
<path d="M194.793 168.989C193.745 170.486 192.631 171.439 191.449 171.849C190.259 172.27 189.135 172.109 188.075 171.368C187.005 170.618 186.467 169.607 186.463 168.335C186.462 167.081 186.992 165.695 188.055 164.176L189.614 161.948L185.502 159.07C185.022 159.499 184.523 159.98 184.004 160.512L183.732 160.272C184.384 159.41 184.974 158.603 185.501 157.849C186.136 156.942 186.601 156.243 186.897 155.75L187.259 155.93L186.449 157.682L196.788 164.918C197.287 164.437 197.743 163.983 198.156 163.556L198.466 163.846C198.104 164.293 197.595 164.986 196.937 165.925L194.793 168.989ZM188.556 164.576C188.044 165.308 187.753 166.015 187.682 166.698C187.614 167.399 187.715 168.023 187.983 168.569C188.244 169.126 188.615 169.573 189.096 169.909C189.577 170.246 190.119 170.447 190.725 170.512C191.33 170.577 191.941 170.46 192.558 170.16C193.186 169.867 193.749 169.365 194.245 168.655L194.796 167.869L195.743 166.237L190.139 162.315L188.556 164.576Z" fill="#4A4A4F"/>
<path d="M170.508 176.916C169.989 177.269 169.47 177.64 168.952 178.031L168.675 177.712C169.255 177.16 169.89 176.522 170.579 175.797C171.213 175.13 171.841 174.439 172.464 173.726L172.81 173.972L171.761 175.569L175.543 176.873L176.726 175.541L180.639 171.424C179.852 169.775 179.157 168.406 178.554 167.318L179.569 166.047L179.926 166.194C180.347 167.532 180.857 169.047 181.456 170.738C182.056 172.449 182.548 173.78 182.93 174.733L185.301 180.628L184.309 181.672L170.508 176.916ZM179.618 173.544L176.229 177.11L181.01 178.757L184.338 180.044L181.99 174.474C181.568 173.466 181.208 172.655 180.909 172.04L179.618 173.544Z" fill="#4A4A4F"/>
<path d="M166.011 196.177L158.5 186.086C157.658 186.496 157.046 186.802 156.664 187.003L156.474 186.646C156.979 186.32 157.723 185.791 158.707 185.059C159.713 184.31 160.439 183.745 160.886 183.363L161.169 183.676L159.859 185.099L163.513 190.008L166.502 187.659L170.529 184.662L166.923 179.817C166.081 180.227 165.469 180.533 165.087 180.734L164.897 180.377C165.402 180.051 166.146 179.522 167.13 178.789C168.136 178.041 168.862 177.476 169.309 177.093L169.591 177.406L168.282 178.83L175.793 188.921L177.521 188.059L177.723 188.432C177.218 188.758 176.489 189.276 175.538 189.984C174.5 190.756 173.763 191.33 173.327 191.704L173.04 191.419L174.434 189.908L170.899 185.159L167.862 187.544L163.884 190.506L167.37 195.19L169.098 194.329L169.3 194.701C168.795 195.028 168.067 195.545 167.115 196.253C166.077 197.026 165.34 197.599 164.904 197.973L164.617 197.688L166.011 196.177Z" fill="#4A4A4F"/>
<path d="M152.112 189.322C151.449 189.782 150.887 190.191 150.426 190.548L156.229 201.844L156.442 201.735C157.818 201.028 158.843 200.427 159.518 199.93C160.198 199.446 160.709 198.981 161.05 198.536L161.274 198.534L161.656 199.934L161.558 200.051C160.276 200.56 158.615 201.338 156.575 202.386L154.991 203.2C152.951 204.247 151.351 205.144 150.19 205.891L150.038 205.901L149.123 204.775L149.255 204.595C149.815 204.577 150.491 204.432 151.281 204.161C152.077 203.902 153.163 203.419 154.539 202.713L154.735 202.612L148.959 191.369L146.953 191.927L146.842 191.579C147.737 191.164 148.583 190.753 149.377 190.344C150.326 189.857 151.159 189.407 151.876 188.993L152.112 189.322Z" fill="#4A4A4F"/>
<path d="M141.713 193.839C142.052 195.088 142.654 197.079 143.518 199.812L145.713 206.754L147.627 206.505L147.696 206.923C147.112 207.066 146.255 207.316 145.123 207.674C143.89 208.064 143.006 208.365 142.471 208.576L142.276 208.155L144.105 207.241L142.145 201.043C141.562 199.2 141.139 197.796 140.876 196.83C140.868 196.805 140.855 196.788 140.839 196.779C140.822 196.77 140.807 196.768 140.795 196.772C140.731 196.792 140.699 196.823 140.698 196.865L134.058 211.488L133.791 211.572L133.672 211.526C133.245 209.955 132.635 207.917 131.843 205.413L129.691 198.605C128.909 198.698 128.231 198.787 127.656 198.871L127.593 198.471C128.24 198.309 129.136 198.046 130.28 197.684C131.501 197.299 132.353 197.008 132.837 196.813L133.001 197.202L131.298 198.118L133.258 204.315C133.841 206.159 134.264 207.563 134.528 208.529C134.544 208.579 134.571 208.599 134.609 208.587C134.634 208.579 134.66 208.55 134.686 208.499L141.346 193.871L141.613 193.786L141.713 193.839Z" fill="#4A4A4F"/>
<path d="M117.36 213.307L115.663 200.801L113.715 200.722L113.721 200.318C114.307 200.279 115.142 200.186 116.226 200.039C117.362 199.884 118.348 199.71 119.182 199.516L119.298 199.924C118.73 200.096 118.074 200.319 117.331 200.595L118.032 205.768L120.137 205.361L121.385 205.192L122.489 203.064C123.214 201.661 123.885 200.21 124.503 198.714L126.372 198.359L126.562 198.717C125.469 200.184 124.509 201.586 123.681 202.923L122.31 205.167C123.564 205.185 124.581 205.491 125.362 206.085C126.142 206.679 126.606 207.524 126.755 208.621C126.927 209.889 126.599 210.943 125.771 211.782C124.943 212.621 123.723 213.15 122.111 213.368L118.167 213.903C117.229 214.031 116.38 214.166 115.619 214.31L115.503 213.902L117.36 213.307ZM118.113 206.362L119.014 213.001L120.796 212.901L121.946 212.745C122.672 212.646 123.278 212.396 123.761 211.994C124.247 211.605 124.592 211.128 124.798 210.562C125.006 210.009 125.07 209.442 124.991 208.86C124.911 208.266 124.697 207.73 124.349 207.252C124.004 206.788 123.545 206.433 122.974 206.187C122.402 205.942 121.753 205.868 121.026 205.967L118.113 206.362Z" fill="#4A4A4F"/>
<path d="M95.7021 199.73C96.4828 200.863 97.4806 202.252 98.6955 203.895L100.942 206.929L103.436 207.093L103.831 201.085C103.148 200.894 102.479 200.716 101.821 200.553L101.886 200.176C102.961 200.287 103.958 200.372 104.876 200.433C105.98 200.505 106.82 200.54 107.394 200.538L107.428 200.941L105.51 201.156L104.683 213.749L106.556 214.212L106.469 214.627C105.873 214.548 104.983 214.47 103.799 214.392C102.508 214.307 101.575 214.266 101.001 214.268L100.971 213.805L103.008 213.618L103.382 207.911L100.848 207.744L95.6287 213.054L97.9786 213.589L97.8873 214.064C97.0251 213.967 96.0619 213.884 94.9975 213.814C94.2125 213.762 93.393 213.729 92.5388 213.713L92.5104 213.23L94.6868 213.052L100.185 207.46L97.8396 204.721C96.5751 203.221 95.1127 201.582 93.4525 199.803L93.5732 199.49L95.7021 199.73Z" fill="#4A4A4F"/>
<path d="M79.8568 197.315C79.2871 197.052 78.7015 196.799 78.0999 196.555L78.2302 196.154C79.0024 196.367 79.8766 196.582 80.8527 196.799C81.7507 196.999 82.6661 197.182 83.5988 197.349L83.5661 197.772L81.6572 197.695L82.4867 201.609L84.2372 201.937L89.7815 203.171C90.7901 201.647 91.6054 200.347 92.2277 199.27L93.8394 199.485L93.8978 199.867C92.9676 200.916 91.9317 202.134 90.7901 203.519C89.6327 204.914 88.7444 206.021 88.1251 206.839L84.2924 211.907L82.8868 211.595L79.8568 197.315ZM87.4386 203.387L82.6361 202.319L83.6866 207.265L84.2971 210.782L87.8629 205.9C88.5097 205.019 89.0197 204.293 89.3931 203.72L87.4386 203.387Z" fill="#4A4A4F"/>
<path d="M62.7897 204.097L67.5315 192.402C66.9515 192.023 66.4071 191.68 65.8985 191.373L66.1119 191.007C66.6529 191.269 67.4733 191.623 68.573 192.069C69.7716 192.555 70.644 192.887 71.1904 193.066L71.0731 193.514L69.0809 193.052L67.1647 197.778C68.5529 197.938 69.8402 198.259 71.0264 198.74C72.5833 199.371 73.6417 200.167 74.2017 201.128C74.7494 202.084 74.7402 203.26 74.1741 204.656L72.7688 208.122C73.3489 208.501 73.8932 208.844 74.4018 209.151L74.1884 209.518C73.6474 209.255 72.827 208.901 71.7273 208.455C70.5288 207.969 69.6563 207.637 69.11 207.459L69.2272 207.01L71.2194 207.472L72.6397 203.969C73.0956 202.845 73.1743 201.905 72.8757 201.151C72.5598 200.405 71.8397 199.803 70.7153 199.347C69.4178 198.821 68.1517 198.502 66.9167 198.39L64.3541 204.71L66.1169 205.792L65.922 206.166C65.2698 205.858 64.3506 205.464 63.1644 204.983C62.1388 204.567 61.3528 204.27 60.8065 204.092L60.9012 203.699L62.7897 204.097Z" fill="#4A4A4F"/>
<path d="M53.0248 184.873L54.1006 183.726L54.2514 183.747C54.7104 184.121 55.1719 184.466 55.6359 184.78C56.0885 185.088 56.7586 185.513 57.6461 186.055L62.1351 188.797C63.1137 189.394 63.8637 189.829 64.3852 190.101L64.228 190.473L62.4122 189.763L55.8342 200.533L57.2785 201.813L57.0083 202.141C56.5399 201.808 55.8164 201.342 54.8378 200.745L51.3047 198.587C49.8027 197.669 48.6699 197.055 47.9063 196.745L47.8181 196.621L48.2501 195.338L48.4899 195.368C48.734 195.735 49.1035 196.141 49.5986 196.584C50.0822 197.02 50.8247 197.544 51.826 198.155L54.3692 199.708L57.4966 194.588L57.0358 194.306C56.1482 193.764 55.3925 193.326 54.7685 192.992C54.1263 192.662 53.4859 192.38 52.8475 192.147L52.801 191.954C52.8888 191.836 52.9883 191.686 53.0995 191.504C53.2038 191.333 53.2989 191.165 53.3848 190.999L53.5459 191.003C54.0568 191.471 54.6112 191.919 55.2092 192.347C55.7959 192.768 56.5159 193.239 57.3693 193.76L57.8302 194.042L60.9993 188.853L57.3467 186.622C56.3454 186.01 55.546 185.593 54.9487 185.368C54.333 185.149 53.7461 185.048 53.188 185.066L53.0248 184.873Z" fill="#4A4A4F"/>
<path d="M46.098 177.036C47.3162 178.074 48.2462 179.233 48.8881 180.516C49.5198 181.789 49.7799 183.088 49.6684 184.411C49.5483 185.745 48.9912 186.996 47.9971 188.163C47.0634 189.259 45.979 190.008 44.7438 190.41C43.4999 190.822 42.2223 190.872 40.9111 190.561C39.581 190.252 38.3323 189.6 37.1649 188.606C36.3325 187.897 35.6601 187.236 35.1476 186.625C34.6265 186.024 34.1486 185.371 33.714 184.668L33.6745 184.53L34.4721 182.976L34.6915 183.058C34.7217 183.907 34.9797 184.766 35.4655 185.635C35.9412 186.495 36.6003 187.284 37.4428 188.002C38.3767 188.797 39.395 189.288 40.4976 189.473C41.6002 189.659 42.7011 189.529 43.8002 189.081C44.8907 188.644 45.8811 187.902 46.7716 186.857C47.6187 185.862 48.1396 184.808 48.3342 183.695C48.5201 182.593 48.3909 181.511 47.9464 180.449C47.4831 179.389 46.7439 178.427 45.7288 177.562C44.7746 176.75 43.7973 176.18 42.7969 175.854C41.7879 175.537 40.8289 175.491 39.9199 175.715L39.8043 175.512L41.2759 174.401L41.3453 174.381C43.0622 174.915 44.6464 175.8 46.098 177.036Z" fill="#4A4A4F"/>
<path d="M38.1903 170.193C37.5884 169.655 37.0604 169.203 36.6061 168.838L26.9672 177.107L27.1235 177.289C28.1306 178.463 28.9538 179.32 29.5933 179.861C30.2226 180.41 30.7933 180.799 31.3054 181.027L31.3597 181.244L30.0866 181.941L29.9499 181.874C29.1569 180.745 28.0138 179.31 26.5205 177.569L25.3615 176.218C23.8683 174.478 22.6239 173.13 21.6285 172.174L21.5829 172.029L22.4653 170.877L22.6714 170.963C22.8192 171.504 23.1167 172.127 23.5639 172.833C24.0009 173.547 24.723 174.491 25.7301 175.665L25.8733 175.832L35.4667 167.602L34.4572 165.78L34.7694 165.591C35.3815 166.366 35.9784 167.092 36.5601 167.77C37.2546 168.58 37.8862 169.285 38.4548 169.887L38.1903 170.193Z" fill="#4A4A4F"/>
<path d="M21.3934 159.361C20.9711 158.35 20.8766 157.407 21.1098 156.531C21.3359 155.645 21.8314 154.958 22.5963 154.471C23.5638 153.856 24.5685 153.746 25.6105 154.142C26.6454 154.526 27.6531 155.489 28.6337 157.03L30.7595 160.371C31.2104 161.08 31.689 161.795 32.1951 162.516L31.8898 162.781L30.583 161.361L19.9356 168.135L20.6687 169.921L20.2821 170.096C19.8434 169.332 19.2305 168.331 18.4431 167.094L17.1225 165.018C16.235 163.623 15.8393 162.405 15.9355 161.364C16.0205 160.33 16.5298 159.517 17.4635 158.922C18.0485 158.55 18.6973 158.39 19.4101 158.442C20.1116 158.502 20.7727 158.808 21.3934 159.361ZM18.0168 165.232L19.0843 166.686L23.8934 163.626L22.6373 161.652C22.0718 160.763 21.4123 160.211 20.6586 159.995C19.8978 159.768 19.1461 159.89 18.4037 160.363C17.6612 160.835 17.2261 161.468 17.0982 162.26C16.9591 163.06 17.1686 163.898 17.7269 164.776L18.0168 165.232ZM28.1904 157.526C27.5032 156.446 26.7496 155.795 25.9295 155.574C25.0909 155.349 24.2836 155.484 23.5074 155.978C22.7312 156.472 22.2766 157.148 22.1436 158.007C21.9922 158.862 22.2672 159.841 22.9686 160.943L24.4502 163.272L29.7149 159.922L28.1904 157.526Z" fill="#4A4A4F"/>
<path d="M18.5593 138.432C18.4363 137.817 18.2957 137.194 18.1376 136.565L18.5386 136.434C18.8218 137.183 19.1633 138.016 19.5631 138.933C19.931 139.776 20.3225 140.623 20.7377 141.475L20.3767 141.698L19.3134 140.111L16.6407 143.088L17.4074 144.695L19.6785 149.901C21.504 149.818 23.0353 149.71 24.2722 149.578L25.0483 151.007L24.7743 151.279C23.3781 151.146 21.7841 151.027 19.9924 150.921C18.1831 150.808 16.7654 150.743 15.7393 150.725L9.38586 150.616L8.81009 149.297L18.5593 138.432ZM18.1229 148.136L16.1557 143.626L12.7791 147.391L10.2981 149.957L16.3436 149.96C17.4362 149.963 18.3237 149.947 19.0063 149.911L18.1229 148.136Z" fill="#4A4A4F"/>
<path d="M14.5983 106.062C14.5705 107.502 14.2383 108.822 13.6016 110.023C12.9653 111.211 12.087 112.148 10.9669 112.833C9.84682 113.518 8.58024 113.847 7.16717 113.82C5.7541 113.793 4.50077 113.435 3.40717 112.747C2.30024 112.059 1.45175 111.109 0.86169 109.898C0.258556 108.672 -0.0279587 107.28 0.00214694 105.72C0.0301941 104.267 0.362535 102.94 0.99917 101.739C1.6358 100.537 2.51417 99.5943 3.63427 98.9091C4.75437 98.2239 6.02095 97.8949 7.43402 97.9222C8.84709 97.9495 10.107 98.3139 11.2136 99.0154C12.3072 99.7033 13.1556 100.66 13.7587 101.885C14.3485 103.11 14.6284 104.502 14.5983 106.062ZM13.9557 106.19C13.9791 104.977 13.7268 103.885 13.1988 102.914C12.6574 101.944 11.8654 101.175 10.8228 100.608C9.78049 100.028 8.54612 99.724 7.11972 99.6965C5.90662 99.6731 4.81526 99.9054 3.84566 100.393C2.86273 100.881 2.08924 101.573 1.52517 102.469C0.961112 103.365 0.667888 104.393 0.645502 105.553C0.622601 106.739 0.881706 107.824 1.42282 108.808C1.95086 109.779 2.73604 110.554 3.77837 111.134C4.8207 111.714 6.05507 112.018 7.48147 112.046C8.68124 112.069 9.7726 111.837 10.7555 111.349C11.7387 110.848 12.5123 110.149 13.0764 109.253C13.6405 108.357 13.9336 107.336 13.9557 106.19Z" fill="#4A4A4F"/>
<path d="M2.18332 87.2546C2.5187 85.459 3.13985 84.1305 4.04677 83.269C4.95614 82.3944 6.04649 82.0759 7.31784 82.3134C8.60229 82.5533 9.50948 83.2517 10.0394 84.4087C10.5587 85.5501 10.6482 87.0317 10.3079 88.8535L9.80848 91.5273L14.7431 92.449C15.0024 91.8599 15.2583 91.2159 15.5109 90.5171L15.8574 90.6225C15.6198 91.6768 15.4166 92.6561 15.2476 93.5605C15.0445 94.6483 14.9099 95.4777 14.8439 96.0487L14.4397 96.0342L14.4544 94.1041L2.04888 91.787C1.79297 92.431 1.56528 93.0327 1.36582 93.5923L0.963976 93.4562C1.10856 92.8999 1.28612 92.0582 1.49665 90.9311L2.18332 87.2546ZM9.6861 88.6967C9.85012 87.8185 9.82338 87.054 9.60587 86.403C9.37771 85.7364 9.02842 85.21 8.55801 84.8237C8.09005 84.4244 7.56772 84.1708 6.99103 84.0631C6.41433 83.9554 5.83693 83.9967 5.2588 84.1872C4.68068 84.3776 4.1727 84.7371 3.73487 85.2657C3.28394 85.7919 2.97891 86.4809 2.81979 87.3328L2.64353 88.2765L2.45564 90.1539L9.17936 91.4098L9.6861 88.6967Z" fill="#4A4A4F"/>
<path d="M16.8319 83.5235L17.0832 81.6061L5.13232 77.6777L4.216 79.3765L3.83574 79.1884C4.06111 78.6309 4.35907 77.7884 4.72964 76.6611L5.62275 73.9441C6.34307 71.7528 6.85016 69.9967 7.14402 68.6757L7.24474 68.5615L8.69366 68.7009L8.7262 68.9221C8.33998 69.3285 7.9608 69.9056 7.58865 70.6535C7.20384 71.3972 6.76786 72.51 6.28071 73.992L5.59995 76.063L17.6268 80.0164C17.9825 79.3614 18.3506 78.6473 18.7311 77.8741L19.0733 78.0497C18.7688 78.8479 18.4251 79.8296 18.042 80.995C17.7256 81.9576 17.4594 82.8315 17.2434 83.6167L16.8319 83.5235Z" fill="#4A4A4F"/>
<path d="M26.4039 59.5436C26.7973 59.0545 27.1848 58.5476 27.5663 58.0228L27.9241 58.2463C27.5307 58.944 27.1105 59.7402 26.6635 60.6347C26.2523 61.4577 25.853 62.3015 25.4656 63.1662L25.0631 63.0322L25.5993 61.1985L21.6012 61.0564L20.8592 62.6755L18.3203 67.7564C19.5549 69.1037 20.6196 70.2096 21.5142 71.074L20.9153 72.5857L20.5307 72.55C19.7374 71.3934 18.8068 70.0937 17.7391 68.651C16.6655 67.1904 15.8065 66.0606 15.1623 65.2618L11.172 60.3166L11.8157 59.0284L26.4039 59.5436ZM18.6775 65.4308L20.8767 61.0297L15.8231 60.8521L12.2633 60.5936L16.1373 65.2347C16.8351 66.0753 17.4167 66.7459 17.8819 67.2467L18.6775 65.4308Z" fill="#4A4A4F"/>
<path d="M25.2557 39.594L35.3472 47.1052C36.0356 46.4707 36.5339 46.0022 36.8421 45.6997L37.1271 45.9867C36.7368 46.4441 36.1754 47.1648 35.443 48.1488C34.6947 49.1542 34.1614 49.9042 33.8432 50.3987L33.4824 50.18L34.3281 48.4409L29.4187 44.7868L27.23 47.8948L24.2327 51.9218L29.078 55.5281C29.7663 54.8936 30.2646 54.4251 30.5728 54.1227L30.8579 54.4096C30.4676 54.8671 29.9062 55.5878 29.1738 56.5718C28.4254 57.5772 27.8922 58.3272 27.574 58.8217L27.2132 58.603L28.0588 56.8639L17.9673 49.3527L16.5601 50.6739L16.259 50.375C16.6494 49.9175 17.1988 49.2129 17.9073 48.2609C18.6795 47.2234 19.2208 46.4628 19.531 45.979L19.8877 46.1697L18.9864 48.017L23.7354 51.5516L25.9599 48.3955L28.9213 44.4166L24.2366 40.9297L22.8294 42.2509L22.5283 41.952C22.9186 41.4946 23.468 40.7899 24.1766 39.838C24.9488 38.8005 25.49 38.0398 25.8002 37.556L26.1569 37.7467L25.2557 39.594Z" fill="#4A4A4F"/>
<path d="M39.5485 43.6189C38.714 42.6294 37.3284 41.0779 35.3916 38.9644L30.4732 33.5972L28.8427 34.6301L28.6032 34.28C29.0725 33.9041 29.7447 33.3153 30.6195 32.5136C31.5731 31.6398 32.2477 30.9945 32.6433 30.5776L32.9983 30.8762L31.7253 32.4769L36.1168 37.269C37.4229 38.6944 38.3991 39.7892 39.0452 40.5535C39.0632 40.5732 39.0817 40.5834 39.1005 40.5842C39.1193 40.5851 39.1337 40.581 39.1435 40.572C39.1926 40.5269 39.2086 40.4852 39.1914 40.4467L39.0428 24.3877L39.2492 24.1986L39.377 24.19C40.4268 25.4343 41.8391 27.0247 43.6137 28.9612L48.4375 34.2253C49.1068 33.8109 49.6843 33.4445 50.17 33.1259L50.396 33.4614C49.8775 33.8823 49.1759 34.4981 48.2912 35.3089C47.3475 36.1736 46.6974 36.7964 46.3411 37.1772L46.0278 36.8946L47.1854 35.3455L42.7939 30.5534C41.4878 29.128 40.5116 28.0332 39.8655 27.2689C39.8295 27.2296 39.7967 27.2234 39.7672 27.2505C39.7475 27.2685 39.7365 27.3057 39.734 27.3622L39.8679 43.4347L39.6615 43.6239L39.5485 43.6189Z" fill="#4A4A4F"/>
<path d="M54.4214 15.0163L61.1569 25.6886C61.8032 25.4384 62.3992 25.1962 62.9452 24.962L63.1186 25.3493C62.5898 25.6357 61.8237 26.0955 60.8202 26.7289C59.7265 27.4191 58.9479 27.9342 58.4844 28.274L58.1881 27.917L59.7256 26.5683L57.0036 22.2554C56.064 23.2899 55.053 24.1487 53.9706 24.8319C52.5499 25.7285 51.2859 26.1241 50.1788 26.0188C49.083 25.9063 48.133 25.2129 47.3289 23.9388L45.3328 20.776C44.6866 21.0262 44.0905 21.2684 43.5445 21.5026L43.3711 21.1154C43.8999 20.829 44.666 20.3691 45.6695 19.7358C46.7632 19.0455 47.5419 18.5304 48.0054 18.1906L48.3016 18.5476L46.7642 19.8963L48.7816 23.0929C49.4292 24.119 50.1463 24.7306 50.933 24.9279C51.7239 25.1067 52.6323 24.8724 53.6584 24.2248C54.8423 23.4776 55.84 22.6351 56.6513 21.6973L53.0114 15.9299L51.1048 16.7311L50.9144 16.3546C51.5447 16.0042 52.401 15.4874 53.4834 14.8042C54.4193 14.2136 55.119 13.7483 55.5825 13.4085L55.8467 13.7147L54.4214 15.0163Z" fill="#4A4A4F"/>
<path d="M75.4441 18.3097L75.7551 19.8515L75.6499 19.9617C75.079 20.1187 74.5308 20.295 74.0054 20.4906C73.4923 20.6809 72.7575 20.9804 71.8012 21.3891L66.9644 23.4562C65.91 23.9068 65.1209 24.2658 64.5972 24.5331L64.3848 24.1889L66.0167 23.1217L61.0572 11.5171L59.1764 11.9511L59.0666 11.5413C59.6095 11.3528 60.4081 11.0332 61.4626 10.5826L65.2695 8.95562C66.8879 8.26396 68.0448 7.69701 68.7403 7.25478L68.8926 7.25493L69.6872 8.35083L69.5242 8.52924C69.0831 8.51479 68.5385 8.58077 67.8906 8.72717C67.2549 8.86834 66.3976 9.16948 65.3187 9.63058L62.5784 10.8017L64.9364 16.319L65.4329 16.1067C66.3892 15.698 67.1845 15.3364 67.8185 15.0219C68.4597 14.6899 69.0605 14.3316 69.6212 13.947L69.8049 14.0208C69.8503 14.1609 69.9149 14.329 69.9987 14.5252C70.0773 14.7091 70.1594 14.8842 70.2451 15.0507L70.1478 15.1792C69.4701 15.3239 68.7836 15.5158 68.0883 15.7549C67.4053 15.9888 66.604 16.3023 65.6844 16.6952L65.1879 16.9075L67.5772 22.4983L71.5129 20.8163C72.5918 20.3552 73.3958 19.9463 73.9249 19.5897C74.461 19.2156 74.8834 18.7958 75.192 18.3305L75.4441 18.3097Z" fill="#4A4A4F"/>
<path d="M85.996 17.1362C84.4426 17.5194 82.958 17.5972 81.5423 17.3697C80.1395 17.1389 78.9334 16.5918 77.9239 15.7285C76.9112 14.8522 76.2213 13.6697 75.8541 12.181C75.5092 10.7829 75.5343 9.46519 75.9295 8.22787C76.3215 6.9776 77.0265 5.91103 78.0447 5.02815C79.0727 4.12913 80.331 3.496 81.8197 3.12877C82.8812 2.86691 83.8098 2.70651 84.6055 2.64756C85.398 2.57566 86.2065 2.56849 87.0309 2.62604L87.1666 2.67497L87.9621 4.2297L87.7677 4.36006C87.061 3.88894 86.213 3.59686 85.2238 3.48382C84.2475 3.36758 83.2222 3.44198 82.1477 3.70703C80.9568 4.00082 79.9639 4.54099 79.1692 5.32756C78.3744 6.11413 77.8378 7.08421 77.5593 8.23782C77.2776 9.37847 77.3012 10.6155 77.6302 11.9489C77.9431 13.2175 78.4945 14.2557 79.2842 15.0633C80.0708 15.8581 81.0247 16.385 82.1461 16.6439C83.2771 16.8868 84.4899 16.8485 85.7845 16.5292C87.0013 16.229 88.0344 15.7682 88.8836 15.1467C89.7296 14.5123 90.3269 13.7607 90.6757 12.8919L90.9084 12.9169L90.9512 14.7603L90.9267 14.8281C89.4908 15.9102 87.8472 16.6796 85.996 17.1362Z" fill="#4A4A4F"/>
<path d="M104.736 14.3841C103.798 13.3767 102.608 12.1489 101.166 10.7008L98.5011 8.02769L96.0093 8.22996L96.4964 14.2302C97.1993 14.3203 97.8879 14.3982 98.5621 14.4639L98.553 14.8458C97.4733 14.8934 96.4749 14.9543 95.5579 15.0288C94.4549 15.1183 93.6193 15.2062 93.0511 15.2925L92.9589 14.8986L94.8252 14.406L93.8041 1.8274L91.8828 1.64224L91.9086 1.21876C92.5099 1.21009 93.4019 1.15774 94.5847 1.06173C95.8738 0.957086 96.8024 0.861636 97.3707 0.77538L97.4677 1.22902L95.4802 1.7114L95.943 7.41265L98.4747 7.20714L102.862 1.19241L100.459 1.00622L100.48 0.522942C101.347 0.492688 102.313 0.43441 103.376 0.348106C104.16 0.284457 104.976 0.198177 105.823 0.0892657L105.921 0.562837L103.794 1.05655L99.1719 7.39134L101.892 9.75898C103.362 11.0576 105.048 12.4658 106.951 13.9836L106.877 14.3106L104.736 14.3841Z" fill="#4A4A4F"/>
<path d="M109.228 14.3815C109.401 13.0987 109.62 11.03 109.885 8.17564L110.557 0.926796L108.697 0.412657L108.795 0C109.389 0.0952789 110.277 0.197753 111.458 0.307422C112.746 0.426948 113.677 0.493291 114.252 0.506448L114.269 0.970025L112.228 1.10197L111.628 7.57415C111.449 9.49921 111.294 10.9578 111.161 11.9498C111.159 11.9763 111.164 11.9969 111.176 12.0114C111.188 12.0259 111.2 12.0337 111.214 12.035C111.28 12.0411 111.322 12.0249 111.339 11.9863L123.136 1.08999L123.415 1.11587L123.507 1.20477C123.29 2.81831 123.061 4.9328 122.818 7.54822L122.158 14.6577C122.915 14.8752 123.574 15.0569 124.136 15.2028L124.039 15.5956C123.379 15.4941 122.452 15.3879 121.257 15.277C119.982 15.1587 119.084 15.0955 118.563 15.0873L118.562 14.6654L120.487 14.4825L121.088 8.01031C121.266 6.08525 121.422 4.62671 121.554 3.63468C121.559 3.58158 121.542 3.55318 121.502 3.54948C121.475 3.54702 121.44 3.56385 121.397 3.59998L109.579 14.4945L109.301 14.4686L109.228 14.3815Z" fill="#4A4A4F"/>
<path d="M126.134 16.2386C126.542 15.0103 127.142 13.0185 127.934 10.2634L129.944 3.26647L128.212 2.41498L128.386 2.02789C128.951 2.23203 129.805 2.49795 130.945 2.82567C132.188 3.18284 133.091 3.42137 133.653 3.54125L133.583 3.99993L131.554 3.74964L129.758 9.99687C129.225 11.855 128.8 13.2591 128.486 14.2092C128.478 14.2348 128.479 14.2559 128.488 14.2724C128.497 14.2889 128.508 14.299 128.521 14.3026C128.585 14.3211 128.629 14.3129 128.653 14.2781L142.273 5.76843L142.542 5.84575L142.616 5.95026C142.103 7.49526 141.483 9.53001 140.758 12.0545L138.786 18.9169C139.489 19.2714 140.103 19.5727 140.628 19.8207L140.46 20.1886C139.83 19.966 138.939 19.6891 137.786 19.3577C136.555 19.0042 135.685 18.7749 135.174 18.6697L135.252 18.255L137.177 18.4337L138.972 12.1865C139.506 10.3283 139.93 8.92421 140.245 7.97415C140.26 7.92289 140.248 7.89174 140.209 7.88069C140.184 7.87333 140.146 7.88334 140.097 7.91074L126.458 16.4149L126.189 16.3376L126.134 16.2386ZM136.16 2.34723C135.673 2.2073 135.182 2.03166 134.688 1.8203L134.628 1.74054L134.701 0.617041L134.904 0.63383C135.369 0.947708 135.901 1.24612 136.499 1.52906C137.114 1.80288 137.691 2.01711 138.229 2.17176C138.806 2.33746 139.359 2.46191 139.89 2.54512L139.829 2.90217L139.769 2.96801C138.721 2.94446 137.518 2.73754 136.16 2.34723Z" fill="#4A4A4F"/>
<path d="M146.501 22.2706L148.32 22.9175L154.578 11.9584L153.096 10.721L153.357 10.386C153.858 10.7183 154.624 11.1786 155.654 11.7671L164.772 16.9739C165.733 17.5226 166.467 17.9185 166.973 18.1615L166.827 18.5386L164.991 17.8817L158.733 28.8408C159.143 29.1979 159.643 29.6137 160.232 30.0882L159.971 30.4231C159.47 30.0909 158.698 29.6272 157.656 29.0321C156.545 28.3974 155.724 27.952 155.195 27.6958L155.389 27.2765L157.284 27.9904L163.522 17.066L156.037 12.7915L149.789 23.7332C150.169 24.0887 150.693 24.5417 151.362 25.0922L151.148 25.385C150.23 24.8147 149.372 24.3014 148.573 23.8452C147.612 23.2964 146.873 22.8973 146.355 22.6477L146.501 22.2706Z" fill="#4A4A4F"/>
<path d="M174.332 23.9877C175.757 25.131 176.635 26.3058 176.966 27.512C177.308 28.7265 177.074 29.8381 176.264 30.8468C175.447 31.8658 174.403 32.3358 173.132 32.2568C171.881 32.1757 170.533 31.5551 169.087 30.3951L166.966 28.6926L163.824 32.6077C164.221 33.1143 164.668 33.6439 165.165 34.1965L164.908 34.4522C164.091 33.745 163.323 33.1035 162.606 32.5277C161.743 31.835 161.075 31.3248 160.603 30.9972L160.807 30.6476L162.501 31.5717L170.4 21.7295C169.953 21.1999 169.53 20.7151 169.131 20.2751L169.441 19.9851C169.863 20.3752 170.521 20.9291 171.416 21.6468L174.332 23.9877ZM169.519 29.921C170.216 30.4802 170.902 30.8175 171.579 30.9331C172.274 31.0467 172.903 30.9873 173.466 30.7549C174.039 30.5309 174.509 30.1902 174.876 29.7326C175.243 29.2751 175.479 28.7466 175.585 28.147C175.69 27.5475 175.612 26.9299 175.353 26.2944C175.102 25.6485 174.639 25.0543 173.963 24.5119L173.214 23.911L171.648 22.859L167.367 28.1935L169.519 29.921Z" fill="#4A4A4F"/>
<path d="M175.851 44.9881C174.89 43.9159 174.233 42.7234 173.88 41.4106C173.535 40.1077 173.539 38.8237 173.892 37.5588C174.244 36.2939 174.946 35.1898 175.999 34.2463C177.051 33.3029 178.212 32.71 179.481 32.4676C180.76 32.2164 182.028 32.3328 183.286 32.8169C184.562 33.302 185.721 34.1253 186.762 35.2869C187.733 36.369 188.394 37.5665 188.748 38.8793C189.101 40.1922 189.101 41.481 188.749 42.7459C188.397 44.0109 187.694 45.115 186.642 46.0585C185.59 47.0019 184.42 47.5943 183.132 47.8356C181.863 48.078 180.59 47.9566 179.313 47.4715C178.047 46.9775 176.893 46.1497 175.851 44.9881ZM176.235 44.4567C177.044 45.3601 177.973 45.9868 179.021 46.3366C180.079 46.6776 181.183 46.7001 182.332 46.404C183.49 46.1178 184.6 45.4985 185.662 44.5462C186.566 43.7363 187.206 42.8223 187.582 41.8042C187.969 40.7772 188.063 39.7437 187.865 38.7037C187.667 37.6637 187.18 36.7118 186.406 35.8481C185.614 34.9645 184.684 34.3473 183.618 33.9964C182.57 33.6465 181.467 33.6146 180.309 33.9008C179.151 34.187 178.041 34.8062 176.978 35.7586C176.085 36.5596 175.445 37.4736 175.058 38.5006C174.681 39.5375 174.591 40.576 174.789 41.616C174.987 42.656 175.469 43.6029 176.235 44.4567Z" fill="#4A4A4F"/>
<path d="M191.584 65.6813L191.584 65.7979L188.025 67.6439L187.681 67.0806L190.136 64.8077L187.737 60.6488L185.86 57.5765L183.266 53.5597L180.133 54.7232L179.769 54.1258L183.005 51.7507L183.119 51.8218L184.045 53.1077C185.21 53.0207 186.549 52.8981 188.062 52.7399C189.593 52.586 190.879 52.441 191.921 52.3047L198.517 51.4398L199.226 52.6005L190.935 64.3898L191.584 65.6813ZM189.929 62.8953L195.502 54.9451L197.569 52.2293L191.437 53.1626C188.648 53.5848 186.422 54.0071 184.758 54.4295L189.929 62.8953Z" fill="#4A4A4F"/>
<path d="M190.181 69.8874L190.525 69.7261C191.49 70.083 192.317 70.3664 193.007 70.5761C193.713 70.7931 194.617 71.0526 195.718 71.3544L203.445 61.5097C203.333 60.9506 203.197 60.3298 203.035 59.6472L203.447 59.545C203.67 60.2026 203.977 61.0132 204.368 61.977C204.789 63.015 205.168 63.8971 205.506 64.6235L205.102 64.8519L204.121 63.1778L197.542 71.5427L201.993 71.9824C203.031 72.0939 204.15 72.1728 205.348 72.2192C206.564 72.2729 207.644 72.2741 208.587 72.2226L209.265 73.523L208.947 73.8031C207.819 73.5409 206.697 73.3271 205.579 73.1615C204.467 73.0082 203.187 72.8508 201.741 72.6892L195.691 72.0342C193.33 71.7828 191.6 71.578 190.5 71.4198L190.181 69.8874Z" fill="#4A4A4F"/>
<path d="M199.001 91.5595C199.862 90.4854 200.904 89.1299 202.128 87.4931L204.386 84.4684L203.824 82.0323L197.958 83.385C197.971 84.0935 197.994 84.7861 198.027 85.4627L197.647 85.5091C197.444 84.4477 197.238 83.4688 197.032 82.5723C196.783 81.494 196.575 80.6799 196.407 80.1302L196.783 79.9819L197.542 81.7569L209.839 78.9213L209.743 76.9935L210.166 76.9576C210.262 77.5512 210.443 78.4262 210.71 79.5825C211 80.8428 211.229 81.7478 211.397 82.2974L210.963 82.4593L210.197 80.5628L204.623 81.8481L205.194 84.3231L211.782 87.7916L211.617 85.387L212.098 85.3377C212.254 86.1912 212.452 87.1376 212.691 88.177C212.868 88.9435 213.072 89.7381 213.303 90.5606L212.848 90.7269L212.051 88.6941L205.113 85.0397L203.165 88.0749C202.093 89.7177 200.945 91.5903 199.719 93.6928L199.385 93.6673L199.001 91.5595Z" fill="#4A4A4F"/>
<path d="M200.055 96.5818C200.229 97.3698 200.393 98.045 200.548 98.6072L213.203 97.5309L213.182 97.2918C213.051 95.7507 212.884 94.574 212.681 93.7616C212.492 92.948 212.256 92.299 211.974 91.8145L212.056 91.6068L213.497 91.7853L213.568 91.9197C213.552 93.2994 213.641 95.1318 213.835 97.4169L213.986 99.1905C214.18 101.476 214.402 103.297 214.651 104.654L214.603 104.798L213.214 105.218L213.097 105.027C213.294 104.502 213.416 103.822 213.466 102.988C213.529 102.153 213.495 100.965 213.364 99.4241L213.345 99.2049L200.75 100.276L200.505 102.344L200.141 102.315C200.097 101.329 200.037 100.39 199.962 99.5001C199.871 98.4373 199.771 97.4957 199.661 96.6754L200.055 96.5818Z" fill="#4A4A4F"/>
</svg>
