<svg width="35" height="34" viewBox="0 0 35 34" fill="none" xmlns="http://www.w3.org/2000/svg">
<path fill-rule="evenodd" clip-rule="evenodd" d="M34.5 17C34.5 26.3888 26.8888 34 17.5 34C8.11116 34 0.5 26.3888 0.5 17C0.5 7.61116 8.11116 0 17.5 0C26.8888 0 34.5 7.61116 34.5 17ZM18.1092 12.5502C16.4557 13.2379 13.151 14.6614 8.19516 16.8206C7.39041 17.1406 6.96885 17.4536 6.93047 17.7598C6.86561 18.2771 7.51349 18.4809 8.39574 18.7583C8.51575 18.796 8.64009 18.8351 8.76756 18.8765C9.63555 19.1587 10.8032 19.4888 11.4101 19.5019C11.9607 19.5138 12.5753 19.2868 13.2537 18.8209C17.8841 15.6953 20.2744 14.1154 20.4244 14.0813C20.5303 14.0573 20.677 14.0271 20.7764 14.1155C20.8758 14.2038 20.866 14.3711 20.8555 14.416C20.7913 14.6896 18.2481 17.054 16.9321 18.2775C16.5218 18.659 16.2308 18.9295 16.1713 18.9913C16.038 19.1298 15.9022 19.2607 15.7716 19.3865C14.9652 20.1639 14.3605 20.7468 15.8051 21.6988C16.4993 22.1563 17.0548 22.5346 17.609 22.912C18.2142 23.3241 18.8179 23.7352 19.5989 24.2472C19.7979 24.3777 19.988 24.5131 20.1731 24.6451C20.8774 25.1472 21.5102 25.5984 22.292 25.5264C22.7462 25.4846 23.2155 25.0575 23.4538 23.7835C24.017 20.7728 25.124 14.2495 25.3798 11.5614C25.4022 11.3259 25.374 11.0245 25.3514 10.8921C25.3287 10.7598 25.2814 10.5713 25.1094 10.4318C24.9057 10.2665 24.5913 10.2316 24.4507 10.234C23.8113 10.2454 22.8303 10.5865 18.1092 12.5502Z" fill="#4A4A4F"/>
</svg>
