<svg width="35" height="34" viewBox="0 0 35 34" fill="none" xmlns="http://www.w3.org/2000/svg">
<path fill-rule="evenodd" clip-rule="evenodd" d="M2.88 2.38C0.5 4.78267 0.5 8.62467 0.5 16.32V17.68C0.5 25.364 0.5 29.206 2.88 31.62C5.28267 34 9.12467 34 16.82 34H18.18C25.864 34 29.706 34 32.12 31.62C34.5 29.2173 34.5 25.3753 34.5 17.68V16.32C34.5 8.636 34.5 4.794 32.12 2.38C29.7173 0 25.8753 0 18.18 0H16.82C9.136 0 5.294 0 2.88 2.38ZM6.23466 10.3473C6.416 19.1873 10.836 24.4913 18.588 24.4913H19.0413V19.4367C21.886 19.72 24.0393 21.8053 24.9007 24.4913H28.924C28.5113 22.965 27.7798 21.5436 26.7776 20.3207C25.7755 19.0977 24.5255 18.1012 23.11 17.3967C24.3784 16.6243 25.4738 15.5986 26.3279 14.3837C27.182 13.1689 27.7764 11.7909 28.074 10.336H24.4247C23.6313 13.1467 21.274 15.6967 19.0413 15.9347V10.3473H15.3807V20.1393C13.114 19.5727 10.258 16.83 10.1333 10.3473H6.23466Z" fill="#4A4A4F"/>
</svg>
